<svg width="31" height="43" viewBox="0 0 31 43" fill="none" xmlns="http://www.w3.org/2000/svg">
<rect width="31" height="43" rx="5" fill="white"/>
<path d="M16.5962 14.656C16.5962 14.88 16.6762 15.08 16.8362 15.256C16.9962 15.416 17.1882 15.496 17.4122 15.496H22.6442C22.8842 15.496 23.0842 15.576 23.2442 15.736C23.4042 15.896 23.4842 16.096 23.4842 16.336V24.904C23.4842 25.144 23.4282 25.4 23.3162 25.672C23.2042 25.944 23.0602 26.168 22.8842 26.344L22.3082 26.92C22.1322 27.096 21.9082 27.24 21.6362 27.352C21.3642 27.464 21.1082 27.52 20.8682 27.52H17.4122C17.1882 27.52 16.9962 27.6 16.8362 27.76C16.6762 27.92 16.5962 28.112 16.5962 28.336V32.656C16.5962 32.88 16.5082 33.072 16.3322 33.232C16.1722 33.408 15.9802 33.496 15.7562 33.496H15.1802C14.9562 33.496 14.7642 33.408 14.6042 33.232C14.4442 33.072 14.3642 32.88 14.3642 32.656V28.336C14.3642 28.112 14.2842 27.92 14.1242 27.76C13.9642 27.6 13.7642 27.52 13.5242 27.52H8.31622C8.09222 27.52 7.90022 27.44 7.74022 27.28C7.58022 27.104 7.50022 26.904 7.50022 26.68V16.336C7.50022 16.096 7.58022 15.896 7.74022 15.736C7.90022 15.576 8.09222 15.496 8.31622 15.496H13.5242C13.7642 15.496 13.9642 15.416 14.1242 15.256C14.2842 15.08 14.3642 14.88 14.3642 14.656V12.28C14.3642 12.056 14.4442 11.864 14.6042 11.704C14.7642 11.544 14.9562 11.464 15.1802 11.464H15.7562C15.9802 11.464 16.1722 11.544 16.3322 11.704C16.5082 11.864 16.5962 12.056 16.5962 12.28V14.656ZM13.5242 25.288C13.7642 25.288 13.9642 25.208 14.1242 25.048C14.2842 24.888 14.3642 24.688 14.3642 24.448V18.544C14.3642 18.32 14.2842 18.128 14.1242 17.968C13.9642 17.808 13.7642 17.728 13.5242 17.728H10.5722C10.3322 17.728 10.1322 17.808 9.97222 17.968C9.81222 18.128 9.73222 18.32 9.73222 18.544V24.448C9.73222 24.688 9.81222 24.888 9.97222 25.048C10.1322 25.208 10.3322 25.288 10.5722 25.288H13.5242ZM17.4122 17.728C17.1882 17.728 16.9962 17.808 16.8362 17.968C16.6762 18.128 16.5962 18.32 16.5962 18.544V24.448C16.5962 24.688 16.6762 24.888 16.8362 25.048C16.9962 25.208 17.1882 25.288 17.4122 25.288H20.4122C20.6522 25.288 20.8522 25.208 21.0122 25.048C21.1722 24.888 21.2522 24.688 21.2522 24.448V18.544C21.2522 18.32 21.1722 18.128 21.0122 17.968C20.8522 17.808 20.6522 17.728 20.4122 17.728H17.4122Z" fill="#D34747"/>
</svg>
