<svg width="31" height="43" viewBox="0 0 31 43" fill="none" xmlns="http://www.w3.org/2000/svg">
<path fill-rule="evenodd" clip-rule="evenodd" d="M16.2747 22.3981C16.3547 24.3101 16.444 26.2235 16.3387 28.1371C16.28 29.2167 16.1947 30.2953 16.0347 31.3652C15.8693 32.4548 15.6574 33.5469 15.1934 34.5537C15.108 34.7443 14.988 34.7896 14.7987 34.6995C14.6347 34.6245 14.596 34.5371 14.6347 34.3652C14.7493 33.8615 14.8227 33.348 14.8613 32.8308C14.9107 32.3095 14.9374 31.7855 14.96 31.2631C15 30.2089 15.0174 29.1548 15.02 28.0995C15.0187 26.2208 15.084 24.3408 15.0907 22.4621C14.404 22.5021 13.7173 22.5448 13.0307 22.5954C12.0613 22.6581 11.0907 22.7275 10.1254 22.8408C10.1254 22.8901 10.1254 22.9408 10.124 22.9901C10.1187 23.4141 10.0747 23.8381 9.95337 24.2475C9.89337 24.4488 9.78937 24.5035 9.5867 24.4501C9.45337 24.4115 9.41736 24.3635 9.3827 24.2475L8.74402 22.0461C8.52402 21.3181 8.41336 20.5648 8.21069 19.8315C8.00536 19.0955 7.78137 18.3648 7.55337 17.6341C7.3307 16.8941 7.08402 16.1621 6.87068 15.4208C6.80802 15.2155 6.87469 15.1115 7.07202 15.0515C7.24935 15.0008 7.34137 15.0421 7.4227 15.2075C7.5307 15.4315 7.63736 15.6568 7.74402 15.8821C10.1614 15.4435 12.5654 14.9341 14.992 14.5421C14.968 12.6781 14.9333 10.8128 14.9693 8.94745C14.9733 8.74212 15.0587 8.6528 15.2667 8.65813C15.4747 8.65813 15.556 8.74878 15.5613 8.94478C15.6187 10.7688 15.744 12.5875 15.8613 14.4075C17.072 14.2275 18.288 14.0808 19.5134 14.0195C20.22 13.9888 20.928 13.9835 21.636 14.0568C22.4293 14.1568 23.1694 14.3181 23.8414 14.7781L24.1507 14.9888L24.132 15.3541C24.1053 15.9301 24.032 16.4954 23.9254 17.0608C23.8227 17.6221 23.6734 18.1755 23.492 18.7181C23.3014 19.2635 23.0694 19.7981 22.7707 20.2941C22.632 20.5221 22.48 20.7448 22.3107 20.9541C22.7134 20.9861 23.1134 21.0341 23.5094 21.1114C23.7134 21.1528 23.784 21.2541 23.7427 21.4581C23.7134 21.6168 23.652 21.6621 23.5107 21.6941C22.356 21.9248 21.188 22.0835 20.0187 22.2088C18.8547 22.3421 17.6827 22.3248 16.5134 22.3861C16.4347 22.3901 16.3547 22.3941 16.2747 22.3981ZM15.9254 15.4435C16.036 17.3808 16.144 19.3168 16.228 21.2555C16.292 21.2475 16.3547 21.2408 16.4187 21.2328C17.5894 21.0995 18.7547 20.9075 19.9347 20.8928C20.4347 20.8848 20.9333 20.8835 21.432 20.9035C21.64 20.5835 21.812 20.2408 21.9547 19.8848C22.1467 19.4075 22.2947 18.9101 22.4054 18.4061C22.5267 17.8995 22.604 17.3821 22.6707 16.8675C22.7147 16.4848 22.7493 16.1021 22.7693 15.7181C22.3653 15.5275 21.896 15.4195 21.46 15.3541C20.828 15.2501 20.18 15.2168 19.5387 15.2168C18.332 15.2155 17.1254 15.3168 15.9254 15.4435ZM15.0054 15.5488C12.6734 15.8301 10.3494 16.1848 8.01736 16.4648C8.14803 16.7475 8.27869 17.0288 8.40802 17.3101C8.72936 18.0208 9.03602 18.7408 9.31069 19.4715C9.59602 20.2261 9.91735 20.9581 10.032 21.7635C10.0533 21.9021 10.0707 22.0435 10.0854 22.1835C11.0267 21.9795 11.9813 21.8368 12.932 21.6848C13.6507 21.5821 14.368 21.4861 15.088 21.3954C15.0787 19.4474 15.044 17.4981 15.0054 15.5488Z" fill="#ED1C24"/>
</svg>
