<svg width="31" height="43" viewBox="0 0 31 43" fill="none" xmlns="http://www.w3.org/2000/svg">
<path fill-rule="evenodd" clip-rule="evenodd" d="M16.3 16.524C17.3125 16.1693 18.3391 15.8667 19.4057 15.724C20.6073 15.5627 21.8693 15.6667 22.9645 16.2187L23.2708 16.3733L23.2688 16.7173C23.2604 18.1053 23.1516 19.4733 22.7948 20.824C22.5693 21.5987 22.3005 22.2853 21.7063 22.8627C21.3568 23.196 20.8625 23.4227 20.3755 23.4267L19.8812 23.436L19.3959 23.452C18.5312 23.488 17.6683 23.5413 16.8057 23.5973C16.8099 23.6907 16.8151 23.784 16.8197 23.876C17.3489 24.4533 17.9145 24.9987 18.4869 25.528C19.2781 26.2507 20.0943 26.944 20.9391 27.6013C22.6349 28.9133 24.4724 30.0253 26.4812 30.7907C26.6697 30.864 26.7271 30.9733 26.6516 31.1733C26.5855 31.3467 26.4969 31.388 26.3245 31.36C25.2093 31.1693 24.1235 30.8133 23.0959 30.3427C22.0672 29.8773 21.0921 29.2973 20.1667 28.6507C19.2437 28.0053 18.3781 27.2787 17.576 26.488C17.3421 26.2587 17.1131 26.024 16.8885 25.7853C16.9041 26.636 16.8948 27.484 16.8427 28.3333C16.7755 29.448 16.6713 30.5613 16.488 31.6627C16.3088 32.772 16.0469 33.8733 15.6557 34.9307C15.5823 35.124 15.4708 35.1747 15.2729 35.104C15.1057 35.0387 15.0579 34.956 15.0855 34.7813C15.4088 32.6307 15.4943 30.4573 15.524 28.288C15.5328 27.0667 15.5541 25.8467 15.5615 24.6267C13.9921 26.0453 12.3765 27.4133 10.7188 28.7293C9.77241 29.472 8.80627 30.192 7.81974 30.884C6.83227 31.5747 5.82241 32.2373 4.77761 32.8427C4.59894 32.944 4.47974 32.916 4.37548 32.736C4.27028 32.5587 4.30468 32.4493 4.46614 32.3387C6.46614 31.0453 8.32454 29.5547 10.1312 28.012C11.038 27.2413 11.9287 26.452 12.8052 25.6467C13.4907 25.0173 14.1703 24.3787 14.8364 23.7293C13.8771 23.7893 12.9167 23.8413 11.9563 23.884C11.9563 23.888 11.9557 23.892 11.9552 23.896C11.9219 24.2587 11.8604 24.6133 11.7401 24.956C11.6713 25.16 11.5593 25.2067 11.3584 25.14C11.2479 25.1013 11.2131 25.064 11.1755 24.9573C10.9552 24.3253 10.8084 23.6813 10.6645 23.0307C10.5193 22.404 10.5031 21.76 10.3735 21.132C10.2448 20.5213 10.0812 19.916 9.85468 19.332C9.63641 18.7547 9.34534 18.208 8.95307 17.728C8.82347 17.5653 8.83641 17.4453 8.99841 17.312C9.14321 17.1947 9.24174 17.204 9.37347 17.3133C9.64587 17.5373 9.88601 17.7947 10.1021 18.072C10.5328 18.1547 10.9765 18.1413 11.4088 18.0827C11.9401 18.012 12.4609 17.872 12.9719 17.7147C13.7751 17.464 14.5599 17.164 15.3475 16.8707C15.3197 16.3027 15.2912 15.7333 15.262 15.1667C15.2536 14.9747 15.2459 14.784 15.238 14.592C14.7109 14.5813 14.1849 14.536 13.6636 14.4627C12.8953 14.3453 12.1339 14.188 11.386 13.984C11.1808 13.9307 11.1229 13.8213 11.1745 13.6227C11.2219 13.4413 11.3088 13.384 11.4901 13.4027C12.2364 13.4747 12.9855 13.5453 13.7369 13.5507C14.2213 13.5587 14.7073 13.548 15.1901 13.508C15.1177 11.86 15.0536 10.2093 15.0812 8.55733C15.0855 8.34933 15.1735 8.26266 15.3844 8.26666C15.5875 8.27199 15.6688 8.35733 15.6735 8.55466C15.7255 10.1773 15.8683 11.7947 16.0188 13.4107C16.7041 13.2987 17.3625 13.0613 18.0349 12.8973C18.7719 12.712 19.4917 12.484 20.2339 12.3227C20.4437 12.276 20.5448 12.3467 20.5901 12.5507C20.6183 12.684 20.5921 12.7373 20.5099 12.824C19.9235 13.408 19.2115 13.8373 18.4495 14.148C17.712 14.456 16.9161 14.5293 16.1271 14.572C16.1437 14.7493 16.1599 14.9267 16.176 15.104C16.2177 15.5773 16.2588 16.0507 16.3 16.524ZM15.5219 21.1707C15.0855 21.2893 14.6308 21.3613 14.1771 21.344C13.636 21.3213 13.1016 21.1947 12.6093 20.9747C12.4203 20.8933 12.374 20.7787 12.4547 20.584C12.5255 20.4227 12.6068 20.3853 12.7729 20.408C13.2156 20.48 13.6787 20.512 14.1229 20.4333C14.5615 20.3627 14.9765 20.2027 15.376 20.012C15.4115 19.9947 15.4475 19.9773 15.4817 19.96C15.4547 19.224 15.424 18.488 15.3896 17.752C14.6552 17.9893 13.9219 18.2293 13.1751 18.4267C12.6193 18.5707 12.0568 18.6933 11.4839 18.7453C11.1812 18.772 10.8745 18.78 10.5708 18.7547C10.6084 18.8173 10.6448 18.8787 10.6812 18.94C11.0197 19.54 11.2828 20.1813 11.4927 20.836C11.7047 21.4973 11.9375 22.152 11.9697 22.852C11.9755 22.9653 11.9797 23.0787 11.9817 23.192C13.0927 22.9573 14.2115 22.7547 15.3339 22.584C15.4079 22.5733 15.4812 22.5613 15.5547 22.5507C15.5511 22.28 15.5453 22.0093 15.5375 21.7373C15.5328 21.548 15.5276 21.36 15.5219 21.1707ZM16.538 19.4307C16.6145 19.404 16.6943 19.3813 16.7787 19.3627C17.3505 19.224 17.9729 19.2147 18.5161 19.4613C18.7156 19.5493 18.7557 19.664 18.6672 19.8587C18.6245 19.9533 18.5932 19.9707 18.5235 20.0053C18.2969 20.1133 18.0667 20.212 17.8391 20.3147L17.2125 20.6053C17.0281 20.6973 16.8349 20.7693 16.6391 20.8347C16.6584 21.1187 16.6771 21.4027 16.6943 21.688C16.7084 21.92 16.7224 22.152 16.736 22.3853C17.5964 22.272 18.4584 22.176 19.324 22.116C19.4948 22.1053 19.6672 22.0933 19.8396 22.088L20.3328 22.076C20.5177 22.0693 20.6677 21.996 20.8057 21.8733C20.9869 21.716 21.1333 21.484 21.2448 21.2707C21.3828 21.012 21.4912 20.7347 21.5817 20.4573C21.9281 19.3667 22.0781 18.1987 22.1375 17.056C21.3219 16.704 20.3959 16.636 19.5188 16.724C18.4505 16.8253 17.4011 17.124 16.3776 17.4373C16.4339 18.1027 16.4869 18.7667 16.538 19.4307Z" fill="#231F20"/>
</svg>
