<svg width="31" height="43" viewBox="0 0 31 43" fill="none" xmlns="http://www.w3.org/2000/svg">
<rect width="31" height="43" rx="5" fill="white"/>
<path d="M7.64422 13.192C7.64422 13 7.70822 12.832 7.83622 12.688C7.98022 12.544 8.15622 12.472 8.36422 12.472H13.6922C13.9002 12.472 14.0682 12.408 14.1962 12.28C14.3402 12.136 14.4122 11.968 14.4122 11.776C14.4122 11.584 14.4842 11.424 14.6282 11.296C14.7722 11.152 14.9402 11.08 15.1322 11.08H15.8762C16.0682 11.08 16.2362 11.152 16.3802 11.296C16.5242 11.424 16.5962 11.584 16.5962 11.776C16.5962 11.968 16.6602 12.136 16.7882 12.28C16.9322 12.408 17.1082 12.472 17.3162 12.472H22.6442C22.8522 12.472 23.0202 12.544 23.1482 12.688C23.2922 12.832 23.3642 13 23.3642 13.192V13.936C23.3642 14.144 23.2922 14.32 23.1482 14.464C23.0202 14.592 22.8522 14.656 22.6442 14.656H17.3162C17.1082 14.656 16.9322 14.728 16.7882 14.872C16.6602 15 16.5962 15.16 16.5962 15.352C16.5962 15.544 16.6602 15.712 16.7882 15.856C16.9322 15.984 17.1082 16.048 17.3162 16.048H22.5482C22.6442 16.048 22.7242 16.12 22.7882 16.264C22.8682 16.392 22.9082 16.56 22.9082 16.768V23.08C22.9082 23.288 22.8602 23.512 22.7642 23.752C22.6682 23.992 22.5482 24.176 22.4042 24.304L21.6842 25.024C21.5562 25.168 21.3642 25.288 21.1082 25.384C20.8682 25.48 20.6522 25.528 20.4602 25.528H17.3162C17.1082 25.528 16.9322 25.6 16.7882 25.744C16.6602 25.888 16.5962 26.056 16.5962 26.248V31.984C16.5962 32.176 16.5242 32.344 16.3802 32.488C16.2362 32.632 16.0682 32.704 15.8762 32.704H15.1322C14.9402 32.704 14.7722 32.632 14.6282 32.488C14.4842 32.344 14.4122 32.176 14.4122 31.984V26.248C14.4122 26.056 14.3402 25.888 14.1962 25.744C14.0682 25.6 13.9002 25.528 13.6922 25.528H8.82022C8.61222 25.528 8.43622 25.464 8.29222 25.336C8.16422 25.192 8.10022 25.016 8.10022 24.808V16.768C8.10022 16.56 8.16422 16.392 8.29222 16.264C8.43622 16.12 8.61222 16.048 8.82022 16.048H13.6922C13.9002 16.048 14.0682 15.984 14.1962 15.856C14.3402 15.712 14.4122 15.544 14.4122 15.352C14.4122 15.16 14.3402 15 14.1962 14.872C14.0682 14.728 13.9002 14.656 13.6922 14.656H8.36422C8.15622 14.656 7.98022 14.592 7.83622 14.464C7.70822 14.32 7.64422 14.144 7.64422 13.936V13.192ZM11.0042 18.232C10.7962 18.232 10.6202 18.304 10.4762 18.448C10.3482 18.576 10.2842 18.744 10.2842 18.952V18.976C10.2842 19.184 10.3482 19.36 10.4762 19.504C10.6202 19.632 10.7962 19.696 11.0042 19.696H13.6922C13.9002 19.696 14.0682 19.632 14.1962 19.504C14.3402 19.36 14.4122 19.184 14.4122 18.976V18.952C14.4122 18.744 14.3402 18.576 14.1962 18.448C14.0682 18.304 13.9002 18.232 13.6922 18.232H11.0042ZM17.3162 18.232C17.1082 18.232 16.9322 18.304 16.7882 18.448C16.6602 18.576 16.5962 18.744 16.5962 18.952V18.976C16.5962 19.184 16.6602 19.36 16.7882 19.504C16.9322 19.632 17.1082 19.696 17.3162 19.696H20.0042C20.2122 19.696 20.3802 19.632 20.5082 19.504C20.6522 19.36 20.7242 19.184 20.7242 18.976V18.952C20.7242 18.744 20.6522 18.576 20.5082 18.448C20.3802 18.304 20.2122 18.232 20.0042 18.232H17.3162ZM13.6922 23.368C13.9002 23.368 14.0682 23.296 14.1962 23.152C14.3402 23.008 14.4122 22.84 14.4122 22.648V22.6C14.4122 22.408 14.3402 22.24 14.1962 22.096C14.0682 21.952 13.9002 21.88 13.6922 21.88H11.0042C10.7962 21.88 10.6202 21.952 10.4762 22.096C10.3482 22.24 10.2842 22.408 10.2842 22.6V22.648C10.2842 22.84 10.3482 23.008 10.4762 23.152C10.6202 23.296 10.7962 23.368 11.0042 23.368H13.6922ZM20.0042 23.368C20.2122 23.368 20.3802 23.296 20.5082 23.152C20.6522 23.008 20.7242 22.84 20.7242 22.648V22.6C20.7242 22.408 20.6522 22.24 20.5082 22.096C20.3802 21.952 20.2122 21.88 20.0042 21.88H17.3162C17.1082 21.88 16.9322 21.952 16.7882 22.096C16.6602 22.24 16.5962 22.408 16.5962 22.6V22.648C16.5962 22.84 16.6602 23.008 16.7882 23.152C16.9322 23.296 17.1082 23.368 17.3162 23.368H20.0042ZM8.84422 30.544C9.03622 30.544 9.21222 30.472 9.37222 30.328C9.54822 30.184 9.66022 30.016 9.70822 29.824L10.3322 26.968C10.3642 26.776 10.4602 26.616 10.6202 26.488C10.7962 26.344 10.9882 26.272 11.1962 26.272H11.9402C12.1482 26.272 12.3002 26.344 12.3962 26.488C12.5082 26.616 12.5482 26.776 12.5162 26.968L11.4842 31.984C11.4522 32.176 11.3482 32.344 11.1722 32.488C11.0122 32.632 10.8282 32.704 10.6202 32.704H8.84422C8.65222 32.704 8.48422 32.632 8.34022 32.488C8.19622 32.344 8.12422 32.176 8.12422 31.984V31.264C8.12422 31.056 8.18822 30.888 8.31622 30.76C8.46022 30.616 8.63622 30.544 8.84422 30.544ZM22.8842 31.984C22.8842 32.176 22.8122 32.344 22.6682 32.488C22.5242 32.632 22.3562 32.704 22.1642 32.704H20.3882C20.1802 32.704 19.9882 32.632 19.8122 32.488C19.6522 32.344 19.5562 32.176 19.5242 31.984L18.4922 26.968C18.4602 26.776 18.4922 26.616 18.5882 26.488C18.7002 26.344 18.8602 26.272 19.0682 26.272H19.8122C20.0202 26.272 20.2042 26.344 20.3642 26.488C20.5402 26.616 20.6442 26.776 20.6762 26.968L21.3002 29.824C21.3482 30.016 21.4522 30.184 21.6122 30.328C21.7882 30.472 21.9722 30.544 22.1642 30.544C22.3722 30.544 22.5402 30.616 22.6682 30.76C22.8122 30.888 22.8842 31.056 22.8842 31.264V31.984Z" fill="#181818"/>
</svg>
