<svg width="31" height="43" viewBox="0 0 31 43" fill="none" xmlns="http://www.w3.org/2000/svg">
<path fill-rule="evenodd" clip-rule="evenodd" d="M19.448 29.6688C19.5413 29.724 19.6347 29.7792 19.728 29.8355C20.4707 30.2891 21.2253 30.7188 21.8467 31.3364C22.484 31.964 23.052 32.6713 23.388 33.5073C23.4667 33.7027 23.416 33.8167 23.22 33.8964C23.088 33.9464 23.0293 33.9323 22.928 33.8527C22.2813 33.3459 21.64 32.8307 20.9853 32.3349C20.3307 31.8473 19.7413 31.2797 19.0827 30.7959C18.9853 30.7245 18.888 30.6527 18.7907 30.5823C18.7147 30.676 18.636 30.7697 18.5547 30.8609C17.9027 31.6063 17.1053 32.2303 16.224 32.6839C15.3453 33.1339 14.3613 33.4109 13.3707 33.4183C13.164 33.4183 13.0733 33.3339 13.0733 33.1271C13.068 32.9536 13.128 32.8907 13.2733 32.8407C14.1053 32.5552 14.9013 32.1776 15.6253 31.676C16.3386 31.1885 16.9667 30.5907 17.552 29.9583C17.5947 29.9125 17.6373 29.8661 17.6787 29.8197C17.472 29.6844 17.2613 29.5511 17.0507 29.4208C16.3573 28.9765 15.644 28.564 14.9227 28.1719C14.7387 28.0749 14.6987 27.9579 14.7973 27.7745C14.8853 27.5984 14.988 27.574 15.1586 27.6297C15.956 27.9151 16.728 28.2615 17.4947 28.6208C17.776 28.7588 18.0547 28.9011 18.3307 29.0473C18.624 28.6724 18.8973 28.2817 19.1413 27.8729C19.5067 27.2653 19.8347 26.6267 20.1027 25.968C19.848 25.9187 19.584 25.904 19.3307 25.9027C18.8653 25.9013 18.4 25.9453 17.94 26.0133C17.4693 26.084 17.0013 26.18 16.5387 26.292C16.0733 26.4067 15.6093 26.5293 15.152 26.676C14.9573 26.7413 14.848 26.6853 14.7787 26.488C14.716 26.2973 14.7693 26.2013 14.9413 26.1227C15.8667 25.7387 16.8173 25.4307 17.7893 25.2067C18.2893 25.096 18.7947 25.008 19.3067 24.9773C19.8733 24.9507 20.416 24.976 20.952 25.1787L21.3787 25.34L21.248 25.7893C20.9787 26.7133 20.604 27.5932 20.16 28.4473C19.9386 28.8636 19.704 29.2735 19.448 29.6688ZM8.75733 25.6853C8.87866 25.616 9.00399 25.552 9.13199 25.4947C9.72266 25.236 10.3747 25.1213 11.0067 25.3133C11.3427 25.4187 11.6533 25.624 11.884 25.888C12.108 26.14 12.2693 26.4387 12.3813 26.756C12.5813 27.3349 12.628 27.9375 12.6147 28.5459C12.6 29.1235 12.5373 29.6927 12.4333 30.2625C12.3093 30.876 12.1027 31.4625 11.7427 31.9828C11.5387 32.2609 11.3013 32.5145 11.012 32.7083C10.7093 32.9079 10.3546 33.0453 9.99198 33.0703C9.31865 33.1229 8.67199 32.874 8.18132 32.4197C8.02399 32.2776 8.01999 32.1521 8.16265 32C8.26532 31.8885 8.33598 31.8735 8.47598 31.9193C8.87732 32.0552 9.38399 32.1396 9.79732 32.0109C10.1773 31.8943 10.4427 31.6047 10.6333 31.2672C10.8667 30.8604 11.0267 30.3973 11.16 29.9489C11.3053 29.4724 11.4067 28.9708 11.46 28.4765C11.5053 28.0125 11.512 27.5167 11.3907 27.0627C11.2933 26.6893 11.0733 26.3213 10.6947 26.1733C10.2987 26.0053 9.80267 26.072 9.408 26.204C8.94533 26.3613 8.51732 26.6187 8.14932 26.9413C8.10799 26.9907 8.06533 27.0213 8.01733 27.0307C7.91333 27.0747 7.81866 27.04 7.71733 26.9253C7.71333 26.92 7.70933 26.916 7.70666 26.912C7.7 26.9053 7.69466 26.8987 7.69066 26.892C7.636 26.8187 7.61732 26.756 7.62799 26.692C7.56665 26.4133 7.54666 26.1307 7.55066 25.844C7.55199 25.5333 7.58933 25.224 7.65466 24.9213C7.784 24.2907 8.13732 23.732 8.53066 23.2307C8.73599 22.972 8.97465 22.736 9.24532 22.5413C9.52399 22.3453 9.84133 22.1987 10.1747 22.1187C10.7027 22 11.26 22.0413 11.76 22.2413C11.7987 22.1333 11.8387 22.028 11.88 21.9213C11.9427 21.7467 12.0093 21.572 12.064 21.3947L12.216 20.9147C12.2507 20.8027 12.2747 20.6747 12.252 20.5573C12.208 20.2933 12.0133 20.0693 11.7827 19.94C11.4947 19.7707 11.1293 19.7413 10.804 19.792C10.6027 19.8187 10.4973 19.752 10.468 19.544C10.44 19.3693 10.488 19.2987 10.6333 19.2293C11.0947 19.0027 11.64 18.96 12.1373 19.1C12.4067 19.1813 12.6587 19.3213 12.8707 19.5093C13.0907 19.7093 13.2627 19.9627 13.364 20.2413C13.4667 20.516 13.5173 20.8133 13.508 21.1067C13.4973 21.4013 13.4093 21.692 13.2587 21.9453C13.1213 22.176 12.9453 22.3813 12.736 22.548C12.548 22.7013 12.3413 22.8227 12.112 22.9013C12.0547 22.956 11.992 22.968 11.9013 22.948C11.8533 22.9493 11.812 22.9387 11.7787 22.9147C11.3507 22.8027 10.864 22.8053 10.4547 22.988C10.0333 23.164 9.71199 23.508 9.47865 23.8933C9.22265 24.3213 9.11466 24.852 8.91466 25.3107C8.86132 25.436 8.80933 25.5613 8.75733 25.6853ZM15.6067 18.8067C15.9253 18.6947 16.2387 18.5693 16.556 18.4573C16.98 18.3053 17.3973 18.1653 17.848 18.1013C18.124 18.0693 18.3853 18.0693 18.652 18.1467C18.976 18.2333 19.2787 18.476 19.4293 18.7733C19.568 19.032 19.6227 19.3027 19.6427 19.5933C19.656 19.812 19.66 20.0307 19.6613 20.2507C19.6613 20.5453 19.6733 21.8013 19.9667 21.928C20.1653 22.0533 20.6266 22.0747 20.86 22.08C21.2733 22.088 21.684 22.0627 22.0947 22.064C22.3067 22.06 22.3973 22.148 22.3973 22.3613C22.3973 22.504 22.356 22.5493 22.2533 22.616C21.86 22.852 21.436 23.0333 20.9867 23.148C20.4307 23.2813 19.9467 23.3267 19.3947 23.1147C19.0693 22.9813 18.7707 22.7 18.624 22.3827C18.4907 22.112 18.44 21.8347 18.424 21.532C18.412 21.0813 18.4667 20.6507 18.5053 20.204C18.5213 20.0067 18.5387 19.8093 18.5467 19.6133C18.5507 19.4933 18.5453 19.3387 18.4973 19.2267C18.464 19.1467 18.4173 19.104 18.3373 19.0707C18.2147 19.0187 18.0453 19.012 17.9147 19.0147C17.2093 19.0307 16.48 19.2707 15.7733 19.4107C15.7947 19.4853 15.8147 19.5613 15.836 19.636C15.9893 20.224 16.1267 20.816 16.2267 21.4147C16.336 22.0693 16.4787 22.6813 16.356 23.3493C16.292 23.7 16.188 24.0427 16.0107 24.3547C15.824 24.6867 15.544 24.9853 15.1907 25.1427C14.9987 25.228 14.8853 25.1853 14.7947 24.9907C14.7507 24.888 14.7547 24.844 14.7947 24.752C15.0133 24.24 15.0373 23.7693 15.044 23.228C15.0333 22.664 15.104 22.1053 15.076 21.5413C15.0467 20.9587 14.992 20.3773 14.936 19.7973L14.764 18.024C14.7453 17.816 14.8213 17.72 15.0293 17.7027C15.216 17.6827 15.288 17.7453 15.3427 17.908C15.4347 18.2067 15.5227 18.5067 15.6067 18.8067ZM9.37333 18.272C9.372 18.272 9.37199 18.272 9.37066 18.272C9.32266 18.2827 9.30399 18.28 9.29599 18.28C9.09465 18.2733 8.90799 18.2347 8.71999 18.1707C8.55466 18.1173 8.40133 18.0453 8.25466 17.96C7.93733 17.7933 7.79066 17.528 7.55199 17.2813C7.33866 17.0627 7.128 16.8387 6.924 16.6067C6.72533 16.3733 6.51732 16.1467 6.32665 15.9053C6.19465 15.7413 6.21065 15.6173 6.37598 15.4853C6.49198 15.396 6.56132 15.3893 6.69465 15.456C6.96799 15.596 7.23066 15.756 7.50266 15.9067C7.76666 16.0613 8.02799 16.224 8.28399 16.3893C8.57066 16.576 8.85999 16.6693 9.08399 16.944C9.19732 17.0747 9.29866 17.2107 9.38266 17.3613C9.48266 17.5333 9.55733 17.7093 9.60266 17.9053C9.60533 17.9187 9.60799 17.932 9.61065 17.944C9.96932 17.444 10.3187 16.936 10.656 16.4213C11.1733 15.6253 11.664 14.8093 12.1053 13.968C12.3267 13.5587 12.5373 13.1413 12.7267 12.7147C12.8187 12.516 12.904 12.312 12.976 12.1027C13 12.0387 13.0533 11.8787 13.064 11.768C13.06 11.7667 13.0547 11.7667 13.0507 11.764C12.9027 11.72 12.6907 11.7227 12.536 11.7293C12.092 11.748 11.6427 11.844 11.212 11.936C10.2813 12.156 9.36533 12.428 8.45733 12.7147C8.26266 12.78 8.15066 12.7307 8.08399 12.532C8.01866 12.3533 8.07065 12.2693 8.21065 12.1787C9.06932 11.6733 9.96932 11.2333 10.9093 10.9C11.404 10.724 11.9053 10.5853 12.428 10.5107C12.7453 10.4707 13.0427 10.464 13.3613 10.5293C13.5813 10.5787 13.7787 10.6613 13.952 10.804C14.16 10.9667 14.3147 11.2267 14.364 11.4867C14.436 11.8853 14.3587 12.1507 14.252 12.528C14.1707 12.7827 14.0667 13.0293 13.9587 13.276C13.7453 13.7333 13.5 14.1733 13.2467 14.612C12.736 15.4547 12.1853 16.2733 11.612 17.0747C10.468 18.6667 9.22665 20.1907 7.86265 21.6027C7.17065 22.304 6.448 22.976 5.67467 23.588C4.892 24.204 4.06 24.7693 3.14 25.152C2.952 25.236 2.83199 25.1947 2.75066 25.0013C2.66399 24.812 2.712 24.704 2.89067 24.6147C3.73867 24.2053 4.48932 23.6267 5.19198 23.0093C5.90398 22.3787 6.56265 21.6907 7.19198 20.9787C7.96265 20.112 8.688 19.2067 9.37333 18.272ZM19.188 14.7307C19.432 14.42 19.7053 14.1387 19.9933 13.86C20.3973 13.46 20.8867 13.192 21.3307 12.8467C21.7587 12.512 22.1813 12.1707 22.5853 11.8067C22.9707 11.4613 23.3533 11.0933 23.6173 10.644C23.7213 10.464 23.844 10.4333 24.0253 10.5387C24.1746 10.6293 24.2053 10.712 24.1586 10.8773C24.0706 11.1747 23.9253 11.4493 23.7613 11.7107C23.6067 11.96 23.4333 12.1973 23.2533 12.4307C22.896 12.8827 22.5053 13.3067 22.0973 13.712C21.684 14.1267 21.312 14.572 20.8147 14.888C20.5693 15.052 20.3147 15.2 20.0493 15.3267C19.964 15.368 19.88 15.4067 19.7947 15.4427C20.348 16.0773 20.9267 16.6893 21.5507 17.252C22.456 18.0787 23.4907 18.74 24.5667 19.3187C25.0987 19.6027 25.6573 19.836 26.2293 20.0267C26.8213 20.2213 27.4306 20.3547 28.0426 20.468C28.248 20.5053 28.3187 20.6053 28.2813 20.8067C28.2573 20.9747 28.1893 21.0253 28.0413 21.052C26.684 21.292 25.252 21.0547 23.9947 20.5093C23.3627 20.2333 22.7693 19.8693 22.228 19.44C21.7053 19.0227 21.212 18.5667 20.7453 18.0853C19.8293 17.1453 19.0253 16.1067 18.26 15.0414C17.5187 14.008 16.8387 12.92 16.0013 11.96C15.864 11.8027 15.8693 11.6773 16.0307 11.54C16.176 11.4133 16.2827 11.4173 16.424 11.5453C16.572 11.6813 16.7147 11.8213 16.852 11.9653C16.872 11.9213 16.8933 11.8773 16.9147 11.8333C17.0093 11.632 17.124 11.4427 17.2493 11.2627C17.496 10.888 17.848 10.6587 18.168 10.36C18.472 10.0773 18.7827 9.80001 19.1013 9.53201C19.424 9.26801 19.7427 8.99734 20.0813 8.75068C20.2453 8.63201 20.3693 8.64267 20.492 8.81334C20.596 8.95067 20.5893 9.03468 20.4947 9.16668L19.764 10.1574C19.52 10.4867 19.2733 10.8147 19.024 11.1387C18.76 11.4827 18.572 11.852 18.2333 12.136C18.068 12.2827 17.896 12.416 17.7107 12.5333C17.636 12.5827 17.5613 12.628 17.484 12.6707C17.576 12.7787 17.668 12.888 17.7586 12.996L18.9853 14.484C19.0533 14.5667 19.12 14.648 19.188 14.7307Z" fill="#74BA24"/>
</svg>
