<svg width="31" height="43" viewBox="0 0 31 43" fill="none" xmlns="http://www.w3.org/2000/svg">
<rect width="31" height="43" rx="5" fill="white"/>
<path d="M11.4122 14.2C11.6202 14.2 11.7882 14.152 11.9162 14.056C12.0602 13.96 12.1322 13.848 12.1322 13.72C12.1322 13.592 12.0602 13.48 11.9162 13.384C11.7882 13.288 11.6202 13.24 11.4122 13.24H8.36422C8.15622 13.24 7.98022 13.176 7.83622 13.048C7.70822 12.904 7.64422 12.728 7.64422 12.52V11.8C7.64422 11.608 7.70822 11.44 7.83622 11.296C7.98022 11.152 8.15622 11.08 8.36422 11.08H14.5082C14.6202 11.08 14.7082 11.152 14.7722 11.296C14.8522 11.44 14.8922 11.608 14.8922 11.8V16.984C14.8922 17.176 14.8362 17.392 14.7242 17.632C14.6122 17.856 14.4762 18.032 14.3162 18.16L13.2842 18.952C13.1402 19.08 12.9322 19.192 12.6602 19.288C12.4042 19.368 12.1802 19.408 11.9882 19.408H8.36422C8.15622 19.408 7.98022 19.336 7.83622 19.192C7.70822 19.048 7.64422 18.88 7.64422 18.688V17.968C7.64422 17.76 7.70822 17.592 7.83622 17.464C7.98022 17.32 8.15622 17.248 8.36422 17.248H11.4122C11.6042 17.248 11.7722 17.208 11.9162 17.128C12.0602 17.032 12.1322 16.928 12.1322 16.816C12.1322 16.688 12.0602 16.584 11.9162 16.504C11.7882 16.408 11.6202 16.36 11.4122 16.36H8.36422C8.15622 16.36 7.98022 16.296 7.83622 16.168C7.70822 16.024 7.64422 15.848 7.64422 15.64V14.92C7.64422 14.728 7.70822 14.56 7.83622 14.416C7.98022 14.272 8.15622 14.2 8.36422 14.2H11.4122ZM19.5242 13.24C19.3322 13.24 19.1642 13.288 19.0202 13.384C18.8762 13.48 18.8042 13.592 18.8042 13.72C18.8042 13.848 18.8762 13.96 19.0202 14.056C19.1642 14.152 19.3322 14.2 19.5242 14.2H22.5722C22.7802 14.2 22.9482 14.272 23.0762 14.416C23.2202 14.56 23.2922 14.728 23.2922 14.92V15.64C23.2922 15.848 23.2202 16.024 23.0762 16.168C22.9482 16.296 22.7802 16.36 22.5722 16.36H19.5242C19.3322 16.36 19.1642 16.416 19.0202 16.528C18.8762 16.624 18.8042 16.752 18.8042 16.912C18.8042 17.056 18.8762 17.184 19.0202 17.296C19.1642 17.392 19.3322 17.44 19.5242 17.44H22.5722C22.7802 17.44 22.9482 17.512 23.0762 17.656C23.2202 17.784 23.2922 17.952 23.2922 18.16V18.688C23.2922 18.88 23.2202 19.048 23.0762 19.192C22.9482 19.336 22.7802 19.408 22.5722 19.408H18.9482C18.7562 19.408 18.5322 19.368 18.2762 19.288C18.0362 19.192 17.8362 19.08 17.6762 18.952L16.6202 18.16C16.4602 18.032 16.3242 17.856 16.2122 17.632C16.1002 17.392 16.0442 17.176 16.0442 16.984V11.8C16.0442 11.608 16.0762 11.44 16.1402 11.296C16.2202 11.152 16.3162 11.08 16.4282 11.08H22.5722C22.7802 11.08 22.9482 11.152 23.0762 11.296C23.2202 11.44 23.2922 11.608 23.2922 11.8V12.52C23.2922 12.728 23.2202 12.904 23.0762 13.048C22.9482 13.176 22.7802 13.24 22.5722 13.24H19.5242ZM11.3162 23.416C11.5242 23.416 11.6922 23.352 11.8202 23.224C11.9642 23.08 12.0362 22.92 12.0362 22.744C12.0362 22.568 11.9642 22.416 11.8202 22.288C11.6922 22.144 11.5242 22.072 11.3162 22.072H8.36422C8.15622 22.072 7.98022 22 7.83622 21.856C7.70822 21.712 7.64422 21.544 7.64422 21.352V20.632C7.64422 20.424 7.70822 20.256 7.83622 20.128C7.98022 19.984 8.15622 19.912 8.36422 19.912H14.3162C14.4282 19.912 14.5162 19.984 14.5802 20.128C14.6602 20.256 14.7002 20.424 14.7002 20.632V23.056C14.7002 23.264 14.6442 23.48 14.5322 23.704C14.4362 23.928 14.3082 24.104 14.1482 24.232L13.0922 25.12C12.9322 25.248 12.7242 25.36 12.4682 25.456C12.2282 25.536 12.0042 25.576 11.7962 25.576H10.5242C10.3162 25.576 10.1402 25.64 9.99622 25.768C9.86822 25.896 9.80422 26.048 9.80422 26.224C9.80422 26.4 9.86822 26.56 9.99622 26.704C10.1402 26.832 10.3162 26.896 10.5242 26.896H13.9802C14.1882 26.896 14.3562 26.936 14.4842 27.016C14.6282 27.08 14.7002 27.176 14.7002 27.304V30.16C14.7002 30.368 14.6522 30.592 14.5562 30.832C14.4602 31.072 14.3402 31.256 14.1962 31.384L13.3322 32.176C13.1882 32.32 12.9962 32.44 12.7562 32.536C12.5162 32.632 12.2922 32.68 12.0842 32.68H8.36422C8.15622 32.68 7.98022 32.608 7.83622 32.464C7.70822 32.336 7.64422 32.168 7.64422 31.96V31.144C7.64422 30.936 7.70822 30.768 7.83622 30.64C7.98022 30.496 8.15622 30.424 8.36422 30.424H11.4602C11.6682 30.424 11.8362 30.36 11.9642 30.232C12.1082 30.088 12.1802 29.92 12.1802 29.728C12.1802 29.552 12.1082 29.4 11.9642 29.272C11.8362 29.128 11.6682 29.056 11.4602 29.056H8.36422C8.15622 29.056 7.98022 28.984 7.83622 28.84C7.70822 28.696 7.64422 28.528 7.64422 28.336V23.8C7.64422 23.688 7.70822 23.6 7.83622 23.536C7.98022 23.456 8.15622 23.416 8.36422 23.416H11.3162ZM23.3642 24.016C23.3642 24.208 23.3002 24.376 23.1722 24.52C23.0602 24.664 22.9162 24.736 22.7402 24.736C22.5642 24.736 22.3642 24.688 22.1402 24.592C21.9162 24.496 21.7242 24.376 21.5642 24.232L20.7002 23.416C20.5562 23.288 20.4282 23.136 20.3162 22.96C20.2202 22.768 20.1722 22.608 20.1722 22.48C20.1722 22.352 20.1002 22.248 19.9562 22.168C19.8282 22.072 19.6602 22.024 19.4522 22.024H19.1402C18.9482 22.024 18.7802 22.072 18.6362 22.168C18.4922 22.248 18.4202 22.352 18.4202 22.48C18.4202 22.608 18.3642 22.768 18.2522 22.96C18.1562 23.136 18.0362 23.288 17.8922 23.416L16.9802 24.232C16.8362 24.376 16.6442 24.496 16.4042 24.592C16.1802 24.688 15.9802 24.736 15.8042 24.736C15.6282 24.736 15.4762 24.664 15.3482 24.52C15.2362 24.376 15.1802 24.208 15.1802 24.016V23.2C15.1802 23.008 15.2122 22.84 15.2762 22.696C15.3562 22.552 15.4442 22.48 15.5402 22.48C15.6362 22.48 15.7162 22.44 15.7802 22.36C15.8602 22.28 15.9002 22.176 15.9002 22.048V20.68C15.9002 20.472 15.9722 20.304 16.1162 20.176C16.2602 20.032 16.4282 19.96 16.6202 19.96H21.9242C22.1322 19.96 22.3002 20.032 22.4282 20.176C22.5722 20.304 22.6442 20.472 22.6442 20.68V21.76C22.6442 21.968 22.6762 22.144 22.7402 22.288C22.8202 22.416 22.9082 22.48 23.0042 22.48C23.1002 22.48 23.1802 22.552 23.2442 22.696C23.3242 22.84 23.3642 23.008 23.3642 23.2V24.016ZM15.8762 30.424C16.2762 30.424 16.5402 30.384 16.6682 30.304C16.7162 30.272 16.7402 30.24 16.7402 30.208C16.7402 30.112 16.5962 29.976 16.3082 29.8L15.9242 29.584C15.7482 29.472 15.5962 29.312 15.4682 29.104C15.3562 28.896 15.3002 28.688 15.3002 28.48V28.432C15.3002 28.24 15.3722 28.072 15.5162 27.928C15.6602 27.784 15.8282 27.712 16.0202 27.712H17.1002C17.3082 27.712 17.4762 27.744 17.6042 27.808C17.7482 27.856 17.8202 27.92 17.8202 28C17.8202 28.08 17.8842 28.184 18.0122 28.312C18.1402 28.424 18.2922 28.52 18.4682 28.6L18.6602 28.696C18.8522 28.792 19.0762 28.84 19.3322 28.84C19.5882 28.84 19.7962 28.792 19.9562 28.696L20.1482 28.6C20.3242 28.52 20.4762 28.408 20.6042 28.264C20.7322 28.104 20.7962 27.96 20.7962 27.832C20.7962 27.704 20.7242 27.6 20.5802 27.52C20.4522 27.424 20.2842 27.376 20.0762 27.376H16.1162C15.9082 27.376 15.7322 27.304 15.5882 27.16C15.4602 27.016 15.3962 26.848 15.3962 26.656V25.84C15.3962 25.632 15.4602 25.464 15.5882 25.336C15.7322 25.192 15.9082 25.12 16.1162 25.12H22.5482C22.7562 25.12 22.9242 25.192 23.0522 25.336C23.1962 25.464 23.2682 25.632 23.2682 25.84V28.48C23.2682 28.688 23.2122 28.896 23.1002 29.104C22.9882 29.312 22.8442 29.472 22.6682 29.584L22.2842 29.8C22.1082 29.912 21.9802 30.016 21.9002 30.112C21.8362 30.208 21.8362 30.272 21.9002 30.304C22.0922 30.384 22.3802 30.424 22.7642 30.424C22.9402 30.424 23.0842 30.496 23.1962 30.64C23.3082 30.768 23.3642 30.936 23.3642 31.144V31.96C23.3642 32.168 23.2922 32.336 23.1482 32.464C23.0042 32.608 22.8362 32.68 22.6442 32.68H21.8042C21.6122 32.68 21.3882 32.64 21.1322 32.56C20.8762 32.496 20.6522 32.416 20.4602 32.32L19.9082 31.984C19.7162 31.872 19.5162 31.816 19.3082 31.816C19.1162 31.816 18.9082 31.872 18.6842 31.984L18.1322 32.32C17.9562 32.416 17.7322 32.496 17.4602 32.56C17.2042 32.64 16.9802 32.68 16.7882 32.68H16.0202C15.8282 32.68 15.6602 32.608 15.5162 32.464C15.3722 32.336 15.3002 32.168 15.3002 31.96V31.144C15.3002 30.936 15.3562 30.768 15.4682 30.64C15.5802 30.496 15.7162 30.424 15.8762 30.424Z" fill="#39A939"/>
</svg>
