<svg width="32" height="44" viewBox="0 0 32 44" fill="none" xmlns="http://www.w3.org/2000/svg">
<path fill-rule="evenodd" clip-rule="evenodd" d="M18.3973 18.3733C18.4031 18.3453 18.4084 18.3173 18.4136 18.2893C18.4984 17.824 18.4891 17.36 18.6344 16.9027C18.7792 16.416 18.9464 15.9627 19.2088 15.5267C19.3193 15.3413 19.4339 15.312 19.6197 15.42C19.6979 15.4667 19.7172 15.4933 19.7473 15.572C19.8473 15.8307 19.8964 16.0947 19.9224 16.3693C19.9489 16.6253 19.9489 16.88 19.9297 17.1333C19.9084 17.544 19.7729 17.9147 19.636 18.2907C19.8093 18.284 19.9833 18.2827 20.1563 18.284C21.4573 18.2907 22.7593 18.3787 24.0333 18.66C24.2344 18.7053 24.3052 18.8067 24.2584 19.0107C24.2251 19.1787 24.1573 19.2253 24.0063 19.244C22.7427 19.4093 21.474 19.5013 20.2057 19.6027C19.8385 19.6333 19.4708 19.6533 19.1021 19.6693C19.0604 19.76 19.0177 19.8507 18.9735 19.94C18.7479 20.3773 18.5047 20.8093 18.2021 21.1987C18.0751 21.3613 17.95 21.3827 17.7855 21.2507C17.6459 21.144 17.626 21.0547 17.6932 20.9027C17.8521 20.512 17.9901 20.1147 18.0969 19.7053C17.538 19.7227 16.9792 19.7413 16.4213 19.7813C15.6505 19.832 14.8797 19.8933 14.1099 19.9693C14.126 20.1547 14.1364 20.3413 14.1417 20.528C14.1448 20.9493 14.1401 21.3707 14.074 21.7867C14.0407 21.9947 13.938 22.0653 13.7317 22.0333C13.5713 22.0053 13.5156 21.9453 13.4875 21.7893C13.4251 21.4093 13.3469 21.0293 13.2391 20.6573C13.1869 20.4627 13.1307 20.2693 13.0724 20.076C12.9328 20.092 12.7927 20.108 12.6531 20.124C11.3969 20.2587 10.1453 20.428 8.90108 20.6227C8.69268 20.66 8.59428 20.5867 8.55681 20.3813C8.52348 20.1853 8.58961 20.092 8.77401 20.0453C10.0099 19.7187 11.2636 19.4627 12.5193 19.2187C12.6016 19.2027 12.6839 19.1893 12.7656 19.1747C12.6631 18.9213 12.5584 18.6747 12.5203 18.3907C12.4527 17.9453 12.4276 17.528 12.5036 17.0813C12.5385 16.864 12.638 16.7973 12.8531 16.832C12.9213 16.844 12.9473 16.852 12.9979 16.9C13.1844 17.056 13.3339 17.2387 13.4688 17.4413C13.5937 17.6253 13.6959 17.82 13.7823 18.0213C13.924 18.3293 13.9584 18.644 13.9937 18.9653C14.764 18.8413 15.5355 18.728 16.3088 18.628C17.0047 18.54 17.7 18.4427 18.3973 18.3733ZM16.3651 24.6107C16.6891 24.4907 16.9901 24.3147 17.3312 24.2253C17.5417 24.1627 17.75 24.1053 17.9631 24.0627C18.2027 24.0093 18.4355 23.968 18.6771 23.956C18.8964 23.94 18.9864 24.0227 18.9995 24.24C19.0036 24.3173 18.9969 24.3467 18.9547 24.416C18.6781 24.8573 18.2932 25.18 17.8469 25.4347C17.4536 25.6667 17.0125 25.732 16.5693 25.7853C16.6136 26.1267 16.6495 26.4693 16.6781 26.8107C17.2145 26.7533 17.7489 26.696 18.2828 26.808C18.5771 26.8627 18.8645 26.94 19.1443 27.044C19.2891 27.096 19.4312 27.1547 19.5693 27.2187C19.6057 26.9093 19.6688 26.6027 19.7421 26.3C19.85 25.8573 19.9823 25.424 20.1344 24.9973C20.2797 24.572 20.4511 24.156 20.6245 23.7387C20.7276 23.5013 20.8349 23.2653 20.9469 23.032C20.8041 22.96 20.6516 22.9053 20.4973 22.868C20.1208 22.7733 19.7172 22.7547 19.3328 22.7587C18.4787 22.7747 17.6235 22.908 16.7828 23.048C16.4943 23.0973 16.2068 23.1493 15.9188 23.1987C16.0328 23.4453 16.1213 23.704 16.1989 23.964C16.2615 24.1787 16.3167 24.3933 16.3651 24.6107ZM15.6136 25.836C15.3885 25.824 15.1651 25.796 14.9453 25.748C14.4745 25.64 14.0161 25.456 13.6188 25.1813C13.4511 25.068 13.4219 24.9507 13.5355 24.7747C13.6323 24.624 13.7213 24.6067 13.8755 24.6533C14.2516 24.7733 14.6459 24.8507 15.0443 24.8413C15.2131 24.8413 15.3807 24.828 15.5473 24.8053C15.526 24.5827 15.4973 24.36 15.4593 24.14C15.4088 23.8613 15.3489 23.5813 15.2536 23.312C14.8869 23.3733 14.5193 23.4293 14.1495 23.476C13.6979 23.5333 13.2448 23.5787 12.7885 23.588C12.5751 23.5933 12.3604 23.588 12.1484 23.5707C12.2484 23.7307 12.3453 23.8947 12.4417 24.0573C12.7188 24.5467 12.9677 25.0533 13.1823 25.572C13.4084 26.116 13.6672 26.6267 13.7333 27.22C13.7437 27.3013 13.7531 27.384 13.7593 27.4653C14.1011 27.3453 14.4479 27.24 14.7973 27.1427C15.0713 27.0707 15.3484 27.0067 15.6276 26.956C15.6323 26.5827 15.6281 26.2093 15.6136 25.836ZM18.8177 32.2587C18.6511 32.04 18.4563 31.844 18.2459 31.668C18.0828 31.532 18.0781 31.4093 18.2079 31.2493C18.3084 31.1293 18.3823 31.112 18.5229 31.1547C18.8672 31.26 19.1817 31.4427 19.4807 31.6453C19.7693 31.8507 20.0339 32.092 20.2719 32.3533C20.5303 32.636 20.8063 32.8667 20.9317 33.2413C21.0005 33.424 21.0473 33.6093 21.0645 33.8027C21.0885 34.0187 21.0823 34.2307 21.0251 34.4413C20.9651 34.6573 20.8636 34.7173 20.6432 34.6547C20.6079 34.644 20.6047 34.6427 20.5656 34.62C20.3973 34.5093 20.2536 34.3893 20.1172 34.252C19.9943 34.1347 19.8869 34.0093 19.7864 33.88C19.564 33.6173 19.5079 33.3227 19.3432 33.04C19.3364 33.028 19.3303 33.0173 19.3229 33.0053C19.1667 33.1213 18.9995 33.224 18.8271 33.316C18.5364 33.476 18.2307 33.5987 17.9193 33.708C17.3011 33.928 16.662 33.952 16.0172 34.0213C15.3901 34.0907 14.7599 34.1293 14.1281 34.1293C13.8109 34.1267 13.4927 34.116 13.1765 34.0907C12.8479 34.0627 12.5203 34.02 12.2057 33.9253C12.0016 33.8667 11.9484 33.7547 12.0036 33.5573C12.0557 33.3813 12.1401 33.332 12.3099 33.3453C12.8943 33.384 13.4823 33.3093 14.0604 33.2187C14.5333 33.144 15.0047 33.0547 15.4729 32.956C15.4156 32.228 15.4115 31.4987 15.4161 30.7667C14.6011 30.8533 13.7875 30.956 12.976 31.0733C12.0016 31.2093 11.0255 31.3547 10.0661 31.572C10.1104 31.6733 10.1505 31.776 10.188 31.88C10.3917 32.408 10.4041 32.9533 10.4713 33.5053C10.5369 34.0387 10.5781 34.576 10.5901 35.1147C10.5943 35.6533 10.5885 36.1947 10.5229 36.728C10.4989 36.9387 10.3973 37.0107 10.1901 36.988C10.0167 36.964 9.95788 36.8947 9.93388 36.732C9.87028 36.224 9.79215 35.716 9.68228 35.2147C9.57975 34.7147 9.46201 34.216 9.33495 33.72C9.20308 33.212 8.98748 32.7373 8.91455 32.2133C8.83028 31.6667 8.77401 31.1373 8.80161 30.5853C8.81095 30.3693 8.90267 30.2853 9.11614 30.2987C9.22134 30.304 9.25215 30.3253 9.31561 30.388C9.49121 30.5667 9.63601 30.768 9.76308 30.98C10.1823 30.8387 10.6084 30.7187 11.036 30.604C11.6251 30.448 12.2183 30.3067 12.814 30.1733C13.6937 29.984 14.5771 29.8147 15.464 29.6627C15.5084 29.1107 15.5719 28.56 15.5959 28.0053C15.5959 28.004 15.5959 28.0013 15.5964 27.9987C15.3817 28.0093 15.1677 28.024 14.9536 28.0427C14.5541 28.0733 14.1563 28.1267 13.7599 28.1867C13.7355 28.4827 13.6787 28.772 13.5631 29.048C13.4792 29.2413 13.3688 29.288 13.1703 29.2067C13.0755 29.1667 13.0469 29.136 13.012 29.048C12.8984 28.7893 12.8005 28.528 12.7063 28.264C12.6131 28.012 12.5281 27.76 12.4484 27.5067C12.2729 26.9973 12.2292 26.464 12.088 25.9493C11.9479 25.44 11.7885 24.936 11.6104 24.4373C11.438 23.9333 11.2292 23.44 11.0104 22.952C10.9328 22.768 10.9672 22.6493 11.1615 22.564C11.3271 22.488 11.4172 22.52 11.5193 22.6547C11.5771 22.728 11.6333 22.8053 11.6885 22.8813C12.0401 22.9307 12.3984 22.9133 12.7473 22.88C13.1735 22.8387 13.5959 22.7613 14.0145 22.6747C14.876 22.492 15.7287 22.2667 16.5869 22.0707C17.4771 21.8667 18.3651 21.6747 19.276 21.6C19.7683 21.56 20.2573 21.56 20.7464 21.636C21.3151 21.7267 21.8631 21.9453 22.2797 22.352L22.6235 22.6907L22.4041 23.136C22.2136 23.5267 22.0136 23.912 21.8156 24.3013L21.2177 25.4587C20.8287 26.2293 20.4297 26.9947 20.1099 27.7973C20.05 27.9547 19.9656 28.0173 19.8339 27.9973C19.5541 28.0587 19.274 28.0867 18.9885 28.1013C18.7099 28.12 18.4323 28.1213 18.1552 28.1187C17.6812 28.124 17.2208 28.028 16.7527 27.996C16.7527 28 16.7536 28.004 16.7536 28.008C16.7708 28.488 16.7989 28.9667 16.8027 29.4453C17.8864 29.276 18.9693 29.1 20.0703 29.1C20.6953 29.1 21.3213 29.1213 21.9432 29.2027C22.5901 29.2907 23.2355 29.408 23.8125 29.7253C23.8807 29.7493 23.9251 29.7827 23.9516 29.832C23.9969 29.892 24.0063 29.9587 23.9803 30.04C23.9636 30.6573 24.0093 31.2733 24.0573 31.888C24.1027 32.5453 24.1427 33.2013 24.114 33.86C24.1041 34.208 24.0792 34.556 24.0245 34.9027C23.9584 35.292 23.8208 35.6707 23.6 36.0013C23.3672 36.3467 23.0432 36.648 22.6636 36.8213C22.2953 36.996 21.8781 37.0587 21.4776 36.9907C21.2631 36.9587 21.1984 36.852 21.2303 36.6427C21.2521 36.532 21.2781 36.4933 21.374 36.4387C21.612 36.2973 21.8599 36.1387 22.0536 35.94C22.2224 35.764 22.3568 35.5707 22.4557 35.348C22.6823 34.8347 22.8755 34.3067 22.962 33.7507C23.0541 33.1333 23.0943 32.5067 23.1432 31.8827C23.1932 31.3387 23.2307 30.7933 23.3281 30.256C22.8541 30.2253 22.3771 30.256 21.9047 30.2787C21.3131 30.3173 20.7229 30.3627 20.1328 30.4173C19.0063 30.528 17.8729 30.544 16.7448 30.6387C16.7407 30.6693 16.7375 30.6973 16.7333 30.728C16.6421 31.4147 16.5167 32.0933 16.3109 32.7547C16.7355 32.6333 17.1547 32.4987 17.5927 32.432C18.0005 32.364 18.4088 32.3067 18.8177 32.2587Z" fill="#ED1C24"/>
<path fill-rule="evenodd" clip-rule="evenodd" d="M10.1349 8.83202C11.1932 8.47068 12.2849 8.21735 13.3797 7.98535C14.4729 7.77068 15.576 7.59469 16.6822 7.45736C17.801 7.32269 18.924 7.15601 20.0536 7.21335C20.625 7.24135 21.1958 7.29069 21.7588 7.39069C22.3374 7.49336 22.9114 7.63735 23.4453 7.88669C23.6385 7.97602 23.6754 8.09468 23.5885 8.28268C23.5213 8.42668 23.453 8.45335 23.314 8.45335C22.2265 8.43069 21.1406 8.48402 20.0562 8.53202C18.9661 8.59468 17.874 8.54934 16.7828 8.60934C15.6942 8.66668 14.6062 8.75869 13.5218 8.89069C12.439 9.00936 11.3598 9.17335 10.2953 9.40269C10.0869 9.44935 9.98691 9.37602 9.94011 9.17336C9.90305 8.98802 9.95465 8.89335 10.1349 8.83202Z" fill="#231F20"/>
</svg>
