<svg width="32" height="44" viewBox="0 0 32 44" fill="none" xmlns="http://www.w3.org/2000/svg">
<path fill-rule="evenodd" clip-rule="evenodd" d="M11.7214 6.37201C12.3827 6.49201 13.052 6.60133 13.7253 6.62533C14.3733 6.65599 15.024 6.61467 15.66 6.48934C16.308 6.36134 16.9187 6.076 17.5613 5.916C18.2573 5.736 18.9374 5.56267 19.6547 5.51467C19.872 5.49467 19.9627 5.58133 19.976 5.78267C19.9907 5.92133 19.9547 5.96667 19.8694 6.04001C19.3 6.51201 18.6667 6.86666 17.992 7.16133C17.3107 7.46266 16.5613 7.56667 15.8267 7.63467C15.092 7.70667 14.3454 7.66933 13.62 7.53333C12.9187 7.39733 12.2307 7.19601 11.564 6.94134C11.372 6.86801 11.3187 6.75867 11.3907 6.56533C11.4534 6.38667 11.544 6.34401 11.7214 6.37201ZM19.5014 13.848C18.2294 13.9147 16.9533 13.8667 15.6787 13.9227C14.408 13.9733 13.1374 14.0573 11.8707 14.1827C10.608 14.3 9.34668 14.448 8.10934 14.7173C7.90534 14.764 7.80135 14.696 7.75335 14.4933C7.71202 14.3 7.77068 14.2067 7.95068 14.1467C9.18802 13.7427 10.4707 13.5053 11.7507 13.2747C13.0267 13.0667 14.3107 12.9 15.5973 12.7667C16.8933 12.64 18.192 12.476 19.496 12.5293C20.1547 12.5547 20.812 12.6 21.464 12.6973C22.1333 12.7973 22.8 12.9307 23.424 13.1973C23.6187 13.2787 23.6613 13.3973 23.5813 13.5893C23.5147 13.74 23.444 13.7733 23.296 13.7693C22.0293 13.7213 20.764 13.8013 19.5014 13.848Z" fill="#231F20"/>
<path fill-rule="evenodd" clip-rule="evenodd" d="M18.3853 20.064C18.3906 20.036 18.396 20.008 18.4013 19.98C18.4866 19.5147 18.4773 19.0493 18.6213 18.5933C18.768 18.1067 18.9333 17.6547 19.196 17.2174C19.3053 17.0307 19.4226 17.0027 19.6146 17.1147C19.684 17.16 19.7053 17.1827 19.736 17.2613C19.836 17.5213 19.884 17.7853 19.9093 18.06C19.9373 18.316 19.936 18.5707 19.9173 18.824C19.8946 19.2347 19.76 19.6054 19.624 19.98C19.7973 19.9747 19.9706 19.9734 20.144 19.9747C21.4453 19.9814 22.748 20.068 24.0213 20.3507C24.2253 20.3974 24.2906 20.5 24.2453 20.7027C24.2106 20.868 24.1426 20.912 23.996 20.9347C22.732 21.0987 21.4613 21.1907 20.1933 21.2933C19.8253 21.324 19.4573 21.344 19.0907 21.36C19.048 21.4507 19.0053 21.5414 18.9613 21.6307C18.736 22.0694 18.492 22.5 18.1893 22.888C18.0613 23.0534 17.94 23.072 17.7747 22.9427C17.632 22.836 17.616 22.7427 17.6813 22.5933C17.84 22.2027 17.9786 21.8053 18.0853 21.3947C17.5266 21.4133 16.9666 21.432 16.4093 21.4707C15.6386 21.5214 14.8666 21.584 14.0973 21.66C14.1133 21.8453 14.124 22.032 14.1293 22.2187C14.1333 22.6387 14.128 23.0613 14.0613 23.476C14.028 23.688 13.924 23.752 13.7213 23.724C13.5547 23.696 13.4973 23.6333 13.476 23.4773C13.412 23.0973 13.3346 22.72 13.2266 22.348C13.1733 22.1534 13.1186 21.96 13.06 21.7667C12.92 21.7827 12.78 21.7987 12.64 21.8147C11.384 21.9494 10.1333 22.1187 8.88798 22.3134C8.67865 22.352 8.58264 22.2734 8.54531 22.072C8.51198 21.8747 8.57864 21.7867 8.76131 21.736C9.99731 21.4094 11.2507 21.1533 12.5067 20.9093C12.5893 20.8947 12.672 20.88 12.7533 20.864C12.6507 20.612 12.5453 20.3654 12.508 20.0814C12.44 19.636 12.416 19.2174 12.492 18.768C12.5293 18.5574 12.624 18.488 12.8426 18.5227C12.9133 18.536 12.9346 18.548 12.984 18.588C13.172 18.7467 13.3213 18.9294 13.456 19.132C13.5813 19.3147 13.684 19.5107 13.7693 19.712C13.912 20.02 13.9466 20.3334 13.9813 20.656C14.7506 20.532 15.5226 20.4187 16.296 20.3187C16.992 20.2307 17.688 20.1334 18.3853 20.064ZM16.352 26.3014C16.676 26.1814 16.9773 26.0054 17.3186 25.916C17.5293 25.8534 17.7373 25.796 17.9506 25.7534C18.1906 25.7 18.424 25.6587 18.668 25.6467C18.8813 25.6347 18.9733 25.7067 18.9866 25.92C18.996 26.016 18.9786 26.044 18.9426 26.1054C18.6666 26.5467 18.28 26.8707 17.8346 27.1253C17.4413 27.3573 17 27.4227 16.5573 27.476C16.6013 27.816 16.636 28.1587 16.6653 28.5027C17.2026 28.444 17.7373 28.3867 18.2707 28.4987C18.5653 28.5534 18.852 28.6307 19.132 28.7347C19.276 28.7867 19.4187 28.8453 19.5573 28.9093C19.5933 28.6 19.656 28.2934 19.7293 27.9907C19.8373 27.5494 19.9707 27.1147 20.1213 26.688C20.2667 26.2614 20.4386 25.8467 20.612 25.4293C20.716 25.192 20.8213 24.956 20.9346 24.7227C20.792 24.6494 20.6386 24.5973 20.484 24.5587C20.1093 24.464 19.7053 24.4454 19.32 24.4494C18.4666 24.4654 17.612 24.5987 16.7707 24.7387C16.4813 24.788 16.1947 24.84 15.9067 24.8894C16.02 25.136 16.1093 25.3947 16.1866 25.6547C16.2493 25.8694 16.304 26.084 16.352 26.3014ZM15.6013 27.5267C15.376 27.5147 15.152 27.4867 14.9333 27.4387C14.4626 27.3307 14.004 27.148 13.6093 26.8747C13.436 26.7614 13.4093 26.64 13.524 26.4654C13.6227 26.312 13.7106 26.3013 13.8613 26.3427C14.2386 26.464 14.6333 26.5414 15.032 26.532C15.2 26.5307 15.368 26.5187 15.536 26.496C15.5133 26.2733 15.484 26.0507 15.4466 25.8307C15.396 25.552 15.336 25.2707 15.2413 25.004C14.8747 25.064 14.5067 25.12 14.1373 25.1667C13.6853 25.224 13.232 25.2693 12.776 25.2787C12.5626 25.2827 12.348 25.2787 12.136 25.2613C12.236 25.4213 12.3333 25.5854 12.428 25.748C12.7066 26.2374 12.9546 26.744 13.1693 27.2627C13.396 27.8067 13.6547 28.3173 13.7213 28.9107C13.732 28.992 13.74 29.0747 13.748 29.156C14.0893 29.036 14.436 28.9307 14.7853 28.8334C15.0586 28.7614 15.336 28.6974 15.616 28.6467C15.62 28.2734 15.616 27.9 15.6013 27.5267ZM18.8053 33.9494C18.6387 33.7307 18.4453 33.536 18.236 33.36C18.068 33.2253 18.0666 33.1 18.1946 32.94C18.296 32.82 18.3693 32.8027 18.5106 32.8453C18.8546 32.9507 19.1693 33.1334 19.468 33.336C19.7573 33.5414 20.0213 33.7827 20.26 34.044C20.5186 34.3267 20.7946 34.5574 20.92 34.9307C20.988 35.1147 21.0346 35.3 21.0533 35.4933C21.076 35.7093 21.0693 35.9214 21.012 36.1307C20.952 36.3494 20.8573 36.4094 20.648 36.3494C20.584 36.336 20.5693 36.32 20.5506 36.308C20.3853 36.2 20.2427 36.08 20.1053 35.9427C19.9827 35.8253 19.8747 35.7 19.7733 35.5707C19.552 35.308 19.4946 35.0147 19.3306 34.7307C19.324 34.7187 19.3173 34.708 19.3106 34.696C19.1533 34.8133 18.9866 34.9147 18.8146 35.008C18.524 35.1667 18.2187 35.2894 17.9067 35.4C17.2893 35.62 16.6507 35.6427 16.0053 35.712C15.3787 35.7813 14.748 35.82 14.116 35.8214C13.7986 35.8187 13.4813 35.8067 13.164 35.7814C12.836 35.7534 12.508 35.7107 12.1907 35.616C11.992 35.556 11.936 35.4467 11.9933 35.244C12.0466 35.076 12.1226 35.0267 12.296 35.036C12.8813 35.076 13.4706 35 14.048 34.9093C14.5213 34.836 14.992 34.7467 15.46 34.648C15.4026 33.9187 15.3987 33.1894 15.404 32.4574C14.5893 32.544 13.7746 32.6467 12.9626 32.764C11.9906 32.9 11.0147 33.0453 10.0547 33.2627C10.0973 33.364 10.1386 33.4667 10.176 33.5707C10.3786 34.0987 10.392 34.644 10.4586 35.196C10.524 35.7293 10.5666 36.2667 10.5773 36.8067C10.5826 37.3454 10.576 37.8854 10.5106 38.4187C10.4866 38.6307 10.3853 38.7027 10.1773 38.6787C10.0026 38.6547 9.94398 38.5867 9.92132 38.4227C9.85732 37.9147 9.77998 37.4067 9.66932 36.9054C9.56665 36.4054 9.44932 35.9067 9.32132 35.412C9.19065 34.9027 8.97465 34.428 8.90131 33.904C8.81731 33.3574 8.76265 32.8267 8.78932 32.272C8.80265 32.06 8.89065 31.976 9.10398 31.9894C9.20932 31.9947 9.23998 32.016 9.30398 32.0787C9.47865 32.2573 9.62398 32.4574 9.75065 32.6707C10.1693 32.528 10.596 32.4093 11.024 32.2947C11.6133 32.1387 12.2066 31.996 12.8026 31.8627C13.6813 31.6747 14.564 31.5054 15.452 31.352C15.496 30.8014 15.56 30.2493 15.584 29.696C15.584 29.6947 15.584 29.692 15.584 29.6894C15.3693 29.7 15.1547 29.7147 14.9413 29.7334C14.5427 29.764 14.144 29.8173 13.748 29.8787C13.7226 30.1733 13.6666 30.4627 13.5506 30.7387C13.4666 30.932 13.3546 30.9773 13.1506 30.8947C13.06 30.8507 13.0386 30.8213 13 30.7427C12.888 30.4827 12.788 30.2187 12.6946 29.9547C12.6013 29.7027 12.5173 29.4507 12.436 29.1974C12.26 28.688 12.2173 28.1547 12.076 27.64C11.936 27.1307 11.776 26.6267 11.5973 26.128C11.4253 25.624 11.2173 25.132 11 24.6453C10.9173 24.4573 10.956 24.34 11.1466 24.256C11.3146 24.1774 11.4053 24.212 11.5053 24.3453C11.564 24.4187 11.62 24.4947 11.676 24.572C12.028 24.6227 12.3853 24.604 12.7333 24.5707C13.16 24.528 13.5826 24.4534 14.0013 24.3654C14.8626 24.1827 15.716 23.9573 16.5747 23.7613C17.464 23.5573 18.352 23.3654 19.264 23.2907C19.756 23.2507 20.2453 23.2507 20.7333 23.3267C21.3026 23.416 21.8506 23.636 22.2666 24.0427L22.612 24.3814L22.392 24.8267C22.2013 25.2173 22.0013 25.604 21.804 25.992L21.2053 27.1494C20.816 27.92 20.4173 28.6854 20.0986 29.484C20.04 29.6467 19.9533 29.7094 19.82 29.6894C19.5413 29.7494 19.2613 29.776 18.976 29.7933C18.6973 29.8107 18.42 29.812 18.1426 29.8093C17.6693 29.8147 17.208 29.7187 16.74 29.6867C16.74 29.6907 16.7413 29.6947 16.7413 29.6987C16.7587 30.1787 16.7867 30.6574 16.7907 31.136C17.8747 30.9667 18.9573 30.7907 20.0573 30.7907C20.684 30.7907 21.3093 30.812 21.9306 30.8933C22.5773 30.9813 23.224 31.0987 23.8026 31.4174C23.868 31.44 23.9093 31.4734 23.936 31.5187C23.9853 31.5787 23.9946 31.648 23.968 31.7307C23.952 32.348 23.9973 32.964 24.0453 33.5787C24.0906 34.2373 24.1306 34.892 24.1026 35.5494C24.092 35.8987 24.0666 36.2467 24.012 36.5933C23.9466 36.9827 23.8093 37.3613 23.588 37.692C23.3547 38.0373 23.0306 38.3387 22.6506 38.512C22.2826 38.6867 21.864 38.748 21.4613 38.6814C21.2533 38.6454 21.1853 38.5467 21.2173 38.3347C21.24 38.2187 21.2693 38.1854 21.36 38.1307C21.5973 37.9894 21.848 37.8294 22.0413 37.6307C22.2107 37.4547 22.344 37.2614 22.4426 37.04C22.6693 36.5254 22.864 35.9987 22.9506 35.4414C23.0426 34.824 23.0813 34.1974 23.1306 33.5734C23.1813 33.028 23.2173 32.4827 23.316 31.9467C22.8413 31.916 22.3653 31.9467 21.892 31.9694C21.3 32.008 20.7106 32.0534 20.12 32.108C18.9933 32.2187 17.86 32.2347 16.7333 32.3293C16.728 32.36 16.7253 32.388 16.7213 32.4187C16.6307 33.1054 16.5053 33.7853 16.2986 34.4453C16.7226 34.324 17.1426 34.1894 17.5813 34.1227C17.9893 34.0547 18.396 33.9974 18.8053 33.9494Z" fill="#ED1C24"/>
</svg>
