<svg width="32" height="44" viewBox="0 0 32 44" fill="none" xmlns="http://www.w3.org/2000/svg">
<path fill-rule="evenodd" clip-rule="evenodd" d="M19.5213 11.288C18.8226 11.316 18.1386 11.256 17.4426 11.2333C16.7986 11.216 16.1453 11.1133 15.5013 11.172C14.8453 11.232 14.196 11.3787 13.5613 11.5493C12.896 11.7227 12.2426 11.94 11.5853 12.1333C11.3853 12.1947 11.272 12.136 11.216 11.936C11.16 11.7547 11.208 11.668 11.364 11.5853C11.988 11.2667 12.6213 10.9653 13.264 10.6853C13.9333 10.4027 14.6213 10.1627 15.336 10.0267C16.076 9.88 16.844 9.77334 17.5906 9.92268C18.332 10.0667 19.04 10.3227 19.668 10.7387C19.8506 10.852 19.8733 10.9733 19.76 11.1533C19.6906 11.2587 19.6399 11.2827 19.5213 11.288ZM11.5519 5.64667C12.2133 5.768 12.8826 5.876 13.556 5.9C14.2026 5.93067 14.8533 5.89067 15.4893 5.764C16.1373 5.636 16.7506 5.35068 17.392 5.19068C18.088 5.01068 18.7666 4.83734 19.4853 4.78801C19.7013 4.76934 19.7893 4.85467 19.8066 5.064C19.8173 5.19734 19.7853 5.24267 19.7 5.31467C19.1306 5.78667 18.4973 6.14267 17.8226 6.43601C17.1413 6.73734 16.392 6.84 15.6573 6.90933C14.9226 6.98266 14.1759 6.94268 13.4506 6.80801C12.7479 6.67201 12.06 6.472 11.3933 6.216C11.2013 6.14134 11.152 6.02934 11.2226 5.83334C11.2893 5.66267 11.3759 5.61867 11.5519 5.64667ZM7.78264 15.9587C9.01864 15.5547 10.3013 15.316 11.5813 15.0867C12.8573 14.8787 14.1413 14.712 15.428 14.58C16.724 14.452 18.0226 14.288 19.3266 14.34C19.9853 14.3667 20.6426 14.412 21.2946 14.5093C21.964 14.6093 22.632 14.7427 23.2573 15.012C23.448 15.0947 23.492 15.2093 23.412 15.4013C23.3453 15.556 23.2706 15.5853 23.128 15.5813C21.86 15.5333 20.596 15.6133 19.332 15.66C18.0586 15.7253 16.784 15.6787 15.5093 15.7347C14.2386 15.7853 12.9666 15.8693 11.7 15.9947C10.4386 16.112 9.1773 16.26 7.93863 16.5293C7.7333 16.5773 7.63061 16.5053 7.58394 16.3053C7.54128 16.1147 7.59998 16.0147 7.78264 15.9587Z" fill="#231F20"/>
<path fill-rule="evenodd" clip-rule="evenodd" d="M17.7307 20.7894C17.7373 20.76 17.7427 20.732 17.748 20.704C17.8333 20.2387 17.824 19.7733 17.968 19.3173C18.1147 18.832 18.28 18.3787 18.5413 17.9453C18.6493 17.752 18.7707 17.7267 18.9573 17.8373C19.0333 17.8827 19.0507 17.9067 19.0827 17.9867C19.1827 18.2453 19.2307 18.5107 19.2573 18.7853C19.284 19.04 19.2827 19.296 19.264 19.5493C19.2427 19.96 19.108 20.3294 18.9707 20.7054C19.144 20.7 19.3173 20.6973 19.4907 20.7C20.7907 20.7067 22.0947 20.7934 23.368 21.0747C23.5693 21.12 23.64 21.2213 23.5933 21.4253C23.56 21.5933 23.492 21.64 23.34 21.66C22.076 21.824 20.808 21.916 19.54 22.016C19.172 22.048 18.8053 22.0693 18.4373 22.084C18.3947 22.176 18.352 22.2667 18.3067 22.356C18.0827 22.7934 17.8387 23.224 17.536 23.6133C17.4067 23.7787 17.284 23.7933 17.1187 23.664C16.9827 23.5573 16.9667 23.472 17.0267 23.32C17.1853 22.9293 17.324 22.5293 17.432 22.12C16.8733 22.1387 16.3133 22.1573 15.756 22.1947C14.984 22.2453 14.2147 22.3093 13.4453 22.384C13.46 22.5693 13.472 22.756 13.476 22.9427C13.48 23.364 13.4747 23.7853 13.408 24.2013C13.3747 24.408 13.276 24.48 13.072 24.448C12.9 24.424 12.8493 24.356 12.8227 24.204C12.76 23.824 12.6813 23.4453 12.5733 23.072C12.5213 22.8787 12.4653 22.6853 12.4067 22.492C12.2667 22.5067 12.128 22.524 11.988 22.54C10.7307 22.6734 9.48 22.8427 8.23467 23.0373C8.028 23.0747 7.92799 23.0013 7.89199 22.796C7.85732 22.5987 7.92667 22.5107 8.10801 22.46C9.34401 22.1333 10.5973 21.8773 11.8533 21.6333C11.936 21.6187 12.0173 21.604 12.1 21.5894C11.9973 21.336 11.8933 21.0894 11.8547 20.8067C11.788 20.3614 11.7627 19.9427 11.8387 19.4973C11.8733 19.2787 11.972 19.212 12.1867 19.2467C12.2573 19.26 12.2773 19.268 12.332 19.3133C12.5187 19.4707 12.668 19.6534 12.8027 19.856C12.928 20.04 13.0306 20.236 13.1173 20.436C13.2573 20.744 13.2933 21.0587 13.328 21.38C14.0973 21.256 14.8707 21.1427 15.644 21.0427C16.3387 20.956 17.0347 20.8574 17.7307 20.7894ZM15.7 27.0267C16.0227 26.9053 16.324 26.7294 16.6653 26.64C16.876 26.5787 17.084 26.5213 17.2973 26.4773C17.5373 26.424 17.7707 26.3827 18.012 26.372C18.2307 26.3547 18.3173 26.4387 18.3347 26.6547C18.3387 26.74 18.3267 26.7693 18.2893 26.832C18.012 27.272 17.6267 27.5947 17.1813 27.8507C16.788 28.0813 16.348 28.1467 15.904 28.2C15.948 28.5413 15.984 28.8827 16.012 29.2267C16.5493 29.1693 17.0826 29.112 17.6173 29.224C17.912 29.2787 18.2 29.3547 18.4787 29.4587C18.624 29.512 18.7653 29.5693 18.904 29.6347C18.94 29.3253 19.0027 29.0187 19.076 28.716C19.184 28.2733 19.3173 27.8387 19.468 27.412C19.6133 26.9867 19.7853 26.5707 19.9573 26.1533C20.0613 25.916 20.168 25.68 20.2813 25.4467C20.1387 25.3733 19.9853 25.32 19.8307 25.2827C19.4547 25.188 19.052 25.1707 18.6667 25.1734C17.812 25.1894 16.9586 25.3227 16.1173 25.464C15.8293 25.512 15.5413 25.564 15.2533 25.6133C15.368 25.86 15.456 26.1187 15.5333 26.38C15.596 26.5933 15.6507 26.8093 15.7 27.0267ZM14.948 28.2507C14.724 28.24 14.5 28.212 14.28 28.164C13.8093 28.056 13.3507 27.872 12.9533 27.5973C12.7853 27.4827 12.7573 27.3667 12.8707 27.1907C12.9667 27.04 13.0533 27.0213 13.2093 27.068C13.5853 27.188 13.98 27.2654 14.3787 27.2574C14.548 27.256 14.7147 27.2427 14.8813 27.22C14.86 26.9973 14.8307 26.7747 14.7933 26.5547C14.7427 26.276 14.684 25.9947 14.588 25.7267C14.2213 25.788 13.8533 25.844 13.484 25.8907C13.032 25.9494 12.5787 25.9947 12.124 26.004C11.9093 26.008 11.6947 26.004 11.4827 25.9853C11.5827 26.1453 11.68 26.3093 11.776 26.472C12.0533 26.9613 12.3013 27.468 12.5173 27.988C12.7426 28.5307 13.0013 29.0413 13.068 29.6347C13.0787 29.716 13.0867 29.7973 13.0947 29.88C13.436 29.7613 13.7827 29.6547 14.1307 29.5574C14.4053 29.4854 14.6827 29.4213 14.9613 29.3707C14.9667 28.9973 14.9627 28.624 14.948 28.2507ZM18.152 34.6734C17.9853 34.4547 17.7907 34.26 17.5813 34.0827C17.4213 33.9493 17.4107 33.828 17.5427 33.664C17.6427 33.5453 17.716 33.528 17.8573 33.5707C18.2013 33.676 18.516 33.8587 18.8147 34.0613C19.104 34.2667 19.368 34.5067 19.6067 34.7693C19.8653 35.052 20.1413 35.2813 20.2667 35.656C20.3347 35.8387 20.3813 36.024 20.4 36.2173C20.4227 36.4333 20.416 36.6453 20.3587 36.856C20.3 37.072 20.2 37.1333 19.9773 37.0693C19.9427 37.06 19.9387 37.0573 19.9 37.036C19.732 36.924 19.588 36.804 19.4506 36.6667C19.3293 36.5493 19.2213 36.4253 19.12 36.2947C18.8973 36.0333 18.8413 35.7387 18.6773 35.4547C18.6707 35.444 18.664 35.4333 18.6573 35.4213C18.5013 35.5373 18.3347 35.6387 18.1613 35.732C17.872 35.8907 17.5653 36.0134 17.2533 36.124C16.636 36.344 15.996 36.3667 15.352 36.436C14.7253 36.5053 14.0947 36.5453 13.4627 36.5453C13.1453 36.5427 12.828 36.5307 12.5107 36.5053C12.1827 36.4787 11.8547 36.436 11.5373 36.34C11.3387 36.28 11.2787 36.1733 11.3387 35.972C11.3907 35.7987 11.472 35.7467 11.644 35.7613C12.228 35.8 12.8173 35.724 13.3947 35.6333C13.868 35.56 14.3387 35.4707 14.8067 35.372C14.7493 34.6427 14.7453 33.9133 14.7506 33.1827C13.936 33.2693 13.1213 33.3707 12.3107 33.4893C11.336 33.6253 10.36 33.7693 9.4 33.988C9.444 34.0893 9.48399 34.192 9.52132 34.296C9.72532 34.824 9.73867 35.368 9.80534 35.9213C9.872 36.4533 9.91199 36.9907 9.92532 37.5307C9.92799 38.0693 9.92266 38.6093 9.85732 39.1467C9.82932 39.352 9.73332 39.4267 9.52532 39.404C9.34932 39.38 9.29067 39.312 9.268 39.1467C9.20533 38.6387 9.12665 38.132 9.01732 37.6307C8.91332 37.1293 8.796 36.6307 8.66933 36.136C8.53733 35.6267 8.32135 35.1533 8.24801 34.628C8.16401 34.0827 8.108 33.5507 8.136 32.996C8.14933 32.784 8.23999 32.7053 8.45866 32.7147C8.55466 32.7227 8.58532 32.74 8.65065 32.804C8.82532 32.9813 8.97066 33.1827 9.09733 33.3947C9.516 33.2533 9.94267 33.1333 10.3693 33.02C10.96 32.864 11.5533 32.7213 12.1493 32.588C13.028 32.3987 13.9107 32.2293 14.7973 32.0787C14.8427 31.5253 14.9067 30.9747 14.9307 30.4213C14.9307 30.4187 14.9307 30.416 14.9307 30.4147C14.716 30.424 14.5013 30.4387 14.288 30.4587C13.888 30.488 13.4907 30.5427 13.0947 30.6027C13.0693 30.8973 13.012 31.1853 12.8987 31.46C12.8173 31.6573 12.704 31.7027 12.508 31.6227C12.404 31.5813 12.384 31.5467 12.3467 31.4653C12.2333 31.2067 12.136 30.9427 12.04 30.6787C11.948 30.4267 11.8627 30.1747 11.7827 29.9213C11.608 29.412 11.564 28.8787 11.4227 28.364C11.2827 27.8547 11.1227 27.3507 10.944 26.852C10.772 26.348 10.564 25.856 10.3467 25.3693C10.264 25.1813 10.3053 25.064 10.5 24.9773C10.6613 24.908 10.7493 24.936 10.852 25.068C10.9107 25.1427 10.9667 25.22 11.0227 25.296C11.3747 25.3467 11.732 25.328 12.0813 25.296C12.508 25.2533 12.9293 25.1774 13.348 25.0907C14.2107 24.9067 15.0627 24.6827 15.9213 24.4853C16.8107 24.2813 17.7 24.0893 18.6107 24.016C19.1027 23.976 19.5907 23.976 20.08 24.0507C20.6493 24.1413 21.1973 24.36 21.6133 24.768L21.9573 25.1067L21.7387 25.5507C21.548 25.9413 21.348 26.328 21.1506 26.716L20.552 27.8734C20.1627 28.6454 19.764 29.4107 19.444 30.2147C19.384 30.3667 19.3027 30.432 19.1693 30.4133C18.8893 30.4733 18.608 30.5013 18.324 30.516C18.044 30.5347 17.7667 30.5373 17.4893 30.5333C17.016 30.5387 16.5547 30.4427 16.088 30.4107C16.088 30.4147 16.088 30.4187 16.088 30.424C16.1053 30.9027 16.1333 31.3827 16.1373 31.8613C17.2213 31.6907 18.304 31.5147 19.4053 31.516C20.0293 31.5147 20.656 31.536 21.2773 31.6173C21.9213 31.7053 22.564 31.8227 23.1427 32.1387C23.2187 32.164 23.2653 32.2013 23.2907 32.256C23.3307 32.312 23.3373 32.376 23.3147 32.4533C23.2973 33.0707 23.344 33.688 23.392 34.304C23.4373 34.9613 23.476 35.6174 23.4493 36.2747C23.4387 36.624 23.4133 36.9707 23.3587 37.3173C23.2933 37.708 23.156 38.0853 22.9347 38.416C22.7013 38.7613 22.3773 39.0627 21.9973 39.2373C21.6293 39.4107 21.212 39.4734 20.812 39.4067C20.5973 39.3734 20.528 39.2693 20.564 39.0627C20.5827 38.9453 20.6133 38.9067 20.708 38.8533C20.9467 38.7133 21.1947 38.5533 21.388 38.356C21.5573 38.1787 21.6907 37.9853 21.7907 37.764C22.016 37.2493 22.2093 36.7227 22.2973 36.1653C22.3893 35.548 22.428 34.9213 22.4773 34.2973C22.528 33.7533 22.564 33.208 22.6613 32.6707C22.188 32.6413 21.7107 32.6707 21.2387 32.6933C20.648 32.7333 20.0573 32.7787 19.4667 32.8333C18.34 32.9427 17.2067 32.96 16.0787 33.0533C16.076 33.084 16.072 33.1133 16.068 33.1427C15.9773 33.8307 15.852 34.5107 15.6453 35.1693C16.0693 35.048 16.4893 34.9133 16.928 34.8467C17.336 34.7787 17.744 34.7214 18.152 34.6734Z" fill="#ED1C24"/>
</svg>
