<svg width="31" height="43" viewBox="0 0 31 43" fill="none" xmlns="http://www.w3.org/2000/svg">
<rect width="31" height="43" rx="5" fill="white"/>
<path d="M10.1668 6.52C10.1668 6.37067 10.2201 6.24267 10.3268 6.136C10.4335 6.02933 10.5615 5.976 10.7108 5.976H20.2948C20.4441 5.976 20.5721 6.02933 20.6788 6.136C20.7855 6.24267 20.8388 6.37067 20.8388 6.52V18.92C20.8388 19.0693 20.8015 19.2347 20.7268 19.416C20.6521 19.608 20.5615 19.752 20.4548 19.848L20.0548 20.264C19.9375 20.3813 19.7881 20.4773 19.6068 20.552C19.4255 20.6267 19.2548 20.664 19.0948 20.664H10.7108C10.5615 20.664 10.4335 20.6427 10.3268 20.6C10.2201 20.5573 10.1668 20.504 10.1668 20.44V6.52ZM18.7908 19.176C18.9508 19.176 19.0841 19.1227 19.1908 19.016C19.2975 18.9093 19.3508 18.776 19.3508 18.616V18.232C19.3508 18.0827 19.2975 17.9547 19.1908 17.848C19.0841 17.7413 18.9508 17.688 18.7908 17.688H17.9748C17.8255 17.688 17.6548 17.6507 17.4628 17.576C17.2815 17.4907 17.1375 17.4 17.0308 17.304L16.6468 16.904C16.5295 16.7867 16.4335 16.6373 16.3588 16.456C16.2841 16.2747 16.2468 16.104 16.2468 15.944V8.008C16.2468 7.85867 16.1881 7.73067 16.0708 7.624C15.9641 7.50667 15.8361 7.448 15.6868 7.448H15.3348C15.1855 7.448 15.0521 7.50667 14.9348 7.624C14.8281 7.73067 14.7748 7.85867 14.7748 8.008V15.944C14.7748 16.104 14.7375 16.2747 14.6628 16.456C14.5881 16.6373 14.4921 16.7867 14.3748 16.904L13.9748 17.304C13.8681 17.4 13.7188 17.4907 13.5268 17.576C13.3455 17.6507 13.1801 17.688 13.0308 17.688H12.2148C12.0548 17.688 11.9215 17.7413 11.8148 17.848C11.7081 17.9547 11.6548 18.0827 11.6548 18.232V18.6C11.6548 18.76 11.7081 18.8933 11.8148 19C11.9215 19.1067 12.0548 19.16 12.2148 19.16L18.7908 19.176ZM11.6548 15.656C11.6548 15.8053 11.7081 15.9333 11.8148 16.04C11.9215 16.1467 12.0548 16.2 12.2148 16.2H12.7268C12.8868 16.2 13.0201 16.1467 13.1268 16.04C13.2441 15.9333 13.3028 15.8053 13.3028 15.656V8.008C13.3028 7.85867 13.2441 7.73067 13.1268 7.624C13.0201 7.50667 12.8868 7.448 12.7268 7.448H12.2148C12.0548 7.448 11.9215 7.50667 11.8148 7.624C11.7081 7.73067 11.6548 7.85867 11.6548 8.008V15.656ZM19.3508 8.008C19.3508 7.85867 19.2975 7.73067 19.1908 7.624C19.0841 7.50667 18.9508 7.448 18.7908 7.448H18.2948C18.1348 7.448 17.9961 7.50667 17.8788 7.624C17.7721 7.73067 17.7188 7.85867 17.7188 8.008V15.656C17.7188 15.8053 17.7721 15.9333 17.8788 16.04C17.9961 16.1467 18.1348 16.2 18.2948 16.2H18.7908C18.9508 16.2 19.0841 16.1467 19.1908 16.04C19.2975 15.9333 19.3508 15.8053 19.3508 15.656V8.008Z" fill="#181818"/>
<path d="M10.2308 24.968C10.2308 24.84 10.2735 24.728 10.3588 24.632C10.4548 24.536 10.5721 24.488 10.7108 24.488H11.3988C11.5268 24.488 11.6388 24.4507 11.7348 24.376C11.8308 24.3013 11.8788 24.2053 11.8788 24.088C11.8788 23.9707 11.9215 23.8747 12.0068 23.8C12.1028 23.7253 12.2201 23.688 12.3588 23.688H12.8388C12.9775 23.688 13.0895 23.7253 13.1748 23.8C13.2708 23.8747 13.3188 23.9707 13.3188 24.088C13.3188 24.2053 13.3668 24.3013 13.4628 24.376C13.5588 24.4507 13.6708 24.488 13.7988 24.488H17.1108C17.2388 24.488 17.3508 24.4507 17.4468 24.376C17.5428 24.3013 17.5908 24.2053 17.5908 24.088C17.5908 23.9707 17.6335 23.8747 17.7188 23.8C17.8148 23.7253 17.9321 23.688 18.0708 23.688H18.5668C18.6948 23.688 18.8068 23.7253 18.9028 23.8C18.9988 23.8747 19.0468 23.9707 19.0468 24.088C19.0468 24.2053 19.0895 24.3013 19.1748 24.376C19.2708 24.4507 19.3881 24.488 19.5268 24.488H20.2148C20.3535 24.488 20.4655 24.536 20.5508 24.632C20.6468 24.728 20.6948 24.84 20.6948 24.968V25.464C20.6948 25.6027 20.6468 25.72 20.5508 25.816C20.4655 25.9013 20.3535 25.944 20.2148 25.944H19.5268C19.3881 25.944 19.2708 25.9813 19.1748 26.056C19.0895 26.1307 19.0468 26.2213 19.0468 26.328C19.0468 26.4347 18.9988 26.5253 18.9028 26.6C18.8068 26.6747 18.6948 26.712 18.5668 26.712H18.0708C17.9321 26.712 17.8148 26.6747 17.7188 26.6C17.6335 26.5253 17.5908 26.4347 17.5908 26.328C17.5908 26.2213 17.5428 26.1307 17.4468 26.056C17.3508 25.9813 17.2388 25.944 17.1108 25.944H13.7988C13.6708 25.944 13.5588 25.9813 13.4628 26.056C13.3668 26.1307 13.3188 26.2213 13.3188 26.328C13.3188 26.4347 13.2708 26.5253 13.1748 26.6C13.0895 26.6747 12.9775 26.712 12.8388 26.712H12.3588C12.2201 26.712 12.1028 26.6747 12.0068 26.6C11.9215 26.5253 11.8788 26.4347 11.8788 26.328C11.8788 26.2213 11.8308 26.1307 11.7348 26.056C11.6388 25.9813 11.5268 25.944 11.3988 25.944H10.7108C10.5721 25.944 10.4548 25.9013 10.3588 25.816C10.2735 25.72 10.2308 25.6027 10.2308 25.464V24.968ZM18.3268 38.072C18.1881 38.072 18.0708 38.024 17.9748 37.928C17.8895 37.8427 17.8468 37.736 17.8468 37.608C17.8468 37.4693 17.7988 37.352 17.7028 37.256C17.6068 37.1707 17.4948 37.128 17.3668 37.128H12.5028C12.3641 37.128 12.2468 37.0853 12.1508 37C12.0655 36.904 12.0228 36.7867 12.0228 36.648V36.168C12.0228 36.0293 12.0655 35.9173 12.1508 35.832C12.2468 35.736 12.3641 35.688 12.5028 35.688H14.3108C14.4388 35.688 14.5508 35.64 14.6468 35.544C14.7428 35.448 14.7908 35.336 14.7908 35.208V35.112C14.7908 34.9733 14.7428 34.8613 14.6468 34.776C14.5508 34.68 14.4388 34.632 14.3108 34.632H12.1828C12.0548 34.632 11.9428 34.68 11.8468 34.776C11.7508 34.8613 11.7028 34.9733 11.7028 35.112V37.592C11.7028 37.7307 11.6548 37.8427 11.5588 37.928C11.4735 38.024 11.3615 38.072 11.2228 38.072H10.7268C10.5988 38.072 10.4868 38.024 10.3908 37.928C10.2948 37.8427 10.2468 37.7307 10.2468 37.592V33.592C10.2468 33.4533 10.2948 33.3413 10.3908 33.256C10.4868 33.16 10.5988 33.112 10.7268 33.112H14.3108C14.4388 33.112 14.5508 33.0907 14.6468 33.048C14.7428 32.9947 14.7908 32.936 14.7908 32.872C14.7908 32.7973 14.7428 32.7387 14.6468 32.696C14.5508 32.6427 14.4388 32.616 14.3108 32.616H10.7268C10.5988 32.616 10.4868 32.5733 10.3908 32.488C10.2948 32.392 10.2468 32.2747 10.2468 32.136V27.512C10.2468 27.384 10.2948 27.272 10.3908 27.176C10.4868 27.08 10.5988 27.032 10.7268 27.032H20.2468C20.3748 27.032 20.4868 27.08 20.5828 27.176C20.6788 27.272 20.7268 27.384 20.7268 27.512V31.016C20.7268 31.1547 20.6895 31.304 20.6148 31.464C20.5508 31.624 20.4708 31.7467 20.3748 31.832L19.8948 32.28C19.7988 32.376 19.6708 32.456 19.5108 32.52C19.3508 32.584 19.2068 32.616 19.0788 32.616H16.7268C16.5881 32.616 16.4708 32.6427 16.3748 32.696C16.2895 32.7387 16.2468 32.7973 16.2468 32.872C16.2468 32.936 16.2895 32.9947 16.3748 33.048C16.4708 33.0907 16.5881 33.112 16.7268 33.112H20.2468C20.3748 33.112 20.4868 33.16 20.5828 33.256C20.6788 33.3413 20.7268 33.4533 20.7268 33.592V36.472C20.7268 36.6107 20.6895 36.76 20.6148 36.92C20.5508 37.0693 20.4708 37.192 20.3748 37.288L19.8948 37.736C19.7988 37.832 19.6708 37.912 19.5108 37.976C19.3508 38.04 19.2068 38.072 19.0788 38.072H18.3268ZM12.1828 28.488C12.0548 28.488 11.9428 28.52 11.8468 28.584C11.7508 28.648 11.7028 28.7227 11.7028 28.808C11.7028 28.904 11.7508 28.984 11.8468 29.048C11.9428 29.112 12.0548 29.144 12.1828 29.144H14.3108C14.4388 29.144 14.5508 29.112 14.6468 29.048C14.7428 28.984 14.7908 28.904 14.7908 28.808C14.7908 28.7227 14.7428 28.648 14.6468 28.584C14.5508 28.52 14.4388 28.488 14.3108 28.488H12.1828ZM19.2708 28.808C19.2708 28.7227 19.2228 28.648 19.1268 28.584C19.0308 28.52 18.9188 28.488 18.7908 28.488H16.7268C16.5881 28.488 16.4708 28.52 16.3748 28.584C16.2895 28.648 16.2468 28.7227 16.2468 28.808C16.2468 28.904 16.2895 28.984 16.3748 29.048C16.4708 29.112 16.5881 29.144 16.7268 29.144H18.7908C18.9188 29.144 19.0308 29.112 19.1268 29.048C19.2228 28.984 19.2708 28.904 19.2708 28.808ZM14.3108 31.16C14.4388 31.16 14.5508 31.1333 14.6468 31.08C14.7428 31.0267 14.7908 30.9573 14.7908 30.872C14.7908 30.7867 14.7428 30.7173 14.6468 30.664C14.5508 30.6107 14.4388 30.584 14.3108 30.584H12.1828C12.0548 30.584 11.9428 30.6107 11.8468 30.664C11.7508 30.7173 11.7028 30.7867 11.7028 30.872C11.7028 30.9573 11.7508 31.0267 11.8468 31.08C11.9428 31.1333 12.0548 31.16 12.1828 31.16H14.3108ZM18.7908 31.16C18.9188 31.16 19.0308 31.1333 19.1268 31.08C19.2228 31.0267 19.2708 30.9573 19.2708 30.872C19.2708 30.7867 19.2228 30.7173 19.1268 30.664C19.0308 30.6107 18.9188 30.584 18.7908 30.584H16.7268C16.5881 30.584 16.4708 30.6107 16.3748 30.664C16.2895 30.7173 16.2468 30.7867 16.2468 30.872C16.2468 30.9573 16.2895 31.0267 16.3748 31.08C16.4708 31.1333 16.5881 31.16 16.7268 31.16H18.7908ZM17.6068 35.4C17.6068 35.3147 17.6548 35.2453 17.7508 35.192C17.8468 35.1387 17.9588 35.112 18.0868 35.112H18.4388C18.5775 35.112 18.6895 35.1547 18.7748 35.24C18.8708 35.3253 18.9188 35.432 18.9188 35.56C18.9188 35.688 18.8921 35.8267 18.8388 35.976C18.7855 36.1147 18.7161 36.2267 18.6308 36.312C18.5881 36.3653 18.5668 36.4187 18.5668 36.472C18.5668 36.568 18.6468 36.616 18.8068 36.616C18.9348 36.616 19.0415 36.5733 19.1268 36.488C19.2228 36.392 19.2708 36.2747 19.2708 36.136V35.112C19.2708 34.9733 19.2228 34.8613 19.1268 34.776C19.0308 34.68 18.9188 34.632 18.7908 34.632H16.7268C16.5881 34.632 16.4708 34.68 16.3748 34.776C16.2895 34.8613 16.2468 34.9733 16.2468 35.112V35.208C16.2468 35.336 16.2895 35.448 16.3748 35.544C16.4708 35.64 16.5881 35.688 16.7268 35.688H17.1268C17.2548 35.688 17.3668 35.6613 17.4628 35.608C17.5588 35.544 17.6068 35.4747 17.6068 35.4Z" fill="#D34747"/>
</svg>
