<svg width="32" height="43" viewBox="0 0 32 43" fill="none" xmlns="http://www.w3.org/2000/svg">
<path fill-rule="evenodd" clip-rule="evenodd" d="M18.3973 19.7373C18.4031 19.7093 18.4084 19.68 18.4136 19.652C18.4984 19.1867 18.4891 18.724 18.6344 18.2667C18.7792 17.78 18.9464 17.3267 19.2088 16.8893C19.3177 16.7067 19.4323 16.6707 19.6208 16.784C19.6932 16.8267 19.7156 16.8507 19.7479 16.9347C19.8479 17.1947 19.8973 17.46 19.9224 17.7333C19.9489 17.9893 19.9489 18.244 19.9297 18.4973C19.9084 18.9067 19.7729 19.276 19.636 19.6533C19.8099 19.648 19.9833 19.6453 20.1563 19.648C21.4573 19.6547 22.7593 19.7413 24.0333 20.024C24.2344 20.0693 24.3052 20.1693 24.2584 20.3733C24.2251 20.5427 24.1573 20.5893 24.0063 20.608C22.7427 20.7733 21.474 20.864 20.2057 20.9653C19.8385 20.996 19.4708 21.016 19.1031 21.0333C19.0609 21.124 19.0177 21.2147 18.9735 21.304C18.7479 21.7413 18.5052 22.1733 18.2031 22.56C18.0751 22.7307 17.9484 22.7453 17.7885 22.616C17.6427 22.5093 17.6281 22.4187 17.6927 22.2667C17.8521 21.876 17.9907 21.4773 18.0973 21.068C17.5385 21.0853 16.9797 21.1053 16.4213 21.144C15.6505 21.1947 14.8797 21.2573 14.1099 21.332C14.126 21.5187 14.1364 21.7053 14.1417 21.892C14.1448 22.312 14.1401 22.7333 14.074 23.1493C14.0407 23.3573 13.938 23.4293 13.7323 23.396C13.5672 23.3693 13.5115 23.3067 13.488 23.1507C13.4245 22.772 13.3469 22.3933 13.2391 22.0213C13.1869 21.8267 13.1307 21.6333 13.0724 21.44C12.9333 21.456 12.7927 21.472 12.6536 21.488C11.3973 21.6213 10.1453 21.7907 8.90106 21.9853C8.69266 22.024 8.59426 21.9493 8.5568 21.7453C8.52346 21.548 8.59173 21.46 8.77293 21.408C10.0099 21.0827 11.2636 20.8267 12.5193 20.5827C12.6016 20.5667 12.6839 20.552 12.7656 20.5373C12.6625 20.2853 12.5584 20.04 12.5203 19.7547C12.4527 19.308 12.4281 18.8907 12.5041 18.44C12.5421 18.2307 12.6364 18.1573 12.8547 18.196C12.9224 18.208 12.9417 18.216 12.9964 18.2613C13.1844 18.4187 13.3344 18.6013 13.4688 18.8053C13.5937 18.9893 13.6959 19.184 13.7823 19.3853C13.924 19.6933 13.9584 20.0067 13.9937 20.3293C14.764 20.2053 15.536 20.092 16.3093 19.992C17.0047 19.904 17.7 19.8067 18.3973 19.7373ZM16.3651 25.9747C16.6891 25.8533 16.9901 25.6773 17.3303 25.588C17.5412 25.5267 17.75 25.4693 17.9631 25.4253C18.2027 25.372 18.4369 25.3307 18.6812 25.32C18.8948 25.3067 18.986 25.38 18.9989 25.5947C19.0084 25.688 18.9927 25.7187 18.9552 25.78C18.6787 26.2213 18.2932 26.5427 17.8469 26.7973C17.4536 27.0293 17.0131 27.0947 16.5693 27.1493C16.6136 27.4901 16.6495 27.8323 16.6781 28.1749C17.2151 28.1177 17.7489 28.0599 18.2833 28.1713C18.5776 28.2265 18.8656 28.3036 19.1443 28.4079C19.2896 28.4599 19.4312 28.5172 19.5693 28.5833C19.6057 28.2735 19.6688 27.9667 19.7421 27.664C19.85 27.2213 19.9823 26.788 20.1344 26.3613C20.2797 25.9347 20.4511 25.5187 20.6235 25.1013C20.7271 24.864 20.8333 24.628 20.9464 24.3947C20.8041 24.3227 20.6505 24.2693 20.4973 24.2307C20.1208 24.1373 19.7172 24.1187 19.3328 24.1213C18.4787 24.1387 17.6235 24.272 16.7828 24.412C16.4943 24.4613 16.2068 24.512 15.9193 24.5613C16.0328 24.8093 16.1213 25.0667 16.1989 25.328C16.2615 25.5413 16.3167 25.7573 16.3651 25.9747ZM15.6136 27.1987C15.3885 27.188 15.1651 27.16 14.9453 27.112C14.4745 27.004 14.0161 26.8213 13.6219 26.5467C13.4473 26.4333 13.4251 26.3147 13.5369 26.136C13.6349 25.9907 13.7197 25.9733 13.8735 26.016C14.2516 26.1373 14.6459 26.2147 15.0443 26.2053C15.2131 26.204 15.3807 26.192 15.5473 26.1693C15.526 25.9453 15.4973 25.724 15.4593 25.5027C15.4088 25.2253 15.3489 24.9427 15.2536 24.676C14.8869 24.736 14.5193 24.7933 14.1495 24.84C13.6973 24.8973 13.2443 24.9427 12.7891 24.952C12.5751 24.956 12.3604 24.952 12.1473 24.9333C12.2479 25.0947 12.3453 25.2573 12.4417 25.4213C12.7188 25.9107 12.9677 26.416 13.1823 26.936C13.4088 27.4797 13.6672 27.9907 13.7333 28.5833C13.7437 28.6645 13.7531 28.7469 13.7599 28.8287C14.1011 28.7093 14.4479 28.6036 14.7973 28.5063C15.0713 28.4333 15.3484 28.3708 15.6276 28.3188C15.6323 27.9453 15.6281 27.5719 15.6136 27.1987ZM18.8177 33.6224C18.6511 33.4036 18.4557 33.2068 18.2443 33.0297C18.0885 32.8969 18.0751 32.7745 18.2084 32.612C18.3063 32.4964 18.3771 32.474 18.5229 32.5183C18.8672 32.624 19.1817 32.8068 19.4807 33.0093C19.7693 33.2151 20.0333 33.4552 20.2719 33.7167C20.5307 34.0005 20.8063 34.2303 20.9317 34.6052C21.0005 34.7869 21.0469 34.9735 21.0645 35.1661C21.0885 35.3823 21.0823 35.5937 21.024 35.8041C20.9651 36.0203 20.8667 36.0781 20.6448 36.0188C20.6021 36.0057 20.5921 35.9995 20.5631 35.9812C20.3973 35.8729 20.2541 35.7531 20.1172 35.6156C19.9953 35.4979 19.8869 35.3735 19.786 35.2437C19.564 34.9807 19.5079 34.686 19.3432 34.4041C19.3364 34.3921 19.3303 34.3812 19.3229 34.3697C19.1667 34.486 18.9995 34.5875 18.8265 34.6812C18.5364 34.8401 18.2307 34.962 17.9193 35.0724C17.3011 35.2927 16.662 35.3156 16.0172 35.3855C15.3907 35.4536 14.7604 35.4932 14.1281 35.4937C13.8115 35.4912 13.4932 35.4797 13.1771 35.4536C12.8484 35.4265 12.5203 35.3839 12.2031 35.2885C12.0036 35.2287 11.9427 35.1208 12.0036 34.9245C12.0521 34.7427 12.1391 34.6995 12.3084 34.7088C12.8943 34.7484 13.4828 34.6729 14.0604 34.5817C14.5344 34.5088 15.0047 34.4193 15.4729 34.3203C15.4156 33.5912 15.4115 32.8625 15.4161 32.1307C14.6011 32.2172 13.7875 32.3193 12.976 32.4369C12.0021 32.574 11.0255 32.7183 10.0661 32.9355C10.1104 33.0375 10.1505 33.1401 10.1875 33.2437C10.3917 33.7713 10.4041 34.3167 10.4713 34.8688C10.5369 35.4021 10.5776 35.9391 10.5901 36.4787C10.5943 37.0172 10.5885 37.5579 10.5229 38.0921C10.4989 38.2979 10.4027 38.3803 10.1948 38.3521C10.0136 38.3328 9.9568 38.2604 9.93387 38.0953C9.8708 37.5875 9.79213 37.0797 9.68226 36.5787C9.57973 36.0781 9.46146 35.5792 9.33493 35.0844C9.20306 34.5755 8.98746 34.1011 8.91453 33.5776C8.82973 33.0317 8.774 32.4995 8.8016 31.9448C8.81506 31.7328 8.90266 31.6531 9.1156 31.6625C9.22453 31.6667 9.25786 31.6937 9.3156 31.7516C9.49066 31.9307 9.636 32.1307 9.76306 32.3432C10.1823 32.2016 10.6084 32.0823 11.0364 31.9683C11.6251 31.8115 12.2183 31.6693 12.814 31.5364C13.6937 31.3473 14.5771 31.1781 15.464 31.026C15.5084 30.4735 15.5719 29.9235 15.5959 29.3697C15.5959 29.3672 15.5959 29.3645 15.5964 29.362C15.3823 29.3729 15.1683 29.3875 14.9536 29.4063C14.5541 29.4364 14.1568 29.4907 13.7604 29.5505C13.7355 29.8453 13.6787 30.1349 13.5645 30.4083C13.4833 30.6068 13.3703 30.6516 13.174 30.5713C13.0697 30.5292 13.0489 30.4948 13.0131 30.414C12.8995 30.1552 12.8005 29.8921 12.7063 29.6271C12.6131 29.3755 12.5281 29.1235 12.4484 28.8697C12.2729 28.3615 12.2292 27.8281 12.088 27.3133C11.9479 26.804 11.7885 26.2987 11.6104 25.8C11.438 25.2973 11.2297 24.804 11.012 24.3187C10.9303 24.1307 10.9713 24.0133 11.1645 23.9267C11.3271 23.8573 11.4151 23.8853 11.5183 24.0173C11.576 24.092 11.6328 24.168 11.688 24.2453C12.0401 24.296 12.3979 24.276 12.7473 24.244C13.1735 24.2027 13.5959 24.1267 14.0145 24.0387C14.876 23.8547 15.7287 23.6307 16.5869 23.4333C17.4771 23.2293 18.3651 23.0387 19.2765 22.964C19.7683 22.924 20.2573 22.924 20.7459 23C21.3151 23.0893 21.8625 23.308 22.2787 23.716L22.6229 24.0547L22.4041 24.5C22.2131 24.8893 22.0136 25.276 21.8156 25.664L21.2177 26.8213C20.8281 27.5927 20.4297 28.3588 20.1099 29.1609C20.0511 29.3151 19.9688 29.3755 19.8396 29.3604C19.5584 29.4224 19.2755 29.4495 18.9885 29.4651C18.7099 29.4828 18.4323 29.4849 18.1552 29.4828C17.6812 29.4875 17.2208 29.3912 16.7527 29.3588C16.7527 29.3636 16.7536 29.3677 16.7536 29.3724C16.7708 29.8516 16.7989 30.3307 16.8027 30.8093C17.8864 30.6401 18.9693 30.464 20.0703 30.464C20.6953 30.464 21.3208 30.4849 21.9427 30.5656C22.5869 30.6531 23.2307 30.7713 23.8088 31.0869C23.8828 31.1115 23.9281 31.1479 23.9536 31.2011C23.9989 31.2599 24.0068 31.3265 23.9797 31.4079C23.964 32.0235 24.0093 32.638 24.0573 33.2521C24.1027 33.9093 24.1427 34.5651 24.114 35.2224C24.1041 35.5719 24.0792 35.9193 24.0245 36.2656C23.9584 36.6557 23.8213 37.0333 23.6011 37.3645C23.3672 37.7099 23.0432 38.0115 22.6636 38.1849C22.2953 38.3593 21.8776 38.4213 21.474 38.3547C21.2651 38.3183 21.1979 38.2172 21.2297 38.0068C21.2516 37.8959 21.2771 37.8568 21.374 37.8016C21.612 37.6609 21.8609 37.5011 22.0536 37.3041C22.2224 37.1276 22.3568 36.9349 22.4557 36.7125C22.6823 36.1984 22.8755 35.6713 22.962 35.1145C23.0552 34.4964 23.0943 33.8697 23.1432 33.2459C23.1932 32.7016 23.2307 32.1568 23.3276 31.6197C22.8531 31.5896 22.3765 31.6197 21.9047 31.6421C21.3131 31.6817 20.7229 31.726 20.1328 31.7817C19.0063 31.8916 17.8724 31.9079 16.7443 32.0027C16.7407 32.0323 16.7369 32.0615 16.7328 32.0912C16.6421 32.7792 16.5167 33.4588 16.3115 34.1177C16.736 33.9973 17.1547 33.8615 17.5927 33.7953C18.0005 33.7276 18.4088 33.6697 18.8177 33.6224Z" fill="#ED1C24"/>
<path fill-rule="evenodd" clip-rule="evenodd" d="M18.1776 5.58801C18.1459 5.85601 18.1099 6.124 18.0782 6.392C18.0422 6.65866 18.0074 6.92667 17.9844 7.196C17.9604 7.436 17.9443 7.68533 17.9636 7.92666C17.9746 8.06666 18.0172 8.264 18.114 8.37733C18.214 8.5 18.3443 8.584 18.4828 8.66C18.6812 8.77066 18.9131 8.84933 19.1251 8.92666C19.3964 9.02133 19.6651 9.10534 19.9276 9.216C20.1318 9.29734 20.1714 9.41335 20.0922 9.60801C20.0516 9.70668 20.0208 9.73468 19.9287 9.77201C19.6276 9.89601 19.3146 9.96401 18.9902 9.98801C18.6412 10.0133 18.3036 9.98268 17.9714 9.87334C17.564 9.74534 17.1907 9.448 17.0006 9.06267C16.8208 8.70267 16.7902 8.33468 16.8068 7.93868C16.8432 7.32668 17.0115 6.77867 17.186 6.19467C17.25 5.99733 17.3136 5.79867 17.3766 5.6C17.1787 5.60534 16.9812 5.61335 16.7839 5.62401C15.6943 5.68001 14.6063 5.77201 13.5219 5.90401C12.6527 6.00001 11.786 6.12401 10.9271 6.28801C10.9984 6.55868 11.0688 6.82934 11.136 7.1C11.3355 7.864 11.4042 8.64934 11.5574 9.42401C11.7047 10.1933 11.8694 10.9613 12.0448 11.7267C12.1151 12.0587 12.1896 12.3907 12.2662 12.7227C12.7022 12.56 13.1495 12.424 13.6006 12.308C14.4527 12.1053 15.324 11.9853 16.1995 11.9387C17.0927 11.8973 17.988 11.864 18.864 12.0813C19.3042 12.1907 19.7364 12.3267 20.1484 12.5147C20.3443 12.6027 20.537 12.7013 20.7219 12.812C20.7662 12.5667 20.812 12.3227 20.8574 12.0787C20.999 11.276 21.2588 10.5027 21.4156 9.70401C21.576 8.91201 21.7027 8.11333 21.7886 7.30933C21.8584 6.7 21.9167 6.08534 21.9094 5.47334C21.2907 5.48934 20.6735 5.51867 20.0563 5.54667C19.4303 5.58267 18.8042 5.58268 18.1776 5.58801ZM12.436 13.452C12.4812 13.6453 12.526 13.836 12.5708 14.028C12.6235 14.2347 12.5511 14.336 12.3516 14.3867C12.1688 14.4293 12.0792 14.38 12.0094 14.212C11.9298 14.02 11.8527 13.8267 11.7776 13.6333C11.6438 13.6733 11.5104 13.716 11.3782 13.7613C11.1807 13.828 11.0688 13.7733 11.0031 13.576C10.9407 13.3933 10.987 13.3 11.1479 13.2173C11.2787 13.148 11.412 13.084 11.5459 13.0213C11.4167 12.6733 11.2912 12.324 11.1646 11.9747C10.9079 11.2213 10.6626 10.4613 10.4328 9.69867C10.2042 8.91467 9.92604 8.15334 9.83911 7.33601C9.79377 6.92401 9.7631 6.50933 9.77297 6.096C9.7807 5.664 9.82137 5.23334 9.94124 4.81867C9.99697 4.61334 10.1058 4.55733 10.3088 4.61067C10.4418 4.64933 10.4782 4.696 10.514 4.81333C10.5954 5.092 10.6755 5.36934 10.7531 5.648C11.6162 5.388 12.497 5.18667 13.3798 5C14.473 4.784 15.576 4.60934 16.6823 4.47068C17.8016 4.33734 18.9246 4.17067 20.0542 4.228C20.6255 4.25467 21.1959 4.30401 21.7588 4.40534C22.3375 4.50801 22.9115 4.65067 23.4454 4.90134C23.6355 4.98934 23.6812 5.10667 23.588 5.29734C23.5214 5.44134 23.4536 5.46801 23.3146 5.46801C23.0735 5.46267 22.8318 5.46133 22.5902 5.46267C22.6188 5.672 22.6386 5.884 22.6547 6.09467C22.6855 6.516 22.7 6.93867 22.7022 7.36133C22.6954 8.20267 22.6459 9.04267 22.5599 9.87867C22.4672 10.7307 22.4052 11.5827 22.136 12.4027C21.8651 13.2347 21.5151 14.04 20.9812 14.7387C20.8511 14.912 20.7287 14.9213 20.5646 14.796C20.449 14.7107 20.4307 14.648 20.449 14.5213C20.4839 14.2373 20.526 13.9533 20.5714 13.672C19.9282 13.552 19.2828 13.456 18.6328 13.38C17.823 13.296 17.0203 13.128 16.2052 13.096C15.3927 13.0613 14.5755 13.096 13.7683 13.208C13.3203 13.2627 12.8755 13.3453 12.436 13.452Z" fill="#231F20"/>
<path fill-rule="evenodd" clip-rule="evenodd" d="M14.8776 6.33334C14.85 6.69067 14.8 7.048 14.7437 7.40267C14.6776 7.77067 14.5921 8.13334 14.4598 8.484C14.3912 8.66667 14.3213 8.84934 14.2328 9.02401C14.1338 9.21868 13.9958 9.39467 13.8317 9.53867C13.6702 9.67867 13.4874 9.79466 13.2912 9.87599C13.0917 9.96133 12.8854 10.0133 12.6688 10.0213C12.5088 10.028 12.4412 9.96801 12.4349 9.80534C12.4312 9.73467 12.4417 9.712 12.4776 9.66266C12.6786 9.38533 12.912 9.136 13.112 8.86266C13.2926 8.61066 13.5202 8.39334 13.6718 8.12001C13.8322 7.83067 13.9625 7.524 14.0854 7.216C14.2172 6.89467 14.327 6.56534 14.4464 6.24001C14.4989 6.09334 14.5838 6.05068 14.7333 6.10801C14.853 6.15201 14.8885 6.20934 14.8776 6.33334Z" fill="#231F20"/>
</svg>
