<svg width="32" height="43" viewBox="0 0 32 43" fill="none" xmlns="http://www.w3.org/2000/svg">
<path fill-rule="evenodd" clip-rule="evenodd" d="M17.988 19.9787C17.992 19.9507 17.9974 19.9227 18.0027 19.8947C18.088 19.428 18.0787 18.9654 18.224 18.508C18.3694 18.0214 18.536 17.5693 18.796 17.1347C18.9054 16.944 19.024 16.916 19.2054 17.024C19.292 17.072 19.3067 17.1027 19.336 17.176C19.4374 17.436 19.4854 17.7013 19.512 17.976C19.5387 18.2307 19.5387 18.4854 19.5187 18.74C19.4974 19.1494 19.3627 19.5187 19.2267 19.8947C19.3987 19.8893 19.572 19.888 19.7454 19.8894C21.0467 19.8974 22.3494 19.9827 23.6227 20.2653C23.824 20.3107 23.8947 20.4134 23.8467 20.6214C23.8107 20.78 23.7507 20.8307 23.5947 20.8493C22.332 21.0147 21.064 21.1067 19.7947 21.2067C19.428 21.2387 19.06 21.26 18.692 21.2747C18.6507 21.3654 18.6067 21.456 18.5627 21.5453C18.3374 21.984 18.0934 22.4147 17.7907 22.804C17.664 22.968 17.5414 22.9854 17.376 22.8574C17.2347 22.7494 17.2214 22.6613 17.2814 22.5107C17.44 22.12 17.58 21.72 17.6867 21.3107C17.128 21.328 16.5694 21.348 16.0107 21.3853C15.24 21.436 14.4694 21.4987 13.7 21.5747C13.716 21.76 13.7267 21.9467 13.7307 22.1333C13.7347 22.5547 13.7307 22.9773 13.6627 23.392C13.6307 23.5973 13.5307 23.672 13.3267 23.6387C13.1534 23.6147 13.104 23.544 13.0774 23.3947C13.0147 23.0147 12.936 22.636 12.828 22.264C12.776 22.0693 12.72 21.8747 12.6614 21.6827C12.5227 21.6973 12.3814 21.7147 12.2427 21.7307C10.9867 21.864 9.7347 22.0333 8.4907 22.228C8.2827 22.2653 8.18402 22.192 8.14669 21.9867C8.11202 21.7893 8.18136 21.7013 8.36269 21.6493C9.60002 21.324 10.8534 21.068 12.1094 20.824C12.1907 20.8094 12.2734 20.7947 12.356 20.78C12.252 20.528 12.148 20.2813 12.1094 19.9973C12.0427 19.5507 12.0174 19.1333 12.0934 18.6867C12.128 18.4693 12.228 18.4027 12.4427 18.4374C12.5107 18.4494 12.5307 18.4587 12.5854 18.504C12.7747 18.6614 12.924 18.844 13.0574 19.0467C13.184 19.2307 13.2854 19.4253 13.3707 19.6267C13.5134 19.936 13.548 20.2494 13.5827 20.5707C14.3534 20.4467 15.1254 20.3333 15.8987 20.2333C16.5934 20.1453 17.2894 20.048 17.988 19.9787ZM15.9547 26.216C16.2787 26.0947 16.5787 25.92 16.92 25.8307C17.1307 25.7693 17.3387 25.712 17.552 25.668C17.792 25.6147 18.0267 25.5733 18.2707 25.5613C18.484 25.5493 18.576 25.6253 18.5894 25.8453C18.5934 25.924 18.5867 25.952 18.544 26.0213C18.268 26.4627 17.884 26.7853 17.436 27.0413C17.0427 27.272 16.6027 27.3375 16.1587 27.3912C16.204 27.7317 16.2387 28.074 16.268 28.4167C16.804 28.3593 17.3387 28.3021 17.8734 28.4131C18.1667 28.4688 18.4547 28.5453 18.7347 28.6495C18.8787 28.7016 19.0214 28.7593 19.1587 28.8249C19.196 28.5151 19.2587 28.2083 19.332 27.9057C19.44 27.4636 19.572 27.0293 19.724 26.6027C19.868 26.176 20.04 25.7613 20.2134 25.344C20.316 25.1067 20.424 24.8707 20.536 24.6373C20.3934 24.564 20.24 24.5107 20.0867 24.4733C19.7094 24.3787 19.3067 24.36 18.9214 24.364C18.068 24.38 17.2134 24.5133 16.372 24.6547C16.084 24.7027 15.7974 24.7547 15.5094 24.804C15.6227 25.0507 15.7107 25.3093 15.788 25.5707C15.852 25.7827 15.9067 26 15.9547 26.216ZM15.2027 27.4412C14.9787 27.4303 14.7547 27.4027 14.5347 27.3541C14.064 27.2467 13.6054 27.0627 13.208 26.788C13.04 26.6733 13.012 26.5573 13.1254 26.38C13.2227 26.2307 13.308 26.212 13.464 26.2587C13.8414 26.3787 14.2347 26.456 14.6334 26.448C14.8027 26.4467 14.9707 26.4333 15.1374 26.4107C15.1147 26.188 15.0867 25.9653 15.0494 25.7453C14.9974 25.4667 14.9387 25.1853 14.8427 24.9173C14.476 24.9787 14.108 25.0347 13.7387 25.0813C13.2867 25.1387 12.8334 25.184 12.3774 25.1947C12.164 25.1987 11.9507 25.1947 11.7374 25.176C11.8374 25.336 11.936 25.5 12.0307 25.6627C12.3094 26.152 12.5574 26.6587 12.772 27.1787C12.9974 27.7224 13.2574 28.2323 13.3227 28.8255C13.3334 28.9073 13.3427 28.9891 13.3494 29.0708C13.6907 28.9511 14.0374 28.8453 14.3867 28.7484C14.66 28.6755 14.9387 28.6125 15.2174 28.5609C15.2214 28.188 15.2174 27.8145 15.2027 27.4412ZM18.4067 33.864C18.24 33.6459 18.0454 33.45 17.836 33.2735C17.6747 33.1402 17.6614 33.0183 17.7947 32.8573C17.8974 32.7307 17.9734 32.7193 18.1134 32.7604C18.456 32.8667 18.7707 33.0484 19.0694 33.2511C19.3587 33.4563 19.6227 33.6973 19.8614 33.9588C20.12 34.2421 20.3947 34.4724 20.5214 34.8469C20.5907 35.0292 20.636 35.2151 20.6547 35.4083C20.6774 35.6245 20.672 35.836 20.6134 36.0464C20.5547 36.2651 20.452 36.3197 20.2347 36.2609C20.2067 36.2521 20.1947 36.2506 20.152 36.2235C19.9867 36.1151 19.8427 35.9948 19.7054 35.8579C19.584 35.7396 19.476 35.6151 19.376 35.486C19.1534 35.2224 19.0974 34.9276 18.9334 34.6459C18.9267 34.6344 18.9187 34.6235 18.912 34.6115C18.756 34.7281 18.5894 34.8298 18.4174 34.9224C18.1254 35.0818 17.82 35.2041 17.508 35.3145C16.8894 35.5349 16.2507 35.5573 15.6067 35.6271C14.98 35.6953 14.3494 35.7349 13.7187 35.736C13.4 35.7333 13.0827 35.7214 12.7667 35.6954C12.4387 35.6688 12.1094 35.6255 11.7907 35.5307C11.5974 35.4703 11.532 35.3631 11.5934 35.162C11.6454 34.9875 11.728 34.9369 11.8987 34.9511C12.484 34.9907 13.072 34.9151 13.6507 34.8245C14.124 34.7505 14.5947 34.6615 15.0627 34.562C15.0054 33.8328 15.0014 33.1041 15.0067 32.3729C14.1907 32.4599 13.3774 32.5615 12.5654 32.6792C11.5907 32.8156 10.616 32.9604 9.65603 33.1771C9.70003 33.2792 9.74002 33.3823 9.77869 33.4864C9.98136 34.014 9.99336 34.5588 10.06 35.1115C10.1267 35.6443 10.168 36.1817 10.1787 36.7208C10.184 37.2593 10.1774 37.8 10.112 38.3333C10.088 38.5453 9.98802 38.6172 9.78002 38.5937C9.60802 38.5708 9.5427 38.5052 9.5227 38.335C9.46003 37.8282 9.38137 37.3224 9.27203 36.8213C9.16937 36.3203 9.0507 35.8213 8.92404 35.3265C8.79337 34.8177 8.57603 34.3427 8.50403 33.8188C8.42003 33.2724 8.36269 32.7427 8.39202 32.1907C8.40002 31.9745 8.49469 31.8953 8.71336 31.9052C8.80936 31.9131 8.84137 31.9307 8.90537 31.9943C9.08137 32.1724 9.22536 32.3729 9.35203 32.5855C9.77203 32.4437 10.1987 32.3245 10.6254 32.2104C11.2147 32.0536 11.808 31.9115 12.404 31.7781C13.2827 31.5896 14.1667 31.4203 15.0534 31.2683C15.0974 30.7161 15.1614 30.1651 15.1854 29.6109C15.1854 29.6088 15.1854 29.6068 15.1854 29.6041C14.972 29.6145 14.7574 29.6297 14.544 29.6489C14.144 29.6787 13.7454 29.7328 13.3494 29.7927C13.3254 30.088 13.268 30.3781 13.152 30.6536C13.0694 30.8469 12.956 30.8921 12.7534 30.8093C12.6667 30.7683 12.6387 30.7421 12.6027 30.6547C12.488 30.3959 12.3907 30.1344 12.296 29.8688C12.2027 29.6172 12.1187 29.3651 12.0387 29.1115C11.8627 28.6027 11.8187 28.0697 11.6774 27.5552C11.5374 27.0453 11.3774 26.5413 11.2 26.0427C11.028 25.5387 10.82 25.0467 10.6014 24.56C10.5187 24.372 10.56 24.2533 10.7547 24.168C10.9187 24.0973 11.0014 24.1293 11.1067 24.2573C11.1654 24.3333 11.2227 24.4093 11.2787 24.4867C11.6294 24.5373 11.988 24.5187 12.336 24.4853C12.7627 24.444 13.1854 24.3667 13.604 24.2813C14.4654 24.0973 15.3174 23.8733 16.176 23.676C17.0667 23.472 17.9547 23.28 18.8667 23.2067C19.3574 23.1667 19.8467 23.1667 20.336 23.2414C20.904 23.3307 21.452 23.5507 21.8694 23.9587L22.212 24.296L21.9947 24.7413C21.8027 25.132 21.6027 25.5187 21.4054 25.9067L20.8067 27.064C20.4174 27.8349 20.0187 28.6005 19.7 29.4031C19.64 29.5573 19.5574 29.6235 19.4227 29.6036C19.1427 29.6645 18.8627 29.6916 18.5774 29.7073C18.2987 29.7249 18.0214 29.7265 17.7454 29.7245C17.2707 29.7297 16.8094 29.6333 16.3427 29.6011C16.3427 29.6052 16.3427 29.6099 16.3427 29.6136C16.3614 30.0927 16.388 30.5729 16.392 31.0516C17.476 30.8817 18.5587 30.7057 19.66 30.7063C20.2854 30.7057 20.9107 30.7271 21.532 30.8079C22.1787 30.8953 22.824 31.0136 23.4027 31.3307C23.468 31.3547 23.5107 31.387 23.5374 31.4339C23.584 31.4932 23.5947 31.5604 23.5694 31.6421C23.5534 32.2609 23.5987 32.8776 23.6467 33.4937C23.692 34.1516 23.732 34.8068 23.704 35.4645C23.6934 35.8136 23.668 36.1609 23.6147 36.5079C23.548 36.8984 23.4107 37.2755 23.1907 37.6063C22.956 37.9516 22.632 38.2536 22.2534 38.4271C21.884 38.6011 21.468 38.664 21.0667 38.5969C20.852 38.564 20.788 38.4588 20.8187 38.2489C20.8414 38.1344 20.8707 38.0969 20.964 38.0437C21.2027 37.9036 21.4507 37.7437 21.6427 37.5464C21.812 37.3693 21.9467 37.176 22.0454 36.9541C22.272 36.4396 22.4654 35.9131 22.552 35.3563C22.6454 34.7391 22.684 34.1115 22.7334 33.488C22.7827 32.9437 22.82 32.3984 22.9174 31.8609C22.4427 31.8307 21.9667 31.8615 21.4947 31.8844C20.9027 31.9235 20.312 31.9683 19.7227 32.0235C18.5947 32.1339 17.4614 32.15 16.3334 32.2443C16.3307 32.2745 16.3267 32.3031 16.3227 32.3333C16.232 33.0197 16.1067 33.7 15.9 34.3593C16.3254 34.2391 16.744 34.1036 17.1827 34.0375C17.5907 33.9693 17.9987 33.912 18.4067 33.864Z" fill="#ED1C24"/>
<path fill-rule="evenodd" clip-rule="evenodd" d="M14.5853 9.53733C14.5213 9.82667 14.4547 10.116 14.3853 10.4053C14.1613 11.312 13.972 12.2267 13.5853 13.084C13.3307 13.6507 13.048 14.2053 12.7053 14.7213C12.7933 14.7027 12.8813 14.684 12.9693 14.6653C14.0627 14.4507 15.1653 14.276 16.272 14.1373C16.4747 14.1133 16.6787 14.0867 16.8827 14.0613C17.1987 13.2093 17.5187 12.3493 17.74 11.4693C17.8027 11.224 17.8547 10.976 17.8973 10.728C17.9173 10.608 17.936 10.4893 17.948 10.3693L17.964 10.196C17.9653 10.1573 17.9693 10.112 17.9667 10.0667C17.964 9.964 17.9067 9.90265 17.828 9.84265C17.6747 9.73065 17.456 9.65732 17.2747 9.61066C16.7853 9.49066 16.2613 9.46667 15.7587 9.47067C15.3667 9.47333 14.9747 9.49867 14.5853 9.53733ZM14.7893 8.54399C15.0947 8.49732 15.4027 8.46 15.712 8.43466C16.3147 8.388 16.9107 8.37732 17.512 8.47732C17.8667 8.53999 18.192 8.63333 18.504 8.81866C18.6947 8.932 18.864 9.07867 18.9933 9.256C19.14 9.448 19.2347 9.68799 19.2707 9.93199C19.3093 10.2853 19.2827 10.596 19.232 10.9467C19.1827 11.252 19.1013 11.552 19.0027 11.8467C18.8067 12.4067 18.552 12.944 18.2453 13.452C18.1453 13.6187 18.04 13.7853 17.928 13.9453C18.4987 13.8933 19.0707 13.8653 19.6427 13.8933C20.2147 13.9213 20.7853 13.9693 21.348 14.072C21.9267 14.1733 22.5013 14.316 23.0347 14.5667C23.228 14.656 23.2653 14.7747 23.1787 14.9627C23.112 15.1053 23.0453 15.1387 22.9013 15.1333C21.8133 15.1093 20.7307 15.164 19.6453 15.212C18.556 15.2747 17.4627 15.2307 16.3733 15.2893C15.284 15.3467 14.1947 15.4387 13.1107 15.5707C12.028 15.6893 10.9493 15.8533 9.88534 16.0813C9.67867 16.1307 9.57333 16.06 9.53067 15.8573C9.48667 15.664 9.54801 15.5733 9.72401 15.5133C10.36 15.2947 11.008 15.1173 11.6613 14.96C11.8667 14.172 12.1093 13.396 12.352 12.62C12.612 11.7573 12.9907 10.9387 13.2733 10.0827C13.3187 9.95066 13.3613 9.82 13.4053 9.688C12.5787 9.81733 11.76 10.0027 10.96 10.252C10.7613 10.3147 10.6547 10.252 10.5893 10.0573C10.5333 9.87334 10.5813 9.77466 10.752 9.69866C11.696 9.27866 12.6907 8.98266 13.6973 8.752C13.8213 8.33866 13.9373 7.924 14.048 7.50667C14.236 6.83467 14.3987 6.156 14.544 5.47334C14.2107 5.51334 13.8787 5.55733 13.5453 5.60266C12.8213 5.69466 12.1013 5.81599 11.376 5.89733C11.172 5.92133 11.072 5.848 11.048 5.64C11.0253 5.452 11.0853 5.37066 11.2587 5.31866C11.9573 5.10933 12.66 4.90534 13.3627 4.70667C14.0787 4.512 14.8027 4.33734 15.5333 4.208C16.3013 4.07067 17.052 3.90933 17.8387 4C18.2413 4.04666 18.64 4.12399 19.0187 4.26399C19.4173 4.40666 19.7973 4.61332 20.1013 4.90932C20.252 5.05599 20.2547 5.18 20.1067 5.33333C20.0147 5.424 19.964 5.43466 19.848 5.41733C19.1573 5.30933 18.4813 5.296 17.788 5.31733C17.0853 5.35066 16.384 5.3 15.6813 5.356C15.5293 5.368 15.376 5.38266 15.224 5.39733C15.164 6.16799 15.06 6.936 14.9413 7.70133C14.8933 7.98266 14.8427 8.26399 14.7893 8.54399Z" fill="#231F20"/>
</svg>
