<svg width="32" height="43" viewBox="0 0 32 43" fill="none" xmlns="http://www.w3.org/2000/svg">
<path fill-rule="evenodd" clip-rule="evenodd" d="M14.7173 3.35999C14.9933 3.54266 15.2519 3.752 15.5173 3.95467C15.7733 4.16 16.024 4.37332 16.2706 4.59199C16.54 4.83066 16.8279 4.98533 17.0199 5.304C17.1213 5.45733 17.2066 5.61466 17.2733 5.784C17.3533 5.976 17.4066 6.16667 17.428 6.37334C17.452 6.6 17.3759 6.68666 17.1533 6.71066C17.1079 6.71466 17.0946 6.71334 17.0573 6.70534C16.8546 6.66 16.672 6.584 16.4906 6.484C16.3306 6.39866 16.184 6.29733 16.0466 6.184C15.7506 5.95733 15.628 5.65733 15.416 5.36933C15.224 5.108 15.0359 4.84266 14.8519 4.57599L14.3053 3.77334C14.1893 3.59867 14.2133 3.47732 14.3853 3.35999C14.5173 3.27066 14.5933 3.27599 14.7173 3.35999ZM8.65462 16.6707C9.05462 16.3333 9.45997 15.9947 9.83997 15.6307C10.2186 15.2787 10.588 14.9147 10.9386 14.536C11.2933 14.152 11.5666 13.7067 11.9426 13.344C12.1293 13.156 12.3186 12.9733 12.5133 12.796C12.7226 12.604 12.9346 12.4187 13.1653 12.252C13.3373 12.128 13.4559 12.1467 13.5866 12.3213C13.6413 12.4027 13.648 12.4373 13.64 12.5293C13.6026 12.8373 13.5093 13.1307 13.3853 13.412C13.2719 13.684 13.1266 13.9387 12.9613 14.1787C12.6386 14.672 12.18 15.004 11.736 15.3747C11.312 15.7293 10.864 16.0547 10.3986 16.3547C9.93596 16.6427 9.46531 16.9213 8.97731 17.1627C8.79331 17.2547 8.67464 17.2213 8.57998 17.0307C8.50131 16.8733 8.51995 16.78 8.65462 16.6707ZM18.0106 12.2067C18.5213 12.412 19.0093 12.6707 19.4786 12.96C19.956 13.2627 20.4026 13.616 20.7986 14.0187C21.2186 14.4453 21.6359 14.8707 21.8519 15.4413C22.0759 16.012 22.1813 16.628 22.068 17.236C22.032 17.448 21.9266 17.5187 21.7106 17.4773C21.6186 17.4573 21.5853 17.4373 21.5293 17.36C21.3666 17.1373 21.224 16.9053 21.0773 16.672L20.68 16.0387C20.4066 15.6307 20.2186 15.168 19.924 14.7773C19.6253 14.3827 19.2853 14.0187 18.9213 13.6827C18.5506 13.332 18.1386 13.02 17.7213 12.7187C17.5626 12.5973 17.532 12.4787 17.66 12.308C17.764 12.16 17.8573 12.1427 18.0106 12.2067ZM15.9613 9.44399C14.872 9.49999 13.7853 9.59334 12.7013 9.724C11.6173 9.844 10.5373 10.008 9.47063 10.2373C9.2693 10.28 9.16128 10.216 9.11995 10.0107C9.07595 9.81999 9.13598 9.728 9.31331 9.66666C10.372 9.30533 11.464 9.052 12.5573 8.82C13.652 8.60533 14.7546 8.42934 15.8613 8.29067C16.98 8.15734 18.1026 7.99066 19.2333 8.04799C19.804 8.07599 20.3746 8.12532 20.9386 8.22666C21.5173 8.32799 22.092 8.472 22.628 8.724C22.8146 8.81467 22.8546 8.92666 22.768 9.116C22.7026 9.25866 22.6346 9.29333 22.4906 9.288C21.4026 9.264 20.32 9.31866 19.236 9.36666C18.1453 9.42933 17.052 9.38532 15.9613 9.44399Z" fill="#231F20"/>
<path fill-rule="evenodd" clip-rule="evenodd" d="M17.576 20.6587C17.5813 20.6293 17.5866 20.6027 17.592 20.5734C17.6773 20.108 17.668 19.6427 17.8133 19.1867C17.9587 18.7014 18.1253 18.248 18.3866 17.812C18.496 17.624 18.6147 17.5947 18.8013 17.7067C18.8773 17.752 18.8946 17.776 18.9266 17.856C19.0266 18.1147 19.076 18.38 19.1013 18.6547C19.128 18.9107 19.1267 19.1654 19.108 19.4187C19.0867 19.828 18.952 20.1987 18.8147 20.5747C18.988 20.5694 19.1613 20.5667 19.336 20.5694C20.6373 20.576 21.9387 20.6627 23.212 20.944C23.4173 20.9907 23.4787 21.0974 23.4373 21.2987C23.4 21.46 23.336 21.5093 23.1853 21.528C21.9226 21.6933 20.6533 21.7854 19.3853 21.8854C19.0173 21.9174 18.6507 21.9387 18.2813 21.9534C18.24 22.0454 18.196 22.136 18.152 22.2253C17.9266 22.6627 17.6827 23.0947 17.3787 23.4854C17.2493 23.648 17.1293 23.66 16.9626 23.5347C16.828 23.4267 16.8107 23.3414 16.8707 23.1894C17.0293 22.7987 17.1693 22.3987 17.276 21.9894C16.7173 22.0067 16.1586 22.0267 15.6 22.064C14.8293 22.1147 14.0586 22.1787 13.2893 22.2534C13.3053 22.4387 13.316 22.6267 13.3213 22.8133C13.324 23.2333 13.3186 23.6547 13.252 24.0707C13.22 24.2787 13.12 24.3494 12.9107 24.3174C12.748 24.2894 12.6893 24.2307 12.6666 24.072C12.6026 23.6907 12.5253 23.3147 12.4186 22.9427C12.3653 22.748 12.3093 22.5547 12.252 22.3613C12.112 22.376 11.972 22.3933 11.832 22.4093C10.576 22.5427 9.32266 22.712 8.07599 22.908C7.87332 22.9414 7.76932 22.8734 7.73599 22.6654C7.70265 22.472 7.76663 22.3813 7.95197 22.328C9.1893 22.0027 10.4426 21.7467 11.6986 21.5027C11.7813 21.488 11.8627 21.4733 11.9453 21.4587C11.8413 21.2067 11.7373 20.9587 11.6986 20.676C11.632 20.2307 11.6067 19.812 11.6827 19.3667C11.7173 19.148 11.8173 19.0814 12.032 19.116C12.1093 19.1294 12.128 19.144 12.1747 19.1827C12.364 19.34 12.512 19.5227 12.648 19.7267C12.772 19.9107 12.8746 20.1054 12.9613 20.3054C13.1026 20.6134 13.1387 20.928 13.172 21.2494C13.9427 21.1254 14.7146 21.012 15.488 20.912C16.1826 20.8253 16.8787 20.728 17.576 20.6587ZM15.544 26.896C15.868 26.7747 16.1693 26.5987 16.5093 26.5094C16.7213 26.448 16.928 26.3907 17.1413 26.348C17.3813 26.2934 17.6146 26.252 17.8573 26.2414C18.076 26.224 18.1653 26.304 18.1787 26.5147C18.188 26.6107 18.1693 26.6387 18.1347 26.7C17.8573 27.14 17.472 27.4646 17.0266 27.7194C16.6333 27.9511 16.192 28.0167 15.748 28.0698C15.7933 28.411 15.828 28.7527 15.8573 29.0959C16.3933 29.038 16.928 28.9812 17.4613 29.0927C17.756 29.1474 18.044 29.2246 18.324 29.3287C18.468 29.3812 18.6093 29.4391 18.748 29.5036C18.7853 29.1943 18.848 28.8875 18.9213 28.585C19.028 28.1432 19.1613 27.7083 19.3133 27.2814C19.4573 26.856 19.6307 26.44 19.8027 26.0227C19.9053 25.7854 20.012 25.5494 20.1253 25.316C19.9826 25.244 19.8293 25.1907 19.676 25.152C19.3 25.0574 18.8973 25.04 18.512 25.0427C17.6573 25.0587 16.8026 25.192 15.9613 25.3334C15.6733 25.3814 15.3866 25.4334 15.0973 25.4827C15.212 25.7294 15.3 25.988 15.3787 26.2494C15.44 26.4627 15.4947 26.6787 15.544 26.896ZM14.7933 28.1198C14.568 28.1094 14.344 28.0812 14.124 28.0334C13.6533 27.9255 13.1946 27.7416 12.8 27.4678C12.6253 27.3527 12.6027 27.2334 12.7147 27.06C12.812 26.9094 12.8973 26.892 13.0533 26.9374C13.4306 27.0587 13.824 27.136 14.2226 27.1267C14.392 27.1254 14.56 27.1134 14.7266 27.0907C14.704 26.8667 14.676 26.644 14.6387 26.424C14.588 26.1467 14.528 25.8653 14.432 25.5973C14.0653 25.6573 13.6973 25.7147 13.328 25.7614C12.876 25.8187 12.4227 25.864 11.968 25.8734C11.7547 25.8774 11.54 25.8733 11.3266 25.8547C11.4266 26.016 11.524 26.1787 11.62 26.3414C11.8973 26.8307 12.1453 27.338 12.3613 27.8574C12.588 28.4006 12.8453 28.9115 12.912 29.5042C12.9227 29.586 12.932 29.6678 12.9387 29.75C13.28 29.6307 13.6267 29.525 13.976 29.4282C14.2507 29.3547 14.528 29.2922 14.8067 29.2402C14.812 28.8667 14.8066 28.4932 14.7933 28.1198ZM17.996 34.5432C17.8293 34.3245 17.636 34.1298 17.428 33.9542C17.2613 33.8219 17.2546 33.697 17.3866 33.5334C17.488 33.4131 17.56 33.3984 17.7027 33.4396C18.0453 33.5454 18.3613 33.7276 18.66 33.9303C18.948 34.1355 19.212 34.376 19.4506 34.6386C19.7093 34.9208 19.9853 35.1511 20.1107 35.5255C20.1787 35.7088 20.2267 35.8948 20.244 36.0875C20.2667 36.3031 20.2613 36.5151 20.2027 36.7255C20.144 36.9412 20.0507 37.0047 19.84 36.9438C19.7813 36.9318 19.7693 36.9198 19.7427 36.9022C19.576 36.7943 19.432 36.674 19.296 36.5369C19.1733 36.4193 19.0666 36.2943 18.9653 36.1646C18.7426 35.9022 18.6866 35.6074 18.5213 35.3246C18.516 35.3131 18.5093 35.3022 18.5027 35.2902C18.3453 35.4074 18.1787 35.5083 18.0053 35.6016C17.716 35.761 17.4093 35.8833 17.0973 35.9932C16.48 36.2136 15.84 36.2364 15.196 36.3063C14.5693 36.3746 13.9387 36.4146 13.3067 36.4146C12.9907 36.412 12.672 36.4011 12.356 36.3746C12.0266 36.3474 11.7 36.3052 11.3853 36.2109C11.18 36.1531 11.1226 36.0391 11.184 35.8396C11.2346 35.6719 11.3133 35.6156 11.488 35.6303C12.0733 35.6694 12.6613 35.5938 13.24 35.5031C13.712 35.4292 14.184 35.3402 14.652 35.2416C14.5946 34.512 14.5906 33.7834 14.5946 33.0516C13.78 33.1386 12.9653 33.2402 12.1546 33.3583C11.18 33.4954 10.2053 33.6396 9.24533 33.8568C9.28799 33.9583 9.32932 34.0609 9.36665 34.1651C9.57065 34.6927 9.58263 35.2375 9.65063 35.7902C9.71597 36.3235 9.75732 36.8609 9.76932 37.3995C9.77332 37.938 9.76798 38.4807 9.70132 39.0172C9.67332 39.2219 9.57599 39.2964 9.36932 39.273C9.19865 39.2495 9.132 39.185 9.11333 39.0146C9.04933 38.5074 8.97198 38.0016 8.86131 37.5C8.75864 36.999 8.64 36.5011 8.51333 36.0052C8.38133 35.497 8.16531 35.0214 8.09331 34.4979C8.00798 33.9522 7.95333 33.4203 7.98133 32.8651C7.99466 32.6536 8.08131 32.5703 8.29464 32.5839C8.39998 32.5886 8.43464 32.6094 8.49464 32.6746C8.67064 32.8516 8.81466 33.0516 8.94266 33.2646C9.36132 33.1224 9.788 33.0031 10.216 32.8891C10.804 32.7328 11.3973 32.5912 11.9933 32.4574C12.872 32.2688 13.7547 32.0995 14.6427 31.9473C14.688 31.3948 14.7507 30.8443 14.7747 30.2902C14.7747 30.2875 14.7747 30.286 14.7747 30.2834C14.5613 30.2938 14.3466 30.3083 14.1333 30.3276C13.7333 30.3579 13.3347 30.4115 12.9387 30.4719C12.9147 30.7667 12.8573 31.0563 12.7427 31.3307C12.6587 31.5303 12.5453 31.5714 12.3506 31.4912C12.2533 31.45 12.2293 31.4198 12.1906 31.335C12.0786 31.0755 11.98 30.8125 11.8853 30.5484C11.792 30.2969 11.708 30.0443 11.6266 29.7912C11.452 29.2818 11.408 28.7495 11.2666 28.2344C11.1266 27.725 10.9666 27.22 10.788 26.7213C10.6173 26.2173 10.408 25.7253 10.1906 25.2387C10.1066 25.048 10.152 24.936 10.344 24.848C10.508 24.776 10.5973 24.8053 10.6973 24.9387C10.7546 25.0133 10.812 25.0894 10.8666 25.1654C11.2186 25.216 11.576 25.1974 11.9253 25.1654C12.352 25.1227 12.7733 25.0467 13.1933 24.96C14.0546 24.776 14.9066 24.552 15.7653 24.3547C16.656 24.1507 17.544 23.9587 18.4546 23.8854C18.9466 23.8454 19.436 23.8454 19.9253 23.9214C20.4933 24.0107 21.0426 24.2294 21.4573 24.6374L21.8027 24.9747L21.584 25.4213C21.392 25.8107 21.192 26.1974 20.9946 26.5854L20.396 27.7427C20.0066 28.5146 19.608 29.2803 19.288 30.0823C19.2293 30.2364 19.148 30.297 19.0173 30.2812C18.7373 30.3432 18.4547 30.3703 18.168 30.386C17.888 30.4042 17.612 30.4063 17.3333 30.4036C16.86 30.4088 16.3986 30.3126 15.932 30.2803C15.932 30.2844 15.932 30.2891 15.932 30.2932C15.9506 30.7719 15.9773 31.2522 15.9813 31.7303C17.0653 31.5604 18.148 31.3844 19.2493 31.385C19.8747 31.3844 20.5 31.4052 21.1213 31.4864C21.768 31.5746 22.4133 31.6927 22.9933 32.0099C23.0613 32.0349 23.1053 32.0688 23.1306 32.1188C23.1773 32.1792 23.1866 32.247 23.1586 32.3287C23.1426 32.9443 23.188 33.5594 23.236 34.173C23.2813 34.8307 23.3213 35.4864 23.2933 36.1443C23.284 36.4927 23.2573 36.8401 23.204 37.1869C23.1373 37.5771 23 37.9547 22.7787 38.2855C22.5467 38.6312 22.2213 38.9323 21.8427 39.1063C21.4747 39.2803 21.0573 39.3427 20.6573 39.276C20.4466 39.2438 20.372 39.1432 20.408 38.9339C20.4267 38.8115 20.4613 38.7771 20.552 38.7235C20.7893 38.5828 21.0386 38.423 21.232 38.225C21.4 38.0484 21.536 37.8557 21.6346 37.6328C21.8613 37.1188 22.0547 36.5916 22.1413 36.0355C22.2333 35.4172 22.2733 34.7902 22.3226 34.1667C22.3733 33.6224 22.4093 33.0776 22.5067 32.5402C22.032 32.5099 21.556 32.5407 21.084 32.5636C20.492 32.6022 19.9027 32.6474 19.312 32.7027C18.1853 32.8131 17.0506 32.8287 15.924 32.924C15.92 32.9531 15.916 32.9828 15.912 33.012C15.82 33.6995 15.6946 34.3798 15.4906 35.0391C15.9146 34.9183 16.3333 34.7828 16.772 34.7167C17.18 34.6479 17.588 34.5907 17.996 34.5432Z" fill="#ED1C24"/>
</svg>
