<svg width="32" height="43" viewBox="0 0 32 43" fill="none" xmlns="http://www.w3.org/2000/svg">
<path fill-rule="evenodd" clip-rule="evenodd" d="M18.3984 20.1355C18.403 20.1079 18.4088 20.0787 18.414 20.0505C18.4994 19.5849 18.4896 19.1219 18.6344 18.664C18.7802 18.1781 18.9473 17.7249 19.2088 17.2891C19.3177 17.1011 19.4344 17.0735 19.6235 17.1833C19.6979 17.2292 19.7172 17.2531 19.7489 17.3328C19.8484 17.5921 19.8978 17.8579 19.9229 18.1317C19.95 18.3869 19.9489 18.6416 19.9302 18.8953C19.9088 19.3057 19.7734 19.6749 19.6369 20.0516C19.8098 20.0459 19.9833 20.0443 20.1568 20.0459C21.4579 20.0531 22.7609 20.1396 24.0349 20.4219C24.2349 20.4683 24.3052 20.5693 24.2588 20.7735C24.225 20.9364 24.1604 20.9875 24.0062 21.0063C22.7426 21.1708 21.4745 21.2631 20.2062 21.364C19.8385 21.3948 19.4708 21.4151 19.1031 21.4307C19.0615 21.5219 19.0188 21.6125 18.9745 21.7027C18.7489 22.1401 18.5047 22.5724 18.2005 22.9625C18.0735 23.1213 17.9516 23.1453 17.7864 23.0136C17.6453 22.9057 17.6333 22.8177 17.6927 22.6672C17.8521 22.276 17.9912 21.8765 18.0979 21.4667C17.5391 21.4844 16.9802 21.5031 16.4218 21.5416C15.6505 21.5921 14.8802 21.6547 14.1109 21.7303C14.1265 21.9161 14.1369 22.1031 14.1427 22.2901C14.1459 22.7099 14.1412 23.1317 14.0745 23.5473C14.0421 23.7557 13.939 23.8271 13.7322 23.7943C13.5702 23.7667 13.5114 23.7079 13.4885 23.5484C13.425 23.1683 13.3473 22.7912 13.2401 22.4193C13.1875 22.2249 13.1317 22.0312 13.0735 21.8385C12.9333 21.8536 12.7937 21.8697 12.6536 21.886C11.3973 22.0193 10.1448 22.1896 8.89691 22.3855C8.69265 22.4177 8.59118 22.3505 8.55932 22.1469C8.51932 21.9469 8.59118 21.8573 8.77398 21.8057C10.0109 21.4807 11.264 21.224 12.5202 20.9803C12.6026 20.9651 12.6849 20.9505 12.7666 20.936C12.6636 20.6839 12.5593 20.436 12.5208 20.1531C12.4536 19.7073 12.4292 19.2885 12.5052 18.8391C12.5432 18.6265 12.6339 18.5552 12.8453 18.5927C12.9271 18.6027 12.9484 18.6193 12.9969 18.6599C13.1854 18.8172 13.3344 19 13.4693 19.2027C13.5943 19.3869 13.6969 19.5812 13.7828 19.7828C13.925 20.0912 13.9598 20.4047 13.9942 20.7276C14.7645 20.6027 15.5364 20.4896 16.3098 20.3891C17.0046 20.3027 17.7005 20.2047 18.3984 20.1355ZM16.3656 26.3729C16.6901 26.2521 16.9907 26.076 17.3312 25.9864C17.5417 25.9245 17.75 25.8672 17.9636 25.824C18.2036 25.7703 18.4374 25.7292 18.6817 25.7183C18.8948 25.7052 18.9828 25.7833 19.0005 26.0011C19.0052 26.0896 18.9912 26.1151 18.9562 26.1765C18.6797 26.6172 18.2926 26.9416 17.8473 27.1964C17.4541 27.4281 17.0131 27.4937 16.5697 27.5469C16.6145 27.888 16.65 28.2303 16.6787 28.5729C17.2156 28.5156 17.75 28.4583 18.2839 28.5697C18.5781 28.6249 18.8661 28.7016 19.1453 28.8057C19.2901 28.8583 19.4322 28.9156 19.5702 28.9807C19.6068 28.6713 19.6693 28.3645 19.7427 28.062C19.8505 27.6203 19.9833 27.1855 20.1349 26.7588C20.2797 26.3328 20.4516 25.9172 20.624 25.4995C20.7276 25.2625 20.8349 25.026 20.9469 24.7932C20.8041 24.7208 20.6516 24.6667 20.4973 24.6297C20.1213 24.5349 19.7177 24.5167 19.3328 24.5197C18.4786 24.536 17.6245 24.6693 16.7828 24.8099C16.4948 24.8593 16.2079 24.9104 15.9193 24.9599C16.0333 25.2073 16.1218 25.4656 16.1994 25.726C16.2625 25.9396 16.3172 26.1557 16.3656 26.3729ZM15.6145 27.5969C15.3901 27.586 15.1661 27.5583 14.9458 27.5104C14.475 27.4027 14.0172 27.2188 13.6224 26.9453C13.4479 26.8317 13.4197 26.7093 13.5369 26.5364C13.6333 26.3849 13.7213 26.3724 13.874 26.414C14.2521 26.5355 14.6464 26.6125 15.0442 26.6031C15.2136 26.6027 15.3812 26.5901 15.5479 26.5672C15.526 26.3432 15.4973 26.1213 15.4598 25.9005C15.4093 25.6224 15.3494 25.3412 15.2546 25.0735C14.8869 25.1349 14.5193 25.1912 14.15 25.238C13.6984 25.2953 13.2448 25.3407 12.7891 25.35C12.5751 25.3547 12.3614 25.35 12.1484 25.3323C12.2489 25.4932 12.3464 25.6552 12.4417 25.8188C12.7197 26.3079 12.9677 26.8145 13.1828 27.3344C13.4093 27.8781 13.6677 28.3885 13.7339 28.9812C13.7443 29.0631 13.753 29.1448 13.7604 29.2271C14.1016 29.1079 14.4484 29.0021 14.7973 28.9047C15.0718 28.8317 15.3494 28.7693 15.6281 28.7172C15.6322 28.3437 15.6292 27.9703 15.6145 27.5969ZM18.8188 34.0197C18.651 33.8016 18.4573 33.6063 18.2473 33.4297C18.086 33.2964 18.0765 33.1749 18.2084 33.0104C18.3093 32.8912 18.3822 32.874 18.524 32.9167C18.8672 33.0224 19.1823 33.2052 19.4812 33.4068C19.7697 33.6125 20.0344 33.8536 20.2735 34.1151C20.5307 34.3984 20.8073 34.6281 20.9323 35.0027C21.0011 35.1855 21.0479 35.3713 21.0656 35.564C21.0891 35.7807 21.0828 35.9916 21.025 36.2027C20.9656 36.4183 20.8667 36.4765 20.6453 36.4172C20.5948 36.4021 20.5838 36.3912 20.5661 36.3812C20.3978 36.2703 20.2541 36.1511 20.1177 36.0136C19.9953 35.8964 19.8869 35.7713 19.7864 35.6416C19.5645 35.3792 19.5084 35.0844 19.3437 34.8021C19.3369 34.7901 19.3303 34.7792 19.3235 34.7672C19.1672 34.8839 19 34.9855 18.8276 35.0787C18.5374 35.2375 18.2312 35.3604 17.9197 35.4703C17.3016 35.6907 16.663 35.7131 16.0177 35.7833C15.3912 35.8516 14.7609 35.8916 14.1292 35.8916C13.812 35.8891 13.4942 35.8781 13.1776 35.8516C12.8489 35.8245 12.5208 35.7817 12.2031 35.6869C12.0031 35.6265 11.9448 35.5167 12.0052 35.3167C12.0578 35.1448 12.1374 35.0979 12.3084 35.1073C12.8948 35.1464 13.4828 35.0708 14.0609 34.9803C14.5344 34.9063 15.0052 34.8172 15.4735 34.7188C15.4161 33.9891 15.412 33.2604 15.4172 32.5287C14.6016 32.6156 13.7874 32.7172 12.9765 32.8355C12.0021 32.9724 11.0255 33.1161 10.0672 33.3339C10.1104 33.4355 10.1511 33.538 10.1891 33.6421C10.3917 34.1697 10.4041 34.7145 10.4718 35.2672C10.5374 35.8 10.5792 36.338 10.5912 36.8765C10.5948 37.4151 10.5885 37.9573 10.5235 38.4943C10.4948 38.6989 10.4005 38.7735 10.1969 38.75C10.015 38.7312 9.95785 38.6588 9.93385 38.4932C9.87132 37.986 9.79318 37.4781 9.68278 36.9771C9.58025 36.476 9.46252 35.9771 9.33492 35.4823C9.20359 34.9745 8.98745 34.4995 8.91452 33.9749C8.83065 33.4292 8.77545 32.8984 8.80265 32.3427C8.81558 32.1339 8.90105 32.0469 9.11719 32.0609C9.22185 32.0651 9.25305 32.0869 9.31665 32.1505C9.49172 32.3287 9.63638 32.5292 9.76398 32.7416C10.1828 32.5995 10.6093 32.4803 11.0369 32.3661C11.626 32.2099 12.2193 32.0683 12.815 31.9344C13.6937 31.7453 14.5771 31.576 15.4645 31.4245C15.5084 30.8719 15.5729 30.3208 15.5964 29.7672C15.5964 29.7645 15.5964 29.7631 15.5969 29.7599C15.3828 29.7708 15.1682 29.7855 14.9546 29.8047C14.5552 29.8349 14.1568 29.8885 13.7604 29.9489C13.736 30.2437 13.6786 30.5328 13.565 30.8063C13.4838 31.0047 13.3703 31.0495 13.1745 30.9697C13.0672 30.9255 13.0484 30.8864 13.0136 30.8136C12.901 30.5547 12.8016 30.2901 12.7068 30.0255C12.614 29.774 12.5292 29.5208 12.4489 29.2683C12.274 28.7588 12.2302 28.2265 12.0885 27.7115C11.9484 27.2016 11.7885 26.6973 11.6109 26.1984C11.4385 25.6943 11.2307 25.2027 11.0131 24.7161C10.9287 24.5255 10.9708 24.4104 11.1604 24.3271C11.327 24.2484 11.4183 24.2823 11.5197 24.4156C11.5776 24.4901 11.6344 24.5661 11.6896 24.6432C12.0412 24.6932 12.3984 24.6745 12.7473 24.6416C13.174 24.5995 13.5964 24.524 14.015 24.4364C14.8765 24.2531 15.7287 24.0287 16.5875 23.8317C17.4776 23.6281 18.3656 23.436 19.2765 23.3625C19.7682 23.3219 20.2573 23.3219 20.7464 23.3979C21.3151 23.4875 21.864 23.7063 22.2797 24.114L22.6235 24.4516L22.4052 24.8979C22.2136 25.288 22.014 25.6745 21.8161 26.0625L21.2183 27.2197C20.8292 27.9912 20.4307 28.7557 20.112 29.5552C20.0557 29.714 19.9708 29.774 19.8412 29.7583C19.5599 29.8197 19.2765 29.8473 18.9901 29.8631C18.7104 29.8812 18.4333 29.8833 18.1557 29.8807C17.6823 29.8855 17.2208 29.7896 16.7536 29.7573C16.7536 29.7615 16.7536 29.7656 16.7536 29.7697C16.7718 30.2489 16.7994 30.7287 16.8036 31.2073C17.8874 31.0375 18.9702 30.862 20.0713 30.8625C20.6958 30.862 21.3219 30.8828 21.9437 30.9636C22.5896 31.0516 23.2333 31.1697 23.8104 31.4855C23.8823 31.5093 23.9276 31.5443 23.9536 31.5953C24.0005 31.6557 24.0084 31.7245 23.9806 31.8068C23.9645 32.4213 24.0104 33.0364 24.0584 33.65C24.103 34.3079 24.1426 34.9636 24.115 35.6208C24.1046 35.9703 24.0792 36.3172 24.025 36.6645C23.9593 37.0541 23.8213 37.4317 23.601 37.762C23.3682 38.1083 23.0432 38.4093 22.664 38.5833C22.2964 38.7573 21.8781 38.8193 21.4754 38.7527C21.2656 38.7167 21.1943 38.6188 21.2297 38.4109C21.2479 38.2927 21.2776 38.2552 21.3745 38.1995C21.6131 38.0593 21.8609 37.8995 22.0541 37.7021C22.2229 37.5249 22.3573 37.3328 22.4562 37.1104C22.6822 36.5964 22.876 36.0693 22.9631 35.5125C23.0557 34.8953 23.0948 34.2683 23.1437 33.6437C23.1943 33.0995 23.2307 32.5541 23.3287 32.0172C22.8547 31.9869 22.3776 32.0177 21.9052 32.0401C21.3136 32.0797 20.7229 32.1245 20.1333 32.1803C19.0062 32.2896 17.8729 32.3063 16.7453 32.4011C16.7417 32.4303 16.7375 32.4599 16.7339 32.4891C16.6421 33.1771 16.5177 33.8573 16.312 34.5161C16.736 34.3953 17.1557 34.2599 17.5932 34.1937C18.0016 34.1249 18.4093 34.0677 18.8188 34.0197Z" fill="#ED1C24"/>
<path fill-rule="evenodd" clip-rule="evenodd" d="M14.0823 9.44641C14.0792 9.16828 14.0798 8.88908 14.0812 8.60988C14.1115 7.23121 14.2022 5.85415 14.2688 4.47601C14.2823 4.27188 14.3694 4.18801 14.5798 4.19788C14.776 4.20735 14.8522 4.28908 14.861 4.48028C14.923 5.85054 14.9188 7.22348 14.997 8.59428C15.0074 8.80215 15.0188 9.01148 15.0318 9.22081C15.5594 9.10001 16.0886 8.98641 16.6188 8.88068C17.7355 8.66561 18.8448 8.41508 19.987 8.39694C20.5656 8.38641 21.1443 8.40001 21.7178 8.47295C22.3104 8.54695 22.9016 8.67081 23.4454 8.92348C23.6355 9.01148 23.6782 9.12814 23.5896 9.31881C23.524 9.46094 23.4563 9.49481 23.3136 9.49014C22.2266 9.47134 21.1531 9.59588 20.076 9.71254C18.9886 9.84694 17.8912 9.88441 16.8027 10.024C16.2402 10.0943 15.6776 10.1729 15.1172 10.2604C15.1979 11.0323 15.324 11.8 15.5412 12.5385C15.7104 13.0932 15.9599 13.6869 16.3536 14.1224C16.7104 14.5249 17.1615 14.7645 17.697 14.8333C18.2807 14.9167 18.9208 14.8027 19.4875 14.662C20.138 14.4973 20.773 14.2656 21.4047 14.0412C21.6006 13.9713 21.7136 14.0224 21.7839 14.2193C21.8396 14.3735 21.8146 14.4521 21.6907 14.5521C21.1235 15.0063 20.5047 15.3907 19.838 15.6823C19.1156 15.9969 18.361 16.1896 17.5656 16.1464C17.1344 16.1161 16.7036 16.0036 16.3224 15.7979C15.9391 15.5948 15.6063 15.2984 15.3407 14.9541C14.8667 14.3219 14.6052 13.6005 14.423 12.8375C14.2396 12.0391 14.1511 11.2349 14.111 10.4249C13.9208 10.4579 13.7312 10.4916 13.5418 10.5255C12.4542 10.7099 11.3714 10.9292 10.2922 11.1651C10.0912 11.2073 9.98803 11.1412 9.94123 10.9349C9.90363 10.7495 9.95523 10.6552 10.135 10.5948C11.1918 10.2307 12.2678 9.92495 13.3474 9.63175C13.5918 9.56828 13.8364 9.50681 14.0823 9.44641Z" fill="#231F20"/>
</svg>
