<svg width="32" height="43" viewBox="0 0 32 43" fill="none" xmlns="http://www.w3.org/2000/svg">
<path fill-rule="evenodd" clip-rule="evenodd" d="M13.464 8.7864C13.4906 9.5552 13.2973 10.314 13 11.0172C12.708 11.724 12.212 12.2959 11.7146 12.8636C11.2346 13.4177 10.696 13.9213 10.116 14.3724C9.53998 14.8088 8.93332 15.2088 8.29066 15.5432C8.10666 15.6344 7.99198 15.6 7.89331 15.4151C7.80798 15.25 7.83599 15.1536 7.97332 15.0448C8.51199 14.6255 9.03464 14.1807 9.50931 13.6875C9.97998 13.2083 10.416 12.6937 10.8067 12.1469C11.1947 11.5989 11.472 10.9817 11.828 10.4151C12.1946 9.82134 12.532 9.21454 12.916 8.6328C13.0333 8.45107 13.156 8.4344 13.3333 8.5484C13.436 8.61934 13.46 8.6672 13.464 8.7864ZM13.8173 4.47974C14.848 5.09947 15.7026 5.96453 16.492 6.86253C17.252 7.7536 17.9453 8.7 18.644 9.6396C19.3213 10.5541 20.048 11.4276 20.7666 12.3057C21.452 13.1079 22.1853 13.8937 23.2613 14.1172C23.4666 14.1588 23.5346 14.2615 23.4933 14.4697C23.4613 14.6229 23.404 14.6683 23.2626 14.7C22.6026 14.8317 21.8907 14.664 21.3067 14.3516C20.736 14.0588 20.248 13.6473 19.7946 13.1973C18.9346 12.338 18.3493 11.3073 17.692 10.2984C17.072 9.3312 16.4586 8.35627 15.776 7.43227C15.1146 6.52347 14.3813 5.65574 13.4853 4.9708C13.316 4.84267 13.3026 4.71826 13.4293 4.55466C13.5493 4.39586 13.6586 4.3864 13.8173 4.47974Z" fill="#231F20"/>
<path fill-rule="evenodd" clip-rule="evenodd" d="M18.28 19.912C18.2853 19.8839 18.2907 19.8552 18.296 19.8265C18.3813 19.3609 18.372 18.8979 18.5173 18.4407C18.6627 17.9541 18.828 17.5027 19.088 17.0688C19.1973 16.8749 19.32 16.8521 19.5093 16.9625C19.58 17.0079 19.6 17.0312 19.6307 17.1099C19.7307 17.3693 19.7787 17.6339 19.8053 17.9083C19.832 18.1636 19.8307 18.4188 19.812 18.6724C19.7907 19.0828 19.656 19.4521 19.5187 19.8281C19.692 19.8224 19.8653 19.8208 20.0387 19.8224C21.34 19.8297 22.6427 19.9161 23.916 20.1984C24.1173 20.2443 24.188 20.3469 24.14 20.5552C24.104 20.7083 24.0453 20.7636 23.888 20.7828C22.6253 20.9469 21.3573 21.0391 20.088 21.1407C19.7213 21.1713 19.3533 21.1921 18.9853 21.2073C18.944 21.2989 18.9 21.3896 18.856 21.4792C18.6307 21.9167 18.3867 22.3473 18.084 22.7364C17.9573 22.9016 17.8347 22.9188 17.6693 22.7901C17.528 22.6828 17.5147 22.5921 17.5747 22.4427C17.7347 22.0521 17.8733 21.6531 17.98 21.2432C17.4213 21.2609 16.8613 21.2797 16.304 21.3188C15.5333 21.3688 14.7627 21.4317 13.9933 21.5068C14.0093 21.6927 14.0187 21.8797 14.024 22.0661C14.028 22.4864 14.0227 22.9088 13.956 23.324C13.924 23.5303 13.8253 23.6088 13.6187 23.5713C13.4467 23.5473 13.3973 23.4807 13.3707 23.3265C13.308 22.9473 13.2293 22.5677 13.1213 22.1959C13.0693 22.0011 13.0133 21.8079 12.9547 21.6151C12.816 21.6303 12.676 21.6469 12.536 21.6625C11.28 21.7964 10.0267 21.9656 8.77865 22.162C8.57465 22.1943 8.47733 22.1249 8.44 21.9203C8.40533 21.724 8.47333 21.6339 8.656 21.5823C9.89333 21.2568 11.1467 21.0011 12.4027 20.7568C12.484 20.7416 12.5667 20.7276 12.6493 20.7125C12.5453 20.4604 12.4413 20.2125 12.4027 19.9297C12.3347 19.4839 12.3107 19.0651 12.3867 18.6156C12.424 18.4052 12.5187 18.3355 12.736 18.3697C12.812 18.3833 12.832 18.3979 12.8787 18.4364C13.0667 18.5943 13.2173 18.7765 13.3507 18.9792C13.476 19.1636 13.5787 19.3583 13.664 19.5593C13.8067 19.8677 13.8413 20.1817 13.876 20.5041C14.6466 20.3797 15.4186 20.2661 16.192 20.1656C16.8866 20.0787 17.5827 19.9812 18.28 19.912ZM16.248 26.1489C16.572 26.0287 16.872 25.8527 17.2133 25.7631C17.424 25.7011 17.632 25.6443 17.8453 25.6005C18.0853 25.5469 18.3186 25.5057 18.56 25.4948C18.7786 25.4781 18.8693 25.5604 18.8827 25.7781C18.8853 25.8573 18.8787 25.8833 18.8387 25.9536C18.5613 26.3943 18.176 26.7183 17.7293 26.9735C17.336 27.2047 16.8947 27.2697 16.452 27.324C16.4973 27.6645 16.532 28.0063 16.56 28.3495C17.0973 28.2916 17.632 28.2349 18.1653 28.3464C18.46 28.4011 18.7466 28.4781 19.0266 28.5823C19.172 28.6344 19.3133 28.6921 19.452 28.7573C19.4893 28.4473 19.552 28.1412 19.6253 27.8385C19.7333 27.3969 19.864 26.962 20.0173 26.5349C20.1613 26.1099 20.3347 25.6943 20.5067 25.276C20.6093 25.0396 20.7173 24.8031 20.8293 24.5703C20.6867 24.4979 20.5333 24.4443 20.38 24.4063C20.004 24.312 19.6 24.2937 19.216 24.2969C18.3613 24.3125 17.5067 24.4464 16.6653 24.5864C16.3773 24.636 16.0893 24.6864 15.8013 24.7369C15.9147 24.9839 16.004 25.2427 16.0813 25.5031C16.144 25.7161 16.2 25.9317 16.248 26.1489ZM15.496 27.374C15.272 27.3631 15.048 27.3349 14.828 27.2869C14.3573 27.1792 13.8987 26.9948 13.5027 26.7197C13.3333 26.6063 13.3053 26.4896 13.4187 26.3131C13.5173 26.1599 13.604 26.15 13.756 26.1907C14.1347 26.3125 14.528 26.3891 14.9267 26.3797C15.0947 26.3792 15.264 26.3667 15.4307 26.3443C15.408 26.1208 15.38 25.8984 15.3426 25.6781C15.2906 25.3995 15.232 25.1183 15.136 24.8505C14.7693 24.9115 14.4013 24.9677 14.032 25.0145C13.5813 25.0719 13.1267 25.1172 12.672 25.1271C12.4573 25.1317 12.244 25.1271 12.0307 25.1088C12.1307 25.2697 12.228 25.4328 12.324 25.5964C12.6027 26.0849 12.8507 26.5921 13.0653 27.1109C13.2907 27.6552 13.5507 28.1651 13.616 28.7583C13.6267 28.8401 13.636 28.9219 13.6426 29.0036C13.984 28.8839 14.3307 28.7781 14.68 28.6807C14.9547 28.6083 15.2307 28.5453 15.5107 28.4932C15.5147 28.1208 15.5107 27.7473 15.496 27.374ZM18.7 33.7969C18.5333 33.5787 18.34 33.3828 18.1307 33.2083C17.9653 33.0749 17.956 32.9495 18.088 32.7896C18.1907 32.6631 18.268 32.6521 18.4067 32.6932C18.7507 32.7989 19.064 32.9812 19.3627 33.1839C19.652 33.3891 19.916 33.6303 20.1547 33.8916C20.4133 34.1745 20.6893 34.4047 20.8147 34.7792C20.884 34.9625 20.9293 35.1484 20.948 35.3407C20.972 35.5568 20.9653 35.7683 20.9067 35.9792C20.848 36.1948 20.7546 36.2583 20.544 36.1973C20.4786 36.1844 20.4627 36.1667 20.448 36.1583C20.28 36.0479 20.1373 35.9281 20 35.7907C19.8773 35.6729 19.7693 35.5484 19.6693 35.4183C19.4467 35.1557 19.3906 34.8609 19.2266 34.5781C19.2186 34.5667 19.212 34.5557 19.2053 34.5437C19.0493 34.6609 18.8826 34.7625 18.7093 34.8552C18.4186 35.0145 18.1133 35.1375 17.8027 35.2469C17.184 35.4672 16.544 35.4901 15.9 35.5599C15.2733 35.6287 14.6427 35.6683 14.012 35.6683C13.6933 35.6656 13.376 35.6547 13.06 35.6287C12.7307 35.6016 12.4027 35.5583 12.088 35.464C11.888 35.4068 11.8267 35.2953 11.888 35.0932C11.9387 34.9245 12.02 34.8697 12.192 34.8839C12.776 34.9229 13.3653 34.8473 13.9426 34.7568C14.4173 34.6828 14.888 34.5937 15.356 34.4948C15.2987 33.7661 15.2947 33.0364 15.3 32.3057C14.484 32.3921 13.6706 32.4937 12.8586 32.612C11.884 32.7489 10.908 32.8932 9.94932 33.1104C9.99332 33.212 10.0333 33.3145 10.072 33.4188C10.2733 33.9464 10.2867 34.4916 10.3547 35.0437C10.4187 35.5776 10.4613 36.1145 10.472 36.6536C10.4773 37.1921 10.4707 37.7323 10.4053 38.2672C10.3813 38.4776 10.28 38.5489 10.0733 38.5265C9.90266 38.5031 9.83599 38.4385 9.81732 38.2688C9.75332 37.7609 9.67466 37.2552 9.56532 36.7536C9.46132 36.2531 9.34399 35.7547 9.21732 35.2588C9.08532 34.7505 8.87065 34.2755 8.79732 33.7516C8.71332 33.2057 8.65733 32.6745 8.68533 32.1188C8.69733 31.9073 8.78532 31.824 8.99999 31.8375C9.10399 31.8416 9.13599 31.8636 9.19866 31.9265C9.37466 32.1052 9.51865 32.3057 9.64532 32.5183C10.0653 32.376 10.492 32.2568 10.9187 32.1427C11.508 31.9864 12.1013 31.8448 12.696 31.7109C13.576 31.5224 14.46 31.3527 15.3467 31.2005C15.3907 30.6489 15.4547 30.0979 15.4787 29.5437C15.4787 29.5416 15.4787 29.5396 15.4787 29.5369C15.2653 29.5469 15.0507 29.562 14.8373 29.5812C14.4373 29.6115 14.0386 29.6656 13.6426 29.7255C13.6186 30.0203 13.5613 30.3104 13.4453 30.5869C13.3613 30.7807 13.2507 30.8303 13.052 30.7443C12.9573 30.7041 12.9307 30.6745 12.8947 30.588C12.7813 30.3287 12.684 30.0667 12.5893 29.8016C12.496 29.55 12.412 29.2973 12.3307 29.0448C12.156 28.5364 12.112 28.0031 11.9707 27.488C11.8307 26.9787 11.6707 26.4745 11.4933 25.9755C11.32 25.4719 11.1133 24.9797 10.8947 24.4943C10.8093 24.3047 10.8533 24.1864 11.044 24.1027C11.212 24.026 11.2973 24.0604 11.4013 24.1912C11.4587 24.2667 11.516 24.3427 11.572 24.4197C11.9227 24.4697 12.2813 24.4516 12.6293 24.4188C13.056 24.376 13.4787 24.3 13.8973 24.2131C14.7587 24.0303 15.612 23.8057 16.4693 23.6088C17.36 23.4041 18.248 23.2131 19.16 23.1391C19.6506 23.0984 20.14 23.0984 20.6293 23.1745C21.1973 23.264 21.7453 23.4833 22.1613 23.8912L22.5053 24.2287L22.288 24.674C22.096 25.0645 21.896 25.4511 21.6987 25.8391L21.1 26.9964C20.7107 27.7683 20.312 28.5339 19.992 29.336C19.9333 29.4896 19.852 29.5516 19.7213 29.5355C19.44 29.5969 19.1573 29.6249 18.8707 29.6401C18.592 29.6573 18.3147 29.6599 18.0373 29.6573C17.564 29.6625 17.1027 29.5661 16.636 29.5344C16.636 29.538 16.636 29.5421 16.636 29.5464C16.6547 30.026 16.6813 30.5052 16.6853 30.9844C17.7693 30.8145 18.852 30.638 19.9533 30.6391C20.5787 30.6385 21.204 30.6593 21.8253 30.7407C22.472 30.8287 23.1173 30.9469 23.6947 31.264C23.764 31.288 23.8067 31.3208 23.832 31.3683C23.8787 31.4271 23.888 31.4948 23.8627 31.5755C23.8467 32.1943 23.892 32.8109 23.94 33.4265C23.9853 34.0844 24.0253 34.7401 23.9973 35.3979C23.9867 35.7464 23.9613 36.0943 23.9067 36.4407C23.8413 36.8307 23.704 37.2088 23.484 37.5391C23.2493 37.8849 22.9267 38.186 22.5467 38.3599C22.1773 38.5339 21.7613 38.5969 21.36 38.5292C21.1466 38.4969 21.0813 38.3916 21.112 38.1817C21.1347 38.0708 21.16 38.0317 21.2573 37.976C21.4947 37.8364 21.7427 37.6765 21.936 37.4787C22.1053 37.3016 22.24 37.1093 22.3387 36.8869C22.564 36.3729 22.7587 35.8453 22.8453 35.2891C22.9373 34.6719 22.9773 34.0448 23.0266 33.4208C23.076 32.8771 23.1133 32.3312 23.2106 31.7937C22.736 31.7636 22.26 31.7948 21.788 31.8172C21.196 31.8568 20.6053 31.9011 20.016 31.9563C18.8893 32.0667 17.7546 32.0828 16.6267 32.1776C16.624 32.2073 16.62 32.2364 16.616 32.2656C16.5253 32.9531 16.4 33.6328 16.1933 34.2921C16.6187 34.1713 17.0373 34.0364 17.476 33.9703C17.884 33.9021 18.2907 33.8448 18.7 33.7969Z" fill="#ED1C24"/>
</svg>
