<svg width="32" height="43" viewBox="0 0 32 43" fill="none" xmlns="http://www.w3.org/2000/svg">
<path fill-rule="evenodd" clip-rule="evenodd" d="M17.576 20.4719C17.5813 20.4437 17.5866 20.4151 17.592 20.3864C17.6773 19.9208 17.668 19.4579 17.812 19C17.9573 18.5145 18.1253 18.0604 18.3866 17.624C18.4973 17.4391 18.612 17.4079 18.7946 17.5161C18.8813 17.5645 18.8946 17.5948 18.9253 17.6677C19.0266 17.9287 19.0746 18.1937 19.1013 18.4677C19.128 18.7229 19.1267 18.9781 19.108 19.2317C19.0853 19.6421 18.952 20.0115 18.8147 20.3875C18.988 20.3817 19.1613 20.3803 19.3346 20.3817C20.636 20.3891 21.9387 20.4755 23.212 20.7579C23.4133 20.8036 23.484 20.9063 23.436 21.1145C23.4 21.2677 23.3413 21.3229 23.184 21.3421C21.9213 21.5063 20.652 21.5989 19.384 21.7C19.0173 21.7307 18.6493 21.7516 18.2813 21.7667C18.24 21.8583 18.196 21.9489 18.152 22.0385C17.9266 22.476 17.6827 22.9079 17.3787 23.2984C17.2507 23.4583 17.1306 23.4781 16.9613 23.3473C16.8266 23.2407 16.8093 23.1536 16.8707 23.0021C17.0293 22.6115 17.1693 22.2125 17.276 21.8027C16.7173 21.8203 16.1573 21.8391 15.6 21.8781C14.828 21.9281 14.0586 21.9916 13.2893 22.0661C13.3053 22.2521 13.3146 22.4391 13.32 22.626C13.324 23.0464 13.3186 23.4683 13.252 23.8844C13.2186 24.0912 13.1187 24.1625 12.9093 24.1307C12.7453 24.1021 12.6933 24.0391 12.6666 23.8869C12.6026 23.5068 12.524 23.1271 12.4173 22.7547C12.3653 22.5604 12.3093 22.3672 12.252 22.1745C12.112 22.1896 11.9706 22.2063 11.832 22.2219C10.5746 22.3557 9.32399 22.5255 8.07866 22.7203C7.87333 22.7579 7.76932 22.6875 7.73599 22.4781C7.70265 22.2823 7.76663 22.1932 7.95197 22.1427C9.18797 21.8167 10.4426 21.5604 11.6986 21.3161C11.78 21.3011 11.8613 21.2869 11.9453 21.2719C11.8413 21.0197 11.736 20.7719 11.6986 20.4891C11.6306 20.0432 11.6053 19.6255 11.6813 19.1792C11.7173 18.9615 11.816 18.8953 12.0306 18.9292C12.1093 18.9427 12.124 18.9573 12.1733 18.9943C12.3627 19.1536 12.512 19.3364 12.6467 19.5391C12.772 19.7235 12.8733 19.9177 12.96 20.1188C13.1026 20.4271 13.1373 20.7412 13.172 21.0636C13.9427 20.9391 14.7146 20.8255 15.488 20.7249C16.1826 20.6385 16.8787 20.5407 17.576 20.4719ZM15.544 26.7083C15.868 26.588 16.168 26.412 16.5093 26.3229C16.72 26.2604 16.928 26.2036 17.1413 26.1599C17.3813 26.1068 17.6146 26.0651 17.856 26.0541C18.0746 26.0375 18.1653 26.1197 18.1787 26.3375C18.1813 26.4167 18.1733 26.4427 18.1347 26.5131C17.8573 26.9536 17.472 27.2776 17.0253 27.5323C16.632 27.7645 16.1907 27.8297 15.748 27.8839C15.792 28.224 15.828 28.5667 15.856 28.9088C16.3933 28.8516 16.9266 28.7943 17.4613 28.9057C17.756 28.9604 18.044 29.0375 18.324 29.1416C18.468 29.1943 18.6093 29.2516 18.748 29.3167C18.7853 29.0073 18.848 28.7011 18.92 28.3979C19.028 27.9563 19.16 27.5213 19.3133 27.0948C19.4573 26.6693 19.6293 26.2536 19.8027 25.8364C19.9053 25.5995 20.012 25.3631 20.1253 25.1297C19.9826 25.0568 19.828 25.0036 19.676 24.9656C19.2987 24.8708 18.8947 24.8527 18.5107 24.8557C17.6573 24.8719 16.8026 25.0057 15.9613 25.1459C15.6733 25.1959 15.3853 25.2469 15.0973 25.2964C15.212 25.5432 15.3 25.8021 15.3773 26.0625C15.44 26.2755 15.4947 26.4912 15.544 26.7083ZM14.792 27.9333C14.5666 27.9224 14.3426 27.8943 14.124 27.8464C13.6533 27.7385 13.1946 27.5541 12.7973 27.2792C12.6293 27.1656 12.6 27.0489 12.7147 26.8724C12.8133 26.7193 12.9 26.7093 13.052 26.75C13.4306 26.8719 13.824 26.9489 14.2213 26.9391C14.3906 26.9385 14.5586 26.926 14.7266 26.9036C14.704 26.6803 14.676 26.4579 14.6387 26.2375C14.5867 25.9593 14.528 25.6781 14.432 25.4104C14.0653 25.4708 13.6973 25.5271 13.328 25.574C12.876 25.6312 12.4226 25.6765 11.9666 25.6864C11.7533 25.6912 11.54 25.6864 11.3266 25.6683C11.4266 25.8292 11.524 25.9921 11.62 26.1557C11.8973 26.6443 12.1453 27.1516 12.3613 27.6703C12.5866 28.2145 12.8453 28.7245 12.912 29.3177C12.9227 29.3995 12.9307 29.4817 12.9387 29.5631C13.28 29.4437 13.6267 29.338 13.976 29.2412C14.2493 29.1683 14.5267 29.1052 14.8067 29.0531C14.8107 28.6803 14.8066 28.3068 14.792 27.9333ZM17.9973 34.3563C17.8293 34.138 17.636 33.9421 17.4266 33.7677C17.2613 33.6344 17.252 33.5088 17.384 33.3489C17.4853 33.2224 17.5627 33.2115 17.7027 33.2527C18.0453 33.3588 18.36 33.5412 18.6586 33.7437C18.948 33.9495 19.212 34.1896 19.4506 34.4511C19.7093 34.7339 19.984 34.9651 20.1107 35.3391C20.1787 35.5219 20.2253 35.7079 20.244 35.9005C20.2667 36.1161 20.26 36.3276 20.2027 36.5385C20.144 36.7541 20.0507 36.8177 19.8387 36.7568C19.7813 36.7448 19.7693 36.7328 19.7413 36.7156C19.576 36.6073 19.432 36.4875 19.296 36.35C19.1733 36.2317 19.0653 36.1079 18.964 35.9776C18.7426 35.7151 18.6853 35.4203 18.5213 35.1375C18.5146 35.1265 18.508 35.1151 18.5027 35.1041C18.3453 35.2203 18.1787 35.3219 18.0053 35.4145C17.7147 35.574 17.4093 35.6969 17.0973 35.8063C16.4786 36.0271 15.84 36.0495 15.1946 36.1193C14.5693 36.188 13.9387 36.2276 13.3067 36.2276C12.9893 36.2249 12.672 36.214 12.356 36.188C12.0266 36.1609 11.6987 36.1177 11.38 36.0235C11.1853 35.9625 11.1213 35.8557 11.1827 35.6541C11.2347 35.4792 11.3173 35.4339 11.4866 35.4432C12.072 35.4828 12.6613 35.4073 13.2387 35.3161C13.712 35.2432 14.184 35.1536 14.652 35.0547C14.5933 34.3255 14.5906 33.5969 14.5946 32.8656C13.7786 32.9521 12.9653 33.0541 12.1546 33.1713C11.1786 33.3083 10.2027 33.4527 9.24533 33.6697C9.28799 33.7708 9.32798 33.874 9.36665 33.9781C9.56932 34.5063 9.58133 35.0511 9.64933 35.6036C9.716 36.1369 9.75732 36.674 9.76798 37.2136C9.77332 37.7521 9.76665 38.2921 9.70132 38.8255C9.67732 39.0385 9.57465 39.1093 9.36932 39.0864C9.19732 39.0631 9.13066 38.9979 9.11199 38.8271C9.04799 38.3203 8.97064 37.814 8.86131 37.3136C8.75731 36.8125 8.64 36.314 8.51333 35.8193C8.38133 35.3099 8.16531 34.836 8.09331 34.312C8.00798 33.7661 7.952 33.2355 7.98 32.6828C7.98933 32.4672 8.08131 32.3875 8.29331 32.3964C8.40664 32.4011 8.43464 32.4303 8.49197 32.4844C8.66931 32.6645 8.81466 32.8656 8.94132 33.0781C9.35999 32.936 9.788 32.8167 10.2147 32.7027C10.804 32.5464 11.396 32.4041 11.992 32.2708C12.872 32.0817 13.7547 31.9125 14.6427 31.7604C14.6867 31.2083 14.7507 30.6579 14.7733 30.1031C14.7733 30.1016 14.7733 30.0989 14.7747 30.0969C14.56 30.1073 14.3453 30.1213 14.132 30.1407C13.7333 30.1708 13.3347 30.2249 12.9387 30.2855C12.9147 30.5803 12.8573 30.8703 12.7413 31.1459C12.6573 31.3401 12.5453 31.3896 12.348 31.3036C12.2533 31.2631 12.2306 31.2323 12.1906 31.1495C12.0786 30.8907 11.9786 30.626 11.8853 30.3615C11.792 30.1093 11.708 29.8579 11.6266 29.6041C11.452 29.0948 11.408 28.5625 11.2666 28.0473C11.1266 27.538 10.9666 27.0339 10.788 26.5349C10.616 26.0312 10.408 25.5391 10.1906 25.0536C10.1053 24.864 10.1493 24.7453 10.34 24.662C10.508 24.5855 10.5933 24.6197 10.696 24.7505C10.7546 24.8255 10.812 24.9021 10.8666 24.9792C11.2173 25.0297 11.576 25.0109 11.9253 24.9781C12.352 24.936 12.7733 24.8599 13.1933 24.7729C14.0546 24.5896 14.9066 24.3651 15.7653 24.1683C16.6546 23.9645 17.5426 23.7724 18.4546 23.6984C18.9466 23.6583 19.436 23.6579 19.924 23.7339C20.4933 23.8235 21.0413 24.0427 21.4573 24.4505L21.8013 24.7885L21.5827 25.2339C21.392 25.6245 21.192 26.0109 20.9933 26.3984L20.396 27.5557C20.0066 28.3276 19.608 29.0932 19.288 29.8953C19.2293 30.0511 19.1453 30.1172 19.0107 30.0959C18.7307 30.1568 18.4506 30.1844 18.1666 30.1995C17.888 30.2177 17.6106 30.2193 17.3333 30.2167C16.86 30.2219 16.3986 30.1255 15.9306 30.0937C15.9306 30.0973 15.932 30.1016 15.932 30.1057C15.9506 30.5855 15.9773 31.0645 15.9813 31.5443C17.064 31.3745 18.148 31.1979 19.2493 31.1984C19.8733 31.1979 20.5 31.2193 21.1213 31.2995C21.768 31.388 22.4146 31.5063 22.992 31.824C23.0573 31.8469 23.1013 31.8797 23.128 31.9265C23.1773 31.988 23.1866 32.0583 23.1586 32.1427C23.1426 32.7579 23.188 33.3724 23.236 33.986C23.2813 34.6437 23.3213 35.2995 23.2933 35.9573C23.2826 36.3057 23.2573 36.6536 23.2027 37C23.1373 37.3907 23 37.7683 22.7787 38.0984C22.5453 38.4443 22.2213 38.7459 21.8427 38.9193C21.4733 39.0932 21.056 39.1563 20.652 39.0885C20.4466 39.0531 20.372 38.9536 20.4093 38.7396C20.4307 38.6245 20.46 38.5927 20.5506 38.5364C20.788 38.3969 21.0386 38.236 21.232 38.038C21.4 37.862 21.5346 37.6693 21.6333 37.4464C21.86 36.9328 22.0533 36.4047 22.1413 35.8484C22.2333 35.2312 22.272 34.6041 22.3213 33.9803C22.372 33.436 22.408 32.8907 22.5067 32.3531C22.032 32.3229 21.5547 32.3541 21.0827 32.3765C20.4907 32.4161 19.9013 32.4604 19.3107 32.5161C18.184 32.626 17.0506 32.6421 15.9226 32.7369C15.9186 32.7667 15.9147 32.7959 15.9107 32.8249C15.82 33.5125 15.6946 34.1927 15.4893 34.8521C15.9146 34.7312 16.3333 34.5959 16.772 34.5297C17.18 34.462 17.588 34.4041 17.9973 34.3563Z" fill="#ED1C24"/>
<path fill-rule="evenodd" clip-rule="evenodd" d="M13.3506 9.02974C12.212 9.40361 11.0933 9.83601 9.98 10.2776C9.788 10.3527 9.67332 10.3068 9.59732 10.1131C9.51999 9.92401 9.56933 9.82188 9.74267 9.73494C11.024 9.11668 12.3253 8.53748 13.66 8.04014C13.7333 7.80734 13.8106 7.57454 13.892 7.34321C14.2733 6.24374 14.6333 5.13801 15.076 4.06094C15.1547 3.86507 15.2693 3.81881 15.464 3.89734C15.6133 3.95787 15.652 4.02601 15.648 4.17708C15.636 5.30828 15.464 6.42401 15.2053 7.52188C15.3733 7.47401 15.5427 7.42921 15.7133 7.38694C16.104 7.29481 16.4933 7.21774 16.8933 7.19068L17.08 7.18228C17.3667 7.18068 17.6267 7.20361 17.9013 7.31148C17.988 7.34841 18.0707 7.39121 18.148 7.44841C18.2573 7.53174 18.328 7.60108 18.404 7.72708C18.4973 7.90108 18.524 8.04428 18.5506 8.24161C18.588 8.70988 18.5387 9.14948 18.4973 9.61508C18.4147 10.4375 18.316 11.2645 18.3093 12.0916C18.3013 12.8052 18.332 13.6281 18.6 14.2948C18.7133 14.5651 18.88 14.812 19.1347 14.9724C19.3973 15.1505 19.7426 15.2265 20.0533 15.2557C20.8346 15.3193 21.6653 15.1552 22.4253 14.9979C22.624 14.9521 22.736 15.0156 22.7787 15.2245C22.8173 15.3953 22.772 15.4708 22.628 15.55C21.812 15.9787 20.964 16.2964 20.036 16.3479C19.5093 16.376 18.98 16.286 18.5093 16.0421C18.0187 15.7828 17.6186 15.3375 17.388 14.8369C16.9693 13.9328 16.9586 13.0083 17.0213 12.0339C17.0906 11.1745 17.2387 10.3271 17.368 9.47601C17.4213 9.10574 17.492 8.69734 17.4787 8.32294C17.4787 8.30414 17.4787 8.28494 17.4773 8.26561C17.364 8.21401 17.1907 8.20161 17.072 8.19841C16.3547 8.19428 15.612 8.37654 14.9147 8.56148C14.632 9.41721 14.2547 10.2416 13.8653 11.0547C13.34 12.136 12.728 13.1817 11.9493 14.1041C11.548 14.5688 11.1013 14.9979 10.6 15.3521C10.0933 15.7131 9.51733 15.9912 8.908 16.1287C8.70533 16.174 8.59998 16.1109 8.55198 15.9052C8.50931 15.7156 8.56667 15.6255 8.744 15.5599C9.78533 15.2005 10.6013 14.4167 11.2307 13.536C11.892 12.6339 12.3907 11.6197 12.8067 10.5849C13.0147 10.076 13.1853 9.55361 13.3506 9.02974Z" fill="#231F20"/>
</svg>
