<svg width="31" height="43" viewBox="0 0 31 43" fill="none" xmlns="http://www.w3.org/2000/svg">
<path fill-rule="evenodd" clip-rule="evenodd" d="M17.5584 21.8648C17.9489 21.6355 18.3531 21.4328 18.7615 21.2288C19.3745 20.9168 20.0385 20.7235 20.6469 20.4061C21.2417 20.0968 21.8073 19.7315 22.3317 19.3128C22.8713 18.8941 23.3557 18.4075 23.812 17.9035C23.9541 17.7421 24.0765 17.7421 24.2312 17.8781C24.3713 18.0048 24.3776 18.1048 24.2864 18.2555C23.9027 18.8768 23.4495 19.4568 22.9479 19.9902C22.4339 20.5262 21.8541 21.0021 21.2317 21.4048C20.6084 21.8141 19.9755 22.2261 19.2584 22.4488C18.7063 22.6248 18.1475 22.7568 17.5745 22.8141L17.6245 25.7355C17.6297 26.0195 17.6312 26.3048 17.6552 26.5901C17.6771 26.8635 17.7125 27.1381 17.7625 27.4088C17.8615 27.9365 18.0172 28.4615 18.2484 28.9495C18.6521 29.8459 19.3792 30.6079 20.3672 30.8235C20.8615 30.9433 21.3932 30.9308 21.8953 30.8584C22.4421 30.7833 22.9787 30.6235 23.4975 30.4428C24.5875 30.0459 25.6271 29.5115 26.6375 28.9443C26.8208 28.8407 26.9391 28.8767 27.0417 29.0584C27.1328 29.2209 27.1063 29.3157 26.9735 29.4303C26.0323 30.2152 25.0229 30.9177 23.9115 31.4396C23.336 31.7131 22.7328 31.9267 22.1093 32.0636C21.4464 32.2027 20.7641 32.2376 20.0948 32.1141C19.3975 31.9828 18.724 31.6495 18.2027 31.1661C17.6959 30.6991 17.3224 30.1109 17.0489 29.4797C16.5615 28.2964 16.4131 27.0021 16.4656 25.7341L16.5869 18.6181L16.7489 11.5048C16.7489 11.2915 16.8453 11.2075 17.0521 11.2115C17.2552 11.2168 17.3323 11.3008 17.3417 11.4995L17.5031 18.6195L17.5584 21.8648ZM10.2656 21.4048C10.0943 21.4968 9.91506 21.5728 9.73226 21.6395C9.20106 21.8421 8.674 21.8328 8.12133 21.8928C7.60627 21.9475 7.0896 21.9875 6.5724 22.0221L5.03173 22.1168C4.82547 22.1261 4.7344 22.0461 4.72027 21.8381C4.71093 21.6568 4.76974 21.5875 4.92814 21.5381C5.42294 21.3808 5.92653 21.2555 6.42867 21.1195C6.92547 20.9928 7.42453 20.8741 7.9224 20.7528C8.41973 20.6301 8.8912 20.4328 9.3964 20.3661C9.712 20.3101 10.0276 20.2808 10.3401 20.2275C10.3844 19.4981 10.4255 18.7702 10.4579 18.0408C10.4959 17.2995 10.5265 16.5555 10.5344 15.8128C10.538 15.4448 10.5349 15.0768 10.5193 14.7102C10.5031 14.3595 10.486 14.0035 10.4005 13.6688C10.3375 13.4661 10.4047 13.3608 10.6016 13.2995C10.8068 13.2408 10.9036 13.3141 10.9667 13.4941C11.2016 14.2421 11.2385 15.0168 11.2948 15.7928C11.3391 16.5475 11.3599 17.3022 11.3735 18.0582C11.386 19.5595 11.3683 21.0621 11.3484 22.5621C11.3235 24.0621 11.3625 25.5648 11.2573 27.0621C11.2068 27.8079 11.1557 28.5521 11.0969 29.2953C11.0484 30.0303 10.9645 30.7657 10.9803 31.5027C10.9839 31.7104 10.9047 31.8027 10.686 31.8073C10.5303 31.8073 10.4588 31.7657 10.4047 31.6131C10.2645 31.2355 10.2011 30.8428 10.1375 30.4443C10.0855 30.0631 10.0443 29.6797 10.0172 29.2969C9.98493 28.8724 9.9656 28.4485 9.95413 28.0229C9.9016 28.0881 9.84787 28.1521 9.7932 28.2157C9.3068 28.7813 8.68747 29.1609 8.0776 29.574C7.4896 29.9719 6.87813 30.3344 6.24746 30.6636C5.6188 30.9839 4.97973 31.2865 4.31826 31.5328C4.12133 31.6079 4.00987 31.5548 3.93547 31.3604C3.86934 31.1855 3.9088 31.0917 4.0604 31.0021C4.6432 30.6491 5.21933 30.2839 5.77186 29.8824C6.324 29.4917 6.862 29.0803 7.38226 28.6485C7.89946 28.2157 8.34693 27.7075 8.86507 27.2795C9.2328 26.9635 9.59787 26.6528 9.9448 26.3208C9.97654 25.0501 10.1109 23.7835 10.1917 22.5155C10.2167 22.1448 10.2412 21.7755 10.2656 21.4048Z" fill="#231F20"/>
</svg>
