<svg width="31" height="43" viewBox="0 0 31 43" fill="none" xmlns="http://www.w3.org/2000/svg">
<rect width="31" height="43" rx="5" fill="white"/>
<path d="M11.6282 12.28C11.6282 12.056 11.7082 11.864 11.8682 11.704C12.0442 11.544 12.2442 11.464 12.4682 11.464H13.0442C13.2682 11.464 13.4602 11.544 13.6202 11.704C13.7802 11.864 13.8602 12.056 13.8602 12.28V32.656C13.8602 32.88 13.7802 33.072 13.6202 33.232C13.4602 33.408 13.2682 33.496 13.0442 33.496H8.31622C8.09222 33.496 7.90022 33.408 7.74022 33.232C7.58022 33.072 7.50022 32.88 7.50022 32.656V32.128C7.50022 31.888 7.58022 31.688 7.74022 31.528C7.90022 31.368 8.09222 31.288 8.31622 31.288H10.8122C11.0362 31.288 11.2282 31.208 11.3882 31.048C11.5482 30.888 11.6282 30.688 11.6282 30.448V17.92C11.6282 17.696 11.5482 17.504 11.3882 17.344C11.2282 17.168 11.0362 17.08 10.8122 17.08H8.31622C8.09222 17.08 7.90022 17 7.74022 16.84C7.58022 16.664 7.50022 16.464 7.50022 16.24V15.712C7.50022 15.488 7.58022 15.296 7.74022 15.136C7.90022 14.96 8.09222 14.872 8.31622 14.872H10.8122C11.0362 14.872 11.2282 14.792 11.3882 14.632C11.5482 14.456 11.6282 14.256 11.6282 14.032V12.28ZM19.2602 14.032C19.2602 14.256 19.3402 14.456 19.5002 14.632C19.6602 14.792 19.8522 14.872 20.0762 14.872H22.5722C22.7962 14.872 22.9882 14.96 23.1482 15.136C23.3082 15.296 23.3882 15.488 23.3882 15.712V16.24C23.3882 16.464 23.3082 16.664 23.1482 16.84C22.9882 17 22.7962 17.08 22.5722 17.08H20.0762C19.8522 17.08 19.6602 17.168 19.5002 17.344C19.3402 17.504 19.2602 17.696 19.2602 17.92V30.448C19.2602 30.688 19.3402 30.888 19.5002 31.048C19.6602 31.208 19.8522 31.288 20.0762 31.288H22.5722C22.7962 31.288 22.9882 31.368 23.1482 31.528C23.3082 31.688 23.3882 31.888 23.3882 32.128V32.656C23.3882 32.88 23.3082 33.072 23.1482 33.232C22.9882 33.408 22.7962 33.496 22.5722 33.496H17.8682C17.6442 33.496 17.4522 33.408 17.2922 33.232C17.1322 33.072 17.0522 32.88 17.0522 32.656V12.28C17.0522 12.056 17.1322 11.864 17.2922 11.704C17.4522 11.544 17.6442 11.464 17.8682 11.464H18.3962C18.6202 11.464 18.8202 11.544 18.9962 11.704C19.1722 11.864 19.2602 12.056 19.2602 12.28V14.032Z" fill="#181818"/>
</svg>
