<svg width="32" height="44" viewBox="0 0 32 44" fill="none" xmlns="http://www.w3.org/2000/svg">
<path d="M27.7516 22.1133C27.7516 28.376 22.674 33.4533 16.4104 33.4533C10.1479 33.4533 5.07026 28.376 5.07026 22.1133C5.07026 15.8493 10.1479 10.772 16.4104 10.772C22.674 10.772 27.7516 15.8493 27.7516 22.1133Z" fill="#74BA24"/>
<path d="M27.1921 22.1133C27.1921 28.0667 22.3651 32.8947 16.4104 32.8947C10.4563 32.8947 5.6292 28.0667 5.6292 22.1133C5.6292 16.1587 10.4563 11.3307 16.4104 11.3307C22.3651 11.3307 27.1921 16.1587 27.1921 22.1133Z" fill="white"/>
<path d="M26.5979 22.1133C26.5979 27.7387 22.0375 32.3 16.4104 32.3C10.7844 32.3 6.22346 27.7387 6.22346 22.1133C6.22346 16.4867 10.7844 11.9253 16.4104 11.9253C22.0375 11.9253 26.5979 16.4867 26.5979 22.1133Z" fill="#74BA24"/>
<path d="M23.0683 22.1133C23.0683 25.7893 20.0875 28.7693 16.4109 28.7693C12.7344 28.7693 9.7536 25.7893 9.7536 22.1133C9.7536 18.4359 12.7344 15.456 16.4109 15.456C20.0875 15.456 23.0683 18.4359 23.0683 22.1133Z" fill="#74BA24"/>
<path d="M22.5432 22.1133C22.5432 25.5 19.7979 28.2453 16.4109 28.2453C13.024 28.2453 10.2781 25.5 10.2781 22.1133C10.2781 18.7253 13.024 15.98 16.4109 15.98C19.7979 15.98 22.5432 18.7253 22.5432 22.1133Z" fill="white"/>
<path d="M22.0541 22.1133C22.0541 25.2293 19.5276 27.756 16.4109 27.756C13.2943 27.756 10.7677 25.2293 10.7677 22.1133C10.7677 18.996 13.2943 16.4693 16.4109 16.4693C19.5276 16.4693 22.0541 18.996 22.0541 22.1133Z" fill="#ED1C24"/>
<path d="M20.1099 22.112C20.9599 21.588 21.2448 20.4813 20.7421 19.612C20.2401 18.7413 19.1396 18.4346 18.2604 18.9093C18.2317 17.9106 17.4156 17.1106 16.4109 17.1106C15.4063 17.1106 14.5901 17.9106 14.5609 18.908C13.6823 18.4346 12.5812 18.7413 12.0792 19.612C11.5765 20.4813 11.8615 21.588 12.7115 22.112C11.8615 22.636 11.5765 23.744 12.0792 24.6133C12.5817 25.484 13.6828 25.7906 14.5609 25.316C14.5907 26.3146 15.4063 27.1146 16.4109 27.1146C17.4156 27.1146 18.2317 26.3146 18.2604 25.316C19.1391 25.7906 20.2401 25.484 20.7421 24.6133C21.2453 23.7426 20.9599 22.636 20.1099 22.112ZM16.4109 24.5666C15.0579 24.5666 13.9573 23.4666 13.9573 22.1133C13.9573 20.76 15.0579 19.6586 16.4109 19.6586C17.7636 19.6586 18.8645 20.76 18.8645 22.1133C18.8645 23.4666 17.7636 24.5666 16.4109 24.5666Z" fill="white"/>
<path d="M18.2636 22.1133C18.2636 23.136 17.4339 23.9653 16.4109 23.9653C15.3875 23.9653 14.5584 23.136 14.5584 22.1133C14.5584 21.0893 15.3875 20.26 16.4109 20.26C17.4339 20.26 18.2636 21.0893 18.2636 22.1133Z" fill="white"/>
<path d="M23.0683 22.112C23.0683 22.348 23.0557 22.5813 23.0317 22.8106L25.4099 22.812C25.7959 22.812 26.1084 22.4973 26.1088 22.112C26.1084 21.7266 25.7959 21.4133 25.4099 21.4133H23.0312C23.0557 21.6426 23.0683 21.876 23.0683 22.112Z" fill="white"/>
<path d="M16.4109 15.456C16.6464 15.456 16.8797 15.4679 17.1099 15.4919V13.1133C17.1099 12.7279 16.7969 12.4146 16.4109 12.4146C16.0245 12.4146 15.712 12.7279 15.712 13.1133V15.4919C15.9417 15.4679 16.1745 15.456 16.4109 15.456Z" fill="white"/>
<path d="M14.6875 15.6826C14.9161 15.6213 15.1448 15.5733 15.3724 15.5373L14.7568 13.24C14.6568 12.8666 14.274 12.6453 13.9005 12.7453C13.5276 12.8453 13.3068 13.228 13.4068 13.6013L14.0219 15.8986C14.238 15.816 14.4599 15.744 14.6875 15.6826Z" fill="white"/>
<path d="M13.0823 16.348C13.2869 16.2293 13.4953 16.124 13.7063 16.0293L12.5172 13.9706C12.324 13.636 11.8964 13.5213 11.562 13.7146C11.2276 13.9066 11.1131 14.3346 11.3063 14.6693L12.4953 16.728C12.6823 16.5933 12.8781 16.4653 13.0823 16.348Z" fill="white"/>
<path d="M11.7036 17.4053C11.8703 17.2386 12.0448 17.0826 12.224 16.9373L10.5421 15.256C10.2688 14.9826 9.82653 14.9826 9.55359 15.256C9.28066 15.528 9.28066 15.972 9.55359 16.244L11.2355 17.9266C11.3807 17.7466 11.5369 17.572 11.7036 17.4053Z" fill="white"/>
<path d="M10.6459 18.784C10.7636 18.58 10.8917 18.3839 11.0271 18.1973L8.96773 17.008C8.6328 16.8146 8.20574 16.9293 8.012 17.2639C7.81934 17.5986 7.93387 18.0266 8.26827 18.2186L10.3281 19.408C10.4224 19.1973 10.5281 18.9893 10.6459 18.784Z" fill="white"/>
<path d="M9.98067 20.3906C10.0417 20.1613 10.1145 19.94 10.1973 19.724L7.9 19.108C7.52707 19.0093 7.14374 19.2293 7.04374 19.6026C6.94374 19.976 7.16507 20.36 7.538 20.4586L9.83547 21.0746C9.87187 20.8466 9.92027 20.6173 9.98067 20.3906Z" fill="white"/>
<path d="M9.75414 22.1133C9.75414 21.876 9.7672 21.6426 9.79067 21.4133H7.41254C7.026 21.4146 6.71361 21.7266 6.71307 22.1133C6.71307 22.4986 7.026 22.812 7.41254 22.812H9.79067C9.7672 22.5826 9.75414 22.348 9.75414 22.1133Z" fill="white"/>
<path d="M9.98066 23.836C9.92026 23.608 9.87187 23.3787 9.83547 23.1507L7.538 23.7667C7.1656 23.8667 6.94427 24.2493 7.04373 24.6227C7.14373 24.996 7.52707 25.2173 7.9 25.1173L10.1973 24.5013C10.1151 24.2853 10.0421 24.064 9.98066 23.836Z" fill="white"/>
<path d="M10.6464 25.4413C10.5281 25.2373 10.4229 25.028 10.3281 24.8173L8.26826 26.0067C7.93439 26.2 7.82026 26.6267 8.01252 26.9613C8.20572 27.296 8.63332 27.4107 8.96772 27.2173L11.0276 26.028C10.8921 25.8413 10.764 25.6453 10.6464 25.4413Z" fill="white"/>
<path d="M11.7041 26.82C11.5369 26.652 11.3812 26.4786 11.236 26.3L9.55413 27.9813C9.28119 28.2546 9.28119 28.696 9.55413 28.9693C9.82706 29.2426 10.2693 29.2426 10.5427 28.9693L12.224 27.288C12.0453 27.1427 11.8713 26.9867 11.7041 26.82Z" fill="white"/>
<path d="M13.0828 27.8773C12.8781 27.76 12.6828 27.632 12.4959 27.496L11.3063 29.556C11.1136 29.8907 11.2281 30.3173 11.5625 30.512C11.8969 30.704 12.3245 30.5907 12.5172 30.2547L13.7063 28.196C13.4959 28.1013 13.2869 27.996 13.0828 27.8773Z" fill="white"/>
<path d="M14.6885 28.5427C14.4599 28.4813 14.2385 28.4093 14.0224 28.3267L13.4073 30.624C13.3073 30.996 13.5287 31.38 13.9016 31.48C14.2745 31.58 14.6579 31.3587 14.7579 30.9853L15.3729 28.688C15.1453 28.652 14.9161 28.604 14.6885 28.5427Z" fill="white"/>
<path d="M16.4115 28.7693C16.1751 28.7693 15.9421 28.7573 15.7125 28.7333V31.1107C15.7125 31.4973 16.0255 31.8093 16.4115 31.8107C16.7979 31.8107 17.1109 31.4973 17.1104 31.112V28.7333C16.8807 28.756 16.6473 28.7693 16.4115 28.7693Z" fill="white"/>
<path d="M18.1344 28.5426C17.9057 28.604 17.6776 28.652 17.4495 28.688L18.0651 30.9853C18.1651 31.3586 18.5484 31.5786 18.9213 31.48C19.2943 31.38 19.5156 30.996 19.4156 30.624L18.8 28.3266C18.5844 28.4093 18.362 28.4813 18.1344 28.5426Z" fill="white"/>
<path d="M19.7401 27.8773C19.5349 27.996 19.3271 28.1013 19.1161 28.196L20.3052 30.2547C20.4984 30.5893 20.9255 30.7027 21.2604 30.5107C21.5943 30.3173 21.7093 29.8907 21.5156 29.556L20.3265 27.496C20.1401 27.632 19.9443 27.76 19.7401 27.8773Z" fill="white"/>
<path d="M21.1188 26.8187C20.9516 26.9867 20.7781 27.1427 20.5984 27.288L22.2797 28.9693C22.5531 29.2427 22.9953 29.2413 23.2688 28.9693C23.5417 28.696 23.5417 28.2547 23.2688 27.9813L21.5869 26.3C21.4412 26.4787 21.2855 26.652 21.1188 26.8187Z" fill="white"/>
<path d="M22.1765 25.44C22.0584 25.6453 21.9307 25.8413 21.7953 26.028L23.8547 27.2173C24.1896 27.4093 24.6161 27.2946 24.8099 26.9613C25.0027 26.6266 24.8885 26.2 24.5536 26.0066L22.4937 24.8173C22.4 25.028 22.2943 25.236 22.1765 25.44Z" fill="white"/>
<path d="M22.8412 23.8347C22.7803 24.064 22.7079 24.2853 22.6251 24.5L24.9224 25.116C25.2953 25.216 25.6781 24.9947 25.7781 24.6213C25.8781 24.2493 25.6573 23.8667 25.2844 23.7667L22.9864 23.1507C22.9505 23.3787 22.9027 23.6067 22.8412 23.8347Z" fill="white"/>
<path d="M22.8407 20.3893C22.9027 20.6173 22.9505 20.8453 22.9864 21.0733L25.2839 20.4586C25.6568 20.3586 25.8776 19.9746 25.7781 19.6026C25.6781 19.2293 25.2953 19.008 24.9224 19.108L22.6251 19.724C22.7073 19.9386 22.7803 20.1613 22.8407 20.3893Z" fill="white"/>
<path d="M22.176 18.784C22.2943 18.988 22.4 19.196 22.4937 19.4067L24.5536 18.2187C24.888 18.0253 25.0016 17.5973 24.8093 17.264C24.6161 16.9293 24.1896 16.8147 23.8547 17.0067L21.7948 18.1973C21.9297 18.384 22.0579 18.5787 22.176 18.784Z" fill="white"/>
<path d="M21.1177 17.4053C21.2855 17.572 21.4407 17.7453 21.5864 17.9253L23.2683 16.244C23.5407 15.9706 23.5407 15.528 23.2677 15.2546C22.9948 14.9826 22.5527 14.9813 22.2797 15.2546L20.5979 16.9373C20.7771 17.0826 20.9505 17.2386 21.1177 17.4053Z" fill="white"/>
<path d="M19.7396 16.348C19.9437 16.4653 20.1391 16.5933 20.326 16.728L21.5156 14.6693C21.7084 14.3346 21.5932 13.9066 21.2593 13.7146C20.9251 13.5213 20.4979 13.6346 20.3047 13.9693L19.1156 16.0293C19.326 16.124 19.5344 16.2293 19.7396 16.348Z" fill="white"/>
<path d="M18.1339 15.6826C18.3615 15.7426 18.5839 15.816 18.7995 15.8986L19.4156 13.6013C19.5151 13.228 19.2932 12.8453 18.9203 12.7453C18.5479 12.6453 18.1645 12.8653 18.0645 13.2386L17.4495 15.5373C17.6771 15.5733 17.9057 15.6213 18.1339 15.6826Z" fill="white"/>
</svg>
