<svg width="31" height="43" viewBox="0 0 31 43" fill="none" xmlns="http://www.w3.org/2000/svg">
<rect width="31" height="43" rx="5" fill="white"/>
<circle cx="15.5" cy="21.5" r="11.5" fill="#39538D"/>
<circle cx="15.5" cy="16.0238" r="4.92857" fill="white"/>
<circle cx="15.5" cy="26.9762" r="4.92857" fill="white"/>
<circle cx="10.7575" cy="18.7619" r="4.92857" transform="rotate(-60 10.7575 18.7619)" fill="white"/>
<circle cx="20.2425" cy="24.2381" r="4.92857" transform="rotate(-60 20.2425 24.2381)" fill="white"/>
<circle cx="10.7575" cy="24.238" r="4.92857" transform="rotate(-120 10.7575 24.238)" fill="white"/>
<circle cx="20.2425" cy="18.7618" r="4.92857" transform="rotate(-120 20.2425 18.7618)" fill="white"/>
<circle cx="15.5" cy="18.1026" r="3.05765" fill="#39538D"/>
<circle cx="15.5" cy="24.8974" r="3.05765" fill="#39538D"/>
<circle cx="12.5578" cy="19.8013" r="3.05765" transform="rotate(-60 12.5578 19.8013)" fill="#39538D"/>
<circle cx="18.4422" cy="23.1987" r="3.05765" transform="rotate(-60 18.4422 23.1987)" fill="#39538D"/>
<circle cx="12.5578" cy="23.1987" r="3.05765" transform="rotate(-120 12.5578 23.1987)" fill="#39538D"/>
<circle cx="18.4422" cy="19.8013" r="3.05765" transform="rotate(-120 18.4422 19.8013)" fill="#39538D"/>
<circle cx="15.5" cy="21.5" r="4.5" fill="white"/>
<circle cx="15.5" cy="21.5" r="2.5" fill="#D34747"/>
</svg>
