<svg width="32" height="44" viewBox="0 0 32 44" fill="none" xmlns="http://www.w3.org/2000/svg">
<path d="M22.0147 13.7653C22.0147 17.0866 19.3227 19.7786 16.0013 19.7786C12.68 19.7786 9.98799 17.0866 9.98799 13.7653C9.98799 10.444 12.68 7.75197 16.0013 7.75197C19.3227 7.75197 22.0147 10.444 22.0147 13.7653Z" fill="#74BA24"/>
<path d="M21.5413 13.7653C21.5413 16.8253 19.0613 19.3053 16.0013 19.3053C12.9413 19.3053 10.4613 16.8253 10.4613 13.7653C10.4613 10.7053 12.9413 8.22528 16.0013 8.22528C19.0613 8.22528 21.5413 10.7053 21.5413 13.7653Z" fill="white"/>
<path d="M21.0987 13.7653C21.0987 16.5813 18.8173 18.8627 16.0013 18.8627C13.1853 18.8627 10.904 16.5813 10.904 13.7653C10.904 10.9493 13.1853 8.66801 16.0013 8.66801C18.8173 8.66801 21.0987 10.9493 21.0987 13.7653Z" fill="#74BA24"/>
<path d="M19.3427 13.7653C20.1107 13.292 20.368 12.292 19.9147 11.5067C19.46 10.72 18.4667 10.4427 17.672 10.872C17.6467 9.96932 16.9093 9.24665 16.0013 9.24665C15.0933 9.24665 14.3573 9.96932 14.3307 10.8707C13.536 10.4427 12.5413 10.72 12.088 11.5067C11.6347 12.292 11.892 13.292 12.6587 13.7653C11.892 14.2387 11.6347 15.2387 12.088 16.024C12.5427 16.8107 13.536 17.088 14.3307 16.66C14.3573 17.5613 15.0933 18.284 16.0013 18.2827C16.9093 18.284 17.6467 17.5613 17.672 16.6586C18.4667 17.0866 19.46 16.8093 19.9147 16.024C20.368 15.2387 20.1107 14.2387 19.3427 13.7653ZM16.0013 15.9827C14.7787 15.9827 13.784 14.988 13.784 13.7653C13.784 12.5427 14.7787 11.548 16.0013 11.548C17.224 11.548 18.2173 12.5427 18.2173 13.7653C18.2173 14.988 17.224 15.9827 16.0013 15.9827Z" fill="white"/>
<path d="M17.6747 13.7653C17.6747 14.6893 16.9253 15.4387 16.0013 15.4387C15.0773 15.4387 14.328 14.6893 14.328 13.7653C14.328 12.8413 15.0773 12.092 16.0013 12.092C16.9253 12.092 17.6747 12.8413 17.6747 13.7653Z" fill="white"/>
<path d="M22.0147 30.4507C22.0147 33.772 19.3227 36.464 16.0013 36.464C12.68 36.464 9.98799 33.772 9.98799 30.4507C9.98799 27.1293 12.68 24.4373 16.0013 24.4373C19.3227 24.4373 22.0147 27.1293 22.0147 30.4507Z" fill="#74BA24"/>
<path d="M21.5413 30.4507C21.5413 33.5107 19.0613 35.9907 16.0013 35.9907C12.9413 35.9907 10.4613 33.5107 10.4613 30.4507C10.4613 27.3907 12.9413 24.9106 16.0013 24.9106C19.0613 24.9106 21.5413 27.3907 21.5413 30.4507Z" fill="white"/>
<path d="M21.0987 30.4507C21.0987 33.2667 18.8173 35.5493 16.0013 35.5493C13.1853 35.5493 10.904 33.2667 10.904 30.4507C10.904 27.636 13.1853 25.3533 16.0013 25.3533C18.8173 25.3533 21.0987 27.636 21.0987 30.4507Z" fill="#74BA24"/>
<path d="M19.3427 30.4506C20.1107 29.9773 20.368 28.9786 19.9147 28.192C19.46 27.4053 18.4667 27.1293 17.672 27.5573C17.6467 26.6546 16.9093 25.9333 16.0013 25.9333C15.0933 25.9333 14.3573 26.6546 14.3307 27.5573C13.536 27.1293 12.5413 27.4053 12.088 28.192C11.6347 28.9773 11.892 29.9773 12.6587 30.4506C11.892 30.9253 11.6347 31.924 12.088 32.7093C12.5427 33.496 13.536 33.7733 14.3307 33.3453C14.3573 34.2466 15.0933 34.9693 16.0013 34.9693C16.9093 34.9693 17.6467 34.2466 17.672 33.3453C18.4667 33.7733 19.46 33.496 19.9147 32.7093C20.368 31.924 20.1107 30.924 19.3427 30.4506ZM16.0013 32.668C14.7787 32.668 13.784 31.6733 13.784 30.4506C13.784 29.2293 14.7787 28.2346 16.0013 28.2346C17.224 28.2346 18.2173 29.2293 18.2173 30.4506C18.2173 31.6733 17.224 32.668 16.0013 32.668Z" fill="white"/>
<path d="M17.6747 30.4506C17.6747 31.376 16.9253 32.124 16.0013 32.124C15.0773 32.124 14.328 31.376 14.328 30.4506C14.328 29.5266 15.0773 28.7773 16.0013 28.7773C16.9253 28.7773 17.6747 29.5266 17.6747 30.4506Z" fill="white"/>
</svg>
