<svg width="32" height="44" viewBox="0 0 32 44" fill="none" xmlns="http://www.w3.org/2000/svg">
<path d="M14.2733 11.3373C14.2733 14.152 11.9907 16.4346 9.17466 16.4346C6.36 16.4346 4.07733 14.152 4.07733 11.3373C4.07733 8.5213 6.36 6.23864 9.17466 6.23864C11.9907 6.23864 14.2733 8.5213 14.2733 11.3373Z" fill="#74BA24"/>
<path d="M13.8707 11.3373C13.8707 13.9307 11.7693 16.0333 9.17466 16.0333C6.58133 16.0333 4.47867 13.9307 4.47867 11.3373C4.47867 8.74266 6.58133 6.64 9.17466 6.64C11.7693 6.64 13.8707 8.74266 13.8707 11.3373Z" fill="white"/>
<path d="M13.4973 11.3373C13.4973 13.724 11.5613 15.6586 9.17466 15.6586C6.78799 15.6586 4.8533 13.724 4.8533 11.3373C4.8533 8.94931 6.78799 7.01597 9.17466 7.01597C11.5613 7.01597 13.4973 8.94931 13.4973 11.3373Z" fill="#74BA24"/>
<path d="M12.008 11.3373C12.6587 10.936 12.8773 10.088 12.492 9.4213C12.1067 8.75463 11.264 8.51996 10.592 8.88263C10.5693 8.11863 9.94402 7.50663 9.17469 7.50663C8.40535 7.50663 7.78134 8.11863 7.75867 8.88263C7.08534 8.51996 6.24267 8.75463 5.85734 9.4213C5.47334 10.088 5.69202 10.936 6.34269 11.3373C5.69202 11.7386 5.47334 12.5853 5.85734 13.252C6.24267 13.9186 7.08534 14.1533 7.75867 13.7906C7.78134 14.5546 8.40535 15.1666 9.17469 15.1666C9.94402 15.1666 10.5693 14.5546 10.592 13.7906C11.264 14.152 12.1067 13.9186 12.492 13.252C12.8773 12.5853 12.6587 11.7386 12.008 11.3373ZM9.17469 13.216C8.13869 13.216 7.29601 12.3733 7.29601 11.3373C7.29601 10.3 8.13869 9.4573 9.17469 9.4573C10.2107 9.4573 11.0547 10.3 11.0547 11.3373C11.0547 12.3733 10.2107 13.216 9.17469 13.216Z" fill="white"/>
<path d="M10.5933 11.3373C10.5933 12.12 9.95867 12.7546 9.17467 12.7546C8.392 12.7546 7.75598 12.12 7.75598 11.3373C7.75598 10.5533 8.392 9.91864 9.17467 9.91864C9.95867 9.91864 10.5933 10.5533 10.5933 11.3373Z" fill="white"/>
<path d="M27.1067 32.88C27.1067 35.6946 24.824 37.9773 22.0093 37.9773C19.1933 37.9773 16.912 35.6946 16.912 32.88C16.912 30.064 19.1933 27.7813 22.0093 27.7813C24.824 27.7813 27.1067 30.064 27.1067 32.88Z" fill="#74BA24"/>
<path d="M26.7053 32.88C26.7053 35.4733 24.6027 37.576 22.0093 37.576C19.4147 37.576 17.312 35.4733 17.312 32.88C17.312 30.2853 19.4147 28.1827 22.0093 28.1827C24.6027 28.1827 26.7053 30.2853 26.7053 32.88Z" fill="white"/>
<path d="M26.3307 32.88C26.3307 35.2666 24.396 37.2013 22.0093 37.2013C19.6227 37.2013 17.688 35.2666 17.688 32.88C17.688 30.4933 19.6227 28.5573 22.0093 28.5573C24.396 28.5573 26.3307 30.4933 26.3307 32.88Z" fill="#74BA24"/>
<path d="M24.8413 32.88C25.492 32.4786 25.7107 31.6306 25.3267 30.964C24.9413 30.2973 24.0987 30.064 23.4253 30.4266C23.4027 29.6613 22.7787 29.0493 22.0093 29.0493C21.24 29.0493 20.6147 29.6613 20.5933 30.4266C19.9187 30.064 19.076 30.2973 18.692 30.964C18.3067 31.6306 18.5253 32.4786 19.176 32.88C18.5253 33.2813 18.3067 34.128 18.692 34.7946C19.0773 35.4613 19.9187 35.696 20.5933 35.3333C20.6147 36.0973 21.24 36.7093 22.0093 36.7093C22.7787 36.7093 23.4027 36.0973 23.4253 35.3333C24.0987 35.696 24.9413 35.4613 25.3267 34.7946C25.7107 34.128 25.492 33.2813 24.8413 32.88ZM22.0093 34.7586C20.9733 34.7586 20.1293 33.916 20.1293 32.88C20.1293 31.844 20.9733 31 22.0093 31C23.0453 31 23.888 31.844 23.888 32.88C23.888 33.916 23.0453 34.7586 22.0093 34.7586Z" fill="white"/>
<path d="M23.428 32.88C23.428 33.6626 22.7933 34.2986 22.0093 34.2986C21.2253 34.2986 20.5906 33.6626 20.5906 32.88C20.5906 32.096 21.2253 31.4613 22.0093 31.4613C22.7933 31.4613 23.428 32.096 23.428 32.88Z" fill="white"/>
<path d="M20.6906 22.1093C20.6906 24.924 18.408 27.2053 15.592 27.2053C12.7773 27.2053 10.4933 24.924 10.4933 22.1093C10.4933 19.2933 12.7773 17.0106 15.592 17.0106C18.408 17.0106 20.6906 19.2933 20.6906 22.1093Z" fill="#ED1C24"/>
<path d="M20.288 22.1093C20.288 24.7013 18.1853 26.8053 15.592 26.8053C12.9987 26.8053 10.896 24.7013 10.896 22.1093C10.896 19.5146 12.9987 17.412 15.592 17.412C18.1853 17.412 20.288 19.5146 20.288 22.1093Z" fill="white"/>
<path d="M19.9133 22.1093C19.9133 24.4947 17.9786 26.4293 15.592 26.4293C13.2053 26.4293 11.2707 24.4947 11.2707 22.1093C11.2707 19.7213 13.2053 17.7867 15.592 17.7867C17.9786 17.7867 19.9133 19.7213 19.9133 22.1093Z" fill="#ED1C24"/>
<path d="M18.424 22.108C19.076 21.7067 19.2934 20.86 18.9094 20.1933C18.5254 19.5266 17.6814 19.292 17.008 19.6547C16.9867 18.8907 16.3613 18.2773 15.592 18.2773C14.8227 18.2773 14.1974 18.8907 14.176 19.6547C13.5027 19.292 12.66 19.5266 12.2747 20.1933C11.8907 20.86 12.1093 21.7067 12.7587 22.108C12.1093 22.5093 11.8907 23.3573 12.2747 24.024C12.66 24.6893 13.5027 24.924 14.176 24.5613C14.1974 25.3253 14.8227 25.9387 15.592 25.9387C16.3613 25.9387 16.9867 25.3253 17.008 24.5613C17.6814 24.924 18.524 24.6893 18.9094 24.024C19.2947 23.3573 19.076 22.5093 18.424 22.108ZM15.592 23.988C14.556 23.988 13.7134 23.144 13.7134 22.108C13.7134 21.072 14.556 20.228 15.592 20.228C16.628 20.228 17.4707 21.072 17.4707 22.108C17.4707 23.144 16.628 23.988 15.592 23.988Z" fill="white"/>
<path d="M17.0107 22.108C17.0107 22.892 16.376 23.5266 15.592 23.5266C14.808 23.5266 14.1733 22.892 14.1733 22.108C14.1733 21.3253 14.808 20.6893 15.592 20.6893C16.376 20.6893 17.0107 21.3253 17.0107 22.108Z" fill="white"/>
</svg>
