<svg width="32" height="43" viewBox="0 0 32 43" fill="none" xmlns="http://www.w3.org/2000/svg">
<path d="M15.6776 11.212C15.6776 14.0267 13.3953 16.3093 10.5797 16.3093C7.764 16.3093 5.48173 14.0267 5.48173 11.212C5.48173 8.39466 7.764 6.11333 10.5797 6.11333C13.3953 6.11333 15.6776 8.39466 15.6776 11.212Z" fill="#74BA24"/>
<path d="M15.2755 11.2119C15.2755 13.8053 13.1735 15.9066 10.5797 15.9066C7.986 15.9066 5.88333 13.8053 5.88333 11.2119C5.88333 8.61727 7.986 6.51461 10.5797 6.51461C13.1735 6.51461 15.2755 8.61727 15.2755 11.2119Z" fill="white"/>
<path d="M14.9016 11.212C14.9016 13.5973 12.9667 15.5333 10.5797 15.5333C8.1932 15.5333 6.2584 13.5973 6.2584 11.212C6.2584 8.82399 8.1932 6.88933 10.5797 6.88933C12.9667 6.88933 14.9016 8.82399 14.9016 11.212Z" fill="#74BA24"/>
<path d="M13.4125 11.2106C14.0631 10.8093 14.2817 9.96131 13.8969 9.29598C13.512 8.62931 12.6688 8.39465 11.9964 8.75732C11.974 7.99332 11.3489 7.38131 10.5797 7.38131C9.80986 7.38131 9.186 7.99332 9.16306 8.75732C8.49013 8.39465 7.64733 8.62931 7.26253 9.29598C6.87813 9.96131 7.09639 10.8093 7.74693 11.2106C7.09639 11.612 6.87813 12.46 7.26253 13.1266C7.64733 13.792 8.49013 14.028 9.16306 13.664C9.186 14.428 9.80986 15.0413 10.5797 15.0413C11.3489 15.0413 11.974 14.428 11.9964 13.664C12.6688 14.0266 13.512 13.792 13.8969 13.1266C14.2817 12.46 14.0631 11.612 13.4125 11.2106ZM10.5797 13.0907C9.5432 13.0907 8.70053 12.248 8.70053 11.2106C8.70053 10.1746 9.5432 9.33198 10.5797 9.33198C11.6156 9.33198 12.4588 10.1746 12.4588 11.2106C12.4588 12.248 11.6156 13.0907 10.5797 13.0907Z" fill="white"/>
<path d="M11.9984 11.2106C11.9984 11.9946 11.3631 12.6293 10.5797 12.6293C9.7964 12.6293 9.16147 11.9946 9.16147 11.2106C9.16147 10.4279 9.7964 9.79327 10.5797 9.79327C11.3631 9.79327 11.9984 10.4279 11.9984 11.2106Z" fill="white"/>
<path d="M27.3312 11.212C27.3312 14.0267 25.0489 16.3093 22.2333 16.3093C19.4183 16.3093 17.136 14.0267 17.136 11.212C17.136 8.39466 19.4183 6.11333 22.2333 6.11333C25.0489 6.11333 27.3312 8.39466 27.3312 11.212Z" fill="#74BA24"/>
<path d="M26.9297 11.2119C26.9297 13.8053 24.8271 15.9066 22.2333 15.9066C19.6401 15.9066 17.538 13.8053 17.538 11.2119C17.538 8.61727 19.6401 6.51461 22.2333 6.51461C24.8271 6.51461 26.9297 8.61727 26.9297 11.2119Z" fill="white"/>
<path d="M26.5552 11.212C26.5552 13.5973 24.6208 15.5333 22.2333 15.5333C19.8469 15.5333 17.9125 13.5973 17.9125 11.212C17.9125 8.82399 19.8469 6.88933 22.2333 6.88933C24.6208 6.88933 26.5552 8.82399 26.5552 11.212Z" fill="#74BA24"/>
<path d="M25.0667 11.2106C25.7172 10.8093 25.9355 9.96131 25.5505 9.29598C25.1661 8.62931 24.3229 8.39465 23.6505 8.75732C23.6281 7.99332 23.0031 7.38131 22.2333 7.38131C21.4645 7.38131 20.8396 7.99332 20.8172 8.75732C20.1443 8.39465 19.3011 8.62931 18.9167 9.29598C18.5317 9.96131 18.75 10.8093 19.4005 11.2106C18.75 11.612 18.5317 12.46 18.9167 13.1266C19.3011 13.792 20.1443 14.028 20.8172 13.664C20.8396 14.428 21.464 15.0413 22.2333 15.0413C23.0031 15.0413 23.6281 14.428 23.6505 13.664C24.3229 14.0266 25.1661 13.792 25.5505 13.1266C25.9355 12.46 25.7172 11.612 25.0667 11.2106ZM22.2333 13.0907C21.1979 13.0907 20.3552 12.248 20.3552 11.2106C20.3552 10.1746 21.1979 9.33198 22.2333 9.33198C23.2697 9.33198 24.1131 10.1746 24.1131 11.2106C24.1131 12.248 23.2697 13.0907 22.2333 13.0907Z" fill="white"/>
<path d="M23.6527 11.2106C23.6527 11.9946 23.0172 12.6293 22.2333 12.6293C21.4505 12.6293 20.8151 11.9946 20.8151 11.2106C20.8151 10.4279 21.4505 9.79327 22.2333 9.79327C23.0172 9.79327 23.6527 10.4279 23.6527 11.2106Z" fill="white"/>
<path d="M15.6776 31.3948C15.6776 34.2099 13.3953 36.4921 10.5797 36.4921C7.764 36.4921 5.48173 34.2099 5.48173 31.3948C5.48173 28.5792 7.764 26.2973 10.5797 26.2973C13.3953 26.2973 15.6776 28.5792 15.6776 31.3948Z" fill="#74BA24"/>
<path d="M15.2755 31.3948C15.2755 33.9885 13.1735 36.0906 10.5797 36.0906C7.986 36.0906 5.88333 33.9885 5.88333 31.3948C5.88333 28.801 7.986 26.6986 10.5797 26.6986C13.1735 26.6986 15.2755 28.801 15.2755 31.3948Z" fill="white"/>
<path d="M14.9016 31.3948C14.9016 33.7812 12.9667 35.7156 10.5797 35.7156C8.1932 35.7156 6.2584 33.7812 6.2584 31.3948C6.2584 29.0078 8.1932 27.0733 10.5797 27.0733C12.9667 27.0733 14.9016 29.0078 14.9016 31.3948Z" fill="#74BA24"/>
<path d="M13.4125 31.3948C14.0631 30.9932 14.2817 30.1458 13.8969 29.4797C13.512 28.813 12.6688 28.5781 11.9964 28.9412C11.974 28.177 11.3489 27.5639 10.5797 27.5639C9.80986 27.5639 9.186 28.177 9.16306 28.9412C8.49013 28.5781 7.64733 28.8136 7.26253 29.4797C6.87813 30.1458 7.09639 30.9932 7.74693 31.3948C7.09639 31.7964 6.87813 32.6432 7.26253 33.3093C7.64733 33.976 8.49013 34.2109 9.16306 33.8478C9.186 34.612 9.80986 35.2249 10.5797 35.2245C11.3489 35.2249 11.974 34.6119 11.9964 33.8473C12.6688 34.2103 13.512 33.9754 13.8969 33.3093C14.2817 32.6432 14.0631 31.7958 13.4125 31.3948ZM10.5797 33.274C9.5432 33.274 8.70053 32.4306 8.70053 31.3948C8.70053 30.3582 9.5432 29.5156 10.5797 29.5156C11.6156 29.5156 12.4588 30.3582 12.4588 31.3948C12.4588 32.4306 11.6156 33.274 10.5797 33.274Z" fill="white"/>
<path d="M11.9984 31.3948C11.9984 32.1781 11.3631 32.813 10.5797 32.813C9.7964 32.813 9.16147 32.1781 9.16147 31.3948C9.16147 30.6114 9.7964 29.976 10.5797 29.976C11.3631 29.976 11.9984 30.6114 11.9984 31.3948Z" fill="white"/>
<path d="M27.3312 31.3948C27.3312 34.2099 25.0489 36.4921 22.2333 36.4921C19.4183 36.4921 17.136 34.2099 17.136 31.3948C17.136 28.5792 19.4183 26.2973 22.2333 26.2973C25.0489 26.2973 27.3312 28.5792 27.3312 31.3948Z" fill="#74BA24"/>
<path d="M26.9297 31.3948C26.9297 33.9885 24.8271 36.0906 22.2333 36.0906C19.6401 36.0906 17.538 33.9885 17.538 31.3948C17.538 28.801 19.6401 26.6986 22.2333 26.6986C24.8271 26.6986 26.9297 28.801 26.9297 31.3948Z" fill="white"/>
<path d="M26.5552 31.3948C26.5552 33.7812 24.6208 35.7156 22.2333 35.7156C19.8469 35.7156 17.9125 33.7812 17.9125 31.3948C17.9125 29.0078 19.8469 27.0733 22.2333 27.0733C24.6208 27.0733 26.5552 29.0078 26.5552 31.3948Z" fill="#74BA24"/>
<path d="M25.0667 31.3948C25.7172 30.9932 25.9355 30.1458 25.5505 29.4797C25.1661 28.813 24.3229 28.5781 23.6505 28.9412C23.6281 28.177 23.0031 27.5639 22.2333 27.5639C21.4645 27.5639 20.8396 28.177 20.8172 28.9412C20.1443 28.5781 19.3011 28.8136 18.9167 29.4797C18.5317 30.1458 18.75 30.9932 19.4005 31.3948C18.75 31.7964 18.5317 32.6432 18.9167 33.3093C19.3011 33.976 20.1443 34.2109 20.8172 33.8478C20.8396 34.612 21.464 35.2249 22.2333 35.2245C23.0031 35.2249 23.6281 34.6119 23.6505 33.8473C24.3229 34.2103 25.1661 33.9754 25.5505 33.3093C25.9355 32.6432 25.7172 31.7958 25.0667 31.3948ZM22.2333 33.274C21.1979 33.274 20.3552 32.4306 20.3552 31.3948C20.3552 30.3582 21.1979 29.5156 22.2333 29.5156C23.2697 29.5156 24.1131 30.3582 24.1131 31.3948C24.1131 32.4306 23.2697 33.274 22.2333 33.274Z" fill="white"/>
<path d="M23.6527 31.3948C23.6527 32.1781 23.0172 32.813 22.2333 32.813C21.4505 32.813 20.8151 32.1781 20.8151 31.3948C20.8151 30.6114 21.4505 29.976 22.2333 29.976C23.0172 29.976 23.6527 30.6114 23.6527 31.3948Z" fill="white"/>
</svg>
