<svg width="32" height="43" viewBox="0 0 32 43" fill="none" xmlns="http://www.w3.org/2000/svg">
<path d="M15.272 11.212C15.272 14.0267 12.9893 16.3093 10.1733 16.3093C7.35867 16.3093 5.07599 14.0267 5.07599 11.212C5.07599 8.39466 7.35867 6.11333 10.1733 6.11333C12.9893 6.11333 15.272 8.39466 15.272 11.212Z" fill="#74BA24"/>
<path d="M14.8707 11.2119C14.8707 13.8053 12.768 15.9066 10.1733 15.9066C7.58133 15.9066 5.47865 13.8053 5.47865 11.2119C5.47865 8.61727 7.58133 6.51461 10.1733 6.51461C12.768 6.51461 14.8707 8.61727 14.8707 11.2119Z" fill="white"/>
<path d="M14.4947 11.212C14.4947 13.5973 12.5613 15.5333 10.1733 15.5333C7.78801 15.5333 5.85201 13.5973 5.85201 11.212C5.85201 8.82399 7.78801 6.88933 10.1733 6.88933C12.5613 6.88933 14.4947 8.82399 14.4947 11.212Z" fill="#74BA24"/>
<path d="M13.0067 11.2106C13.6573 10.8093 13.876 9.96131 13.4907 9.29598C13.1067 8.62931 12.264 8.39465 11.5907 8.75732C11.5693 7.99332 10.944 7.38131 10.1747 7.38131C9.40533 7.38131 8.77999 7.99332 8.75733 8.75732C8.08533 8.39465 7.24133 8.62931 6.85733 9.29598C6.47199 9.96131 6.69066 10.8093 7.33999 11.2106C6.69066 11.612 6.47199 12.46 6.85733 13.1266C7.24133 13.792 8.08533 14.028 8.75733 13.664C8.77999 14.428 9.40533 15.0413 10.1747 15.0413C10.944 15.0413 11.5693 14.428 11.5907 13.664C12.264 14.0266 13.1067 13.792 13.4907 13.1266C13.876 12.46 13.6573 11.612 13.0067 11.2106ZM10.1747 13.0907C9.13866 13.0907 8.29465 12.248 8.29465 11.2106C8.29465 10.1746 9.13866 9.33198 10.1747 9.33198C11.2107 9.33198 12.0533 10.1746 12.0533 11.2106C12.0533 12.248 11.2107 13.0907 10.1747 13.0907Z" fill="white"/>
<path d="M11.5933 11.2106C11.5933 11.9946 10.9573 12.6293 10.1747 12.6293C9.39067 12.6293 8.756 11.9946 8.756 11.2106C8.756 10.4279 9.39067 9.79327 10.1747 9.79327C10.9573 9.79327 11.5933 10.4279 11.5933 11.2106Z" fill="white"/>
<path d="M26.9267 11.212C26.9267 14.0267 24.644 16.3093 21.828 16.3093C19.0133 16.3093 16.7307 14.0267 16.7307 11.212C16.7307 8.39466 19.0133 6.11333 21.828 6.11333C24.644 6.11333 26.9267 8.39466 26.9267 11.212Z" fill="#74BA24"/>
<path d="M26.524 11.2119C26.524 13.8053 24.4213 15.9066 21.828 15.9066C19.2347 15.9066 17.132 13.8053 17.132 11.2119C17.132 8.61727 19.2347 6.51461 21.828 6.51461C24.4213 6.51461 26.524 8.61727 26.524 11.2119Z" fill="white"/>
<path d="M26.1493 11.212C26.1493 13.5973 24.2147 15.5333 21.828 15.5333C19.4413 15.5333 17.5067 13.5973 17.5067 11.212C17.5067 8.82399 19.4413 6.88933 21.828 6.88933C24.2147 6.88933 26.1493 8.82399 26.1493 11.212Z" fill="#74BA24"/>
<path d="M24.6613 11.2106C25.312 10.8093 25.5293 9.96131 25.1453 9.29598C24.7613 8.62931 23.9173 8.39465 23.2453 8.75732C23.2227 7.99332 22.5973 7.38131 21.828 7.38131C21.0587 7.38131 20.4347 7.99332 20.412 8.75732C19.7387 8.39465 18.896 8.62931 18.512 9.29598C18.1267 9.96131 18.3453 10.8093 18.9947 11.2106C18.3453 11.612 18.1267 12.46 18.512 13.1266C18.896 13.792 19.7387 14.028 20.412 13.664C20.4347 14.428 21.0587 15.0413 21.828 15.0413C22.5973 15.0413 23.2227 14.428 23.2453 13.664C23.9173 14.0266 24.76 13.792 25.1453 13.1266C25.5307 12.46 25.312 11.612 24.6613 11.2106ZM21.828 13.0907C20.792 13.0907 19.9493 12.248 19.9493 11.2106C19.9493 10.1746 20.792 9.33198 21.828 9.33198C22.864 9.33198 23.7067 10.1746 23.7067 11.2106C23.7067 12.248 22.864 13.0907 21.828 13.0907Z" fill="white"/>
<path d="M23.2467 11.2106C23.2467 11.9946 22.612 12.6293 21.828 12.6293C21.0453 12.6293 20.4093 11.9946 20.4093 11.2106C20.4093 10.4279 21.0453 9.79327 21.828 9.79327C22.612 9.79327 23.2467 10.4279 23.2467 11.2106Z" fill="white"/>
<path d="M15.272 31.3948C15.272 34.2099 12.9893 36.4921 10.1733 36.4921C7.35867 36.4921 5.07599 34.2099 5.07599 31.3948C5.07599 28.5792 7.35867 26.2973 10.1733 26.2973C12.9893 26.2973 15.272 28.5792 15.272 31.3948Z" fill="#74BA24"/>
<path d="M14.8707 31.3948C14.8707 33.9885 12.768 36.0906 10.1733 36.0906C7.58133 36.0906 5.47865 33.9885 5.47865 31.3948C5.47865 28.801 7.58133 26.6986 10.1733 26.6986C12.768 26.6986 14.8707 28.801 14.8707 31.3948Z" fill="white"/>
<path d="M14.4947 31.3948C14.4947 33.7812 12.5613 35.7156 10.1733 35.7156C7.78801 35.7156 5.85201 33.7812 5.85201 31.3948C5.85201 29.0078 7.78801 27.0733 10.1733 27.0733C12.5613 27.0733 14.4947 29.0078 14.4947 31.3948Z" fill="#74BA24"/>
<path d="M13.0067 31.3948C13.6573 30.9932 13.876 30.1458 13.4907 29.4797C13.1067 28.813 12.264 28.5781 11.5907 28.9412C11.5693 28.177 10.944 27.5639 10.1747 27.5639C9.40533 27.5639 8.77999 28.177 8.75733 28.9412C8.08533 28.5781 7.24133 28.8136 6.85733 29.4797C6.47199 30.1458 6.69066 30.9932 7.33999 31.3948C6.69066 31.7964 6.47199 32.6432 6.85733 33.3093C7.24133 33.976 8.08533 34.2109 8.75733 33.8478C8.77999 34.612 9.40533 35.2249 10.1747 35.2245C10.944 35.2249 11.5693 34.6119 11.5907 33.8473C12.264 34.2103 13.1067 33.9754 13.4907 33.3093C13.876 32.6432 13.6573 31.7958 13.0067 31.3948ZM10.1747 33.274C9.13866 33.274 8.29465 32.4306 8.29465 31.3948C8.29465 30.3582 9.13866 29.5156 10.1747 29.5156C11.2107 29.5156 12.0533 30.3582 12.0533 31.3948C12.0533 32.4306 11.2107 33.274 10.1747 33.274Z" fill="white"/>
<path d="M11.5933 31.3948C11.5933 32.1781 10.9573 32.813 10.1747 32.813C9.39067 32.813 8.756 32.1781 8.756 31.3948C8.756 30.6114 9.39067 29.976 10.1747 29.976C10.9573 29.976 11.5933 30.6114 11.5933 31.3948Z" fill="white"/>
<path d="M26.9267 31.3948C26.9267 34.2099 24.644 36.4921 21.828 36.4921C19.0133 36.4921 16.7307 34.2099 16.7307 31.3948C16.7307 28.5792 19.0133 26.2973 21.828 26.2973C24.644 26.2973 26.9267 28.5792 26.9267 31.3948Z" fill="#74BA24"/>
<path d="M26.524 31.3948C26.524 33.9885 24.4213 36.0906 21.828 36.0906C19.2347 36.0906 17.132 33.9885 17.132 31.3948C17.132 28.801 19.2347 26.6986 21.828 26.6986C24.4213 26.6986 26.524 28.801 26.524 31.3948Z" fill="white"/>
<path d="M26.1493 31.3948C26.1493 33.7812 24.2147 35.7156 21.828 35.7156C19.4413 35.7156 17.5067 33.7812 17.5067 31.3948C17.5067 29.0078 19.4413 27.0733 21.828 27.0733C24.2147 27.0733 26.1493 29.0078 26.1493 31.3948Z" fill="#74BA24"/>
<path d="M24.6613 31.3948C25.312 30.9932 25.5293 30.1458 25.1453 29.4797C24.7613 28.813 23.9173 28.5781 23.2453 28.9412C23.2227 28.177 22.5973 27.5639 21.828 27.5639C21.0587 27.5639 20.4347 28.177 20.412 28.9412C19.7387 28.5781 18.896 28.8136 18.512 29.4797C18.1267 30.1458 18.3453 30.9932 18.9947 31.3948C18.3453 31.7964 18.1267 32.6432 18.512 33.3093C18.896 33.976 19.7387 34.2109 20.412 33.8478C20.4347 34.612 21.0587 35.2249 21.828 35.2245C22.5973 35.2249 23.2227 34.6119 23.2453 33.8473C23.9173 34.2103 24.76 33.9754 25.1453 33.3093C25.5307 32.6432 25.312 31.7958 24.6613 31.3948ZM21.828 33.274C20.792 33.274 19.9493 32.4306 19.9493 31.3948C19.9493 30.3582 20.792 29.5156 21.828 29.5156C22.864 29.5156 23.7067 30.3582 23.7067 31.3948C23.7067 32.4306 22.864 33.274 21.828 33.274Z" fill="white"/>
<path d="M23.2467 31.3948C23.2467 32.1781 22.612 32.813 21.828 32.813C21.0453 32.813 20.4093 32.1781 20.4093 31.3948C20.4093 30.6114 21.0453 29.976 21.828 29.976C22.612 29.976 23.2467 30.6114 23.2467 31.3948Z" fill="white"/>
<path d="M21.0987 21.3026C21.0987 24.1186 18.8173 26.4 16.0013 26.4C13.1867 26.4 10.904 24.1186 10.904 21.3026C10.904 18.488 13.1867 16.2053 16.0013 16.2053C18.8173 16.2053 21.0987 18.488 21.0987 21.3026Z" fill="#ED1C24"/>
<path d="M20.6973 21.3027C20.6973 23.896 18.5947 25.9987 16.0013 25.9987C13.4067 25.9987 11.3053 23.896 11.3053 21.3027C11.3053 18.7093 13.4067 16.6067 16.0013 16.6067C18.5947 16.6067 20.6973 18.7093 20.6973 21.3027Z" fill="white"/>
<path d="M20.3227 21.3026C20.3227 23.6893 18.388 25.624 16.0013 25.624C13.6147 25.624 11.68 23.6893 11.68 21.3026C11.68 18.916 13.6147 16.9813 16.0013 16.9813C18.388 16.9813 20.3227 18.916 20.3227 21.3026Z" fill="#ED1C24"/>
<path d="M18.8333 21.3026C19.4853 20.9013 19.7027 20.0533 19.3187 19.388C18.9333 18.7213 18.0907 18.4866 17.4173 18.8493C17.3947 18.0853 16.7707 17.472 16.0013 17.472C15.232 17.472 14.6067 18.0853 14.5853 18.8493C13.912 18.4866 13.0693 18.7213 12.684 19.388C12.3 20.0533 12.5173 20.9013 13.168 21.3026C12.5173 21.704 12.3 22.552 12.684 23.2186C13.0693 23.884 13.912 24.1186 14.5853 23.756C14.6067 24.52 15.232 25.1333 16.0013 25.1333C16.7707 25.1333 17.3947 24.52 17.4173 23.756C18.0907 24.1186 18.9333 23.884 19.3187 23.2186C19.7027 22.552 19.4853 21.704 18.8333 21.3026ZM16.0013 23.1826C14.9653 23.1826 14.1227 22.3386 14.1227 21.3026C14.1227 20.2666 14.9653 19.424 16.0013 19.424C17.0373 19.424 17.88 20.2666 17.88 21.3026C17.88 22.3386 17.0373 23.1826 16.0013 23.1826Z" fill="white"/>
<path d="M17.42 21.3026C17.42 22.0853 16.784 22.7213 16.0013 22.7213C15.2173 22.7213 14.5827 22.0853 14.5827 21.3026C14.5827 20.5186 15.2173 19.884 16.0013 19.884C16.784 19.884 17.42 20.5186 17.42 21.3026Z" fill="white"/>
</svg>
