<svg width="32" height="43" viewBox="0 0 32 43" fill="none" xmlns="http://www.w3.org/2000/svg">
<path d="M14.8587 9.75728C14.8587 12.5733 12.576 14.8546 9.76132 14.8546C6.94532 14.8546 4.66266 12.5733 4.66266 9.75728C4.66266 6.94262 6.94532 4.65994 9.76132 4.65994C12.576 4.65994 14.8587 6.94262 14.8587 9.75728Z" fill="#74BA24"/>
<path d="M14.4573 9.75731C14.4573 12.352 12.3547 14.4533 9.76133 14.4533C7.16666 14.4533 5.064 12.352 5.064 9.75731C5.064 7.16398 7.16666 5.0613 9.76133 5.0613C12.3547 5.0613 14.4573 7.16398 14.4573 9.75731Z" fill="white"/>
<path d="M14.0827 9.75729C14.0827 12.144 12.148 14.0786 9.76132 14.0786C7.37332 14.0786 5.43866 12.144 5.43866 9.75729C5.43866 7.37063 7.37332 5.43595 9.76132 5.43595C12.148 5.43595 14.0827 7.37063 14.0827 9.75729Z" fill="#74BA24"/>
<path d="M12.5933 9.75735C13.244 9.35602 13.4627 8.50933 13.0773 7.84267C12.6933 7.176 11.8507 6.94135 11.1773 7.30401C11.1547 6.54001 10.5307 5.928 9.76133 5.928C8.99066 5.928 8.36668 6.54001 8.34401 7.30401C7.67201 6.94135 6.82801 7.176 6.44401 7.84267C6.05868 8.50933 6.27733 9.35602 6.92799 9.75735C6.27733 10.1587 6.05868 11.0067 6.44401 11.6733C6.82801 12.3387 7.67201 12.5733 8.34401 12.2107C8.36668 12.9747 8.99066 13.588 9.76133 13.588C10.5307 13.588 11.1547 12.9747 11.1773 12.2107C11.8507 12.5733 12.6933 12.3387 13.0773 11.6733C13.4627 11.0067 13.244 10.1587 12.5933 9.75735ZM9.76133 11.6373C8.72399 11.6373 7.88135 10.7947 7.88135 9.75735C7.88135 8.72135 8.72399 7.87867 9.76133 7.87867C10.7973 7.87867 11.64 8.72135 11.64 9.75735C11.64 10.7947 10.7973 11.6373 9.76133 11.6373Z" fill="white"/>
<path d="M11.1787 9.75731C11.1787 10.5413 10.544 11.176 9.7613 11.176C8.9773 11.176 8.34265 10.5413 8.34265 9.75731C8.34265 8.97331 8.9773 8.33864 9.7613 8.33864C10.544 8.33864 11.1787 8.97331 11.1787 9.75731Z" fill="white"/>
<path d="M26.512 9.75728C26.512 12.5733 24.2307 14.8546 21.4147 14.8546C18.6 14.8546 16.3173 12.5733 16.3173 9.75728C16.3173 6.94262 18.6 4.65994 21.4147 4.65994C24.2307 4.65994 26.512 6.94262 26.512 9.75728Z" fill="#74BA24"/>
<path d="M26.1107 9.75731C26.1107 12.352 24.008 14.4533 21.4147 14.4533C18.8214 14.4533 16.7187 12.352 16.7187 9.75731C16.7187 7.16398 18.8214 5.0613 21.4147 5.0613C24.008 5.0613 26.1107 7.16398 26.1107 9.75731Z" fill="white"/>
<path d="M25.736 9.75729C25.736 12.144 23.8013 14.0786 21.4147 14.0786C19.028 14.0786 17.0933 12.144 17.0933 9.75729C17.0933 7.37063 19.028 5.43595 21.4147 5.43595C23.8013 5.43595 25.736 7.37063 25.736 9.75729Z" fill="#74BA24"/>
<path d="M24.248 9.75735C24.8973 9.35602 25.1173 8.50933 24.7306 7.84267C24.3466 7.176 23.504 6.94135 22.8306 7.30401C22.8093 6.54001 22.184 5.928 21.4147 5.928C20.6453 5.928 20.0213 6.54001 19.9986 7.30401C19.3253 6.94135 18.4826 7.176 18.0973 7.84267C17.7133 8.50933 17.9307 9.35602 18.5813 9.75735C17.9307 10.1587 17.7133 11.0067 18.0973 11.6733C18.4826 12.3387 19.3253 12.5733 19.9986 12.2107C20.0213 12.9747 20.6453 13.588 21.4147 13.588C22.184 13.588 22.8093 12.9747 22.8306 12.2107C23.504 12.5733 24.3466 12.3387 24.7306 11.6733C25.1173 11.0067 24.8973 10.1587 24.248 9.75735ZM21.4147 11.6373C20.3787 11.6373 19.536 10.7947 19.536 9.75735C19.536 8.72135 20.3787 7.87867 21.4147 7.87867C22.4507 7.87867 23.2946 8.72135 23.2946 9.75735C23.2946 10.7947 22.4507 11.6373 21.4147 11.6373Z" fill="white"/>
<path d="M22.8333 9.75731C22.8333 10.5413 22.1974 11.176 21.4147 11.176C20.6307 11.176 19.996 10.5413 19.996 9.75731C19.996 8.97331 20.6307 8.33864 21.4147 8.33864C22.1974 8.33864 22.8333 8.97331 22.8333 9.75731Z" fill="white"/>
<path d="M14.8587 32.8416C14.8587 35.6568 12.576 37.9385 9.75999 37.9385C6.94532 37.9385 4.66266 35.6568 4.66266 32.8416C4.66266 30.0255 6.94532 27.7432 9.75999 27.7432C12.576 27.7432 14.8587 30.0255 14.8587 32.8416Z" fill="#ED1C24"/>
<path d="M14.4573 32.8416C14.4573 35.4349 12.3547 37.5369 9.75999 37.5369C7.16666 37.5369 5.064 35.4349 5.064 32.8416C5.064 30.2473 7.16666 28.1448 9.75999 28.1448C12.3547 28.1448 14.4573 30.2473 14.4573 32.8416Z" fill="white"/>
<path d="M14.0813 32.8416C14.0813 35.2281 12.148 37.1625 9.75998 37.1625C7.37331 37.1625 5.43866 35.2281 5.43866 32.8416C5.43866 30.4547 7.37331 28.5197 9.75998 28.5197C12.148 28.5197 14.0813 30.4547 14.0813 32.8416Z" fill="#ED1C24"/>
<path d="M12.5933 32.8412C13.244 32.4396 13.4613 31.5921 13.0773 30.926C12.6933 30.2593 11.8493 30.0245 11.1773 30.3875C11.1547 29.624 10.5307 29.0104 9.76132 29.0104C8.99065 29.0104 8.36667 29.624 8.344 30.3875C7.672 30.0245 6.828 30.2599 6.444 30.926C6.05867 31.5921 6.27732 32.4396 6.92665 32.8412C6.27732 33.2427 6.05867 34.0901 6.444 34.7557C6.828 35.4224 7.672 35.6573 8.344 35.2943C8.36667 36.0583 8.99065 36.6713 9.76132 36.6713C10.5307 36.6713 11.1547 36.0583 11.1773 35.2943C11.8493 35.6568 12.6933 35.4224 13.0773 34.7557C13.4627 34.0896 13.244 33.2421 12.5933 32.8412ZM9.76132 34.7203C8.72398 34.7203 7.88134 33.8771 7.88134 32.8412C7.88134 31.8047 8.72398 30.9615 9.76132 30.9615C10.7973 30.9615 11.64 31.8047 11.64 32.8412C11.64 33.8771 10.7973 34.7203 9.76132 34.7203Z" fill="white"/>
<path d="M11.1787 32.8412C11.1787 33.6245 10.544 34.2598 9.7613 34.2598C8.9773 34.2598 8.34265 33.6245 8.34265 32.8412C8.34265 32.0578 8.9773 31.4224 9.7613 31.4224C10.544 31.4224 11.1787 32.0578 11.1787 32.8412Z" fill="white"/>
<path d="M26.512 32.8416C26.512 35.6568 24.2307 37.9385 21.4147 37.9385C18.6 37.9385 16.3173 35.6568 16.3173 32.8416C16.3173 30.0255 18.6 27.7432 21.4147 27.7432C24.2307 27.7432 26.512 30.0255 26.512 32.8416Z" fill="#ED1C24"/>
<path d="M26.1107 32.8416C26.1107 35.4349 24.008 37.5369 21.4147 37.5369C18.8214 37.5369 16.7187 35.4349 16.7187 32.8416C16.7187 30.2473 18.8214 28.1448 21.4147 28.1448C24.008 28.1448 26.1107 30.2473 26.1107 32.8416Z" fill="white"/>
<path d="M25.736 32.8416C25.736 35.2281 23.8013 37.1625 21.4147 37.1625C19.028 37.1625 17.0933 35.2281 17.0933 32.8416C17.0933 30.4547 19.028 28.5197 21.4147 28.5197C23.8013 28.5197 25.736 30.4547 25.736 32.8416Z" fill="#ED1C24"/>
<path d="M24.248 32.8412C24.8973 32.4396 25.1173 31.5921 24.7306 30.926C24.3466 30.2593 23.504 30.0245 22.8306 30.3875C22.8093 29.624 22.184 29.0104 21.4147 29.0104C20.6453 29.0104 20.0213 29.624 19.9986 30.3875C19.3253 30.0245 18.4826 30.2599 18.0973 30.926C17.7133 31.5921 17.9307 32.4396 18.5813 32.8412C17.9307 33.2427 17.7133 34.0901 18.0973 34.7557C18.4826 35.4224 19.3253 35.6573 19.9986 35.2943C20.0213 36.0583 20.6453 36.6713 21.4147 36.6713C22.184 36.6713 22.8093 36.0583 22.8306 35.2943C23.504 35.6568 24.3466 35.4224 24.7306 34.7557C25.1173 34.0896 24.8973 33.2421 24.248 32.8412ZM21.4147 34.7203C20.3787 34.7203 19.536 33.8771 19.536 32.8412C19.536 31.8047 20.3787 30.9615 21.4147 30.9615C22.4507 30.9615 23.2946 31.8047 23.2946 32.8412C23.2946 33.8771 22.4507 34.7203 21.4147 34.7203Z" fill="white"/>
<path d="M22.8333 32.8412C22.8333 33.6245 22.1974 34.2598 21.4147 34.2598C20.6307 34.2598 19.996 33.6245 19.996 32.8412C19.996 32.0578 20.6307 31.4224 21.4147 31.4224C22.1974 31.4224 22.8333 32.0578 22.8333 32.8412Z" fill="white"/>
<path d="M14.8587 21.7013C14.8587 24.516 12.576 26.7986 9.75999 26.7986C6.94532 26.7986 4.66266 24.516 4.66266 21.7013C4.66266 18.8853 6.94532 16.6026 9.75999 16.6026C12.576 16.6026 14.8587 18.8853 14.8587 21.7013Z" fill="#ED1C24"/>
<path d="M14.4573 21.7013C14.4573 24.2947 12.3547 26.3973 9.75999 26.3973C7.16666 26.3973 5.064 24.2947 5.064 21.7013C5.064 19.1067 7.16666 17.004 9.75999 17.004C12.3547 17.004 14.4573 19.1067 14.4573 21.7013Z" fill="white"/>
<path d="M14.0813 21.7013C14.0813 24.088 12.148 26.0213 9.75998 26.0213C7.37331 26.0213 5.43866 24.088 5.43866 21.7013C5.43866 19.3146 7.37331 17.3786 9.75998 17.3786C12.148 17.3786 14.0813 19.3146 14.0813 21.7013Z" fill="#ED1C24"/>
<path d="M12.5933 21.7C13.244 21.3 13.4613 20.452 13.0773 19.7853C12.6933 19.1186 11.8493 18.884 11.1773 19.248C11.1547 18.4826 10.5307 17.8706 9.76132 17.8706C8.99065 17.8706 8.36667 18.4826 8.344 19.248C7.672 18.884 6.828 19.1186 6.444 19.7853C6.05867 20.452 6.27732 21.3 6.92665 21.7C6.27732 22.1026 6.05867 22.9493 6.444 23.616C6.828 24.2826 7.672 24.5173 8.344 24.1533C8.36667 24.9186 8.99065 25.5306 9.76132 25.5306C10.5307 25.5306 11.1547 24.9186 11.1773 24.1533C11.8493 24.516 12.6933 24.2826 13.0773 23.616C13.4627 22.9493 13.244 22.1026 12.5933 21.7ZM9.76132 23.58C8.72398 23.58 7.88134 22.736 7.88134 21.7C7.88134 20.664 8.72398 19.8213 9.76132 19.8213C10.7973 19.8213 11.64 20.664 11.64 21.7C11.64 22.736 10.7973 23.58 9.76132 23.58Z" fill="white"/>
<path d="M11.1787 21.7C11.1787 22.484 10.544 23.1187 9.7613 23.1187C8.9773 23.1187 8.34265 22.484 8.34265 21.7C8.34265 20.9173 8.9773 20.2826 9.7613 20.2826C10.544 20.2826 11.1787 20.9173 11.1787 21.7Z" fill="white"/>
<path d="M26.512 21.7013C26.512 24.516 24.2307 26.7986 21.4147 26.7986C18.6 26.7986 16.3173 24.516 16.3173 21.7013C16.3173 18.8853 18.6 16.6026 21.4147 16.6026C24.2307 16.6026 26.512 18.8853 26.512 21.7013Z" fill="#ED1C24"/>
<path d="M26.1107 21.7013C26.1107 24.2947 24.008 26.3973 21.4147 26.3973C18.8214 26.3973 16.7187 24.2947 16.7187 21.7013C16.7187 19.1067 18.8214 17.004 21.4147 17.004C24.008 17.004 26.1107 19.1067 26.1107 21.7013Z" fill="white"/>
<path d="M25.736 21.7013C25.736 24.088 23.8013 26.0213 21.4147 26.0213C19.028 26.0213 17.0933 24.088 17.0933 21.7013C17.0933 19.3146 19.028 17.3786 21.4147 17.3786C23.8013 17.3786 25.736 19.3146 25.736 21.7013Z" fill="#ED1C24"/>
<path d="M24.248 21.7C24.8973 21.3 25.1173 20.452 24.7306 19.7853C24.3466 19.1186 23.504 18.884 22.8306 19.248C22.8093 18.4826 22.184 17.8706 21.4147 17.8706C20.6453 17.8706 20.0213 18.4826 19.9986 19.248C19.3253 18.884 18.4826 19.1186 18.0973 19.7853C17.7133 20.452 17.9307 21.3 18.5813 21.7C17.9307 22.1026 17.7133 22.9493 18.0973 23.616C18.4826 24.2826 19.3253 24.5173 19.9986 24.1533C20.0213 24.9186 20.6453 25.5306 21.4147 25.5306C22.184 25.5306 22.8093 24.9186 22.8306 24.1533C23.504 24.516 24.3466 24.2826 24.7306 23.616C25.1173 22.9493 24.8973 22.1026 24.248 21.7ZM21.4147 23.58C20.3787 23.58 19.536 22.736 19.536 21.7C19.536 20.664 20.3787 19.8213 21.4147 19.8213C22.4507 19.8213 23.2946 20.664 23.2946 21.7C23.2946 22.736 22.4507 23.58 21.4147 23.58Z" fill="white"/>
<path d="M22.8333 21.7C22.8333 22.484 22.1974 23.1187 21.4147 23.1187C20.6307 23.1187 19.996 22.484 19.996 21.7C19.996 20.9173 20.6307 20.2826 21.4147 20.2826C22.1974 20.2826 22.8333 20.9173 22.8333 21.7Z" fill="white"/>
</svg>
