<svg width="31" height="43" viewBox="0 0 31 43" fill="none" xmlns="http://www.w3.org/2000/svg">
<rect width="31" height="43" rx="5" fill="white"/>
<circle cx="11" cy="25" r="4" fill="white" stroke="#D34747"/>
<circle cx="11" cy="25" r="2.32143" fill="white" stroke="#D34747" stroke-width="0.5"/>
<circle cx="11" cy="25" r="1.28571" fill="#D34747"/>
<circle cx="7.5" cy="8.5" r="4" fill="white" stroke="#39538D"/>
<circle cx="7.49999" cy="8.50002" r="2.32143" fill="white" stroke="#39538D" stroke-width="0.5"/>
<circle cx="7.50001" cy="8.50001" r="1.28571" fill="#39538D"/>
<circle cx="11" cy="34" r="4" fill="white" stroke="#D34747"/>
<circle cx="11" cy="34" r="2.32143" fill="white" stroke="#D34747" stroke-width="0.5"/>
<circle cx="11" cy="34" r="1.28571" fill="#D34747"/>
<circle cx="23.5" cy="16.5" r="4" fill="white" stroke="#39538D"/>
<circle cx="23.5" cy="16.5" r="2.32143" fill="white" stroke="#39538D" stroke-width="0.5"/>
<circle cx="23.5" cy="16.5" r="1.28571" fill="#39538D"/>
<circle cx="20" cy="25" r="4" fill="white" stroke="#D34747"/>
<circle cx="20" cy="25" r="2.32143" fill="white" stroke="#D34747" stroke-width="0.5"/>
<circle cx="20" cy="25" r="1.28571" fill="#D34747"/>
<circle cx="20" cy="34" r="4" fill="white" stroke="#D34747"/>
<circle cx="20" cy="34" r="2.32143" fill="white" stroke="#D34747" stroke-width="0.5"/>
<circle cx="20" cy="34" r="1.28571" fill="#D34747"/>
<circle cx="15.5" cy="12.5" r="4" fill="white" stroke="#39538D"/>
<circle cx="15.5" cy="12.5" r="2.32143" fill="white" stroke="#39538D" stroke-width="0.5"/>
<circle cx="15.5" cy="12.5" r="1.28571" fill="#39538D"/>
</svg>
