<svg width="32" height="43" viewBox="0 0 32 43" fill="none" xmlns="http://www.w3.org/2000/svg">
<path d="M12.7479 6.82293C12.7479 9.37133 10.6823 11.4364 8.13333 11.4364C5.58599 11.4364 3.51973 9.37133 3.51973 6.82293C3.51973 4.27453 5.58599 2.2088 8.13333 2.2088C10.6823 2.2088 12.7479 4.27453 12.7479 6.82293Z" fill="#74BA24"/>
<path d="M12.3849 6.82289C12.3849 9.16969 10.4817 11.0734 8.13333 11.0734C5.7864 11.0734 3.88333 9.16969 3.88333 6.82289C3.88333 4.47489 5.7864 2.57183 8.13333 2.57183C10.4817 2.57183 12.3849 4.47489 12.3849 6.82289Z" fill="white"/>
<path d="M12.0459 6.82291C12.0459 8.98278 10.2943 10.7344 8.13333 10.7344C5.97346 10.7344 4.22293 8.98278 4.22293 6.82291C4.22293 4.66251 5.97346 2.91091 8.13333 2.91091C10.2943 2.91091 12.0459 4.66251 12.0459 6.82291Z" fill="#74BA24"/>
<path d="M10.6979 6.8224C11.2869 6.45933 11.4844 5.69267 11.1364 5.08907C10.7885 4.486 10.0251 4.27399 9.41613 4.60213C9.3964 3.91039 8.83067 3.35573 8.1344 3.35573C7.43747 3.35573 6.8724 3.91039 6.85213 4.60213C6.2432 4.27399 5.47974 4.4864 5.13227 5.08907C4.78387 5.69267 4.9812 6.45933 5.56974 6.8224C4.9812 7.186 4.78387 7.95306 5.13227 8.55573C5.47974 9.1588 6.2432 9.37133 6.85213 9.0432C6.8724 9.73493 7.43747 10.2896 8.1344 10.2891C8.83067 10.2896 9.3964 9.73493 9.41613 9.0432C10.0251 9.37133 10.7885 9.1588 11.1364 8.55573C11.4849 7.95306 11.2869 7.186 10.6979 6.8224ZM8.1344 8.52346C7.1964 8.52346 6.43334 7.7604 6.43334 6.8224C6.43334 5.88493 7.1964 5.12186 8.1344 5.12186C9.07187 5.12186 9.83494 5.88493 9.83494 6.8224C9.83494 7.7604 9.07187 8.52346 8.1344 8.52346Z" fill="white"/>
<path d="M9.41772 6.82236C9.41772 7.53169 8.84266 8.10675 8.13439 8.10675C7.42506 8.10675 6.84999 7.53169 6.84999 6.82236C6.84999 6.11356 7.42506 5.53848 8.13439 5.53848C8.84266 5.53848 9.41772 6.11356 9.41772 6.82236Z" fill="white"/>
<path d="M21.0251 11.0494C21.0251 13.5978 18.9588 15.663 16.4104 15.663C13.862 15.663 11.7964 13.5978 11.7964 11.0494C11.7964 8.50103 13.862 6.4349 16.4104 6.4349C18.9588 6.4349 21.0251 8.50103 21.0251 11.0494Z" fill="#74BA24"/>
<path d="M20.6609 11.0495C20.6609 13.3969 18.7584 15.3 16.4104 15.3C14.0631 15.3 12.1599 13.3969 12.1599 11.0495C12.1599 8.70159 14.0631 6.79839 16.4104 6.79839C18.7584 6.79839 20.6609 8.70159 20.6609 11.0495Z" fill="white"/>
<path d="M20.3224 11.0495C20.3224 13.2093 18.5708 14.9604 16.4104 14.9604C14.2505 14.9604 12.4989 13.2093 12.4989 11.0495C12.4989 8.88906 14.2505 7.13798 16.4104 7.13798C18.5708 7.13798 20.3224 8.88906 20.3224 11.0495Z" fill="#74BA24"/>
<path d="M18.9745 11.0489C19.5636 10.6854 19.7609 9.9193 19.4125 9.31556C19.0645 8.7125 18.3016 8.49996 17.6927 8.82863C17.6724 8.1369 17.1068 7.58223 16.4104 7.58223C15.714 7.58223 15.1484 8.1369 15.1287 8.8281C14.5197 8.49996 13.7563 8.7125 13.4084 9.31556C13.0604 9.9193 13.2579 10.6854 13.8464 11.0489C13.2579 11.413 13.0604 12.1792 13.4084 12.7822C13.7563 13.386 14.5197 13.5978 15.1287 13.2697C15.1484 13.9614 15.714 14.5156 16.4104 14.5156C17.1068 14.5156 17.6724 13.9614 17.6927 13.2697C18.3016 13.5978 19.0645 13.3854 19.4125 12.7822C19.7615 12.1792 19.5636 11.4125 18.9745 11.0489ZM16.4104 12.75C15.4724 12.75 14.7093 11.9869 14.7093 11.0489C14.7093 10.1114 15.4724 9.34836 16.4104 9.34836C17.3484 9.34836 18.1115 10.1114 18.1115 11.0489C18.1115 11.9869 17.3484 12.75 16.4104 12.75Z" fill="white"/>
<path d="M17.6948 11.0489C17.6948 11.7582 17.1193 12.3333 16.4104 12.3333C15.7011 12.3333 15.126 11.7582 15.126 11.0489C15.126 10.3401 15.7011 9.76505 16.4104 9.76505C17.1193 9.76505 17.6948 10.3401 17.6948 11.0489Z" fill="white"/>
<path d="M29.3011 15.276C29.3011 17.8235 27.2355 19.8896 24.6869 19.8896C22.1385 19.8896 20.0729 17.8235 20.0729 15.276C20.0729 12.7271 22.1385 10.662 24.6869 10.662C27.2355 10.662 29.3011 12.7271 29.3011 15.276Z" fill="#74BA24"/>
<path d="M28.9375 15.276C28.9375 17.6234 27.0344 19.5265 24.6869 19.5265C22.3391 19.5265 20.4364 17.6234 20.4364 15.276C20.4364 12.9281 22.3391 11.0249 24.6869 11.0249C27.0344 11.0249 28.9375 12.9281 28.9375 15.276Z" fill="white"/>
<path d="M28.5984 15.276C28.5984 17.436 26.8469 19.1869 24.6869 19.1869C22.5265 19.1869 20.7755 17.436 20.7755 15.276C20.7755 13.1156 22.5265 11.364 24.6869 11.364C26.8469 11.364 28.5984 13.1156 28.5984 15.276Z" fill="#74BA24"/>
<path d="M27.2505 15.2755C27.8401 14.912 28.0375 14.1448 27.6891 13.5421C27.3412 12.9385 26.5781 12.7271 25.9693 13.0552C25.9489 12.3636 25.3833 11.8088 24.6869 11.8088C23.9912 11.8088 23.4251 12.3636 23.4047 13.0552C22.7959 12.7271 22.0328 12.9391 21.6849 13.5421C21.3364 14.1448 21.5339 14.912 22.1229 15.2755C21.5339 15.6391 21.3364 16.4057 21.6849 17.0088C22.0328 17.612 22.7959 17.8245 23.4047 17.4964C23.4251 18.1875 23.9901 18.7421 24.6869 18.7421C25.3833 18.7421 25.9489 18.1875 25.9693 17.4964C26.5781 17.8245 27.3412 17.612 27.6891 17.0088C28.0375 16.4057 27.8401 15.6385 27.2505 15.2755ZM24.6869 16.976C23.7489 16.976 22.986 16.2136 22.986 15.276C22.986 14.338 23.7489 13.5745 24.6869 13.5745C25.6251 13.5745 26.388 14.338 26.388 15.276C26.388 16.2136 25.6251 16.976 24.6869 16.976Z" fill="white"/>
<path d="M25.9708 15.2759C25.9708 15.9849 25.3964 16.5598 24.6869 16.5598C23.9781 16.5598 23.4027 15.9849 23.4027 15.2759C23.4027 14.5666 23.9781 13.9915 24.6869 13.9915C25.3964 13.9915 25.9708 14.5666 25.9708 15.2759Z" fill="white"/>
<path d="M16.2527 35.6734C16.2527 38.4885 13.9708 40.7708 11.1547 40.7708C8.34012 40.7708 6.05733 38.4885 6.05733 35.6734C6.05733 32.8578 8.34012 30.5754 11.1547 30.5754C13.9708 30.5754 16.2527 32.8578 16.2527 35.6734Z" fill="#ED1C24"/>
<path d="M15.8516 35.6734C15.8516 38.2666 13.7484 40.3697 11.1547 40.3697C8.56147 40.3697 6.4588 38.2666 6.4588 35.6734C6.4588 33.0797 8.56147 30.977 11.1547 30.977C13.7484 30.977 15.8516 33.0797 15.8516 35.6734Z" fill="white"/>
<path d="M15.4765 35.6734C15.4765 38.0598 13.5421 39.9948 11.1547 39.9948C8.7688 39.9948 6.83387 38.0598 6.83387 35.6734C6.83387 33.2864 8.7688 31.3516 11.1547 31.3516C13.5421 31.3516 15.4765 33.2864 15.4765 35.6734Z" fill="#ED1C24"/>
<path d="M13.9875 35.6734C14.6385 35.2718 14.8568 34.4245 14.4719 33.7583C14.0875 33.0912 13.2443 32.8573 12.5708 33.2197C12.5495 32.4557 11.9245 31.8427 11.1547 31.8427C10.386 31.8427 9.76093 32.4557 9.73853 33.2197C9.0656 32.8573 8.22293 33.0916 7.83853 33.7583C7.45267 34.4245 7.67187 35.2718 8.32187 35.6734C7.67187 36.0745 7.45267 36.9219 7.83853 37.5885C8.22293 38.2547 9.0656 38.4896 9.73853 38.1265C9.76093 38.8907 10.3855 39.5031 11.1547 39.5031C11.9245 39.5031 12.5495 38.8907 12.5708 38.1265C13.2443 38.4896 14.0875 38.2541 14.4719 37.5885C14.8568 36.9213 14.6385 36.0745 13.9875 35.6734ZM11.1547 37.5526C10.1188 37.5526 9.276 36.7093 9.276 35.6734C9.276 34.6374 10.1188 33.7943 11.1547 33.7943C12.1912 33.7943 13.0339 34.6374 13.0339 35.6734C13.0339 36.7093 12.1912 37.5526 11.1547 37.5526Z" fill="white"/>
<path d="M12.574 35.6734C12.574 36.4568 11.9385 37.0916 11.1547 37.0916C10.3713 37.0916 9.7364 36.4568 9.7364 35.6734C9.7364 34.8896 10.3713 34.2541 11.1547 34.2541C11.9385 34.2541 12.574 34.8896 12.574 35.6734Z" fill="white"/>
<path d="M26.7636 35.6734C26.7636 38.4885 24.4817 40.7708 21.6656 40.7708C18.8511 40.7708 16.5683 38.4885 16.5683 35.6734C16.5683 32.8578 18.8511 30.5754 21.6656 30.5754C24.4817 30.5754 26.7636 32.8578 26.7636 35.6734Z" fill="#ED1C24"/>
<path d="M26.3625 35.6734C26.3625 38.2666 24.2599 40.3697 21.6656 40.3697C19.0724 40.3697 16.9703 38.2666 16.9703 35.6734C16.9703 33.0797 19.0724 30.977 21.6656 30.977C24.2599 30.977 26.3625 33.0797 26.3625 35.6734Z" fill="white"/>
<path d="M25.9875 35.6734C25.9875 38.0598 24.0531 39.9948 21.6656 39.9948C19.2797 39.9948 17.3448 38.0598 17.3448 35.6734C17.3448 33.2864 19.2797 31.3516 21.6656 31.3516C24.0531 31.3516 25.9875 33.2864 25.9875 35.6734Z" fill="#ED1C24"/>
<path d="M24.4989 35.6734C25.1495 35.2718 25.3677 34.4245 24.9828 33.7583C24.5984 33.0912 23.7552 32.8573 23.0823 33.2197C23.0604 32.4557 22.4355 31.8427 21.6661 31.8427C20.8969 31.8427 20.2719 32.4557 20.25 33.2197C19.5765 32.8573 18.7339 33.0916 18.3495 33.7583C17.964 34.4245 18.1823 35.2718 18.8328 35.6734C18.1823 36.0745 17.964 36.9219 18.3495 37.5885C18.7339 38.2547 19.5765 38.4896 20.25 38.1265C20.2719 38.8907 20.8964 39.5031 21.6661 39.5031C22.4355 39.5031 23.0604 38.8907 23.0823 38.1265C23.7552 38.4896 24.5984 38.2541 24.9828 37.5885C25.3677 36.9213 25.1495 36.0745 24.4989 35.6734ZM21.6661 37.5526C20.6303 37.5526 19.7875 36.7093 19.7875 35.6734C19.7875 34.6374 20.6303 33.7943 21.6661 33.7943C22.7027 33.7943 23.5453 34.6374 23.5453 35.6734C23.5453 36.7093 22.7027 37.5526 21.6661 37.5526Z" fill="white"/>
<path d="M23.0849 35.6734C23.0849 36.4568 22.4495 37.0916 21.6661 37.0916C20.8828 37.0916 20.2473 36.4568 20.2473 35.6734C20.2473 34.8896 20.8828 34.2541 21.6661 34.2541C22.4495 34.2541 23.0849 34.8896 23.0849 35.6734Z" fill="white"/>
<path d="M16.2527 25.0729C16.2527 27.8879 13.9708 30.1697 11.1547 30.1697C8.34012 30.1697 6.05733 27.8879 6.05733 25.0729C6.05733 22.2567 8.34012 19.9745 11.1547 19.9745C13.9708 19.9745 16.2527 22.2567 16.2527 25.0729Z" fill="#ED1C24"/>
<path d="M15.8516 25.0729C15.8516 27.6661 13.7484 29.7682 11.1547 29.7682C8.56147 29.7682 6.4588 27.6661 6.4588 25.0729C6.4588 22.4787 8.56147 20.376 11.1547 20.376C13.7484 20.376 15.8516 22.4787 15.8516 25.0729Z" fill="white"/>
<path d="M15.4765 25.0729C15.4765 27.4593 13.5421 29.3937 11.1547 29.3937C8.7688 29.3937 6.83387 27.4593 6.83387 25.0729C6.83387 22.6854 8.7688 20.751 11.1547 20.751C13.5421 20.751 15.4765 22.6854 15.4765 25.0729Z" fill="#ED1C24"/>
<path d="M13.9875 25.0718C14.6385 24.6708 14.8568 23.8234 14.4719 23.1568C14.0875 22.4901 13.2443 22.2557 12.5708 22.6188C12.5495 21.8546 11.9245 21.2416 11.1547 21.2416C10.386 21.2416 9.76093 21.8546 9.73853 22.6188C9.0656 22.2557 8.22293 22.4906 7.83853 23.1568C7.45267 23.8234 7.67187 24.6708 8.32187 25.0718C7.67187 25.4734 7.45267 26.3213 7.83853 26.9874C8.22293 27.6536 9.0656 27.8885 9.73853 27.5254C9.76093 28.2896 10.3855 28.9021 11.1547 28.9021C11.9245 28.9021 12.5495 28.2896 12.5708 27.5254C13.2443 27.888 14.0875 27.6536 14.4719 26.9874C14.8568 26.3202 14.6385 25.4734 13.9875 25.0718ZM11.1547 26.9516C10.1188 26.9516 9.276 26.1082 9.276 25.0718C9.276 24.036 10.1188 23.1926 11.1547 23.1926C12.1912 23.1926 13.0339 24.036 13.0339 25.0718C13.0339 26.1082 12.1912 26.9516 11.1547 26.9516Z" fill="white"/>
<path d="M12.574 25.0719C12.574 25.8557 11.9385 26.4907 11.1547 26.4907C10.3713 26.4907 9.7364 25.8557 9.7364 25.0719C9.7364 24.2891 10.3713 23.6536 11.1547 23.6536C11.9385 23.6536 12.574 24.2891 12.574 25.0719Z" fill="white"/>
<path d="M26.7636 25.0729C26.7636 27.8879 24.4817 30.1697 21.6656 30.1697C18.8511 30.1697 16.5683 27.8879 16.5683 25.0729C16.5683 22.2567 18.8511 19.9745 21.6656 19.9745C24.4817 19.9745 26.7636 22.2567 26.7636 25.0729Z" fill="#ED1C24"/>
<path d="M26.3625 25.0729C26.3625 27.6661 24.2599 29.7682 21.6656 29.7682C19.0724 29.7682 16.9703 27.6661 16.9703 25.0729C16.9703 22.4787 19.0724 20.376 21.6656 20.376C24.2599 20.376 26.3625 22.4787 26.3625 25.0729Z" fill="white"/>
<path d="M25.9875 25.0729C25.9875 27.4593 24.0531 29.3937 21.6656 29.3937C19.2797 29.3937 17.3448 27.4593 17.3448 25.0729C17.3448 22.6854 19.2797 20.751 21.6656 20.751C24.0531 20.751 25.9875 22.6854 25.9875 25.0729Z" fill="#ED1C24"/>
<path d="M24.4989 25.0718C25.1495 24.6708 25.3677 23.8234 24.9828 23.1568C24.5984 22.4901 23.7552 22.2557 23.0823 22.6188C23.0604 21.8546 22.4355 21.2416 21.6661 21.2416C20.8969 21.2416 20.2719 21.8546 20.25 22.6188C19.5765 22.2557 18.7339 22.4906 18.3495 23.1568C17.964 23.8234 18.1823 24.6708 18.8328 25.0718C18.1823 25.4734 17.964 26.3213 18.3495 26.9874C18.7339 27.6536 19.5765 27.8885 20.25 27.5254C20.2719 28.2896 20.8964 28.9021 21.6661 28.9021C22.4355 28.9021 23.0604 28.2896 23.0823 27.5254C23.7552 27.888 24.5984 27.6536 24.9828 26.9874C25.3677 26.3202 25.1495 25.4734 24.4989 25.0718ZM21.6661 26.9516C20.6303 26.9516 19.7875 26.1082 19.7875 25.0718C19.7875 24.036 20.6303 23.1926 21.6661 23.1926C22.7027 23.1926 23.5453 24.036 23.5453 25.0718C23.5453 26.1082 22.7027 26.9516 21.6661 26.9516Z" fill="white"/>
<path d="M23.0849 25.0719C23.0849 25.8557 22.4495 26.4907 21.6661 26.4907C20.8828 26.4907 20.2473 25.8557 20.2473 25.0719C20.2473 24.2891 20.8828 23.6536 21.6661 23.6536C22.4495 23.6536 23.0849 24.2891 23.0849 25.0719Z" fill="white"/>
</svg>
