<svg width="31" height="43" viewBox="0 0 31 43" fill="none" xmlns="http://www.w3.org/2000/svg">
<rect width="31" height="43" rx="5" fill="white"/>
<circle cx="11" cy="26" r="4" fill="white" stroke="#39538D"/>
<circle cx="11" cy="26" r="2.32143" fill="white" stroke="#39538D" stroke-width="0.5"/>
<circle cx="11" cy="26" r="1.28571" fill="#39538D"/>
<circle cx="11" cy="8" r="4" fill="white" stroke="#39538D"/>
<circle cx="11" cy="8.00002" r="2.32143" fill="white" stroke="#39538D" stroke-width="0.5"/>
<circle cx="11" cy="8.00001" r="1.28571" fill="#39538D"/>
<circle cx="11" cy="35" r="4" fill="white" stroke="#39538D"/>
<circle cx="11" cy="35" r="2.32143" fill="white" stroke="#39538D" stroke-width="0.5"/>
<circle cx="11" cy="35" r="1.28571" fill="#39538D"/>
<circle cx="11" cy="17" r="4" fill="white" stroke="#39538D"/>
<circle cx="11" cy="17" r="2.32143" fill="white" stroke="#39538D" stroke-width="0.5"/>
<circle cx="11" cy="17" r="1.28571" fill="#39538D"/>
<circle cx="20" cy="26" r="4" fill="white" stroke="#39538D"/>
<circle cx="20" cy="26" r="2.32143" fill="white" stroke="#39538D" stroke-width="0.5"/>
<circle cx="20" cy="26" r="1.28571" fill="#39538D"/>
<circle cx="20" cy="8" r="4" fill="white" stroke="#39538D"/>
<circle cx="20" cy="8.00002" r="2.32143" fill="white" stroke="#39538D" stroke-width="0.5"/>
<circle cx="20" cy="8.00001" r="1.28571" fill="#39538D"/>
<circle cx="20" cy="35" r="4" fill="white" stroke="#39538D"/>
<circle cx="20" cy="35" r="2.32143" fill="white" stroke="#39538D" stroke-width="0.5"/>
<circle cx="20" cy="35" r="1.28571" fill="#39538D"/>
<circle cx="20" cy="17" r="4" fill="white" stroke="#39538D"/>
<circle cx="20" cy="17" r="2.32143" fill="white" stroke="#39538D" stroke-width="0.5"/>
<circle cx="20" cy="17" r="1.28571" fill="#39538D"/>
</svg>
