<svg width="32" height="43" viewBox="0 0 32 43" fill="none" xmlns="http://www.w3.org/2000/svg">
<path d="M15.9973 7.64728C15.9973 10.1953 13.9306 12.2614 11.3826 12.2614C8.83465 12.2614 6.76932 10.1953 6.76932 7.64728C6.76932 5.09888 8.83465 3.03328 11.3826 3.03328C13.9306 3.03328 15.9973 5.09888 15.9973 7.64728Z" fill="#231F20"/>
<path d="M15.6333 7.64729C15.6333 9.99476 13.7307 11.8978 11.3827 11.8978C9.03599 11.8978 7.13199 9.99476 7.13199 7.64729C7.13199 5.29943 9.03599 3.39636 11.3827 3.39636C13.7307 3.39636 15.6333 5.29943 15.6333 7.64729Z" fill="white"/>
<path d="M15.2947 7.64729C15.2947 9.80783 13.5427 11.5582 11.3827 11.5582C9.22266 11.5582 7.472 9.80783 7.472 7.64729C7.472 5.48743 9.22266 3.73596 11.3827 3.73596C13.5427 3.73596 15.2947 5.48743 15.2947 7.64729Z" fill="#231F20"/>
<path d="M13.9466 7.64692C14.536 7.28385 14.7333 6.51665 14.3853 5.91399C14.0373 5.31039 13.2733 5.09838 12.664 5.42652C12.6453 4.73492 12.0787 4.18025 11.3827 4.18025C10.6867 4.18025 10.1213 4.73492 10.1013 5.42652C9.49199 5.09838 8.72798 5.31039 8.38132 5.91399C8.03198 6.51665 8.23065 7.28385 8.81865 7.64692C8.23065 8.01039 8.03198 8.77759 8.38132 9.38025C8.72798 9.98385 9.49199 10.1964 10.1013 9.86772C10.1213 10.5593 10.6867 11.114 11.3827 11.1136C12.0787 11.114 12.6453 10.5593 12.664 9.86772C13.2733 10.1959 14.0373 9.98385 14.3853 9.38025C14.7333 8.77759 14.536 8.00985 13.9466 7.64692ZM11.3827 9.34786C10.4453 9.34786 9.68265 8.58492 9.68265 7.64732C9.68265 6.70932 10.4453 5.94585 11.3827 5.94585C12.32 5.94585 13.084 6.70932 13.084 7.64732C13.084 8.58492 12.32 9.34786 11.3827 9.34786Z" fill="white"/>
<path d="M12.6667 7.64729C12.6667 8.35622 12.092 8.93115 11.3827 8.93115C10.6733 8.93115 10.0987 8.35622 10.0987 7.64729C10.0987 6.93795 10.6733 6.36355 11.3827 6.36355C12.092 6.36355 12.6667 6.93795 12.6667 7.64729Z" fill="white"/>
<path d="M15.9973 16.8754C15.9973 19.4234 13.9306 21.4896 11.3826 21.4896C8.83465 21.4896 6.76932 19.4234 6.76932 16.8754C6.76932 14.327 8.83465 12.2614 11.3826 12.2614C13.9306 12.2614 15.9973 14.327 15.9973 16.8754Z" fill="#231F20"/>
<path d="M15.6333 16.8754C15.6333 19.2229 13.7307 21.126 11.3827 21.126C9.03599 21.126 7.13199 19.2229 7.13199 16.8754C7.13199 14.5281 9.03599 12.6249 11.3827 12.6249C13.7307 12.6249 15.6333 14.5281 15.6333 16.8754Z" fill="white"/>
<path d="M15.2947 16.8755C15.2947 19.0355 13.5427 20.7869 11.3827 20.7869C9.22266 20.7869 7.472 19.0355 7.472 16.8755C7.472 14.7151 9.22266 12.964 11.3827 12.964C13.5427 12.964 15.2947 14.7151 15.2947 16.8755Z" fill="#231F20"/>
<path d="M13.9466 16.8754C14.536 16.512 14.7333 15.7448 14.3853 15.1421C14.0373 14.5385 13.2733 14.3265 12.664 14.6546C12.6453 13.963 12.0787 13.4082 11.3827 13.4082C10.6867 13.4082 10.1213 13.963 10.1013 14.6546C9.49199 14.3265 8.72798 14.539 8.38132 15.1421C8.03198 15.7448 8.23065 16.512 8.81865 16.8754C8.23065 17.239 8.03198 18.0057 8.38132 18.6088C8.72798 19.212 9.49199 19.4245 10.1013 19.0958C10.1213 19.7874 10.6867 20.3421 11.3827 20.3416C12.0787 20.3421 12.6453 19.7874 12.664 19.0958C13.2733 19.4245 14.0373 19.2114 14.3853 18.6088C14.7333 18.0052 14.536 17.238 13.9466 16.8754ZM11.3827 18.576C10.4453 18.576 9.68265 17.813 9.68265 16.8754C9.68265 15.9374 10.4453 15.1739 11.3827 15.1739C12.32 15.1739 13.084 15.9374 13.084 16.8754C13.084 17.813 12.32 18.576 11.3827 18.576Z" fill="white"/>
<path d="M12.6667 16.8754C12.6667 17.5844 12.092 18.1593 11.3827 18.1593C10.6733 18.1593 10.0987 17.5844 10.0987 16.8754C10.0987 16.1661 10.6733 15.5916 11.3827 15.5916C12.092 15.5916 12.6667 16.1661 12.6667 16.8754Z" fill="white"/>
<path d="M15.9973 26.1036C15.9973 28.6516 13.9306 30.7177 11.3826 30.7177C8.83465 30.7177 6.76932 28.6516 6.76932 26.1036C6.76932 23.5546 8.83465 21.4896 11.3826 21.4896C13.9306 21.4896 15.9973 23.5546 15.9973 26.1036Z" fill="#231F20"/>
<path d="M15.6333 26.1036C15.6333 28.4511 13.7307 30.3541 11.3827 30.3541C9.03599 30.3541 7.13199 28.4511 7.13199 26.1036C7.13199 23.7557 9.03599 21.8531 11.3827 21.8531C13.7307 21.8531 15.6333 23.7557 15.6333 26.1036Z" fill="white"/>
<path d="M15.2947 26.1035C15.2947 28.2639 13.5427 30.015 11.3827 30.015C9.22266 30.015 7.472 28.2639 7.472 26.1035C7.472 23.9431 9.22266 22.1921 11.3827 22.1921C13.5427 22.1921 15.2947 23.9431 15.2947 26.1035Z" fill="#231F20"/>
<path d="M13.9466 26.1036C14.536 25.7401 14.7333 24.9729 14.3853 24.3702C14.0373 23.7666 13.2733 23.5546 12.664 23.8828C12.6453 23.1912 12.0787 22.6364 11.3827 22.6364C10.6867 22.6364 10.1213 23.1912 10.1013 23.8828C9.49199 23.5546 8.72798 23.7672 8.38132 24.3702C8.03198 24.9729 8.23065 25.7401 8.81865 26.1036C8.23065 26.4666 8.03198 27.2333 8.38132 27.8369C8.72798 28.4401 9.49199 28.6526 10.1013 28.324C10.1213 29.0156 10.6867 29.5697 11.3827 29.5697C12.0787 29.5697 12.6453 29.0156 12.664 28.324C13.2733 28.6521 14.0373 28.4401 14.3853 27.8369C14.7333 27.2333 14.536 26.4666 13.9466 26.1036ZM11.3827 27.8041C10.4453 27.8041 9.68265 27.0412 9.68265 26.1036C9.68265 25.1656 10.4453 24.4026 11.3827 24.4026C12.32 24.4026 13.084 25.1656 13.084 26.1036C13.084 27.0412 12.32 27.8041 11.3827 27.8041Z" fill="white"/>
<path d="M12.6667 26.1036C12.6667 26.8125 12.092 27.3875 11.3827 27.3875C10.6733 27.3875 10.0987 26.8125 10.0987 26.1036C10.0987 25.3943 10.6733 24.8197 11.3827 24.8197C12.092 24.8197 12.6667 25.3943 12.6667 26.1036Z" fill="white"/>
<path d="M15.9973 35.3317C15.9973 37.8797 13.9306 39.9459 11.3826 39.9459C8.83465 39.9459 6.76932 37.8797 6.76932 35.3317C6.76932 32.7828 8.83465 30.7177 11.3826 30.7177C13.9306 30.7177 15.9973 32.7828 15.9973 35.3317Z" fill="#231F20"/>
<path d="M15.6333 35.3317C15.6333 37.6791 13.7307 39.5822 11.3827 39.5822C9.03599 39.5822 7.13199 37.6791 7.13199 35.3317C7.13199 32.9838 9.03599 31.0811 11.3827 31.0811C13.7307 31.0811 15.6333 32.9838 15.6333 35.3317Z" fill="white"/>
<path d="M15.2947 35.3317C15.2947 37.4916 13.5427 39.2432 11.3827 39.2432C9.22266 39.2432 7.472 37.4916 7.472 35.3317C7.472 33.1713 9.22266 31.4202 11.3827 31.4202C13.5427 31.4202 15.2947 33.1713 15.2947 35.3317Z" fill="#231F20"/>
<path d="M13.9466 35.3317C14.536 34.9683 14.7333 34.2011 14.3853 33.5984C14.0373 32.9948 13.2733 32.7828 12.664 33.1109C12.6453 32.4193 12.0787 31.8645 11.3827 31.8645C10.6867 31.8645 10.1213 32.4193 10.1013 33.1109C9.49199 32.7828 8.72798 32.9948 8.38132 33.5984C8.03198 34.2011 8.23065 34.9683 8.81865 35.3317C8.23065 35.6953 8.03198 36.462 8.38132 37.0645C8.72798 37.6683 9.49199 37.8802 10.1013 37.5521C10.1213 38.2437 10.6867 38.7979 11.3827 38.7979C12.0787 38.7979 12.6453 38.2437 12.664 37.5521C13.2733 37.8802 14.0373 37.6683 14.3853 37.0645C14.7333 36.4615 14.536 35.6943 13.9466 35.3317ZM11.3827 37.0323C10.4453 37.0323 9.68265 36.2693 9.68265 35.3317C9.68265 34.3937 10.4453 33.6302 11.3827 33.6302C12.32 33.6302 13.084 34.3937 13.084 35.3317C13.084 36.2693 12.32 37.0323 11.3827 37.0323Z" fill="white"/>
<path d="M12.6667 35.3317C12.6667 36.0412 12.092 36.6156 11.3827 36.6156C10.6733 36.6156 10.0987 36.0412 10.0987 35.3317C10.0987 34.6224 10.6733 34.0473 11.3827 34.0473C12.092 34.0473 12.6667 34.6224 12.6667 35.3317Z" fill="white"/>
<path d="M25.2253 7.64728C25.2253 10.1953 23.16 12.2614 20.6107 12.2614C18.0627 12.2614 15.9973 10.1953 15.9973 7.64728C15.9973 5.09888 18.0627 3.03328 20.6107 3.03328C23.16 3.03328 25.2253 5.09888 25.2253 7.64728Z" fill="#231F20"/>
<path d="M24.8613 7.64729C24.8613 9.99476 22.9587 11.8978 20.6107 11.8978C18.264 11.8978 16.36 9.99476 16.36 7.64729C16.36 5.29943 18.264 3.39636 20.6107 3.39636C22.9587 3.39636 24.8613 5.29943 24.8613 7.64729Z" fill="white"/>
<path d="M24.5227 7.64729C24.5227 9.80783 22.7706 11.5582 20.6106 11.5582C18.4506 11.5582 16.7 9.80783 16.7 7.64729C16.7 5.48743 18.4506 3.73596 20.6106 3.73596C22.7706 3.73596 24.5227 5.48743 24.5227 7.64729Z" fill="#231F20"/>
<path d="M23.1747 7.64692C23.764 7.28385 23.9613 6.51665 23.6133 5.91399C23.2653 5.31039 22.5027 5.09838 21.8933 5.42652C21.8733 4.73492 21.3067 4.18025 20.6107 4.18025C19.9147 4.18025 19.3493 4.73492 19.328 5.42652C18.72 5.09838 17.9573 5.31039 17.6093 5.91399C17.26 6.51665 17.4573 7.28385 18.0467 7.64692C17.4573 8.01039 17.26 8.77759 17.6093 9.38025C17.9573 9.98385 18.72 10.1964 19.328 9.86772C19.3493 10.5593 19.9147 11.114 20.6107 11.1136C21.3067 11.114 21.8733 10.5593 21.8933 9.86772C22.5027 10.1959 23.2653 9.98385 23.6133 9.38025C23.9613 8.77759 23.764 8.00985 23.1747 7.64692ZM20.6107 9.34786C19.6733 9.34786 18.9093 8.58492 18.9093 7.64732C18.9093 6.70932 19.6733 5.94585 20.6107 5.94585C21.548 5.94585 22.312 6.70932 22.312 7.64732C22.312 8.58492 21.548 9.34786 20.6107 9.34786Z" fill="white"/>
<path d="M21.8947 7.64729C21.8947 8.35622 21.32 8.93115 20.6107 8.93115C19.9027 8.93115 19.3267 8.35622 19.3267 7.64729C19.3267 6.93795 19.9027 6.36355 20.6107 6.36355C21.32 6.36355 21.8947 6.93795 21.8947 7.64729Z" fill="white"/>
<path d="M25.2253 16.8754C25.2253 19.4234 23.16 21.4896 20.6107 21.4896C18.0627 21.4896 15.9973 19.4234 15.9973 16.8754C15.9973 14.327 18.0627 12.2614 20.6107 12.2614C23.16 12.2614 25.2253 14.327 25.2253 16.8754Z" fill="#231F20"/>
<path d="M24.8613 16.8754C24.8613 19.2229 22.9587 21.126 20.6107 21.126C18.264 21.126 16.36 19.2229 16.36 16.8754C16.36 14.5281 18.264 12.6249 20.6107 12.6249C22.9587 12.6249 24.8613 14.5281 24.8613 16.8754Z" fill="white"/>
<path d="M24.5227 16.8755C24.5227 19.0355 22.7706 20.7869 20.6106 20.7869C18.4506 20.7869 16.7 19.0355 16.7 16.8755C16.7 14.7151 18.4506 12.964 20.6106 12.964C22.7706 12.964 24.5227 14.7151 24.5227 16.8755Z" fill="#231F20"/>
<path d="M23.1747 16.8754C23.764 16.512 23.9613 15.7448 23.6133 15.1421C23.2653 14.5385 22.5027 14.3265 21.8933 14.6546C21.8733 13.963 21.3067 13.4082 20.6107 13.4082C19.9147 13.4082 19.3493 13.963 19.328 14.6546C18.72 14.3265 17.9573 14.539 17.6093 15.1421C17.26 15.7448 17.4573 16.512 18.0467 16.8754C17.4573 17.239 17.26 18.0057 17.6093 18.6088C17.9573 19.212 18.72 19.4245 19.328 19.0958C19.3493 19.7874 19.9147 20.3421 20.6107 20.3416C21.3067 20.3421 21.8733 19.7874 21.8933 19.0958C22.5027 19.4245 23.2653 19.2114 23.6133 18.6088C23.9613 18.0052 23.764 17.238 23.1747 16.8754ZM20.6107 18.576C19.6733 18.576 18.9093 17.813 18.9093 16.8754C18.9093 15.9374 19.6733 15.1739 20.6107 15.1739C21.548 15.1739 22.312 15.9374 22.312 16.8754C22.312 17.813 21.548 18.576 20.6107 18.576Z" fill="white"/>
<path d="M21.8947 16.8754C21.8947 17.5844 21.32 18.1593 20.6107 18.1593C19.9027 18.1593 19.3267 17.5844 19.3267 16.8754C19.3267 16.1661 19.9027 15.5916 20.6107 15.5916C21.32 15.5916 21.8947 16.1661 21.8947 16.8754Z" fill="white"/>
<path d="M25.2253 26.1036C25.2253 28.6516 23.16 30.7177 20.6107 30.7177C18.0627 30.7177 15.9973 28.6516 15.9973 26.1036C15.9973 23.5546 18.0627 21.4896 20.6107 21.4896C23.16 21.4896 25.2253 23.5546 25.2253 26.1036Z" fill="#231F20"/>
<path d="M24.8613 26.1036C24.8613 28.4511 22.9587 30.3541 20.6107 30.3541C18.264 30.3541 16.36 28.4511 16.36 26.1036C16.36 23.7557 18.264 21.8531 20.6107 21.8531C22.9587 21.8531 24.8613 23.7557 24.8613 26.1036Z" fill="white"/>
<path d="M24.5227 26.1035C24.5227 28.2639 22.7706 30.015 20.6106 30.015C18.4506 30.015 16.7 28.2639 16.7 26.1035C16.7 23.9431 18.4506 22.1921 20.6106 22.1921C22.7706 22.1921 24.5227 23.9431 24.5227 26.1035Z" fill="#231F20"/>
<path d="M23.1747 26.1036C23.764 25.7401 23.9613 24.9729 23.6133 24.3702C23.2653 23.7666 22.5027 23.5546 21.8933 23.8828C21.8733 23.1912 21.3067 22.6364 20.6107 22.6364C19.9147 22.6364 19.3493 23.1912 19.328 23.8828C18.72 23.5546 17.9573 23.7672 17.6093 24.3702C17.26 24.9729 17.4573 25.7401 18.0467 26.1036C17.4573 26.4666 17.26 27.2333 17.6093 27.8369C17.9573 28.4401 18.72 28.6526 19.328 28.324C19.3493 29.0156 19.9147 29.5697 20.6107 29.5697C21.3067 29.5697 21.8733 29.0156 21.8933 28.324C22.5027 28.6521 23.2653 28.4401 23.6133 27.8369C23.9613 27.2333 23.764 26.4666 23.1747 26.1036ZM20.6107 27.8041C19.6733 27.8041 18.9093 27.0412 18.9093 26.1036C18.9093 25.1656 19.6733 24.4026 20.6107 24.4026C21.548 24.4026 22.312 25.1656 22.312 26.1036C22.312 27.0412 21.548 27.8041 20.6107 27.8041Z" fill="white"/>
<path d="M21.8947 26.1036C21.8947 26.8125 21.32 27.3875 20.6107 27.3875C19.9027 27.3875 19.3267 26.8125 19.3267 26.1036C19.3267 25.3943 19.9027 24.8197 20.6107 24.8197C21.32 24.8197 21.8947 25.3943 21.8947 26.1036Z" fill="white"/>
<path d="M25.2253 35.3317C25.2253 37.8797 23.16 39.9459 20.6107 39.9459C18.0627 39.9459 15.9973 37.8797 15.9973 35.3317C15.9973 32.7828 18.0627 30.7177 20.6107 30.7177C23.16 30.7177 25.2253 32.7828 25.2253 35.3317Z" fill="#231F20"/>
<path d="M24.8613 35.3317C24.8613 37.6791 22.9587 39.5822 20.6107 39.5822C18.264 39.5822 16.36 37.6791 16.36 35.3317C16.36 32.9838 18.264 31.0811 20.6107 31.0811C22.9587 31.0811 24.8613 32.9838 24.8613 35.3317Z" fill="white"/>
<path d="M24.5227 35.3317C24.5227 37.4916 22.7706 39.2432 20.6106 39.2432C18.4506 39.2432 16.7 37.4916 16.7 35.3317C16.7 33.1713 18.4506 31.4202 20.6106 31.4202C22.7706 31.4202 24.5227 33.1713 24.5227 35.3317Z" fill="#231F20"/>
<path d="M23.1747 35.3317C23.764 34.9683 23.9613 34.2011 23.6133 33.5984C23.2653 32.9948 22.5027 32.7828 21.8933 33.1109C21.8733 32.4193 21.3067 31.8645 20.6107 31.8645C19.9147 31.8645 19.3493 32.4193 19.328 33.1109C18.72 32.7828 17.9573 32.9948 17.6093 33.5984C17.26 34.2011 17.4573 34.9683 18.0467 35.3317C17.4573 35.6953 17.26 36.462 17.6093 37.0645C17.9573 37.6683 18.72 37.8802 19.328 37.5521C19.3493 38.2437 19.9147 38.7979 20.6107 38.7979C21.3067 38.7979 21.8733 38.2437 21.8933 37.5521C22.5027 37.8802 23.2653 37.6683 23.6133 37.0645C23.9613 36.4615 23.764 35.6943 23.1747 35.3317ZM20.6107 37.0323C19.6733 37.0323 18.9093 36.2693 18.9093 35.3317C18.9093 34.3937 19.6733 33.6302 20.6107 33.6302C21.548 33.6302 22.312 34.3937 22.312 35.3317C22.312 36.2693 21.548 37.0323 20.6107 37.0323Z" fill="white"/>
<path d="M21.8947 35.3317C21.8947 36.0412 21.32 36.6156 20.6107 36.6156C19.9027 36.6156 19.3267 36.0412 19.3267 35.3317C19.3267 34.6224 19.9027 34.0473 20.6107 34.0473C21.32 34.0473 21.8947 34.6224 21.8947 35.3317Z" fill="white"/>
</svg>
