<svg width="31" height="43" viewBox="0 0 31 43" fill="none" xmlns="http://www.w3.org/2000/svg">
<rect width="31" height="43" rx="5" fill="white"/>
<circle cx="15.5" cy="9.5" r="4" fill="white" stroke="#39538D"/>
<circle cx="15.5" cy="9.50002" r="2.32143" fill="white" stroke="#39538D" stroke-width="0.5"/>
<circle cx="15.5" cy="9.50001" r="1.28571" fill="#39538D"/>
<circle cx="15.5" cy="21.5" r="4" fill="white" stroke="#D34747"/>
<circle cx="15.5" cy="21.5" r="2.32143" fill="white" stroke="#D34747" stroke-width="0.5"/>
<circle cx="15.5" cy="21.5" r="1.28571" fill="#D34747"/>
<circle cx="15.5" cy="33.5" r="4" fill="white" stroke="#39538D"/>
<circle cx="15.5" cy="33.5" r="2.32143" fill="white" stroke="#39538D" stroke-width="0.5"/>
<circle cx="15.5" cy="33.5" r="1.28571" fill="#39538D"/>
<circle cx="24.5" cy="9.5" r="4" fill="white" stroke="#39538D"/>
<circle cx="24.5" cy="9.50002" r="2.32143" fill="white" stroke="#39538D" stroke-width="0.5"/>
<circle cx="24.5" cy="9.50001" r="1.28571" fill="#39538D"/>
<circle cx="24.5" cy="21.5" r="4" fill="white" stroke="#D34747"/>
<circle cx="24.5" cy="21.5" r="2.32143" fill="white" stroke="#D34747" stroke-width="0.5"/>
<circle cx="24.5" cy="21.5" r="1.28571" fill="#D34747"/>
<circle cx="24.5" cy="33.5" r="4" fill="white" stroke="#39538D"/>
<circle cx="24.5" cy="33.5" r="2.32143" fill="white" stroke="#39538D" stroke-width="0.5"/>
<circle cx="24.5" cy="33.5" r="1.28571" fill="#39538D"/>
<circle cx="6.5" cy="9.5" r="4" fill="white" stroke="#39538D"/>
<circle cx="6.49999" cy="9.50002" r="2.32143" fill="white" stroke="#39538D" stroke-width="0.5"/>
<circle cx="6.50001" cy="9.50001" r="1.28571" fill="#39538D"/>
<circle cx="6.5" cy="21.5" r="4" fill="white" stroke="#D34747"/>
<circle cx="6.49999" cy="21.5" r="2.32143" fill="white" stroke="#D34747" stroke-width="0.5"/>
<circle cx="6.50001" cy="21.5" r="1.28571" fill="#D34747"/>
<circle cx="6.5" cy="33.5" r="4" fill="white" stroke="#39538D"/>
<circle cx="6.49999" cy="33.5" r="2.32143" fill="white" stroke="#39538D" stroke-width="0.5"/>
<circle cx="6.50001" cy="33.5" r="1.28571" fill="#39538D"/>
</svg>
