<svg width="32" height="43" viewBox="0 0 32 43" fill="none" xmlns="http://www.w3.org/2000/svg">
<path d="M10.9773 9.60156C10.9773 12.1494 8.91198 14.215 6.36398 14.215C3.81598 14.215 1.74933 12.1494 1.74933 9.60156C1.74933 7.05263 3.81598 4.98689 6.36398 4.98689C8.91198 4.98689 10.9773 7.05263 10.9773 9.60156Z" fill="#74BA24"/>
<path d="M10.6147 9.60158C10.6147 11.9489 8.71199 13.8521 6.36399 13.8521C4.01599 13.8521 2.11334 11.9489 2.11334 9.60158C2.11334 7.25358 4.01599 5.35105 6.36399 5.35105C8.71199 5.35105 10.6147 7.25358 10.6147 9.60158Z" fill="white"/>
<path d="M10.2747 9.60158C10.2747 11.7614 8.52398 13.5125 6.36398 13.5125C4.20264 13.5125 2.45197 11.7614 2.45197 9.60158C2.45197 7.44118 4.20264 5.69012 6.36398 5.69012C8.52398 5.69012 10.2747 7.44118 10.2747 9.60158Z" fill="#74BA24"/>
<path d="M8.92796 9.60102C9.51729 9.23742 9.71463 8.47075 9.3653 7.86822C9.0173 7.26449 8.25465 7.05262 7.64531 7.38022C7.62531 6.68902 7.05996 6.13435 6.36396 6.13435C5.66796 6.13435 5.10131 6.68902 5.08131 7.38022C4.47198 7.05262 3.7093 7.26449 3.3613 7.86822C3.0133 8.47075 3.21063 9.23742 3.79997 9.60102C3.21063 9.96502 3.0133 10.7317 3.3613 11.3344C3.7093 11.938 4.47198 12.15 5.08131 11.8218C5.10131 12.5136 5.66663 13.0682 6.36396 13.0677C7.05996 13.0682 7.62531 12.5136 7.64531 11.8218C8.25465 12.15 9.0173 11.9374 9.3653 11.3344C9.71463 10.7312 9.51729 9.96449 8.92796 9.60102ZM6.36396 11.3021C5.4253 11.3021 4.66263 10.5396 4.66263 9.60102C4.66263 8.66355 5.4253 7.90049 6.36396 7.90049C7.3013 7.90049 8.06396 8.66355 8.06396 9.60102C8.06396 10.5396 7.3013 11.3021 6.36396 11.3021Z" fill="white"/>
<path d="M7.64802 9.60104C7.64802 10.3104 7.07333 10.8854 6.364 10.8854C5.65467 10.8854 5.08002 10.3104 5.08002 9.60104C5.08002 8.8921 5.65467 8.31717 6.364 8.31717C7.07333 8.31717 7.64802 8.8921 7.64802 9.60104Z" fill="white"/>
<path d="M20.2053 9.60156C20.2053 12.1494 18.14 14.215 15.592 14.215C13.044 14.215 10.9773 12.1494 10.9773 9.60156C10.9773 7.05263 13.044 4.98689 15.592 4.98689C18.14 4.98689 20.2053 7.05263 20.2053 9.60156Z" fill="#74BA24"/>
<path d="M19.8427 9.60158C19.8427 11.9489 17.9387 13.8521 15.592 13.8521C13.244 13.8521 11.3413 11.9489 11.3413 9.60158C11.3413 7.25358 13.244 5.35105 15.592 5.35105C17.9387 5.35105 19.8427 7.25358 19.8427 9.60158Z" fill="white"/>
<path d="M19.5026 9.60158C19.5026 11.7614 17.752 13.5125 15.592 13.5125C13.4306 13.5125 11.68 11.7614 11.68 9.60158C11.68 7.44118 13.4306 5.69012 15.592 5.69012C17.752 5.69012 19.5026 7.44118 19.5026 9.60158Z" fill="#74BA24"/>
<path d="M18.156 9.60102C18.7453 9.23742 18.9426 8.47075 18.5933 7.86822C18.2466 7.26449 17.4826 7.05262 16.8733 7.38022C16.8533 6.68902 16.288 6.13435 15.592 6.13435C14.8946 6.13435 14.3293 6.68902 14.3093 7.38022C13.7 7.05262 12.9373 7.26449 12.5893 7.86822C12.2413 8.47075 12.4386 9.23742 13.028 9.60102C12.4386 9.96502 12.2413 10.7317 12.5893 11.3344C12.9386 11.938 13.7 12.15 14.3093 11.8218C14.3293 12.5136 14.8946 13.0682 15.592 13.0677C16.288 13.0682 16.8533 12.5136 16.8733 11.8218C17.4826 12.15 18.2453 11.9374 18.5933 11.3344C18.9426 10.7312 18.7453 9.96449 18.156 9.60102ZM15.592 11.3021C14.6533 11.3021 13.8906 10.5396 13.8906 9.60102C13.8906 8.66355 14.6533 7.90049 15.592 7.90049C16.5293 7.90049 17.2933 8.66355 17.2933 9.60102C17.2933 10.5396 16.5293 11.3021 15.592 11.3021Z" fill="white"/>
<path d="M16.876 9.60104C16.876 10.3104 16.3013 10.8854 15.592 10.8854C14.8827 10.8854 14.308 10.3104 14.308 9.60104C14.308 8.8921 14.8827 8.31717 15.592 8.31717C16.3013 8.31717 16.876 8.8921 16.876 9.60104Z" fill="white"/>
<path d="M29.4333 9.60156C29.4333 12.1494 27.368 14.215 24.82 14.215C22.272 14.215 20.2053 12.1494 20.2053 9.60156C20.2053 7.05263 22.272 4.98689 24.82 4.98689C27.368 4.98689 29.4333 7.05263 29.4333 9.60156Z" fill="#74BA24"/>
<path d="M29.0707 9.60158C29.0707 11.9489 27.168 13.8521 24.82 13.8521C22.472 13.8521 20.5693 11.9489 20.5693 9.60158C20.5693 7.25358 22.472 5.35105 24.82 5.35105C27.168 5.35105 29.0707 7.25358 29.0707 9.60158Z" fill="white"/>
<path d="M28.7306 9.60158C28.7306 11.7614 26.98 13.5125 24.82 13.5125C22.66 13.5125 20.908 11.7614 20.908 9.60158C20.908 7.44118 22.66 5.69012 24.82 5.69012C26.98 5.69012 28.7306 7.44118 28.7306 9.60158Z" fill="#74BA24"/>
<path d="M27.384 9.60102C27.9733 9.23742 28.1707 8.47075 27.8227 7.86822C27.4747 7.26449 26.7107 7.05262 26.1027 7.38022C26.0813 6.68902 25.516 6.13435 24.82 6.13435C24.124 6.13435 23.5587 6.68902 23.5387 7.38022C22.928 7.05262 22.1667 7.26449 21.8173 7.86822C21.4693 8.47075 21.6667 9.23742 22.256 9.60102C21.6667 9.96502 21.4693 10.7317 21.8173 11.3344C22.1667 11.938 22.928 12.15 23.5387 11.8218C23.5587 12.5136 24.124 13.0682 24.82 13.0677C25.516 13.0682 26.0813 12.5136 26.1027 11.8218C26.7107 12.15 27.4747 11.9374 27.8227 11.3344C28.1707 10.7312 27.9733 9.96449 27.384 9.60102ZM24.82 11.3021C23.8813 11.3021 23.1187 10.5396 23.1187 9.60102C23.1187 8.66355 23.8813 7.90049 24.82 7.90049C25.7573 7.90049 26.5213 8.66355 26.5213 9.60102C26.5213 10.5396 25.7573 11.3021 24.82 11.3021Z" fill="white"/>
<path d="M26.104 9.60104C26.104 10.3104 25.5293 10.8854 24.82 10.8854C24.1107 10.8854 23.536 10.3104 23.536 9.60104C23.536 8.8921 24.1107 8.31717 24.82 8.31717C25.5293 8.31717 26.104 8.8921 26.104 9.60104Z" fill="white"/>
<path d="M10.9773 21.4896C10.9773 24.038 8.91198 26.1036 6.36398 26.1036C3.81598 26.1036 1.74933 24.038 1.74933 21.4896C1.74933 18.9412 3.81598 16.8754 6.36398 16.8754C8.91198 16.8754 10.9773 18.9412 10.9773 21.4896Z" fill="#ED1C24"/>
<path d="M10.6147 21.4896C10.6147 23.8374 8.71199 25.7401 6.36399 25.7401C4.01599 25.7401 2.11334 23.8374 2.11334 21.4896C2.11334 19.1421 4.01599 17.2396 6.36399 17.2396C8.71199 17.2396 10.6147 19.1421 10.6147 21.4896Z" fill="white"/>
<path d="M10.2747 21.4896C10.2747 23.65 8.52398 25.4011 6.36398 25.4011C4.20264 25.4011 2.45197 23.65 2.45197 21.4896C2.45197 19.3297 4.20264 17.5781 6.36398 17.5781C8.52398 17.5781 10.2747 19.3297 10.2747 21.4896Z" fill="#ED1C24"/>
<path d="M8.92796 21.4896C9.51729 21.1265 9.71463 20.3598 9.3653 19.7562C9.0173 19.153 8.25465 18.9406 7.64531 19.2693C7.62531 18.5776 7.05996 18.0229 6.36396 18.0229C5.66796 18.0229 5.10131 18.5776 5.08131 19.2688C4.47198 18.9406 3.7093 19.153 3.3613 19.7562C3.0133 20.3598 3.21063 21.1265 3.79997 21.4896C3.21063 21.853 3.0133 22.6202 3.3613 23.2229C3.7093 23.826 4.47198 24.0385 5.08131 23.7104C5.10131 24.4021 5.66663 24.9562 6.36396 24.9557C7.05996 24.9562 7.62531 24.4021 7.64531 23.7104C8.25465 24.0385 9.0173 23.826 9.3653 23.2229C9.71463 22.6197 9.51729 21.8526 8.92796 21.4896ZM6.36396 23.1906C5.4253 23.1906 4.66263 22.4276 4.66263 21.4896C4.66263 20.5521 5.4253 19.7885 6.36396 19.7885C7.3013 19.7885 8.06396 20.5521 8.06396 21.4896C8.06396 22.4276 7.3013 23.1906 6.36396 23.1906Z" fill="white"/>
<path d="M7.64802 21.4896C7.64802 22.1989 7.07333 22.7734 6.364 22.7734C5.65467 22.7734 5.08002 22.1989 5.08002 21.4896C5.08002 20.7806 5.65467 20.2057 6.364 20.2057C7.07333 20.2057 7.64802 20.7806 7.64802 21.4896Z" fill="white"/>
<path d="M20.2053 21.4896C20.2053 24.038 18.14 26.1036 15.592 26.1036C13.044 26.1036 10.9773 24.038 10.9773 21.4896C10.9773 18.9412 13.044 16.8754 15.592 16.8754C18.14 16.8754 20.2053 18.9412 20.2053 21.4896Z" fill="#ED1C24"/>
<path d="M19.8427 21.4896C19.8427 23.8374 17.9387 25.7401 15.592 25.7401C13.244 25.7401 11.3413 23.8374 11.3413 21.4896C11.3413 19.1421 13.244 17.2396 15.592 17.2396C17.9387 17.2396 19.8427 19.1421 19.8427 21.4896Z" fill="white"/>
<path d="M19.5026 21.4896C19.5026 23.65 17.752 25.4011 15.592 25.4011C13.4306 25.4011 11.68 23.65 11.68 21.4896C11.68 19.3297 13.4306 17.5781 15.592 17.5781C17.752 17.5781 19.5026 19.3297 19.5026 21.4896Z" fill="#ED1C24"/>
<path d="M18.156 21.4896C18.7453 21.1265 18.9426 20.3598 18.5933 19.7562C18.2466 19.153 17.4826 18.9406 16.8733 19.2693C16.8533 18.5776 16.288 18.0229 15.592 18.0229C14.8946 18.0229 14.3293 18.5776 14.3093 19.2688C13.7 18.9406 12.9373 19.153 12.5893 19.7562C12.2413 20.3598 12.4386 21.1265 13.028 21.4896C12.4386 21.853 12.2413 22.6202 12.5893 23.2229C12.9386 23.826 13.7 24.0385 14.3093 23.7104C14.3293 24.4021 14.8946 24.9562 15.592 24.9557C16.288 24.9562 16.8533 24.4021 16.8733 23.7104C17.4826 24.0385 18.2453 23.826 18.5933 23.2229C18.9426 22.6197 18.7453 21.8526 18.156 21.4896ZM15.592 23.1906C14.6533 23.1906 13.8906 22.4276 13.8906 21.4896C13.8906 20.5521 14.6533 19.7885 15.592 19.7885C16.5293 19.7885 17.2933 20.5521 17.2933 21.4896C17.2933 22.4276 16.5293 23.1906 15.592 23.1906Z" fill="white"/>
<path d="M16.876 21.4896C16.876 22.1989 16.3013 22.7734 15.592 22.7734C14.8827 22.7734 14.308 22.1989 14.308 21.4896C14.308 20.7806 14.8827 20.2057 15.592 20.2057C16.3013 20.2057 16.876 20.7806 16.876 21.4896Z" fill="white"/>
<path d="M29.4333 21.4896C29.4333 24.038 27.368 26.1036 24.82 26.1036C22.272 26.1036 20.2053 24.038 20.2053 21.4896C20.2053 18.9412 22.272 16.8754 24.82 16.8754C27.368 16.8754 29.4333 18.9412 29.4333 21.4896Z" fill="#ED1C24"/>
<path d="M29.0707 21.4896C29.0707 23.8374 27.168 25.7401 24.82 25.7401C22.472 25.7401 20.5693 23.8374 20.5693 21.4896C20.5693 19.1421 22.472 17.2396 24.82 17.2396C27.168 17.2396 29.0707 19.1421 29.0707 21.4896Z" fill="white"/>
<path d="M28.7306 21.4896C28.7306 23.65 26.98 25.4011 24.82 25.4011C22.66 25.4011 20.908 23.65 20.908 21.4896C20.908 19.3297 22.66 17.5781 24.82 17.5781C26.98 17.5781 28.7306 19.3297 28.7306 21.4896Z" fill="#ED1C24"/>
<path d="M27.384 21.4896C27.9733 21.1265 28.1707 20.3598 27.8227 19.7562C27.4747 19.153 26.7107 18.9406 26.1027 19.2693C26.0813 18.5776 25.516 18.0229 24.82 18.0229C24.124 18.0229 23.5587 18.5776 23.5387 19.2688C22.928 18.9406 22.1667 19.153 21.8173 19.7562C21.4693 20.3598 21.6667 21.1265 22.256 21.4896C21.6667 21.853 21.4693 22.6202 21.8173 23.2229C22.1667 23.826 22.928 24.0385 23.5387 23.7104C23.5587 24.4021 24.124 24.9562 24.82 24.9557C25.516 24.9562 26.0813 24.4021 26.1027 23.7104C26.7107 24.0385 27.4747 23.826 27.8227 23.2229C28.1707 22.6197 27.9733 21.8526 27.384 21.4896ZM24.82 23.1906C23.8813 23.1906 23.1187 22.4276 23.1187 21.4896C23.1187 20.5521 23.8813 19.7885 24.82 19.7885C25.7573 19.7885 26.5213 20.5521 26.5213 21.4896C26.5213 22.4276 25.7573 23.1906 24.82 23.1906Z" fill="white"/>
<path d="M26.104 21.4896C26.104 22.1989 25.5293 22.7734 24.82 22.7734C24.1107 22.7734 23.536 22.1989 23.536 21.4896C23.536 20.7806 24.1107 20.2057 24.82 20.2057C25.5293 20.2057 26.104 20.7806 26.104 21.4896Z" fill="white"/>
<path d="M10.9773 33.3787C10.9773 35.9265 8.91198 37.9921 6.36398 37.9921C3.81598 37.9921 1.74933 35.9265 1.74933 33.3787C1.74933 30.8303 3.81598 28.764 6.36398 28.764C8.91198 28.764 10.9773 30.8303 10.9773 33.3787Z" fill="#74BA24"/>
<path d="M10.6147 33.3786C10.6147 35.7254 8.71199 37.6292 6.36399 37.6292C4.01599 37.6292 2.11334 35.7254 2.11334 33.3786C2.11334 31.0302 4.01599 29.1276 6.36399 29.1276C8.71199 29.1276 10.6147 31.0302 10.6147 33.3786Z" fill="white"/>
<path d="M10.2747 33.3786C10.2747 35.5385 8.52398 37.2896 6.36398 37.2896C4.20264 37.2896 2.45197 35.5385 2.45197 33.3786C2.45197 31.2182 4.20264 29.4666 6.36398 29.4666C8.52398 29.4666 10.2747 31.2182 10.2747 33.3786Z" fill="#74BA24"/>
<path d="M8.92796 33.3781C9.51729 33.0145 9.71463 32.2479 9.3653 31.6448C9.0173 31.0416 8.25465 30.8292 7.64531 31.1573C7.62531 30.4661 7.05996 29.9115 6.36396 29.9115C5.66796 29.9115 5.10131 30.4661 5.08131 31.1573C4.47198 30.8292 3.7093 31.0416 3.3613 31.6448C3.0133 32.2479 3.21063 33.0145 3.79997 33.3781C3.21063 33.7416 3.0133 34.5088 3.3613 35.1115C3.7093 35.7145 4.47198 35.9271 5.08131 35.5989C5.10131 36.2907 5.66663 36.8448 6.36396 36.8448C7.05996 36.8448 7.62531 36.2907 7.64531 35.5989C8.25465 35.9271 9.0173 35.7145 9.3653 35.1115C9.71463 34.5088 9.51729 33.7416 8.92796 33.3781ZM6.36396 35.0792C5.4253 35.0792 4.66263 34.3161 4.66263 33.3781C4.66263 32.4407 5.4253 31.6771 6.36396 31.6771C7.3013 31.6771 8.06396 32.4407 8.06396 33.3781C8.06396 34.3161 7.3013 35.0792 6.36396 35.0792Z" fill="white"/>
<path d="M7.64802 33.3781C7.64802 34.0875 7.07333 34.662 6.364 34.662C5.65467 34.662 5.08002 34.0875 5.08002 33.3781C5.08002 32.6693 5.65467 32.0943 6.364 32.0943C7.07333 32.0943 7.64802 32.6693 7.64802 33.3781Z" fill="white"/>
<path d="M20.2053 33.3787C20.2053 35.9265 18.14 37.9921 15.592 37.9921C13.044 37.9921 10.9773 35.9265 10.9773 33.3787C10.9773 30.8303 13.044 28.764 15.592 28.764C18.14 28.764 20.2053 30.8303 20.2053 33.3787Z" fill="#74BA24"/>
<path d="M19.8427 33.3786C19.8427 35.7254 17.9387 37.6292 15.592 37.6292C13.244 37.6292 11.3413 35.7254 11.3413 33.3786C11.3413 31.0302 13.244 29.1276 15.592 29.1276C17.9387 29.1276 19.8427 31.0302 19.8427 33.3786Z" fill="white"/>
<path d="M19.5026 33.3786C19.5026 35.5385 17.752 37.2896 15.592 37.2896C13.4306 37.2896 11.68 35.5385 11.68 33.3786C11.68 31.2182 13.4306 29.4666 15.592 29.4666C17.752 29.4666 19.5026 31.2182 19.5026 33.3786Z" fill="#74BA24"/>
<path d="M18.156 33.3781C18.7453 33.0145 18.9426 32.2479 18.5933 31.6448C18.2466 31.0416 17.4826 30.8292 16.8733 31.1573C16.8533 30.4661 16.288 29.9115 15.592 29.9115C14.8946 29.9115 14.3293 30.4661 14.3093 31.1573C13.7 30.8292 12.9373 31.0416 12.5893 31.6448C12.2413 32.2479 12.4386 33.0145 13.028 33.3781C12.4386 33.7416 12.2413 34.5088 12.5893 35.1115C12.9386 35.7145 13.7 35.9271 14.3093 35.5989C14.3293 36.2907 14.8946 36.8448 15.592 36.8448C16.288 36.8448 16.8533 36.2907 16.8733 35.5989C17.4826 35.9271 18.2453 35.7145 18.5933 35.1115C18.9426 34.5088 18.7453 33.7416 18.156 33.3781ZM15.592 35.0792C14.6533 35.0792 13.8906 34.3161 13.8906 33.3781C13.8906 32.4407 14.6533 31.6771 15.592 31.6771C16.5293 31.6771 17.2933 32.4407 17.2933 33.3781C17.2933 34.3161 16.5293 35.0792 15.592 35.0792Z" fill="white"/>
<path d="M16.876 33.3781C16.876 34.0875 16.3013 34.662 15.592 34.662C14.8827 34.662 14.308 34.0875 14.308 33.3781C14.308 32.6693 14.8827 32.0943 15.592 32.0943C16.3013 32.0943 16.876 32.6693 16.876 33.3781Z" fill="white"/>
<path d="M29.4333 33.3787C29.4333 35.9265 27.368 37.9921 24.82 37.9921C22.272 37.9921 20.2053 35.9265 20.2053 33.3787C20.2053 30.8303 22.272 28.764 24.82 28.764C27.368 28.764 29.4333 30.8303 29.4333 33.3787Z" fill="#74BA24"/>
<path d="M29.0707 33.3786C29.0707 35.7254 27.168 37.6292 24.82 37.6292C22.472 37.6292 20.5693 35.7254 20.5693 33.3786C20.5693 31.0302 22.472 29.1276 24.82 29.1276C27.168 29.1276 29.0707 31.0302 29.0707 33.3786Z" fill="white"/>
<path d="M28.7306 33.3786C28.7306 35.5385 26.98 37.2896 24.82 37.2896C22.66 37.2896 20.908 35.5385 20.908 33.3786C20.908 31.2182 22.66 29.4666 24.82 29.4666C26.98 29.4666 28.7306 31.2182 28.7306 33.3786Z" fill="#74BA24"/>
<path d="M27.384 33.3781C27.9733 33.0145 28.1707 32.2479 27.8227 31.6448C27.4747 31.0416 26.7107 30.8292 26.1027 31.1573C26.0813 30.4661 25.516 29.9115 24.82 29.9115C24.124 29.9115 23.5587 30.4661 23.5387 31.1573C22.928 30.8292 22.1667 31.0416 21.8173 31.6448C21.4693 32.2479 21.6667 33.0145 22.256 33.3781C21.6667 33.7416 21.4693 34.5088 21.8173 35.1115C22.1667 35.7145 22.928 35.9271 23.5387 35.5989C23.5587 36.2907 24.124 36.8448 24.82 36.8448C25.516 36.8448 26.0813 36.2907 26.1027 35.5989C26.7107 35.9271 27.4747 35.7145 27.8227 35.1115C28.1707 34.5088 27.9733 33.7416 27.384 33.3781ZM24.82 35.0792C23.8813 35.0792 23.1187 34.3161 23.1187 33.3781C23.1187 32.4407 23.8813 31.6771 24.82 31.6771C25.7573 31.6771 26.5213 32.4407 26.5213 33.3781C26.5213 34.3161 25.7573 35.0792 24.82 35.0792Z" fill="white"/>
<path d="M26.104 33.3781C26.104 34.0875 25.5293 34.662 24.82 34.662C24.1107 34.662 23.536 34.0875 23.536 33.3781C23.536 32.6693 24.1107 32.0943 24.82 32.0943C25.5293 32.0943 26.104 32.6693 26.104 33.3781Z" fill="white"/>
</svg>
