<svg width="31" height="43" viewBox="0 0 31 43" fill="none" xmlns="http://www.w3.org/2000/svg">
<rect width="31" height="43" rx="5" fill="white"/>
<path d="M7.55978 27C7.46046 27 7.32141 26.9804 7.22208 26.824C7.20222 26.7849 7.14262 26.6871 7.16249 26.648C7.22208 26.5111 7.28168 26.3937 7.381 26.2959C7.61938 26.0808 7.89749 25.8656 8.15573 25.6701C8.33451 25.5332 8.53316 25.3767 8.71194 25.2202C9.1291 24.8682 9.10924 24.477 9.00991 23.9881C8.73181 22.5017 8.59275 21.1718 8.57289 19.9592C8.55302 19.0791 8.71194 18.1794 8.85099 17.3189C8.89072 17.1233 8.91059 16.9277 8.95032 16.7321C8.99005 16.4583 9.08937 16.2041 9.18869 15.9303C9.24829 15.7543 9.30788 15.5782 9.36748 15.4022C9.42707 15.2066 9.4668 14.9915 9.50653 14.7959C9.56612 14.5221 9.62572 14.2287 9.72504 13.9745C9.78464 13.7789 9.94355 13.5442 10.1025 13.4464C10.1025 13.4464 10.1422 13.4269 10.2018 13.4269C10.3408 13.4269 10.5196 13.4855 10.5792 13.5638C10.8971 13.8963 11.2149 14.2874 11.5725 14.7959C12.0691 15.5196 12.7643 15.8912 13.5987 15.8912C13.698 15.8912 13.8172 15.8912 13.9165 15.8716C14.9097 15.7738 15.6646 15.2066 16.1016 14.2287C16.3003 13.7594 16.4195 13.2704 16.4791 12.8792C16.6181 12.1165 16.3201 11.4711 15.5653 10.8843C15.0289 10.4541 14.3138 10.2194 13.5788 10.2194C12.9233 10.2194 12.2876 10.415 11.8108 10.767C11.5129 10.9821 11.2745 11.2755 11.0361 11.5689C10.9765 11.6275 10.9368 11.7058 10.8772 11.7645C10.758 11.9014 10.6388 11.9796 10.4998 11.9796C10.3806 11.9796 10.2614 11.9405 10.1223 11.8231C9.74491 11.5493 9.34761 11.2951 8.97018 11.0213C8.03654 10.3758 7.08303 9.73044 6.16925 9.06547C5.99047 8.92857 5.97061 8.73299 6.0302 8.57653C6.06993 8.43962 6.20898 8.28316 6.40763 8.28316C6.42749 8.28316 6.44736 8.28316 6.46722 8.28316C6.48709 8.28316 6.50695 8.28316 6.52682 8.28316C7.12276 8.43962 7.69884 8.65476 8.27492 8.8699C8.43383 8.92857 8.57289 8.98724 8.73181 9.04592C8.91059 9.10459 9.08937 9.18282 9.24829 9.26105C9.50653 9.3784 9.76477 9.49575 10.0429 9.57398C10.2217 9.63265 10.4203 9.65221 10.5792 9.65221C10.7381 9.65221 10.8573 9.63265 10.9765 9.57398C11.2944 9.41752 11.5923 9.26106 11.9102 9.10459C13.1616 8.45918 14.4727 7.81378 15.6646 7.03146C16.34 6.60119 16.8962 5.99489 17.4524 5.40816C17.6908 5.15391 17.949 4.89966 18.1874 4.64541C18.247 4.58673 18.3066 4.5085 18.3662 4.44983C18.4854 4.33248 18.5847 4.21513 18.7039 4.1369C18.8032 4.05867 18.9621 4 19.0615 4C19.0813 4 19.1012 4 19.1012 4C19.2601 4.07823 19.419 4.25425 19.4588 4.43027C19.4985 4.58673 19.4786 4.82143 19.3793 4.95833L19.3197 5.03656C18.8827 5.72109 18.4258 6.42517 17.9093 7.05102C17.6312 7.3835 17.3134 7.67687 16.9955 7.97024C16.8168 8.14626 16.6181 8.32228 16.4393 8.51786C16.1215 8.85034 15.9824 9.10459 16.0023 9.35884C16.0222 9.59354 16.1811 9.78911 16.4791 10.0042C17.5319 10.7279 18.0086 11.7645 17.9093 13.1139C17.8497 13.8376 18.2073 14.3265 18.5649 14.7959C18.6443 14.9133 18.7238 15.0306 18.8032 15.148C20.1938 17.2211 20.3725 19.1964 19.3396 21.2304C19.2204 21.4651 19.0813 21.6998 18.9224 21.8758C17.4326 23.3818 15.5255 24.4184 13.0623 25.0247C13.0623 25.0247 12.8835 25.0638 12.665 25.0638C12.3472 25.0638 12.1684 24.966 12.1485 24.79C12.1287 24.6531 12.2081 24.4966 12.3671 24.3206C12.5458 24.1054 12.8041 23.9685 13.0027 23.9685C13.0226 23.9685 13.0425 23.9685 13.0425 23.9685C13.2014 23.9881 13.3603 24.0076 13.5391 24.0076C14.135 24.0076 14.7508 23.8512 15.3865 23.5187L15.6447 23.4014C16.2009 23.1275 16.777 22.8342 17.2736 22.443C18.6443 21.3673 19.2204 19.8223 18.982 17.8274C18.9224 17.3189 18.7834 16.7517 18.545 16.1063C18.5053 16.0281 18.4655 15.9303 18.3861 15.8325C18.2867 15.6956 18.1278 15.6369 17.9689 15.6369C17.7107 15.6369 17.4524 15.8325 17.4524 16.1454C17.4524 16.4388 17.5518 16.693 17.6511 16.9473L17.6908 17.0646C18.1278 18.2381 18.0285 19.4311 17.3531 20.7024C17.3134 20.7611 17.2736 20.8197 17.2141 20.8784C17.1942 20.898 17.1743 20.9175 17.1346 20.9175C17.0949 20.9175 17.075 20.898 17.0353 20.8784C17.0154 20.8588 16.9955 20.8393 17.0154 20.7806C17.1743 19.6854 17.3332 18.2577 17.075 16.7321C17.0551 16.5757 16.9359 16.4583 16.777 16.4192C16.7373 16.4192 16.7174 16.3997 16.6777 16.3997C16.638 16.3997 16.6181 16.3997 16.5982 16.3997C16.3599 16.3997 16.1811 16.5757 16.1414 16.8104V16.9082C16.1215 17.2015 16.0818 17.4949 16.1016 17.7883C16.1612 19.1964 15.9824 20.409 15.5653 21.5042C15.5454 21.5434 15.3865 21.7194 15.3468 21.7781C15.307 21.8172 15.2474 21.8367 15.1878 21.8367C15.0687 21.8367 14.9693 21.7585 14.9296 21.6412C14.9097 21.5434 14.8899 21.4651 14.9097 21.426C15.4064 20.0765 15.3666 18.7075 15.2872 17.6709C15.2872 17.6122 15.2673 17.5731 15.2474 17.5145C15.1481 17.3384 14.9892 17.2406 14.7906 17.2406C14.6316 17.2406 14.4926 17.2993 14.3734 17.4167C14.3138 17.4949 14.2741 17.5731 14.2542 17.6318C14.2145 17.8861 14.2343 18.1403 14.2343 18.3946C14.2343 18.6879 14.2343 18.9617 14.1946 19.2355C14.0754 19.9201 13.8569 20.6046 13.6384 21.2696L13.5987 21.3673C13.5987 21.3673 13.5987 21.3673 13.5788 21.3869C13.5589 21.4065 13.5192 21.426 13.4795 21.426C13.4199 21.426 13.3404 21.3673 13.3206 21.2891C13.3206 21.2696 13.3206 21.2304 13.3206 21.2109C13.3603 20.7611 13.3802 20.3112 13.4199 19.8614C13.4795 19.0791 13.5391 18.2772 13.5788 17.4753C13.5788 17.4167 13.5589 17.358 13.5192 17.2798C13.4199 17.1429 13.261 17.0451 13.0822 17.0451C12.963 17.0451 12.8438 17.0842 12.7445 17.1624C12.665 17.2211 12.5458 17.3189 12.526 17.4558C12.4664 17.6514 12.4862 17.8665 12.4862 18.0621C12.4862 18.2185 12.5061 18.375 12.4664 18.5315C12.3472 19.216 12.228 19.9201 12.1088 20.585C12.0095 21.1718 11.9102 21.7389 11.8108 22.3257C11.493 24.2619 10.1223 25.4745 8.61262 26.6284C8.27492 26.9022 7.81803 26.9804 7.55978 27ZM10.3408 21.3478C10.0826 21.3478 9.88396 21.426 9.74491 21.5629C9.62572 21.6998 9.56612 21.8954 9.58599 22.1301V22.2474C9.60585 22.5408 9.64558 22.8537 9.72504 23.1471C9.78464 23.3231 10.0031 23.5969 10.2018 23.5969C10.4402 23.5774 10.7381 23.4405 10.8573 23.2253C10.9765 23.0102 11.056 22.756 11.1354 22.5017C11.1553 22.4039 11.195 22.3061 11.2149 22.2083C11.2149 22.1888 11.2149 22.1888 11.2149 22.1692C11.1752 21.5825 10.9368 21.3478 10.3408 21.3478ZM10.619 18.7857C9.98328 18.7857 9.72504 19.0204 9.70518 19.6267C9.68531 19.9983 9.74491 20.233 9.90383 20.3895C10.0429 20.5264 10.2614 20.6046 10.5792 20.6241C10.6984 20.6241 10.7779 20.6241 10.8772 20.6241C11.493 20.6241 11.493 20.4286 11.5129 19.7832C11.5327 19.1573 11.4135 18.8248 10.7779 18.7857C10.6984 18.7857 10.6587 18.7857 10.619 18.7857ZM10.6587 15.9498C10.1422 15.9498 10.0826 16.3801 10.0429 16.6735C10.0429 16.7126 10.023 16.7517 10.023 16.7908C9.98329 17.0842 9.92369 17.6122 10.1621 17.8078C10.3806 18.0034 10.7381 18.0816 10.9964 18.0816C11.0957 18.0816 11.1752 18.0816 11.2546 18.0621C11.5327 18.0034 11.6519 17.2798 11.6519 17.2798C11.6519 17.2406 11.6718 17.2211 11.6519 17.182V17.1233C11.6519 17.0646 11.6519 17.0255 11.6519 16.9668C11.6321 16.4192 11.2944 16.0476 10.7779 15.9694C10.7381 15.9498 10.6984 15.9498 10.6587 15.9498Z" fill="#D34747"/>
<path d="M20.6619 39C20.6435 39 20.6251 39 20.6066 39C20.5698 38.9806 20.5329 38.9806 20.4777 38.9612C17.3086 37.9338 15.0608 35.8013 13.7711 32.622C13.3657 31.6139 13.0525 30.5283 12.7393 29.4814C12.684 29.2876 12.6287 29.0937 12.5735 28.8998C12.4998 28.6478 12.3708 28.2213 11.9654 28.2213C11.9102 28.2213 11.8733 28.2213 11.818 28.2407C11.6522 28.2795 11.5417 28.357 11.468 28.4733C11.339 28.6672 11.3759 28.9386 11.4311 29.1519C11.5232 29.5784 11.6154 30.0048 11.7259 30.4313C11.8549 30.9354 11.9654 31.4782 12.076 32.0016C12.076 32.0404 12.0944 32.0792 12.0944 32.1179C12.0944 32.3118 11.9286 32.4475 11.7812 32.4475C11.7259 32.4475 11.6891 32.4281 11.6338 32.4087C11.6154 32.3893 11.5969 32.37 11.5785 32.3506C11.339 31.9628 11.1732 31.517 10.9889 31.0905L10.8968 30.8772C10.8415 30.7415 10.8047 30.567 10.7863 30.3538C10.7494 29.9467 10.5099 29.6559 10.1967 29.6559C10.1414 29.6559 10.0861 29.6753 10.0308 29.6947C9.75448 29.7916 9.49653 30.1987 9.44126 30.5089C9.36756 30.8578 9.36756 31.2068 9.34913 31.5363C9.34913 31.7496 9.33071 31.9822 9.31229 32.1955C9.31229 32.2149 9.31229 32.2342 9.31229 32.273C9.29386 32.4863 9.27543 32.6995 9.14646 32.6995H9.10961C9.09119 32.6995 9.07276 32.6995 9.07276 32.6995C8.98064 32.6995 8.92536 32.5444 8.87009 32.3312C8.83324 32.1955 8.79639 32.0792 8.74112 31.9822C8.72269 31.9435 8.68585 31.9241 8.66742 31.8853C8.48317 31.6333 8.37262 31.4976 8.24365 31.4976H8.2068C7.94886 31.5751 7.72776 31.8271 7.61721 32.0404C7.54351 32.1761 7.52509 32.3312 7.50666 32.4863C7.48824 32.6414 7.46981 32.7771 7.39611 32.8934C7.37769 32.9321 7.34084 32.9903 7.32242 33.0485C7.24872 33.2036 7.13817 33.4362 7.02762 33.4362C7.0092 33.4362 6.99077 33.4362 6.95392 33.4168C6.9355 33.3393 6.9355 33.126 6.9355 32.9903C6.9355 32.874 6.9355 32.7577 6.91707 32.6607C6.91707 32.5832 6.9355 32.3506 6.95392 32.1373C6.95392 32.0404 6.97235 31.9435 6.97235 31.8465C6.97235 31.7496 6.95392 31.672 6.89865 31.5945C6.84337 31.517 6.75125 31.4782 6.65913 31.4782C6.567 31.4782 6.47488 31.5363 6.40118 31.6139C6.32748 31.7302 6.23536 31.8659 6.16166 31.9822C6.06954 32.1373 5.97741 32.273 5.94056 32.3118C5.81159 32.4863 5.70104 32.6801 5.60892 32.874L5.57207 32.9321C5.53522 32.9903 5.47995 33.0291 5.42467 33.0291C5.35097 32.9321 5.42467 32.7383 5.46152 32.6026C5.49837 32.4669 5.57207 32.3312 5.62734 32.2149C5.71947 32.0404 5.81159 31.8659 5.84844 31.6721C5.88529 31.4976 5.83001 31.3231 5.77474 31.168C5.71947 30.9935 5.57207 30.8772 5.40625 30.8772C5.35097 30.8772 5.31412 30.8772 5.27727 30.8966C5.12988 30.9548 4.98248 31.0129 4.90878 31.1486C4.77981 31.4006 4.68768 31.6721 4.61399 31.9241C4.57714 32.0598 4.52186 32.1955 4.48501 32.3312C4.46659 32.3893 4.44816 32.4475 4.42974 32.5057C4.37446 32.7189 4.33761 32.7964 4.26391 32.7964C4.24549 32.7964 4.20864 32.7964 4.17179 32.7771C4.11652 32.7577 4.00597 32.5057 4.00597 32.2924C3.9507 31.517 4.28234 30.6446 4.87193 29.9855C5.4431 29.3457 6.21693 28.958 6.97235 28.958C7.0092 28.958 7.04605 28.958 7.0829 28.958C7.15659 28.958 7.23029 28.958 7.30399 28.958C8.3542 28.958 9.12804 28.609 9.994 27.7561C10.5836 27.1745 11.3943 26.7868 12.1681 26.4184C12.4261 26.3021 12.684 26.1664 12.942 26.0501C13.5868 25.7205 14.2685 25.391 14.9134 25.0614C15.9083 24.5767 16.9401 24.0727 17.935 23.5105C19.3353 22.7351 20.1644 21.3199 20.8461 19.9047C20.9751 19.6527 21.0857 19.4006 21.1962 19.1486C21.6568 18.1599 22.1175 17.1325 22.8544 16.2989C23.6467 15.4071 24.3653 15 25.1944 15C25.3234 15 25.4523 15.0194 25.5813 15.0388C26.3551 15.1551 26.9816 15.9693 27 16.8611C27 17.7334 26.4657 18.3926 25.6181 18.5477C25.2497 18.6058 24.8996 18.6446 24.5864 18.6446C24.5311 18.6446 24.4942 18.6446 24.439 18.6446C24.2731 18.6446 24.052 18.5477 23.9968 18.412C23.9231 18.2181 24.0152 18.1405 24.1626 18.0436C24.3468 17.9273 24.5495 17.8498 24.7706 17.7722C24.8443 17.7528 24.918 17.7141 24.9917 17.6947C25.0654 17.6753 25.1391 17.6559 25.2312 17.6365C25.4155 17.5977 25.5997 17.559 25.7103 17.4233C26.0972 17.0162 26.1525 16.5703 25.8577 16.1825C25.6918 15.9693 25.4708 15.853 25.2312 15.853C25.0838 15.853 24.9364 15.8918 24.789 15.9499C23.9599 16.3183 23.444 17.1131 23.0203 17.7334C22.6149 18.3538 22.3017 19.0323 22.0253 19.6527C21.491 20.8546 20.883 22.0953 19.8881 23.0258C19.5196 23.3554 19.3906 23.7819 19.5011 24.2666C19.7038 25.2359 19.7407 26.2827 19.5933 27.504C19.4459 28.7254 19.1511 29.7334 18.6905 30.5864C18.6536 30.664 18.5799 30.7221 18.4878 30.7803C18.4509 30.7997 18.4325 30.8384 18.3957 30.8578C18.3588 30.8578 18.322 30.8384 18.3035 30.8191C18.2851 30.7997 18.2851 30.7803 18.3035 30.7609C18.3588 30.5864 18.4141 30.412 18.4694 30.2569C18.5062 30.1212 18.5431 30.0242 18.5799 29.9273C19.0405 28.5121 19.1879 26.9418 19.0774 25.1002C19.0774 25.0226 19.059 24.9257 19.0405 24.8481C19.0405 24.8094 19.0221 24.7706 19.0221 24.7124C18.9668 24.4023 18.801 24.2278 18.5799 24.2278C18.5062 24.2278 18.4325 24.2472 18.3588 24.2859C18.1746 24.3635 17.9166 24.6155 17.9166 24.8481C17.8982 25.4103 17.8982 25.9919 17.9166 26.5541C17.9166 26.8061 17.9903 27.1745 17.9903 27.4459C17.9903 27.5428 18.064 27.9499 18.064 28.1244C18.0824 28.3764 18.064 28.4927 18.064 28.6284C18.064 28.6284 18.0087 29.0549 17.8613 29.0162C17.7508 28.9774 17.7508 28.6672 17.7508 28.6672C17.7876 28.3764 17.7876 27.9693 17.7692 27.7948C17.7508 27.6591 17.7324 27.5622 17.7139 27.5234C17.585 26.9418 17.4929 26.3603 17.4007 25.8562C17.3639 25.5848 17.2902 25.2165 16.9401 25.2165C16.9033 25.2165 16.8664 25.2165 16.8296 25.2359C16.59 25.294 16.4058 25.4103 16.2952 25.5848C16.2031 25.7205 16.1847 25.895 16.2215 26.0889C16.3689 26.7867 16.5348 27.4847 16.719 28.1632L16.8111 28.5509C16.8664 28.7641 16.9401 28.958 16.9954 29.1712C17.0322 29.2682 17.0507 29.3457 17.0875 29.4427C17.0875 29.462 17.0875 29.4814 17.0691 29.5008C17.0507 29.5202 17.0322 29.5396 16.9954 29.5396C16.977 29.5396 16.9401 29.5202 16.9217 29.5008C16.7559 29.2682 16.6269 29.0549 16.59 28.958C16.4242 28.5509 16.2952 28.1244 16.1847 27.7173C16.1479 27.5816 16.111 27.4459 16.0742 27.3102C16.0557 27.252 16.0373 27.1745 16.0373 27.1163C16.0189 27.0194 16.0005 26.9418 15.982 26.8449C15.9636 26.8061 15.9636 26.7867 15.9452 26.748C15.8531 26.496 15.7425 26.1664 15.374 26.1664C15.3372 26.1664 15.3187 26.1664 15.2819 26.1664C15.1161 26.1858 14.9502 26.3215 14.8397 26.5153C14.6923 26.7674 14.6554 27.0582 14.7291 27.2908C14.766 27.4071 14.8028 27.504 14.8397 27.6204C15.0055 28.0856 15.1713 28.5897 15.4109 29.0162C15.7057 29.559 16.0373 30.0824 16.3689 30.5864C16.5348 30.8578 16.719 31.1292 16.8848 31.42C17.2165 31.9628 17.1981 32.1373 17.1796 32.1761C17.1796 32.1761 17.1612 32.1955 17.1244 32.2149C16.2952 31.9822 15.9083 31.2456 15.5398 30.5477L15.4661 30.4313C15.2082 29.9273 15.0239 29.3845 14.8397 28.8417C14.766 28.609 14.6739 28.357 14.5817 28.1244C14.5449 28.0468 14.5265 27.9499 14.4896 27.8724C14.4344 27.6591 14.3054 27.252 13.9553 27.252C13.9 27.252 13.8263 27.2714 13.7711 27.2908C13.5684 27.3683 13.4026 27.504 13.3104 27.6979C13.2183 27.8918 13.1999 28.1244 13.2736 28.3376L13.3104 28.454C13.6789 29.6365 14.0659 30.8772 14.5449 32.0404C14.8765 32.874 15.3556 33.6688 15.7609 34.3279C16.6269 35.7237 17.9719 36.538 19.2432 37.3134C19.4459 37.4491 19.667 37.5654 19.8696 37.7011C20.2197 37.9338 20.5698 38.1858 20.9014 38.4184L20.9751 38.4766C21.1225 38.5735 21.0857 38.7286 21.0672 38.7674C20.8646 38.9031 20.7909 39 20.6619 39Z" fill="#39A939"/>
<circle cx="13.6" cy="12.9" r="1.1" fill="#39538D"/>
</svg>
