<svg width="32" height="44" viewBox="0 0 32 44" fill="none" xmlns="http://www.w3.org/2000/svg">
<path d="M21.8735 22.1093C21.8735 20.896 20.8885 19.9106 19.6745 19.9106V14.448C20.8885 14.448 21.8735 13.464 21.8735 12.2506C21.8735 11.036 20.8885 10.0506 19.6745 10.0506C19.2375 10.0506 18.8323 10.1826 18.4896 10.4026C18.2005 9.52531 17.3844 8.88797 16.4104 8.88797C15.436 8.88797 14.6197 9.52531 14.3317 10.4026C13.9885 10.1826 13.5833 10.0506 13.1459 10.0506C11.9323 10.0506 10.9479 11.036 10.9479 12.2506C10.9479 13.464 11.9323 14.448 13.1459 14.448V19.9106C11.9323 19.9106 10.9479 20.896 10.9479 22.1093C10.9479 23.324 11.9323 24.308 13.1459 24.308V29.7706C11.9323 29.7706 10.9479 30.7546 10.9479 31.9693C10.9479 33.1826 11.9323 34.168 13.1459 34.168C13.5833 34.168 13.9885 34.036 14.3317 33.816C14.6197 34.6933 15.436 35.332 16.4104 35.332C17.3844 35.332 18.2005 34.6933 18.4896 33.816C18.8323 34.036 19.2375 34.168 19.6745 34.168C20.8885 34.168 21.8735 33.1826 21.8735 31.9693C21.8735 30.7546 20.8885 29.7706 19.6745 29.7706V24.308C20.8885 24.308 21.8735 23.324 21.8735 22.1093ZM15.6547 12.552C15.6547 12.1346 15.9932 11.7973 16.4104 11.7973C16.8276 11.7973 17.1656 12.1346 17.1656 12.552V17.0973C17.1656 17.5146 16.8276 17.8533 16.4104 17.8533C15.9932 17.8533 15.6547 17.5146 15.6547 17.0973V12.552ZM17.1656 31.6666C17.1656 32.084 16.8276 32.4226 16.4104 32.4226C15.9932 32.4226 15.6547 32.084 15.6547 31.6666V27.1213C15.6547 26.7053 15.9932 26.3666 16.4104 26.3666C16.8276 26.3666 17.1656 26.7053 17.1656 27.1213V31.6666ZM18.1016 22.864H14.7188C14.3021 22.864 13.9636 22.5266 13.9636 22.1093C13.9636 21.6933 14.3021 21.3546 14.7188 21.3546H18.1016C18.5183 21.3546 18.8563 21.6933 18.8563 22.1093C18.8563 22.5266 18.5183 22.864 18.1016 22.864Z" fill="#74BA24"/>
</svg>
