<svg width="32" height="44" viewBox="0 0 32 44" fill="none" xmlns="http://www.w3.org/2000/svg">
<path d="M19.4026 12.9267C19.4026 12.1707 18.7893 11.5573 18.0333 11.5573V8.15467C18.7893 8.15467 19.4026 7.54134 19.4026 6.784C19.4026 6.028 18.7893 5.41467 18.0333 5.41467C17.7613 5.41467 17.508 5.49734 17.2946 5.63334C17.1146 5.088 16.6066 4.69068 16 4.69068C15.3933 4.69068 14.884 5.088 14.7053 5.63334C14.4906 5.49734 14.2386 5.41467 13.9666 5.41467C13.2093 5.41467 12.5973 6.028 12.5973 6.784C12.5973 7.54134 13.2093 8.15467 13.9666 8.15467V11.5573C13.2093 11.5573 12.5973 12.1707 12.5973 12.9267C12.5973 13.6827 13.2093 14.296 13.9666 14.296V17.7C13.2093 17.7 12.5973 18.3133 12.5973 19.0693C12.5973 19.8253 13.2093 20.4387 13.9666 20.4387C14.2386 20.4387 14.4906 20.3573 14.7053 20.22C14.884 20.7667 15.3933 21.164 16 21.164C16.6066 21.164 17.1146 20.7667 17.2946 20.22C17.508 20.3573 17.7613 20.4387 18.0333 20.4387C18.7893 20.4387 19.4026 19.8253 19.4026 19.0693C19.4026 18.3133 18.7893 17.7 18.0333 17.7V14.296C18.7893 14.296 19.4026 13.6827 19.4026 12.9267ZM15.5293 6.97334C15.5293 6.71201 15.74 6.50267 16 6.50267C16.26 6.50267 16.4693 6.71201 16.4693 6.97334V9.80534C16.4693 10.064 16.26 10.276 16 10.276C15.74 10.276 15.5293 10.064 15.5293 9.80534V6.97334ZM16.4693 18.8813C16.4693 19.1413 16.26 19.352 16 19.352C15.74 19.352 15.5293 19.1413 15.5293 18.8813V16.0493C15.5293 15.7893 15.74 15.5787 16 15.5787C16.26 15.5787 16.4693 15.7893 16.4693 16.0493V18.8813ZM17.052 13.3973H14.9453C14.6866 13.3973 14.476 13.1867 14.476 12.9267C14.476 12.6667 14.6866 12.4573 14.9453 12.4573H17.052C17.3133 12.4573 17.524 12.6667 17.524 12.9267C17.524 13.1867 17.3133 13.3973 17.052 13.3973Z" fill="#74BA24"/>
<path d="M19.4026 31.292C19.4026 30.536 18.7893 29.9226 18.0333 29.9226V26.5186C18.7893 26.5186 19.4026 25.9053 19.4026 25.1493C19.4026 24.3933 18.7893 23.78 18.0333 23.78C17.7613 23.78 17.508 23.8613 17.2946 23.9986C17.1146 23.452 16.6066 23.0546 16 23.0546C15.3933 23.0546 14.884 23.452 14.7053 23.9986C14.4906 23.8613 14.2386 23.78 13.9666 23.78C13.2093 23.78 12.5973 24.3933 12.5973 25.1493C12.5973 25.9053 13.2093 26.5186 13.9666 26.5186V29.9226C13.2093 29.9226 12.5973 30.536 12.5973 31.292C12.5973 32.048 13.2093 32.6613 13.9666 32.6613V36.064C13.2093 36.064 12.5973 36.6786 12.5973 37.4346C12.5973 38.1906 13.2093 38.804 13.9666 38.804C14.2386 38.804 14.4906 38.7226 14.7053 38.5853C14.884 39.132 15.3933 39.528 16 39.528C16.6066 39.528 17.1146 39.132 17.2946 38.5853C17.508 38.7226 17.7613 38.804 18.0333 38.804C18.7893 38.804 19.4026 38.1906 19.4026 37.4346C19.4026 36.6786 18.7893 36.064 18.0333 36.064V32.6613C18.7893 32.6613 19.4026 32.048 19.4026 31.292ZM15.5293 25.3386C15.5293 25.0786 15.74 24.8666 16 24.8666C16.26 24.8666 16.4693 25.0786 16.4693 25.3386V28.1693C16.4693 28.4293 16.26 28.64 16 28.64C15.74 28.64 15.5293 28.4293 15.5293 28.1693V25.3386ZM16.4693 37.2453C16.4693 37.5066 16.26 37.716 16 37.716C15.74 37.716 15.5293 37.5066 15.5293 37.2453V34.4146C15.5293 34.1546 15.74 33.944 16 33.944C16.26 33.944 16.4693 34.1546 16.4693 34.4146V37.2453ZM17.052 31.7626H14.9453C14.6866 31.7626 14.476 31.552 14.476 31.292C14.476 31.032 14.6866 30.8213 14.9453 30.8213H17.052C17.3133 30.8213 17.524 31.032 17.524 31.292C17.524 31.552 17.3133 31.7626 17.052 31.7626Z" fill="#74BA24"/>
</svg>
