<svg width="32" height="44" viewBox="0 0 32 44" fill="none" xmlns="http://www.w3.org/2000/svg">
<path d="M13.3413 31.292C13.3413 30.536 12.728 29.9226 11.972 29.9226V26.5186C12.728 26.5186 13.3413 25.9053 13.3413 25.1493C13.3413 24.3933 12.728 23.78 11.972 23.78C11.7 23.78 11.448 23.8613 11.2333 23.9986C11.0533 23.452 10.5453 23.0546 9.93867 23.0546C9.33201 23.0546 8.82268 23.452 8.64268 23.9986C8.42934 23.8613 8.17734 23.78 7.90534 23.78C7.14801 23.78 6.53467 24.3933 6.53467 25.1493C6.53467 25.9053 7.14801 26.5186 7.90534 26.5186V29.9226C7.14801 29.9226 6.53467 30.536 6.53467 31.292C6.53467 32.048 7.14801 32.6613 7.90534 32.6613V36.064C7.14801 36.064 6.53467 36.6786 6.53467 37.4346C6.53467 38.1906 7.14801 38.804 7.90534 38.804C8.17734 38.804 8.42934 38.7226 8.64268 38.5853C8.82268 39.132 9.33201 39.528 9.93867 39.528C10.5453 39.528 11.0533 39.132 11.2333 38.5853C11.4467 38.7226 11.7 38.804 11.972 38.804C12.728 38.804 13.3413 38.1906 13.3413 37.4346C13.3413 36.6786 12.728 36.064 11.972 36.064V32.6613C12.728 32.6613 13.3413 32.048 13.3413 31.292ZM9.468 25.3386C9.468 25.0786 9.67867 24.8666 9.93867 24.8666C10.1973 24.8666 10.408 25.0786 10.408 25.3386V28.1693C10.408 28.4293 10.1973 28.64 9.93867 28.64C9.67867 28.64 9.468 28.4293 9.468 28.1693V25.3386ZM10.408 37.2453C10.408 37.5066 10.1973 37.716 9.93867 37.716C9.67867 37.716 9.468 37.5066 9.468 37.2453V34.4146C9.468 34.1546 9.67867 33.944 9.93867 33.944C10.1973 33.944 10.408 34.1546 10.408 34.4146V37.2453ZM10.9907 31.7626H8.88532C8.62532 31.7626 8.41468 31.552 8.41468 31.292C8.41468 31.032 8.62532 30.8213 8.88532 30.8213H10.9907C11.252 30.8213 11.4627 31.032 11.4627 31.292C11.4627 31.552 11.252 31.7626 10.9907 31.7626Z" fill="#74BA24"/>
<path d="M18.992 12.9267C18.992 12.1707 18.3786 11.5573 17.6213 11.5573V8.15467C18.3786 8.15467 18.992 7.54134 18.992 6.784C18.992 6.028 18.3786 5.41467 17.6213 5.41467C17.3493 5.41467 17.0973 5.49734 16.884 5.63334C16.704 5.088 16.1946 4.69068 15.588 4.69068C14.9813 4.69068 14.4733 5.088 14.2933 5.63334C14.08 5.49734 13.828 5.41467 13.5546 5.41467C12.7986 5.41467 12.1853 6.028 12.1853 6.784C12.1853 7.54134 12.7986 8.15467 13.5546 8.15467V11.5573C12.7986 11.5573 12.1853 12.1707 12.1853 12.9267C12.1853 13.6827 12.7986 14.296 13.5546 14.296V17.7C12.7986 17.7 12.1853 18.3133 12.1853 19.0693C12.1853 19.8253 12.7986 20.4387 13.5546 20.4387C13.828 20.4387 14.08 20.3573 14.2933 20.22C14.4733 20.7667 14.9813 21.164 15.588 21.164C16.1946 21.164 16.704 20.7667 16.884 20.22C17.0973 20.3573 17.3493 20.4387 17.6213 20.4387C18.3786 20.4387 18.992 19.8253 18.992 19.0693C18.992 18.3133 18.3786 17.7 17.6213 17.7V14.296C18.3786 14.296 18.992 13.6827 18.992 12.9267ZM15.1173 6.97334C15.1173 6.71201 15.328 6.50267 15.588 6.50267C15.848 6.50267 16.0586 6.71201 16.0586 6.97334V9.80534C16.0586 10.064 15.848 10.276 15.588 10.276C15.328 10.276 15.1173 10.064 15.1173 9.80534V6.97334ZM16.0586 18.8813C16.0586 19.1413 15.848 19.352 15.588 19.352C15.328 19.352 15.1173 19.1413 15.1173 18.8813V16.0493C15.1173 15.7893 15.328 15.5787 15.588 15.5787C15.848 15.5787 16.0586 15.7893 16.0586 16.0493V18.8813ZM16.6413 13.3973H14.5347C14.2747 13.3973 14.064 13.1867 14.064 12.9267C14.064 12.6667 14.2747 12.4573 14.5347 12.4573H16.6413C16.9013 12.4573 17.112 12.6667 17.112 12.9267C17.112 13.1867 16.9013 13.3973 16.6413 13.3973Z" fill="#74BA24"/>
<path d="M24.6413 31.292C24.6413 30.536 24.028 29.9226 23.272 29.9226V26.5186C24.028 26.5186 24.6413 25.9053 24.6413 25.1493C24.6413 24.3933 24.028 23.78 23.272 23.78C23 23.78 22.748 23.8613 22.5333 23.9986C22.3547 23.452 21.8453 23.0546 21.2387 23.0546C20.632 23.0546 20.124 23.452 19.944 23.9986C19.7307 23.8613 19.4787 23.78 19.2053 23.78C18.4493 23.78 17.836 24.3933 17.836 25.1493C17.836 25.9053 18.4493 26.5186 19.2053 26.5186V29.9226C18.4493 29.9226 17.836 30.536 17.836 31.292C17.836 32.048 18.4493 32.6613 19.2053 32.6613V36.064C18.4493 36.064 17.836 36.6786 17.836 37.4346C17.836 38.1906 18.4493 38.804 19.2053 38.804C19.4787 38.804 19.7307 38.7226 19.944 38.5853C20.124 39.132 20.632 39.528 21.2387 39.528C21.8453 39.528 22.3547 39.132 22.5333 38.5853C22.748 38.7226 23 38.804 23.272 38.804C24.028 38.804 24.6413 38.1906 24.6413 37.4346C24.6413 36.6786 24.028 36.064 23.272 36.064V32.6613C24.028 32.6613 24.6413 32.048 24.6413 31.292ZM20.7693 25.3386C20.7693 25.0786 20.9787 24.8666 21.2387 24.8666C21.4987 24.8666 21.7093 25.0786 21.7093 25.3386V28.1693C21.7093 28.4293 21.4987 28.64 21.2387 28.64C20.9787 28.64 20.7693 28.4293 20.7693 28.1693V25.3386ZM21.7093 37.2453C21.7093 37.5066 21.4987 37.716 21.2387 37.716C20.9787 37.716 20.7693 37.5066 20.7693 37.2453V34.4146C20.7693 34.1546 20.9787 33.944 21.2387 33.944C21.4987 33.944 21.7093 34.1546 21.7093 34.4146V37.2453ZM22.2933 31.7626H20.1853C19.9253 31.7626 19.7147 31.552 19.7147 31.292C19.7147 31.032 19.9253 30.8213 20.1853 30.8213H22.2933C22.552 30.8213 22.7627 31.032 22.7627 31.292C22.7627 31.552 22.552 31.7626 22.2933 31.7626Z" fill="#74BA24"/>
</svg>
