<svg width="32" height="43" viewBox="0 0 32 43" fill="none" xmlns="http://www.w3.org/2000/svg">
<path d="M14.1636 12.116C14.1636 11.36 13.5505 10.7467 12.7942 10.7467V7.34265C13.5505 7.34265 14.1636 6.73066 14.1636 5.97333C14.1636 5.21733 13.5505 4.60399 12.7942 4.60399C12.5213 4.60399 12.2688 4.68533 12.0557 4.82266C11.8754 4.27599 11.3672 3.87865 10.7604 3.87865C10.1536 3.87865 9.64476 4.27599 9.46503 4.82266C9.25156 4.68533 8.9989 4.60399 8.7265 4.60399C7.97023 4.60399 7.3573 5.21733 7.3573 5.97333C7.3573 6.73066 7.97023 7.34265 8.7265 7.34265V10.7467C7.97023 10.7467 7.3573 11.36 7.3573 12.116C7.3573 12.872 7.97023 13.4853 8.7265 13.4853V16.8893C7.97023 16.8893 7.3573 17.5026 7.3573 18.2586C7.3573 19.0146 7.97023 19.628 8.7265 19.628C8.9989 19.628 9.25156 19.5466 9.46503 19.4093C9.64476 19.956 10.1536 20.352 10.7604 20.352C11.3672 20.352 11.8754 19.956 12.0557 19.4093C12.2688 19.5466 12.5213 19.628 12.7942 19.628C13.5505 19.628 14.1636 19.0146 14.1636 18.2586C14.1636 17.5026 13.5505 16.8893 12.7942 16.8893V13.4853C13.5505 13.4853 14.1636 12.872 14.1636 12.116ZM10.2896 6.16132C10.2896 5.90132 10.5005 5.69066 10.7604 5.69066C11.0197 5.69066 11.2306 5.90132 11.2306 6.16132V8.99332C11.2306 9.25332 11.0197 9.46399 10.7604 9.46399C10.5005 9.46399 10.2896 9.25332 10.2896 8.99332V6.16132ZM11.2306 18.0693C11.2306 18.3307 11.0197 18.54 10.7604 18.54C10.5005 18.54 10.2896 18.3307 10.2896 18.0693V15.2387C10.2896 14.9787 10.5005 14.768 10.7604 14.768C11.0197 14.768 11.2306 14.9787 11.2306 15.2387V18.0693ZM11.8136 12.5867H9.70677C9.44637 12.5867 9.23597 12.376 9.23597 12.116C9.23597 11.856 9.44637 11.6453 9.70677 11.6453H11.8136C12.074 11.6453 12.2844 11.856 12.2844 12.116C12.2844 12.376 12.074 12.5867 11.8136 12.5867Z" fill="#74BA24"/>
<path d="M14.1636 30.4812C14.1636 29.7245 13.5505 29.1114 12.7942 29.1114V25.708C13.5505 25.708 14.1636 25.0946 14.1636 24.3386C14.1636 23.5826 13.5505 22.9693 12.7942 22.9693C12.5213 22.9693 12.2688 23.0507 12.0557 23.188C11.8754 22.6413 11.3672 22.244 10.7604 22.244C10.1536 22.244 9.64476 22.6413 9.46503 23.188C9.25156 23.0507 8.9989 22.9693 8.7265 22.9693C7.97023 22.9693 7.3573 23.5826 7.3573 24.3386C7.3573 25.0946 7.97023 25.708 8.7265 25.708V29.1114C7.97023 29.1114 7.3573 29.7245 7.3573 30.4812C7.3573 31.2374 7.97023 31.851 8.7265 31.851V35.2536C7.97023 35.2536 7.3573 35.8672 7.3573 36.6234C7.3573 37.3802 7.97023 37.9932 8.7265 37.9932C8.9989 37.9932 9.25156 37.9114 9.46503 37.774C9.64476 38.3208 10.1536 38.7177 10.7604 38.7177C11.3672 38.7177 11.8754 38.3208 12.0557 37.774C12.2688 37.9114 12.5213 37.9932 12.7942 37.9932C13.5505 37.9932 14.1636 37.3802 14.1636 36.6234C14.1636 35.8672 13.5505 35.2536 12.7942 35.2536V31.851C13.5505 31.851 14.1636 31.2374 14.1636 30.4812ZM10.2896 24.5266C10.2896 24.2666 10.5005 24.056 10.7604 24.056C11.0197 24.056 11.2306 24.2666 11.2306 24.5266V27.3588C11.2306 27.6188 11.0197 27.8297 10.7604 27.8297C10.5005 27.8297 10.2896 27.6188 10.2896 27.3588V24.5266ZM11.2306 36.4349C11.2306 36.6953 11.0197 36.9057 10.7604 36.9057C10.5005 36.9057 10.2896 36.6953 10.2896 36.4349V33.603C10.2896 33.3432 10.5005 33.1328 10.7604 33.1328C11.0197 33.1328 11.2306 33.3432 11.2306 33.603V36.4349ZM11.8136 30.9516H9.70677C9.44637 30.9516 9.23597 30.7406 9.23597 30.4812C9.23597 30.2213 9.44637 30.0104 9.70677 30.0104H11.8136C12.074 30.0104 12.2844 30.2213 12.2844 30.4812C12.2844 30.7406 12.074 30.9516 11.8136 30.9516Z" fill="#74BA24"/>
<path d="M25.464 12.116C25.464 11.36 24.8505 10.7467 24.0943 10.7467V7.34265C24.8505 7.34265 25.464 6.73066 25.464 5.97333C25.464 5.21733 24.8505 4.60399 24.0943 4.60399C23.8213 4.60399 23.5693 4.68533 23.3563 4.82266C23.1765 4.27599 22.6677 3.87865 22.0609 3.87865C21.4536 3.87865 20.9448 4.27599 20.7651 4.82266C20.5521 4.68533 20.2995 4.60399 20.0271 4.60399C19.2708 4.60399 18.6573 5.21733 18.6573 5.97333C18.6573 6.73066 19.2708 7.34265 20.0271 7.34265V10.7467C19.2708 10.7467 18.6573 11.36 18.6573 12.116C18.6573 12.872 19.2708 13.4853 20.0271 13.4853V16.8893C19.2708 16.8893 18.6573 17.5026 18.6573 18.2586C18.6573 19.0146 19.2708 19.628 20.0271 19.628C20.2995 19.628 20.5521 19.5466 20.7651 19.4093C20.9448 19.956 21.4536 20.352 22.0609 20.352C22.6677 20.352 23.1765 19.956 23.3563 19.4093C23.5693 19.5466 23.8213 19.628 24.0943 19.628C24.8505 19.628 25.464 19.0146 25.464 18.2586C25.464 17.5026 24.8505 16.8893 24.0943 16.8893V13.4853C24.8505 13.4853 25.464 12.872 25.464 12.116ZM21.5902 6.16132C21.5902 5.90132 21.8005 5.69066 22.0609 5.69066C22.3203 5.69066 22.5307 5.90132 22.5307 6.16132V8.99332C22.5307 9.25332 22.3203 9.46399 22.0609 9.46399C21.8005 9.46399 21.5902 9.25332 21.5902 8.99332V6.16132ZM22.5307 18.0693C22.5307 18.3307 22.3203 18.54 22.0609 18.54C21.8005 18.54 21.5902 18.3307 21.5902 18.0693V15.2387C21.5902 14.9787 21.8005 14.768 22.0609 14.768C22.3203 14.768 22.5307 14.9787 22.5307 15.2387V18.0693ZM23.114 12.5867H21.0073C20.7473 12.5867 20.5364 12.376 20.5364 12.116C20.5364 11.856 20.7473 11.6453 21.0073 11.6453H23.114C23.374 11.6453 23.5844 11.856 23.5844 12.116C23.5844 12.376 23.374 12.5867 23.114 12.5867Z" fill="#74BA24"/>
<path d="M25.464 30.4812C25.464 29.7245 24.8505 29.1114 24.0943 29.1114V25.708C24.8505 25.708 25.464 25.0946 25.464 24.3386C25.464 23.5826 24.8505 22.9693 24.0943 22.9693C23.8213 22.9693 23.5693 23.0507 23.3563 23.188C23.1765 22.6413 22.6677 22.244 22.0609 22.244C21.4536 22.244 20.9448 22.6413 20.7651 23.188C20.5521 23.0507 20.2995 22.9693 20.0271 22.9693C19.2708 22.9693 18.6573 23.5826 18.6573 24.3386C18.6573 25.0946 19.2708 25.708 20.0271 25.708V29.1114C19.2708 29.1114 18.6573 29.7245 18.6573 30.4812C18.6573 31.2374 19.2708 31.851 20.0271 31.851V35.2536C19.2708 35.2536 18.6573 35.8672 18.6573 36.6234C18.6573 37.3802 19.2708 37.9932 20.0271 37.9932C20.2995 37.9932 20.5521 37.9114 20.7651 37.774C20.9448 38.3208 21.4536 38.7177 22.0609 38.7177C22.6677 38.7177 23.1765 38.3208 23.3563 37.774C23.5693 37.9114 23.8213 37.9932 24.0943 37.9932C24.8505 37.9932 25.464 37.3802 25.464 36.6234C25.464 35.8672 24.8505 35.2536 24.0943 35.2536V31.851C24.8505 31.851 25.464 31.2374 25.464 30.4812ZM21.5902 24.5266C21.5902 24.2666 21.8005 24.056 22.0609 24.056C22.3203 24.056 22.5307 24.2666 22.5307 24.5266V27.3588C22.5307 27.6188 22.3203 27.8297 22.0609 27.8297C21.8005 27.8297 21.5902 27.6188 21.5902 27.3588V24.5266ZM22.5307 36.4349C22.5307 36.6953 22.3203 36.9057 22.0609 36.9057C21.8005 36.9057 21.5902 36.6953 21.5902 36.4349V33.603C21.5902 33.3432 21.8005 33.1328 22.0609 33.1328C22.3203 33.1328 22.5307 33.3432 22.5307 33.603V36.4349ZM23.114 30.9516H21.0073C20.7473 30.9516 20.5364 30.7406 20.5364 30.4812C20.5364 30.2213 20.7473 30.0104 21.0073 30.0104H23.114C23.374 30.0104 23.5844 30.2213 23.5844 30.4812C23.5844 30.7406 23.374 30.9516 23.114 30.9516Z" fill="#74BA24"/>
</svg>
