<svg width="32" height="43" viewBox="0 0 32 43" fill="none" xmlns="http://www.w3.org/2000/svg">
<path d="M11.94 12.116C11.94 11.36 11.3266 10.7467 10.5706 10.7467V7.34265C11.3266 7.34265 11.94 6.73066 11.94 5.97333C11.94 5.21733 11.3266 4.60399 10.5706 4.60399C10.2986 4.60399 10.0453 4.68533 9.83197 4.82266C9.65197 4.27599 9.14397 3.87865 8.5373 3.87865C7.93064 3.87865 7.42131 4.27599 7.24131 4.82266C7.02798 4.68533 6.77597 4.60399 6.50397 4.60399C5.74664 4.60399 5.1333 5.21733 5.1333 5.97333C5.1333 6.73066 5.74664 7.34265 6.50397 7.34265V10.7467C5.74664 10.7467 5.1333 11.36 5.1333 12.116C5.1333 12.872 5.74664 13.4853 6.50397 13.4853V16.8893C5.74664 16.8893 5.1333 17.5026 5.1333 18.2586C5.1333 19.0146 5.74664 19.628 6.50397 19.628C6.77597 19.628 7.02798 19.5466 7.24131 19.4093C7.42131 19.956 7.93064 20.352 8.5373 20.352C9.14397 20.352 9.65197 19.956 9.83197 19.4093C10.0453 19.5466 10.2986 19.628 10.5706 19.628C11.3266 19.628 11.94 19.0146 11.94 18.2586C11.94 17.5026 11.3266 16.8893 10.5706 16.8893V13.4853C11.3266 13.4853 11.94 12.872 11.94 12.116ZM8.06663 6.16132C8.06663 5.90132 8.2773 5.69066 8.5373 5.69066C8.7973 5.69066 9.00664 5.90132 9.00664 6.16132V8.99332C9.00664 9.25332 8.7973 9.46399 8.5373 9.46399C8.2773 9.46399 8.06663 9.25332 8.06663 8.99332V6.16132ZM9.00664 18.0693C9.00664 18.3307 8.7973 18.54 8.5373 18.54C8.2773 18.54 8.06663 18.3307 8.06663 18.0693V15.2387C8.06663 14.9787 8.2773 14.768 8.5373 14.768C8.7973 14.768 9.00664 14.9787 9.00664 15.2387V18.0693ZM9.59064 12.5867H7.48397C7.22397 12.5867 7.0133 12.376 7.0133 12.116C7.0133 11.856 7.22397 11.6453 7.48397 11.6453H9.59064C9.85064 11.6453 10.0613 11.856 10.0613 12.116C10.0613 12.376 9.85064 12.5867 9.59064 12.5867Z" fill="#74BA24"/>
<path d="M11.94 30.4812C11.94 29.7245 11.3266 29.1114 10.5706 29.1114V25.708C11.3266 25.708 11.94 25.0946 11.94 24.3386C11.94 23.5826 11.3266 22.9693 10.5706 22.9693C10.2986 22.9693 10.0453 23.0507 9.83197 23.188C9.65197 22.6413 9.14397 22.244 8.5373 22.244C7.93064 22.244 7.42131 22.6413 7.24131 23.188C7.02798 23.0507 6.77597 22.9693 6.50397 22.9693C5.74664 22.9693 5.1333 23.5826 5.1333 24.3386C5.1333 25.0946 5.74664 25.708 6.50397 25.708V29.1114C5.74664 29.1114 5.1333 29.7245 5.1333 30.4812C5.1333 31.2374 5.74664 31.851 6.50397 31.851V35.2536C5.74664 35.2536 5.1333 35.8672 5.1333 36.6234C5.1333 37.3802 5.74664 37.9932 6.50397 37.9932C6.77597 37.9932 7.02798 37.9114 7.24131 37.774C7.42131 38.3208 7.93064 38.7177 8.5373 38.7177C9.14397 38.7177 9.65197 38.3208 9.83197 37.774C10.0453 37.9114 10.2986 37.9932 10.5706 37.9932C11.3266 37.9932 11.94 37.3802 11.94 36.6234C11.94 35.8672 11.3266 35.2536 10.5706 35.2536V31.851C11.3266 31.851 11.94 31.2374 11.94 30.4812ZM8.06663 24.5266C8.06663 24.2666 8.2773 24.056 8.5373 24.056C8.7973 24.056 9.00664 24.2666 9.00664 24.5266V27.3588C9.00664 27.6188 8.7973 27.8297 8.5373 27.8297C8.2773 27.8297 8.06663 27.6188 8.06663 27.3588V24.5266ZM9.00664 36.4349C9.00664 36.6953 8.7973 36.9057 8.5373 36.9057C8.2773 36.9057 8.06663 36.6953 8.06663 36.4349V33.603C8.06663 33.3432 8.2773 33.1328 8.5373 33.1328C8.7973 33.1328 9.00664 33.3432 9.00664 33.603V36.4349ZM9.59064 30.9516H7.48397C7.22397 30.9516 7.0133 30.7406 7.0133 30.4812C7.0133 30.2213 7.22397 30.0104 7.48397 30.0104H9.59064C9.85064 30.0104 10.0613 30.2213 10.0613 30.4812C10.0613 30.7406 9.85064 30.9516 9.59064 30.9516Z" fill="#74BA24"/>
<path d="M26.8653 12.116C26.8653 11.36 26.252 10.7467 25.496 10.7467V7.34265C26.252 7.34265 26.8653 6.73066 26.8653 5.97333C26.8653 5.21733 26.252 4.60399 25.496 4.60399C25.224 4.60399 24.972 4.68533 24.7573 4.82266C24.5773 4.27599 24.0693 3.87865 23.4613 3.87865C22.8547 3.87865 22.3467 4.27599 22.1667 4.82266C21.9533 4.68533 21.7013 4.60399 21.428 4.60399C20.672 4.60399 20.0587 5.21733 20.0587 5.97333C20.0587 6.73066 20.672 7.34265 21.428 7.34265V10.7467C20.672 10.7467 20.0587 11.36 20.0587 12.116C20.0587 12.872 20.672 13.4853 21.428 13.4853V16.8893C20.672 16.8893 20.0587 17.5026 20.0587 18.2586C20.0587 19.0146 20.672 19.628 21.428 19.628C21.7013 19.628 21.9533 19.5466 22.1667 19.4093C22.3467 19.956 22.8547 20.352 23.4613 20.352C24.0693 20.352 24.5773 19.956 24.7573 19.4093C24.9707 19.5466 25.224 19.628 25.496 19.628C26.252 19.628 26.8653 19.0146 26.8653 18.2586C26.8653 17.5026 26.252 16.8893 25.496 16.8893V13.4853C26.252 13.4853 26.8653 12.872 26.8653 12.116ZM22.992 6.16132C22.992 5.90132 23.2027 5.69066 23.4613 5.69066C23.7213 5.69066 23.9333 5.90132 23.9333 6.16132V8.99332C23.9333 9.25332 23.7213 9.46399 23.4613 9.46399C23.2027 9.46399 22.992 9.25332 22.992 8.99332V6.16132ZM23.9333 18.0693C23.9333 18.3307 23.7213 18.54 23.4613 18.54C23.2027 18.54 22.992 18.3307 22.992 18.0693V15.2387C22.992 14.9787 23.2027 14.768 23.4613 14.768C23.7213 14.768 23.9333 14.9787 23.9333 15.2387V18.0693ZM24.516 12.5867H22.408C22.148 12.5867 21.9387 12.376 21.9387 12.116C21.9387 11.856 22.148 11.6453 22.408 11.6453H24.516C24.776 11.6453 24.9853 11.856 24.9853 12.116C24.9853 12.376 24.776 12.5867 24.516 12.5867Z" fill="#74BA24"/>
<path d="M19.4026 21.2986C19.4026 20.5426 18.7893 19.9279 18.0333 19.9279V16.5253C18.7893 16.5253 19.4026 15.9119 19.4026 15.1559C19.4026 14.3999 18.7893 13.7866 18.0333 13.7866C17.7613 13.7866 17.5079 13.8679 17.2946 14.0053C17.1159 13.4586 16.6066 13.0613 16 13.0613C15.3933 13.0613 14.884 13.4586 14.704 14.0053C14.4906 13.8679 14.2386 13.7866 13.9666 13.7866C13.2093 13.7866 12.5959 14.3999 12.5959 15.1559C12.5959 15.9119 13.2093 16.5253 13.9666 16.5253V19.9279C13.2093 19.9279 12.5959 20.5426 12.5959 21.2986C12.5959 22.0546 13.2093 22.6679 13.9666 22.6679V26.0719C13.2093 26.0719 12.5959 26.6853 12.5959 27.4411C12.5959 28.1973 13.2093 28.8103 13.9666 28.8103C14.2386 28.8103 14.4906 28.7286 14.704 28.5915C14.884 29.1385 15.3933 29.5354 16 29.5354C16.6066 29.5354 17.1159 29.1385 17.2946 28.5915C17.5079 28.7286 17.7613 28.8103 18.0333 28.8103C18.7893 28.8103 19.4026 28.1973 19.4026 27.4411C19.4026 26.6853 18.7893 26.0719 18.0333 26.0719V22.6679C18.7893 22.6679 19.4026 22.0546 19.4026 21.2986ZM15.5293 15.3453C15.5293 15.0853 15.74 14.8733 16 14.8733C16.26 14.8733 16.4693 15.0853 16.4693 15.3453V18.1759C16.4693 18.4359 16.26 18.6466 16 18.6466C15.74 18.6466 15.5293 18.4359 15.5293 18.1759V15.3453ZM16.4693 27.2519C16.4693 27.5125 16.26 27.7229 16 27.7229C15.74 27.7229 15.5293 27.5125 15.5293 27.2519V24.4213C15.5293 24.1613 15.74 23.9506 16 23.9506C16.26 23.9506 16.4693 24.1613 16.4693 24.4213V27.2519ZM17.0533 21.7693H14.9453C14.6866 21.7693 14.4759 21.5586 14.4759 21.2986C14.4759 21.0386 14.6866 20.8279 14.9453 20.8279H17.0533C17.3133 20.8279 17.524 21.0386 17.524 21.2986C17.524 21.5586 17.3133 21.7693 17.0533 21.7693Z" fill="#ED1C24"/>
<path d="M26.8653 30.4812C26.8653 29.7245 26.252 29.1114 25.496 29.1114V25.708C26.252 25.708 26.8653 25.0946 26.8653 24.3386C26.8653 23.5826 26.252 22.9693 25.496 22.9693C25.224 22.9693 24.972 23.0507 24.7573 23.188C24.5773 22.6413 24.0693 22.244 23.4613 22.244C22.8547 22.244 22.3467 22.6413 22.1667 23.188C21.9533 23.0507 21.7013 22.9693 21.428 22.9693C20.672 22.9693 20.0587 23.5826 20.0587 24.3386C20.0587 25.0946 20.672 25.708 21.428 25.708V29.1114C20.672 29.1114 20.0587 29.7245 20.0587 30.4812C20.0587 31.2374 20.672 31.851 21.428 31.851V35.2536C20.672 35.2536 20.0587 35.8672 20.0587 36.6234C20.0587 37.3802 20.672 37.9932 21.428 37.9932C21.7013 37.9932 21.9533 37.9114 22.1667 37.774C22.3467 38.3208 22.8547 38.7177 23.4613 38.7177C24.0693 38.7177 24.5773 38.3208 24.7573 37.774C24.9707 37.9114 25.224 37.9932 25.496 37.9932C26.252 37.9932 26.8653 37.3802 26.8653 36.6234C26.8653 35.8672 26.252 35.2536 25.496 35.2536V31.851C26.252 31.851 26.8653 31.2374 26.8653 30.4812ZM22.992 24.5266C22.992 24.2666 23.2027 24.056 23.4613 24.056C23.7213 24.056 23.9333 24.2666 23.9333 24.5266V27.3588C23.9333 27.6188 23.7213 27.8297 23.4613 27.8297C23.2027 27.8297 22.992 27.6188 22.992 27.3588V24.5266ZM23.9333 36.4349C23.9333 36.6953 23.7213 36.9057 23.4613 36.9057C23.2027 36.9057 22.992 36.6953 22.992 36.4349V33.603C22.992 33.3432 23.2027 33.1328 23.4613 33.1328C23.7213 33.1328 23.9333 33.3432 23.9333 33.603V36.4349ZM24.516 30.9516H22.408C22.148 30.9516 21.9387 30.7406 21.9387 30.4812C21.9387 30.2213 22.148 30.0104 22.408 30.0104H24.516C24.776 30.0104 24.9853 30.2213 24.9853 30.4812C24.9853 30.7406 24.776 30.9516 24.516 30.9516Z" fill="#74BA24"/>
</svg>
