<svg width="32" height="43" viewBox="0 0 32 43" fill="none" xmlns="http://www.w3.org/2000/svg">
<path d="M11.1667 12.116C11.1667 11.36 10.5533 10.7467 9.79732 10.7467V7.34265C10.5533 7.34265 11.1667 6.73066 11.1667 5.97333C11.1667 5.21733 10.5533 4.60399 9.79732 4.60399C9.52532 4.60399 9.27198 4.68533 9.05865 4.82266C8.87865 4.27599 8.37066 3.87865 7.76399 3.87865C7.15732 3.87865 6.64799 4.27599 6.46799 4.82266C6.25466 4.68533 6.00265 4.60399 5.72932 4.60399C4.97332 4.60399 4.35999 5.21733 4.35999 5.97333C4.35999 6.73066 4.97332 7.34265 5.72932 7.34265V10.7467C4.97332 10.7467 4.35999 11.36 4.35999 12.116C4.35999 12.872 4.97332 13.4853 5.72932 13.4853V16.8893C4.97332 16.8893 4.35999 17.5026 4.35999 18.2586C4.35999 19.0146 4.97332 19.628 5.72932 19.628C6.00265 19.628 6.25466 19.5466 6.46799 19.4093C6.64799 19.956 7.15732 20.352 7.76399 20.352C8.37066 20.352 8.87865 19.956 9.05865 19.4093C9.27198 19.5466 9.52532 19.628 9.79732 19.628C10.5533 19.628 11.1667 19.0146 11.1667 18.2586C11.1667 17.5026 10.5533 16.8893 9.79732 16.8893V13.4853C10.5533 13.4853 11.1667 12.872 11.1667 12.116ZM7.29332 6.16132C7.29332 5.90132 7.50399 5.69066 7.76399 5.69066C8.02399 5.69066 8.23466 5.90132 8.23466 6.16132V8.99332C8.23466 9.25332 8.02399 9.46399 7.76399 9.46399C7.50399 9.46399 7.29332 9.25332 7.29332 8.99332V6.16132ZM8.23466 18.0693C8.23466 18.3307 8.02399 18.54 7.76399 18.54C7.50399 18.54 7.29332 18.3307 7.29332 18.0693V15.2387C7.29332 14.9787 7.50399 14.768 7.76399 14.768C8.02399 14.768 8.23466 14.9787 8.23466 15.2387V18.0693ZM8.81731 12.5867H6.70933C6.45067 12.5867 6.24 12.376 6.24 12.116C6.24 11.856 6.45067 11.6453 6.70933 11.6453H8.81731C9.07731 11.6453 9.28798 11.856 9.28798 12.116C9.28798 12.376 9.07731 12.5867 8.81731 12.5867Z" fill="#74BA24"/>
<path d="M11.1667 30.4812C11.1667 29.7245 10.5533 29.1114 9.79732 29.1114V25.708C10.5533 25.708 11.1667 25.0946 11.1667 24.3386C11.1667 23.5826 10.5533 22.9693 9.79732 22.9693C9.52532 22.9693 9.27198 23.0507 9.05865 23.188C8.87865 22.6413 8.37066 22.244 7.76399 22.244C7.15732 22.244 6.64799 22.6413 6.46799 23.188C6.25466 23.0507 6.00265 22.9693 5.72932 22.9693C4.97332 22.9693 4.35999 23.5826 4.35999 24.3386C4.35999 25.0946 4.97332 25.708 5.72932 25.708V29.1114C4.97332 29.1114 4.35999 29.7245 4.35999 30.4812C4.35999 31.2374 4.97332 31.851 5.72932 31.851V35.2536C4.97332 35.2536 4.35999 35.8672 4.35999 36.6234C4.35999 37.3802 4.97332 37.9932 5.72932 37.9932C6.00265 37.9932 6.25466 37.9114 6.46799 37.774C6.64799 38.3208 7.15732 38.7177 7.76399 38.7177C8.37066 38.7177 8.87865 38.3208 9.05865 37.774C9.27198 37.9114 9.52532 37.9932 9.79732 37.9932C10.5533 37.9932 11.1667 37.3802 11.1667 36.6234C11.1667 35.8672 10.5533 35.2536 9.79732 35.2536V31.851C10.5533 31.851 11.1667 31.2374 11.1667 30.4812ZM7.29332 24.5266C7.29332 24.2666 7.50399 24.056 7.76399 24.056C8.02399 24.056 8.23466 24.2666 8.23466 24.5266V27.3588C8.23466 27.6188 8.02399 27.8297 7.76399 27.8297C7.50399 27.8297 7.29332 27.6188 7.29332 27.3588V24.5266ZM8.23466 36.4349C8.23466 36.6953 8.02399 36.9057 7.76399 36.9057C7.50399 36.9057 7.29332 36.6953 7.29332 36.4349V33.603C7.29332 33.3432 7.50399 33.1328 7.76399 33.1328C8.02399 33.1328 8.23466 33.3432 8.23466 33.603V36.4349ZM8.81731 30.9516H6.70933C6.45067 30.9516 6.24 30.7406 6.24 30.4812C6.24 30.2213 6.45067 30.0104 6.70933 30.0104H8.81731C9.07731 30.0104 9.28798 30.2213 9.28798 30.4812C9.28798 30.7406 9.07731 30.9516 8.81731 30.9516Z" fill="#74BA24"/>
<path d="M26.8173 12.116C26.8173 11.36 26.204 10.7467 25.448 10.7467V7.34265C26.204 7.34265 26.8173 6.73066 26.8173 5.97333C26.8173 5.21733 26.204 4.60399 25.448 4.60399C25.1746 4.60399 24.9226 4.68533 24.7093 4.82266C24.5293 4.27599 24.02 3.87865 23.4146 3.87865C22.8066 3.87865 22.2986 4.27599 22.1186 4.82266C21.9053 4.68533 21.652 4.60399 21.38 4.60399C20.624 4.60399 20.0106 5.21733 20.0106 5.97333C20.0106 6.73066 20.624 7.34265 21.38 7.34265V10.7467C20.624 10.7467 20.0106 11.36 20.0106 12.116C20.0106 12.872 20.624 13.4853 21.38 13.4853V16.8893C20.624 16.8893 20.0106 17.5026 20.0106 18.2586C20.0106 19.0146 20.624 19.628 21.38 19.628C21.652 19.628 21.9053 19.5466 22.1186 19.4093C22.2986 19.956 22.8066 20.352 23.4146 20.352C24.02 20.352 24.5293 19.956 24.7093 19.4093C24.9226 19.5466 25.1746 19.628 25.448 19.628C26.204 19.628 26.8173 19.0146 26.8173 18.2586C26.8173 17.5026 26.204 16.8893 25.448 16.8893V13.4853C26.204 13.4853 26.8173 12.872 26.8173 12.116ZM22.9426 6.16132C22.9426 5.90132 23.1546 5.69066 23.4146 5.69066C23.6733 5.69066 23.8839 5.90132 23.8839 6.16132V8.99332C23.8839 9.25332 23.6733 9.46399 23.4146 9.46399C23.1546 9.46399 22.9426 9.25332 22.9426 8.99332V6.16132ZM23.8839 18.0693C23.8839 18.3307 23.6733 18.54 23.4146 18.54C23.1546 18.54 22.9426 18.3307 22.9426 18.0693V15.2387C22.9426 14.9787 23.1546 14.768 23.4146 14.768C23.6733 14.768 23.8839 14.9787 23.8839 15.2387V18.0693ZM24.4666 12.5867H22.3599C22.0999 12.5867 21.8893 12.376 21.8893 12.116C21.8893 11.856 22.0999 11.6453 22.3599 11.6453H24.4666C24.7266 11.6453 24.9386 11.856 24.9386 12.116C24.9386 12.376 24.7266 12.5867 24.4666 12.5867Z" fill="#74BA24"/>
<path d="M18.992 12.116C18.992 11.36 18.3786 10.7467 17.6213 10.7467V7.34265C18.3786 7.34265 18.992 6.73066 18.992 5.97333C18.992 5.21733 18.3786 4.60399 17.6213 4.60399C17.3506 4.60399 17.0973 4.68533 16.884 4.82266C16.704 4.27599 16.1946 3.87865 15.588 3.87865C14.9813 3.87865 14.4733 4.27599 14.2933 4.82266C14.08 4.68533 13.828 4.60399 13.5546 4.60399C12.7986 4.60399 12.1853 5.21733 12.1853 5.97333C12.1853 6.73066 12.7986 7.34265 13.5546 7.34265V10.7467C12.7986 10.7467 12.1853 11.36 12.1853 12.116C12.1853 12.872 12.7986 13.4853 13.5546 13.4853V16.8893C12.7986 16.8893 12.1853 17.5026 12.1853 18.2586C12.1853 19.0146 12.7986 19.628 13.5546 19.628C13.828 19.628 14.08 19.5453 14.2933 19.4093C14.4733 19.956 14.9813 20.352 15.588 20.352C16.1946 20.352 16.704 19.956 16.884 19.4093C17.0973 19.5453 17.3506 19.628 17.6213 19.628C18.3786 19.628 18.992 19.0146 18.992 18.2586C18.992 17.5026 18.3786 16.8893 17.6213 16.8893V13.4853C18.3786 13.4853 18.992 12.872 18.992 12.116ZM15.1186 6.16132C15.1186 5.90132 15.328 5.69066 15.588 5.69066C15.848 5.69066 16.0586 5.90132 16.0586 6.16132V8.99332C16.0586 9.25332 15.848 9.46399 15.588 9.46399C15.328 9.46399 15.1186 9.25332 15.1186 8.99332V6.16132ZM16.0586 18.0693C16.0586 18.3307 15.848 18.54 15.588 18.54C15.328 18.54 15.1186 18.3307 15.1186 18.0693V15.2387C15.1186 14.9787 15.328 14.768 15.588 14.768C15.848 14.768 16.0586 14.9787 16.0586 15.2387V18.0693ZM16.6413 12.5867H14.5347C14.276 12.5867 14.064 12.376 14.064 12.116C14.064 11.856 14.276 11.6453 14.5347 11.6453H16.6413C16.9027 11.6453 17.112 11.856 17.112 12.116C17.112 12.376 16.9027 12.5867 16.6413 12.5867Z" fill="#74BA24"/>
<path d="M18.992 30.4812C18.992 29.7249 18.3786 29.1114 17.6213 29.1114V25.708C18.3786 25.708 18.992 25.0946 18.992 24.3386C18.992 23.5826 18.3786 22.9693 17.6213 22.9693C17.3506 22.9693 17.0973 23.0507 16.884 23.188C16.704 22.6413 16.1946 22.244 15.588 22.244C14.9813 22.244 14.4733 22.6413 14.2933 23.188C14.08 23.0507 13.828 22.9693 13.5546 22.9693C12.7986 22.9693 12.1853 23.5826 12.1853 24.3386C12.1853 25.0946 12.7986 25.708 13.5546 25.708V29.1114C12.7986 29.1114 12.1853 29.7249 12.1853 30.4812C12.1853 31.2374 12.7986 31.851 13.5546 31.851V35.2541C12.7986 35.2541 12.1853 35.8672 12.1853 36.6234C12.1853 37.3802 12.7986 37.9932 13.5546 37.9932C13.828 37.9932 14.08 37.9114 14.2933 37.774C14.4733 38.3208 14.9813 38.7177 15.588 38.7177C16.1946 38.7177 16.704 38.3208 16.884 37.774C17.0973 37.9114 17.3506 37.9932 17.6213 37.9932C18.3786 37.9932 18.992 37.3802 18.992 36.6234C18.992 35.8672 18.3786 35.2541 17.6213 35.2541V31.851C18.3786 31.851 18.992 31.2374 18.992 30.4812ZM15.1186 24.5266C15.1186 24.2666 15.328 24.0573 15.588 24.0573C15.848 24.0573 16.0586 24.2666 16.0586 24.5266V27.3588C16.0586 27.6188 15.848 27.8297 15.588 27.8297C15.328 27.8297 15.1186 27.6188 15.1186 27.3588V24.5266ZM16.0586 36.4349C16.0586 36.6953 15.848 36.9057 15.588 36.9057C15.328 36.9057 15.1186 36.6953 15.1186 36.4349V33.6036C15.1186 33.3432 15.328 33.1328 15.588 33.1328C15.848 33.1328 16.0586 33.3432 16.0586 33.6036V36.4349ZM16.6413 30.9516H14.5347C14.276 30.9516 14.064 30.7406 14.064 30.4812C14.064 30.2213 14.276 30.0104 14.5347 30.0104H16.6413C16.9027 30.0104 17.112 30.2213 17.112 30.4812C17.112 30.7406 16.9027 30.9516 16.6413 30.9516Z" fill="#74BA24"/>
<path d="M26.8173 30.4812C26.8173 29.7245 26.204 29.1114 25.448 29.1114V25.708C26.204 25.708 26.8173 25.0946 26.8173 24.3386C26.8173 23.5826 26.204 22.9693 25.448 22.9693C25.1746 22.9693 24.9226 23.0507 24.7093 23.188C24.5293 22.6413 24.02 22.244 23.4146 22.244C22.8066 22.244 22.2986 22.6413 22.1186 23.188C21.9053 23.0507 21.652 22.9693 21.38 22.9693C20.624 22.9693 20.0106 23.5826 20.0106 24.3386C20.0106 25.0946 20.624 25.708 21.38 25.708V29.1114C20.624 29.1114 20.0106 29.7245 20.0106 30.4812C20.0106 31.2374 20.624 31.851 21.38 31.851V35.2536C20.624 35.2536 20.0106 35.8672 20.0106 36.6234C20.0106 37.3802 20.624 37.9932 21.38 37.9932C21.652 37.9932 21.9053 37.9114 22.1186 37.774C22.2986 38.3208 22.8066 38.7177 23.4146 38.7177C24.02 38.7177 24.5293 38.3208 24.7093 37.774C24.9226 37.9114 25.1746 37.9932 25.448 37.9932C26.204 37.9932 26.8173 37.3802 26.8173 36.6234C26.8173 35.8672 26.204 35.2536 25.448 35.2536V31.851C26.204 31.851 26.8173 31.2374 26.8173 30.4812ZM22.9426 24.5266C22.9426 24.2666 23.1546 24.056 23.4146 24.056C23.6733 24.056 23.8839 24.2666 23.8839 24.5266V27.3588C23.8839 27.6188 23.6733 27.8297 23.4146 27.8297C23.1546 27.8297 22.9426 27.6188 22.9426 27.3588V24.5266ZM23.8839 36.4349C23.8839 36.6953 23.6733 36.9057 23.4146 36.9057C23.1546 36.9057 22.9426 36.6953 22.9426 36.4349V33.603C22.9426 33.3432 23.1546 33.1328 23.4146 33.1328C23.6733 33.1328 23.8839 33.3432 23.8839 33.603V36.4349ZM24.4666 30.9516H22.3599C22.0999 30.9516 21.8893 30.7406 21.8893 30.4812C21.8893 30.2213 22.0999 30.0104 22.3599 30.0104H24.4666C24.7266 30.0104 24.9386 30.2213 24.9386 30.4812C24.9386 30.7406 24.7266 30.9516 24.4666 30.9516Z" fill="#74BA24"/>
</svg>
