<svg width="32" height="43" viewBox="0 0 32 43" fill="none" xmlns="http://www.w3.org/2000/svg">
<path d="M12.7063 21.488C12.7063 20.9787 12.2927 20.5651 11.7828 20.5651V18.2713C12.2927 18.2713 12.7063 17.8579 12.7063 17.3484C12.7063 16.8391 12.2927 16.4255 11.7828 16.4255C11.5989 16.4255 11.4292 16.4803 11.2855 16.5729C11.164 16.2047 10.8214 15.9369 10.412 15.9369C10.0031 15.9369 9.66042 16.2047 9.53909 16.5729C9.39535 16.4803 9.22548 16.4255 9.04175 16.4255C8.53175 16.4255 8.11829 16.8391 8.11829 17.3484C8.11829 17.8579 8.53175 18.2713 9.04175 18.2713V20.5651C8.53175 20.5651 8.11829 20.9787 8.11829 21.488C8.11829 21.9979 8.53175 22.4115 9.04175 22.4115V24.7052C8.53175 24.7052 8.11829 25.1177 8.11829 25.6276C8.11829 26.1375 8.53175 26.5505 9.04175 26.5505C9.22548 26.5505 9.39535 26.4953 9.53909 26.4031C9.66042 26.7719 10.0031 27.0391 10.412 27.0391C10.8214 27.0391 11.164 26.7719 11.2855 26.4031C11.4292 26.4953 11.5989 26.5505 11.7828 26.5505C12.2927 26.5505 12.7063 26.1375 12.7063 25.6276C12.7063 25.1177 12.2927 24.7052 11.7828 24.7052V22.4115C12.2927 22.4115 12.7063 21.9979 12.7063 21.488ZM10.0954 17.4755C10.0954 17.3 10.237 17.1579 10.412 17.1579C10.587 17.1579 10.7292 17.3 10.7292 17.4755V19.3839C10.7292 19.5593 10.587 19.7016 10.412 19.7016C10.237 19.7016 10.0954 19.5593 10.0954 19.3839V17.4755ZM10.7292 25.5011C10.7292 25.676 10.587 25.8183 10.412 25.8183C10.237 25.8183 10.0954 25.676 10.0954 25.5011V23.5921C10.0954 23.4172 10.237 23.2749 10.412 23.2749C10.587 23.2749 10.7292 23.4172 10.7292 23.5921V25.5011ZM11.1224 21.8052H9.70215C9.52708 21.8052 9.38495 21.6631 9.38495 21.488C9.38495 21.3131 9.52708 21.1713 9.70215 21.1713H11.1224C11.2974 21.1713 11.4391 21.3131 11.4391 21.488C11.4391 21.6631 11.2974 21.8052 11.1224 21.8052Z" fill="#74BA24"/>
<path d="M24.7031 21.488C24.7031 20.9787 24.2902 20.5651 23.7803 20.5651V18.2713C24.2902 18.2713 24.7031 17.8579 24.7031 17.3484C24.7031 16.8391 24.2902 16.4255 23.7803 16.4255C23.5964 16.4255 23.426 16.4803 23.2828 16.5729C23.1615 16.2047 22.8188 15.9369 22.4094 15.9369C22.0006 15.9369 21.6579 16.2047 21.5364 16.5729C21.3927 16.4803 21.2224 16.4255 21.0386 16.4255C20.5292 16.4255 20.1161 16.8391 20.1161 17.3484C20.1161 17.8579 20.5292 18.2713 21.0386 18.2713V20.5651C20.5292 20.5651 20.1161 20.9787 20.1161 21.488C20.1161 21.9979 20.5292 22.4115 21.0386 22.4115V24.7052C20.5292 24.7052 20.1161 25.1177 20.1161 25.6276C20.1161 26.1375 20.5292 26.5505 21.0386 26.5505C21.2224 26.5505 21.3927 26.4953 21.5364 26.4031C21.6579 26.7719 22.0006 27.0391 22.4094 27.0391C22.8188 27.0391 23.1615 26.7719 23.2828 26.4031C23.426 26.4953 23.5964 26.5505 23.7803 26.5505C24.2902 26.5505 24.7031 26.1375 24.7031 25.6276C24.7031 25.1177 24.2902 24.7052 23.7803 24.7052V22.4115C24.2902 22.4115 24.7031 21.9979 24.7031 21.488ZM22.0927 17.4755C22.0927 17.3 22.2344 17.1579 22.4094 17.1579C22.5844 17.1579 22.7266 17.3 22.7266 17.4755V19.3839C22.7266 19.5593 22.5844 19.7016 22.4094 19.7016C22.2344 19.7016 22.0927 19.5593 22.0927 19.3839V17.4755ZM22.7266 25.5011C22.7266 25.676 22.5844 25.8183 22.4094 25.8183C22.2344 25.8183 22.0927 25.676 22.0927 25.5011V23.5921C22.0927 23.4172 22.2344 23.2749 22.4094 23.2749C22.5844 23.2749 22.7266 23.4172 22.7266 23.5921V25.5011ZM23.1194 21.8052H21.6995C21.524 21.8052 21.3823 21.6631 21.3823 21.488C21.3823 21.3131 21.524 21.1713 21.6995 21.1713H23.1194C23.2943 21.1713 23.4364 21.3131 23.4364 21.488C23.4364 21.6631 23.2943 21.8052 23.1194 21.8052Z" fill="#74BA24"/>
<path d="M18.7046 21.488C18.7046 20.9787 18.2917 20.5651 17.7812 20.5651V18.2713C18.2917 18.2713 18.7046 17.8579 18.7046 17.3484C18.7046 16.8385 18.2917 16.4255 17.7812 16.4255C17.5979 16.4255 17.4276 16.4803 17.2844 16.5729C17.1625 16.2047 16.8197 15.9369 16.4109 15.9369C16.0016 15.9369 15.6588 16.2047 15.538 16.5729C15.3942 16.4803 15.2235 16.4255 15.0401 16.4255C14.5303 16.4255 14.1172 16.8385 14.1172 17.3484C14.1172 17.8579 14.5303 18.2713 15.0401 18.2713V20.5651C14.5303 20.5651 14.1172 20.9787 14.1172 21.488C14.1172 21.9973 14.5303 22.4115 15.0401 22.4115V24.7052C14.5303 24.7052 14.1172 25.1177 14.1172 25.6276C14.1172 26.1375 14.5303 26.5505 15.0401 26.5505C15.2235 26.5505 15.3942 26.4953 15.538 26.4031C15.6588 26.7719 16.0016 27.0391 16.4109 27.0391C16.8197 27.0391 17.1625 26.7719 17.2844 26.4031C17.4276 26.4953 17.5979 26.5505 17.7812 26.5505C18.2917 26.5505 18.7046 26.1375 18.7046 25.6276C18.7046 25.1177 18.2917 24.7052 17.7812 24.7052V22.4115C18.2917 22.4115 18.7046 21.9973 18.7046 21.488ZM16.0937 17.4755C16.0937 17.3 16.236 17.1579 16.4109 17.1579C16.586 17.1579 16.7276 17.3 16.7276 17.4755V19.3839C16.7276 19.5588 16.586 19.7011 16.4109 19.7011C16.236 19.7011 16.0937 19.5588 16.0937 19.3839V17.4755ZM16.7276 25.5011C16.7276 25.676 16.586 25.8177 16.4109 25.8177C16.236 25.8177 16.0937 25.676 16.0937 25.5011V23.5921C16.0937 23.4172 16.236 23.2749 16.4109 23.2749C16.586 23.2749 16.7276 23.4172 16.7276 23.5921V25.5011ZM17.1208 21.8052H15.701C15.526 21.8052 15.3839 21.6631 15.3839 21.488C15.3839 21.3125 15.526 21.1708 15.701 21.1708H17.1208C17.2959 21.1708 17.438 21.3125 17.438 21.488C17.438 21.6631 17.2959 21.8052 17.1208 21.8052Z" fill="#74BA24"/>
<path d="M18.7046 9.98275C18.7046 9.47288 18.2917 9.05928 17.7812 9.05928V6.76555C18.2917 6.76555 18.7046 6.35261 18.7046 5.84261C18.7046 5.33275 18.2917 4.91968 17.7812 4.91968C17.5979 4.91968 17.4276 4.97488 17.2844 5.06715C17.1625 4.69888 16.8197 4.43061 16.4109 4.43061C16.0016 4.43061 15.6588 4.69888 15.538 5.06715C15.3942 4.97488 15.2235 4.91968 15.0401 4.91968C14.5303 4.91968 14.1172 5.33275 14.1172 5.84261C14.1172 6.35261 14.5303 6.76555 15.0401 6.76555V9.05928C14.5303 9.05928 14.1172 9.47288 14.1172 9.98275C14.1172 10.4921 14.5303 10.9057 15.0401 10.9057V13.1989C14.5303 13.1989 14.1172 13.6119 14.1172 14.1218C14.1172 14.6317 14.5303 15.0453 15.0401 15.0453C15.2235 15.0453 15.3942 14.9895 15.538 14.8973C15.6588 15.2661 16.0016 15.5338 16.4109 15.5338C16.8197 15.5338 17.1625 15.2661 17.2844 14.8973C17.4276 14.9895 17.5979 15.0453 17.7812 15.0453C18.2917 15.0453 18.7046 14.6317 18.7046 14.1218C18.7046 13.6119 18.2917 13.1989 17.7812 13.1989V10.9057C18.2917 10.9057 18.7046 10.4921 18.7046 9.98275ZM16.0937 5.96968C16.0937 5.79475 16.236 5.65262 16.4109 5.65262C16.586 5.65262 16.7276 5.79475 16.7276 5.96968V7.87808C16.7276 8.05301 16.586 8.19475 16.4109 8.19475C16.236 8.19475 16.0937 8.05301 16.0937 7.87808V5.96968ZM16.7276 13.9947C16.7276 14.1702 16.586 14.3119 16.4109 14.3119C16.236 14.3119 16.0937 14.1702 16.0937 13.9947V12.0863C16.0937 11.9114 16.236 11.7697 16.4109 11.7697C16.586 11.7697 16.7276 11.9114 16.7276 12.0863V13.9947ZM17.1208 10.2994H15.701C15.526 10.2994 15.3839 10.1573 15.3839 9.98275C15.3839 9.80728 15.526 9.66501 15.701 9.66501H17.1208C17.2959 9.66501 17.438 9.80728 17.438 9.98275C17.438 10.1573 17.2959 10.2994 17.1208 10.2994Z" fill="#ED1C24"/>
<path d="M12.7063 32.9937C12.7063 32.4839 12.2927 32.0708 11.7828 32.0708V29.7771C12.2927 29.7771 12.7063 29.3636 12.7063 28.8541C12.7063 28.3443 12.2927 27.9307 11.7828 27.9307C11.5989 27.9307 11.4292 27.986 11.2855 28.0787C11.164 27.7104 10.8214 27.4427 10.412 27.4427C10.0031 27.4427 9.66042 27.7104 9.53909 28.0787C9.39535 27.986 9.22548 27.9307 9.04175 27.9307C8.53175 27.9307 8.11829 28.3443 8.11829 28.8541C8.11829 29.3636 8.53175 29.7771 9.04175 29.7771V32.0708C8.53175 32.0708 8.11829 32.4839 8.11829 32.9937C8.11829 33.5036 8.53175 33.9167 9.04175 33.9167V36.2104C8.53175 36.2104 8.11829 36.624 8.11829 37.1339C8.11829 37.6432 8.53175 38.0568 9.04175 38.0568C9.22548 38.0568 9.39535 38.0016 9.53909 37.9093C9.66042 38.2771 10.0031 38.5448 10.412 38.5448C10.8214 38.5448 11.164 38.2771 11.2855 37.9093C11.4292 38.0016 11.5989 38.0568 11.7828 38.0568C12.2927 38.0568 12.7063 37.6432 12.7063 37.1339C12.7063 36.624 12.2927 36.2104 11.7828 36.2104V33.9167C12.2927 33.9167 12.7063 33.5036 12.7063 32.9937ZM10.0954 28.9807C10.0954 28.8057 10.237 28.664 10.412 28.664C10.587 28.664 10.7292 28.8057 10.7292 28.9807V30.8896C10.7292 31.0645 10.587 31.2068 10.412 31.2068C10.237 31.2068 10.0954 31.0645 10.0954 30.8896V28.9807ZM10.7292 37.0068C10.7292 37.1817 10.587 37.324 10.412 37.324C10.237 37.324 10.0954 37.1817 10.0954 37.0068V35.0979C10.0954 34.9224 10.237 34.7807 10.412 34.7807C10.587 34.7807 10.7292 34.9224 10.7292 35.0979V37.0068ZM11.1224 33.3104H9.70215C9.52708 33.3104 9.38495 33.1688 9.38495 32.9937C9.38495 32.8188 9.52708 32.6765 9.70215 32.6765H11.1224C11.2974 32.6765 11.4391 32.8188 11.4391 32.9937C11.4391 33.1688 11.2974 33.3104 11.1224 33.3104Z" fill="#74BA24"/>
<path d="M18.7046 32.9937C18.7046 32.4839 18.2917 32.0708 17.7812 32.0708V29.7771C18.2917 29.7771 18.7046 29.364 18.7046 28.8541C18.7046 28.3443 18.2917 27.9312 17.7812 27.9312C17.5979 27.9312 17.4276 27.986 17.2844 28.0787C17.1625 27.7104 16.8197 27.4427 16.4109 27.4427C16.0016 27.4427 15.6588 27.7104 15.538 28.0787C15.3942 27.986 15.2235 27.9312 15.0401 27.9312C14.5303 27.9312 14.1172 28.3443 14.1172 28.8541C14.1172 29.364 14.5303 29.7771 15.0401 29.7771V32.0708C14.5303 32.0708 14.1172 32.4839 14.1172 32.9937C14.1172 33.5036 14.5303 33.9167 15.0401 33.9167V36.2104C14.5303 36.2104 14.1172 36.624 14.1172 37.1339C14.1172 37.6432 14.5303 38.0568 15.0401 38.0568C15.2235 38.0568 15.3942 38.0016 15.538 37.9093C15.6588 38.2771 16.0016 38.5448 16.4109 38.5448C16.8197 38.5448 17.1625 38.2771 17.2844 37.9093C17.4276 38.0016 17.5979 38.0568 17.7812 38.0568C18.2917 38.0568 18.7046 37.6432 18.7046 37.1339C18.7046 36.624 18.2917 36.2104 17.7812 36.2104V33.9167C18.2917 33.9167 18.7046 33.5036 18.7046 32.9937ZM16.0937 28.9807C16.0937 28.8063 16.236 28.664 16.4109 28.664C16.586 28.664 16.7276 28.8063 16.7276 28.9807V30.8896C16.7276 31.0645 16.586 31.2068 16.4109 31.2068C16.236 31.2068 16.0937 31.0645 16.0937 30.8896V28.9807ZM16.7276 37.0068C16.7276 37.1817 16.586 37.324 16.4109 37.324C16.236 37.324 16.0937 37.1817 16.0937 37.0068V35.0979C16.0937 34.9229 16.236 34.7812 16.4109 34.7812C16.586 34.7812 16.7276 34.9229 16.7276 35.0979V37.0068ZM17.1208 33.3104H15.701C15.526 33.3104 15.3839 33.1688 15.3839 32.9937C15.3839 32.8188 15.526 32.6765 15.701 32.6765H17.1208C17.2959 32.6765 17.438 32.8188 17.438 32.9937C17.438 33.1688 17.2959 33.3104 17.1208 33.3104Z" fill="#74BA24"/>
<path d="M24.7031 32.9937C24.7031 32.4839 24.2902 32.0708 23.7803 32.0708V29.7771C24.2902 29.7771 24.7031 29.3636 24.7031 28.8541C24.7031 28.3443 24.2902 27.9307 23.7803 27.9307C23.5964 27.9307 23.426 27.986 23.2828 28.0787C23.1615 27.7104 22.8188 27.4427 22.4094 27.4427C22.0006 27.4427 21.6579 27.7104 21.5364 28.0787C21.3927 27.986 21.2224 27.9307 21.0386 27.9307C20.5292 27.9307 20.1161 28.3443 20.1161 28.8541C20.1161 29.3636 20.5292 29.7771 21.0386 29.7771V32.0708C20.5292 32.0708 20.1161 32.4839 20.1161 32.9937C20.1161 33.5036 20.5292 33.9167 21.0386 33.9167V36.2104C20.5292 36.2104 20.1161 36.624 20.1161 37.1339C20.1161 37.6432 20.5292 38.0568 21.0386 38.0568C21.2224 38.0568 21.3927 38.0016 21.5364 37.9093C21.6579 38.2771 22.0006 38.5448 22.4094 38.5448C22.8188 38.5448 23.1615 38.2771 23.2828 37.9093C23.426 38.0016 23.5964 38.0568 23.7803 38.0568C24.2902 38.0568 24.7031 37.6432 24.7031 37.1339C24.7031 36.624 24.2902 36.2104 23.7803 36.2104V33.9167C24.2902 33.9167 24.7031 33.5036 24.7031 32.9937ZM22.0927 28.9807C22.0927 28.8057 22.2344 28.664 22.4094 28.664C22.5844 28.664 22.7266 28.8057 22.7266 28.9807V30.8896C22.7266 31.0645 22.5844 31.2068 22.4094 31.2068C22.2344 31.2068 22.0927 31.0645 22.0927 30.8896V28.9807ZM22.7266 37.0068C22.7266 37.1817 22.5844 37.324 22.4094 37.324C22.2344 37.324 22.0927 37.1817 22.0927 37.0068V35.0979C22.0927 34.9224 22.2344 34.7807 22.4094 34.7807C22.5844 34.7807 22.7266 34.9224 22.7266 35.0979V37.0068ZM23.1194 33.3104H21.6995C21.524 33.3104 21.3823 33.1688 21.3823 32.9937C21.3823 32.8188 21.524 32.6765 21.6995 32.6765H23.1194C23.2943 32.6765 23.4364 32.8188 23.4364 32.9937C23.4364 33.1688 23.2943 33.3104 23.1194 33.3104Z" fill="#74BA24"/>
</svg>
