<svg width="32" height="43" viewBox="0 0 32 43" fill="none" xmlns="http://www.w3.org/2000/svg">
<path d="M9.74665 29.665C9.74665 29.1229 9.30799 28.6838 8.76532 28.6838V26.2448C9.30799 26.2448 9.74665 25.8052 9.74665 25.263C9.74665 24.7218 9.30799 24.2817 8.76532 24.2817C8.57065 24.2817 8.38932 24.3406 8.23599 24.4385C8.10666 24.0469 7.74266 23.762 7.308 23.762C6.87333 23.762 6.50932 24.0469 6.37998 24.4385C6.22665 24.3406 6.04666 24.2817 5.85066 24.2817C5.30932 24.2817 4.86932 24.7218 4.86932 25.263C4.86932 25.8052 5.30932 26.2448 5.85066 26.2448V28.6838C5.30932 28.6838 4.86932 29.1229 4.86932 29.665C4.86932 30.2073 5.30932 30.6469 5.85066 30.6469V33.086C5.30932 33.086 4.86932 33.5249 4.86932 34.0666C4.86932 34.6088 5.30932 35.0484 5.85066 35.0484C6.04666 35.0484 6.22665 34.9901 6.37998 34.8916C6.50932 35.2833 6.87333 35.5677 7.308 35.5677C7.74266 35.5677 8.10666 35.2833 8.23599 34.8916C8.38932 34.9901 8.57065 35.0484 8.76532 35.0484C9.30799 35.0484 9.74665 34.6088 9.74665 34.0666C9.74665 33.5249 9.30799 33.086 8.76532 33.086V30.6469C9.30799 30.6469 9.74665 30.2073 9.74665 29.665ZM6.97199 25.3984C6.97199 25.212 7.12133 25.0609 7.308 25.0609C7.49466 25.0609 7.64532 25.212 7.64532 25.3984V27.4276C7.64532 27.6136 7.49466 27.765 7.308 27.765C7.12133 27.765 6.97199 27.6136 6.97199 27.4276V25.3984ZM7.64532 33.9317C7.64532 34.1182 7.49466 34.2693 7.308 34.2693C7.12133 34.2693 6.97199 34.1182 6.97199 33.9317V31.9026C6.97199 31.7166 7.12133 31.5656 7.308 31.5656C7.49466 31.5656 7.64532 31.7166 7.64532 31.9026V33.9317ZM8.06265 30.0021H6.55332C6.36666 30.0021 6.21732 29.851 6.21732 29.665C6.21732 29.4792 6.36666 29.3281 6.55332 29.3281H8.06265C8.24932 29.3281 8.39999 29.4792 8.39999 29.665C8.39999 29.851 8.24932 30.0021 8.06265 30.0021Z" fill="#74BA24"/>
<path d="M15.5413 29.665C15.5413 29.1234 15.1027 28.6838 14.56 28.6838V26.2448C15.1027 26.2448 15.5413 25.8057 15.5413 25.263C15.5413 24.7218 15.1027 24.2822 14.56 24.2822C14.364 24.2822 14.184 24.3406 14.0307 24.4385C13.9027 24.0469 13.5373 23.7625 13.1027 23.7625C12.668 23.7625 12.3027 24.0469 12.1733 24.4385C12.0213 24.3406 11.84 24.2822 11.6453 24.2822C11.1027 24.2822 10.664 24.7218 10.664 25.263C10.664 25.8057 11.1027 26.2448 11.6453 26.2448V28.6838C11.1027 28.6838 10.664 29.1234 10.664 29.665C10.664 30.2073 11.1027 30.6469 11.6453 30.6469V33.086C11.1027 33.086 10.664 33.5249 10.664 34.0666C10.664 34.6093 11.1027 35.0484 11.6453 35.0484C11.84 35.0484 12.0213 34.9901 12.1733 34.8916C12.3027 35.2833 12.668 35.5677 13.1027 35.5677C13.5373 35.5677 13.9027 35.2833 14.0307 34.8916C14.184 34.9901 14.364 35.0484 14.56 35.0484C15.1027 35.0484 15.5413 34.6093 15.5413 34.0666C15.5413 33.5249 15.1027 33.086 14.56 33.086V30.6469C15.1027 30.6469 15.5413 30.2073 15.5413 29.665ZM12.7653 25.3984C12.7653 25.212 12.9173 25.0609 13.1027 25.0609C13.288 25.0609 13.44 25.212 13.44 25.3984V27.4276C13.44 27.6136 13.288 27.765 13.1027 27.765C12.9173 27.765 12.7653 27.6136 12.7653 27.4276V25.3984ZM13.44 33.9317C13.44 34.1182 13.288 34.2693 13.1027 34.2693C12.9173 34.2693 12.7653 34.1182 12.7653 33.9317V31.9026C12.7653 31.7166 12.9173 31.5656 13.1027 31.5656C13.288 31.5656 13.44 31.7166 13.44 31.9026V33.9317ZM13.8573 30.0021H12.348C12.1613 30.0021 12.0107 29.851 12.0107 29.665C12.0107 29.4792 12.1613 29.3281 12.348 29.3281H13.8573C14.0427 29.3281 14.1947 29.4792 14.1947 29.665C14.1947 29.851 14.0427 30.0021 13.8573 30.0021Z" fill="#74BA24"/>
<path d="M21.336 29.665C21.336 29.1234 20.896 28.6838 20.3533 28.6838V26.2448C20.896 26.2448 21.336 25.8057 21.336 25.263C21.336 24.7218 20.896 24.2822 20.3533 24.2822C20.16 24.2822 19.9773 24.3406 19.8253 24.4385C19.696 24.0469 19.3307 23.7625 18.896 23.7625C18.4613 23.7625 18.0973 24.0469 17.968 24.4385C17.8147 24.3406 17.6347 24.2822 17.4387 24.2822C16.8973 24.2822 16.4573 24.7218 16.4573 25.263C16.4573 25.8057 16.8973 26.2448 17.4387 26.2448V28.6838C16.8973 28.6838 16.4573 29.1234 16.4573 29.665C16.4573 30.2073 16.8973 30.6469 17.4387 30.6469V33.086C16.8973 33.086 16.4573 33.5249 16.4573 34.0666C16.4573 34.6093 16.8973 35.0484 17.4387 35.0484C17.6347 35.0484 17.8147 34.9901 17.968 34.8916C18.0973 35.2833 18.4613 35.5677 18.896 35.5677C19.3307 35.5677 19.696 35.2833 19.8253 34.8916C19.9773 34.9901 20.16 35.0484 20.3533 35.0484C20.896 35.0484 21.336 34.6093 21.336 34.0666C21.336 33.5249 20.896 33.086 20.3533 33.086V30.6469C20.896 30.6469 21.336 30.2073 21.336 29.665ZM18.56 25.3984C18.56 25.212 18.7093 25.0609 18.896 25.0609C19.0827 25.0609 19.2333 25.212 19.2333 25.3984V27.4276C19.2333 27.6136 19.0827 27.765 18.896 27.765C18.7093 27.765 18.56 27.6136 18.56 27.4276V25.3984ZM19.2333 33.9317C19.2333 34.1182 19.0827 34.2693 18.896 34.2693C18.7093 34.2693 18.56 34.1182 18.56 33.9317V31.9026C18.56 31.7166 18.7093 31.5656 18.896 31.5656C19.0827 31.5656 19.2333 31.7166 19.2333 31.9026V33.9317ZM19.6507 30.0021H18.1413C17.9547 30.0021 17.804 29.851 17.804 29.665C17.804 29.4792 17.9547 29.3281 18.1413 29.3281H19.6507C19.8373 29.3281 19.988 29.4792 19.988 29.665C19.988 29.851 19.8373 30.0021 19.6507 30.0021Z" fill="#74BA24"/>
<path d="M27.1293 29.665C27.1293 29.1229 26.6893 28.6838 26.1479 28.6838V26.2448C26.6893 26.2448 27.1293 25.8052 27.1293 25.263C27.1293 24.7218 26.6893 24.2817 26.1479 24.2817C25.9519 24.2817 25.772 24.3406 25.6186 24.4385C25.4893 24.0469 25.1253 23.762 24.6906 23.762C24.256 23.762 23.8906 24.0469 23.7613 24.4385C23.6093 24.3406 23.428 24.2817 23.2333 24.2817C22.692 24.2817 22.252 24.7218 22.252 25.263C22.252 25.8052 22.692 26.2448 23.2333 26.2448V28.6838C22.692 28.6838 22.252 29.1229 22.252 29.665C22.252 30.2073 22.692 30.6469 23.2333 30.6469V33.086C22.692 33.086 22.252 33.5249 22.252 34.0666C22.252 34.6088 22.692 35.0484 23.2333 35.0484C23.428 35.0484 23.6093 34.9901 23.7613 34.8916C23.8906 35.2833 24.256 35.5677 24.6906 35.5677C25.1253 35.5677 25.4893 35.2833 25.6186 34.8916C25.772 34.9901 25.9519 35.0484 26.1479 35.0484C26.6893 35.0484 27.1293 34.6088 27.1293 34.0666C27.1293 33.5249 26.6893 33.086 26.1479 33.086V30.6469C26.6893 30.6469 27.1293 30.2073 27.1293 29.665ZM24.3533 25.3984C24.3533 25.212 24.504 25.0609 24.6906 25.0609C24.876 25.0609 25.0279 25.212 25.0279 25.3984V27.4276C25.0279 27.6136 24.876 27.765 24.6906 27.765C24.504 27.765 24.3533 27.6136 24.3533 27.4276V25.3984ZM25.0279 33.9317C25.0279 34.1182 24.876 34.2693 24.6906 34.2693C24.504 34.2693 24.3533 34.1182 24.3533 33.9317V31.9026C24.3533 31.7166 24.504 31.5656 24.6906 31.5656C24.876 31.5656 25.0279 31.7166 25.0279 31.9026V33.9317ZM25.4453 30.0021H23.936C23.7493 30.0021 23.5973 29.851 23.5973 29.665C23.5973 29.4792 23.7493 29.3281 23.936 29.3281H25.4453C25.6319 29.3281 25.7826 29.4792 25.7826 29.665C25.7826 29.851 25.6319 30.0021 25.4453 30.0021Z" fill="#74BA24"/>
<path d="M9.74665 13.3098C9.74665 12.7682 9.30799 12.3286 8.76532 12.3286V9.88955C9.30799 9.88955 9.74665 9.45048 9.74665 8.90822C9.74665 8.36662 9.30799 7.92701 8.76532 7.92701C8.57065 7.92701 8.38932 7.98541 8.23599 8.08381C8.10666 7.69208 7.74266 7.40728 7.308 7.40728C6.87333 7.40728 6.50932 7.69208 6.37998 8.08381C6.22665 7.98541 6.04666 7.92701 5.85066 7.92701C5.30932 7.92701 4.86932 8.36662 4.86932 8.90822C4.86932 9.45048 5.30932 9.88955 5.85066 9.88955V12.3286C5.30932 12.3286 4.86932 12.7682 4.86932 13.3098C4.86932 13.8526 5.30932 14.2921 5.85066 14.2921V16.7306C5.30932 16.7306 4.86932 17.1697 4.86932 17.7119C4.86932 18.2541 5.30932 18.6931 5.85066 18.6931C6.04666 18.6931 6.22665 18.6349 6.37998 18.5369C6.50932 18.9286 6.87333 19.213 7.308 19.213C7.74266 19.213 8.10666 18.9286 8.23599 18.5369C8.38932 18.6349 8.57065 18.6931 8.76532 18.6931C9.30799 18.6931 9.74665 18.2541 9.74665 17.7119C9.74665 17.1697 9.30799 16.7306 8.76532 16.7306V14.2921C9.30799 14.2921 9.74665 13.8526 9.74665 13.3098ZM6.97199 9.04315C6.97199 8.85728 7.12133 8.70621 7.308 8.70621C7.49466 8.70621 7.64532 8.85728 7.64532 9.04315V11.0723C7.64532 11.2587 7.49466 11.4103 7.308 11.4103C7.12133 11.4103 6.97199 11.2587 6.97199 11.0723V9.04315ZM7.64532 17.577C7.64532 17.7635 7.49466 17.9145 7.308 17.9145C7.12133 17.9145 6.97199 17.7635 6.97199 17.577V15.5473C6.97199 15.3614 7.12133 15.2103 7.308 15.2103C7.49466 15.2103 7.64532 15.3614 7.64532 15.5473V17.577ZM8.06265 13.6473H6.55332C6.36666 13.6473 6.21732 13.4958 6.21732 13.3098C6.21732 13.1239 6.36666 12.9729 6.55332 12.9729H8.06265C8.24932 12.9729 8.39999 13.1239 8.39999 13.3098C8.39999 13.4958 8.24932 13.6473 8.06265 13.6473Z" fill="#74BA24"/>
<path d="M15.5413 13.3098C15.5413 12.7687 15.1027 12.3286 14.56 12.3286V9.88955C15.1027 9.88955 15.5413 9.45048 15.5413 8.90822C15.5413 8.36662 15.1027 7.92701 14.56 7.92701C14.364 7.92701 14.184 7.98541 14.0307 8.08381C13.9027 7.69208 13.5373 7.40781 13.1027 7.40781C12.668 7.40781 12.3027 7.69208 12.1733 8.08381C12.0213 7.98541 11.84 7.92701 11.6453 7.92701C11.1027 7.92701 10.664 8.36662 10.664 8.90822C10.664 9.45048 11.1027 9.88955 11.6453 9.88955V12.3286C11.1027 12.3286 10.664 12.7687 10.664 13.3098C10.664 13.8526 11.1027 14.2921 11.6453 14.2921V16.7306C11.1027 16.7306 10.664 17.1697 10.664 17.7119C10.664 18.2541 11.1027 18.6931 11.6453 18.6931C11.84 18.6931 12.0213 18.6349 12.1733 18.5369C12.3027 18.9286 12.668 19.213 13.1027 19.213C13.5373 19.213 13.9027 18.9286 14.0307 18.5369C14.184 18.6349 14.364 18.6931 14.56 18.6931C15.1027 18.6931 15.5413 18.2541 15.5413 17.7119C15.5413 17.1697 15.1027 16.7306 14.56 16.7306V14.2921C15.1027 14.2921 15.5413 13.8526 15.5413 13.3098ZM12.7653 9.04315C12.7653 8.85728 12.9173 8.70621 13.1027 8.70621C13.288 8.70621 13.44 8.85728 13.44 9.04315V11.0723C13.44 11.2587 13.288 11.4103 13.1027 11.4103C12.9173 11.4103 12.7653 11.2587 12.7653 11.0723V9.04315ZM13.44 17.577C13.44 17.7635 13.288 17.9145 13.1027 17.9145C12.9173 17.9145 12.7653 17.7635 12.7653 17.577V15.5478C12.7653 15.3614 12.9173 15.2109 13.1027 15.2109C13.288 15.2109 13.44 15.3614 13.44 15.5478V17.577ZM13.8573 13.6473H12.348C12.1613 13.6473 12.0107 13.4958 12.0107 13.3098C12.0107 13.1239 12.1613 12.9729 12.348 12.9729H13.8573C14.0427 12.9729 14.1947 13.1239 14.1947 13.3098C14.1947 13.4958 14.0427 13.6473 13.8573 13.6473Z" fill="#74BA24"/>
<path d="M21.336 13.3098C21.336 12.7687 20.896 12.3286 20.3533 12.3286V9.88955C20.896 9.88955 21.336 9.45048 21.336 8.90822C21.336 8.36662 20.896 7.92701 20.3533 7.92701C20.16 7.92701 19.9773 7.98541 19.8253 8.08381C19.696 7.69208 19.3307 7.40781 18.896 7.40781C18.4613 7.40781 18.0973 7.69208 17.968 8.08381C17.8147 7.98541 17.6347 7.92701 17.4387 7.92701C16.8973 7.92701 16.4573 8.36662 16.4573 8.90822C16.4573 9.45048 16.8973 9.88955 17.4387 9.88955V12.3286C16.8973 12.3286 16.4573 12.7687 16.4573 13.3098C16.4573 13.8526 16.8973 14.2921 17.4387 14.2921V16.7306C16.8973 16.7306 16.4573 17.1697 16.4573 17.7119C16.4573 18.2541 16.8973 18.6931 17.4387 18.6931C17.6347 18.6931 17.8147 18.6349 17.968 18.5369C18.0973 18.9286 18.4613 19.213 18.896 19.213C19.3307 19.213 19.696 18.9286 19.8253 18.5369C19.9773 18.6349 20.16 18.6931 20.3533 18.6931C20.896 18.6931 21.336 18.2541 21.336 17.7119C21.336 17.1697 20.896 16.7306 20.3533 16.7306V14.2921C20.896 14.2921 21.336 13.8526 21.336 13.3098ZM18.56 9.04315C18.56 8.85728 18.7093 8.70621 18.896 8.70621C19.0827 8.70621 19.2333 8.85728 19.2333 9.04315V11.0723C19.2333 11.2587 19.0827 11.4103 18.896 11.4103C18.7093 11.4103 18.56 11.2587 18.56 11.0723V9.04315ZM19.2333 17.577C19.2333 17.7635 19.0827 17.9145 18.896 17.9145C18.7093 17.9145 18.56 17.7635 18.56 17.577V15.5478C18.56 15.3614 18.7093 15.2109 18.896 15.2109C19.0827 15.2109 19.2333 15.3614 19.2333 15.5478V17.577ZM19.6507 13.6473H18.1413C17.9547 13.6473 17.804 13.4958 17.804 13.3098C17.804 13.1239 17.9547 12.9729 18.1413 12.9729H19.6507C19.8373 12.9729 19.988 13.1239 19.988 13.3098C19.988 13.4958 19.8373 13.6473 19.6507 13.6473Z" fill="#74BA24"/>
<path d="M27.1293 13.3098C27.1293 12.7682 26.6893 12.3286 26.1479 12.3286V9.88955C26.6893 9.88955 27.1293 9.45048 27.1293 8.90822C27.1293 8.36662 26.6893 7.92701 26.1479 7.92701C25.9519 7.92701 25.772 7.98541 25.6186 8.08381C25.4893 7.69208 25.1253 7.40728 24.6906 7.40728C24.256 7.40728 23.8906 7.69208 23.7613 8.08381C23.6093 7.98541 23.428 7.92701 23.2333 7.92701C22.692 7.92701 22.252 8.36662 22.252 8.90822C22.252 9.45048 22.692 9.88955 23.2333 9.88955V12.3286C22.692 12.3286 22.252 12.7682 22.252 13.3098C22.252 13.8526 22.692 14.2921 23.2333 14.2921V16.7306C22.692 16.7306 22.252 17.1697 22.252 17.7119C22.252 18.2541 22.692 18.6931 23.2333 18.6931C23.428 18.6931 23.6093 18.6349 23.7613 18.5369C23.8906 18.9286 24.256 19.213 24.6906 19.213C25.1253 19.213 25.4893 18.9286 25.6186 18.5369C25.772 18.6349 25.9519 18.6931 26.1479 18.6931C26.6893 18.6931 27.1293 18.2541 27.1293 17.7119C27.1293 17.1697 26.6893 16.7306 26.1479 16.7306V14.2921C26.6893 14.2921 27.1293 13.8526 27.1293 13.3098ZM24.3533 9.04315C24.3533 8.85728 24.504 8.70621 24.6906 8.70621C24.876 8.70621 25.0279 8.85728 25.0279 9.04315V11.0723C25.0279 11.2587 24.876 11.4103 24.6906 11.4103C24.504 11.4103 24.3533 11.2587 24.3533 11.0723V9.04315ZM25.0279 17.577C25.0279 17.7635 24.876 17.9145 24.6906 17.9145C24.504 17.9145 24.3533 17.7635 24.3533 17.577V15.5473C24.3533 15.3614 24.504 15.2103 24.6906 15.2103C24.876 15.2103 25.0279 15.3614 25.0279 15.5473V17.577ZM25.4453 13.6473H23.936C23.7493 13.6473 23.5973 13.4958 23.5973 13.3098C23.5973 13.1239 23.7493 12.9729 23.936 12.9729H25.4453C25.6319 12.9729 25.7826 13.1239 25.7826 13.3098C25.7826 13.4958 25.6319 13.6473 25.4453 13.6473Z" fill="#74BA24"/>
</svg>
