<svg width="32" height="43" viewBox="0 0 32 43" fill="none" xmlns="http://www.w3.org/2000/svg">
<path d="M11.884 21.488C11.884 20.9787 11.4707 20.5651 10.96 20.5651V18.2713C11.4707 18.2713 11.884 17.8579 11.884 17.3484C11.884 16.8391 11.4707 16.4255 10.96 16.4255C10.776 16.4255 10.6067 16.4803 10.4627 16.5729C10.3414 16.2047 9.99868 15.9369 9.59068 15.9369C9.18135 15.9369 8.83868 16.2047 8.71734 16.5729C8.57334 16.4803 8.40268 16.4255 8.21868 16.4255C7.70934 16.4255 7.29602 16.8391 7.29602 17.3484C7.29602 17.8579 7.70934 18.2713 8.21868 18.2713V20.5651C7.70934 20.5651 7.29602 20.9787 7.29602 21.488C7.29602 21.9979 7.70934 22.4115 8.21868 22.4115V24.7052C7.70934 24.7052 7.29602 25.1177 7.29602 25.6276C7.29602 26.1375 7.70934 26.5505 8.21868 26.5505C8.40268 26.5505 8.57334 26.4953 8.71734 26.4031C8.83868 26.7719 9.18135 27.0391 9.59068 27.0391C9.99868 27.0391 10.3414 26.7719 10.4627 26.4031C10.6067 26.4953 10.776 26.5505 10.96 26.5505C11.4707 26.5505 11.884 26.1375 11.884 25.6276C11.884 25.1177 11.4707 24.7052 10.96 24.7052V22.4115C11.4707 22.4115 11.884 21.9979 11.884 21.488ZM9.27336 17.4755C9.27336 17.3 9.41468 17.1579 9.59068 17.1579C9.76535 17.1579 9.9067 17.3 9.9067 17.4755V19.3839C9.9067 19.5593 9.76535 19.7016 9.59068 19.7016C9.41468 19.7016 9.27336 19.5593 9.27336 19.3839V17.4755ZM9.9067 25.5011C9.9067 25.676 9.76535 25.8183 9.59068 25.8183C9.41468 25.8183 9.27336 25.676 9.27336 25.5011V23.5921C9.27336 23.4172 9.41468 23.2749 9.59068 23.2749C9.76535 23.2749 9.9067 23.4172 9.9067 23.5921V25.5011ZM10.3 21.8052H8.88004C8.70537 21.8052 8.56269 21.6631 8.56269 21.488C8.56269 21.3131 8.70537 21.1713 8.88004 21.1713H10.3C10.4747 21.1713 10.6173 21.3131 10.6173 21.488C10.6173 21.6631 10.4747 21.8052 10.3 21.8052Z" fill="#74BA24"/>
<path d="M23.8814 21.488C23.8814 20.9787 23.468 20.5651 22.9573 20.5651V18.2713C23.468 18.2713 23.8814 17.8579 23.8814 17.3484C23.8814 16.8391 23.468 16.4255 22.9573 16.4255C22.7733 16.4255 22.604 16.4803 22.46 16.5729C22.3387 16.2047 21.996 15.9369 21.588 15.9369C21.1787 15.9369 20.836 16.2047 20.7147 16.5729C20.5707 16.4803 20.4 16.4255 20.2173 16.4255C19.7067 16.4255 19.2933 16.8391 19.2933 17.3484C19.2933 17.8579 19.7067 18.2713 20.2173 18.2713V20.5651C19.7067 20.5651 19.2933 20.9787 19.2933 21.488C19.2933 21.9979 19.7067 22.4115 20.2173 22.4115V24.7052C19.7067 24.7052 19.2933 25.1177 19.2933 25.6276C19.2933 26.1375 19.7067 26.5505 20.2173 26.5505C20.4 26.5505 20.5707 26.4953 20.7147 26.4031C20.836 26.7719 21.1787 27.0391 21.588 27.0391C21.996 27.0391 22.3387 26.7719 22.46 26.4031C22.604 26.4953 22.7733 26.5505 22.9573 26.5505C23.468 26.5505 23.8814 26.1375 23.8814 25.6276C23.8814 25.1177 23.468 24.7052 22.9573 24.7052V22.4115C23.468 22.4115 23.8814 21.9979 23.8814 21.488ZM21.2707 17.4755C21.2707 17.3 21.412 17.1579 21.588 17.1579C21.7627 17.1579 21.904 17.3 21.904 17.4755V19.3839C21.904 19.5593 21.7627 19.7016 21.588 19.7016C21.412 19.7016 21.2707 19.5593 21.2707 19.3839V17.4755ZM21.904 25.5011C21.904 25.676 21.7627 25.8183 21.588 25.8183C21.412 25.8183 21.2707 25.676 21.2707 25.5011V23.5921C21.2707 23.4172 21.412 23.2749 21.588 23.2749C21.7627 23.2749 21.904 23.4172 21.904 23.5921V25.5011ZM22.2973 21.8052H20.8774C20.7027 21.8052 20.56 21.6631 20.56 21.488C20.56 21.3131 20.7027 21.1713 20.8774 21.1713H22.2973C22.472 21.1713 22.6147 21.3131 22.6147 21.488C22.6147 21.6631 22.472 21.8052 22.2973 21.8052Z" fill="#74BA24"/>
<path d="M17.8827 21.488C17.8827 20.9787 17.4693 20.5651 16.9587 20.5651V18.2713C17.4693 18.2713 17.8827 17.8579 17.8827 17.3484C17.8827 16.8385 17.4693 16.4255 16.9587 16.4255C16.776 16.4255 16.6053 16.4803 16.4613 16.5729C16.34 16.2047 15.9973 15.9369 15.588 15.9369C15.18 15.9369 14.8374 16.2047 14.716 16.5729C14.572 16.4803 14.4013 16.4255 14.2173 16.4255C13.708 16.4255 13.2947 16.8385 13.2947 17.3484C13.2947 17.8579 13.708 18.2713 14.2173 18.2713V20.5651C13.708 20.5651 13.2947 20.9787 13.2947 21.488C13.2947 21.9973 13.708 22.4115 14.2173 22.4115V24.7052C13.708 24.7052 13.2947 25.1177 13.2947 25.6276C13.2947 26.1375 13.708 26.5505 14.2173 26.5505C14.4013 26.5505 14.572 26.4953 14.716 26.4031C14.8374 26.7719 15.18 27.0391 15.588 27.0391C15.9973 27.0391 16.34 26.7719 16.4613 26.4031C16.6053 26.4953 16.776 26.5505 16.9587 26.5505C17.4693 26.5505 17.8827 26.1375 17.8827 25.6276C17.8827 25.1177 17.4693 24.7052 16.9587 24.7052V22.4115C17.4693 22.4115 17.8827 21.9973 17.8827 21.488ZM15.272 17.4755C15.272 17.3 15.4133 17.1579 15.588 17.1579C15.764 17.1579 15.9054 17.3 15.9054 17.4755V19.3839C15.9054 19.5588 15.764 19.7011 15.588 19.7011C15.4133 19.7011 15.272 19.5588 15.272 19.3839V17.4755ZM15.9054 25.5011C15.9054 25.676 15.764 25.8177 15.588 25.8177C15.4133 25.8177 15.272 25.676 15.272 25.5011V23.5921C15.272 23.4172 15.4133 23.2749 15.588 23.2749C15.764 23.2749 15.9054 23.4172 15.9054 23.5921V25.5011ZM16.2987 21.8052H14.8787C14.704 21.8052 14.5613 21.6631 14.5613 21.488C14.5613 21.3125 14.704 21.1708 14.8787 21.1708H16.2987C16.4733 21.1708 16.616 21.3125 16.616 21.488C16.616 21.6631 16.4733 21.8052 16.2987 21.8052Z" fill="#ED1C24"/>
<path d="M11.884 9.98275C11.884 9.47288 11.4707 9.05928 10.96 9.05928V6.76555C11.4707 6.76555 11.884 6.35261 11.884 5.84261C11.884 5.33275 11.4707 4.91968 10.96 4.91968C10.776 4.91968 10.6067 4.97488 10.4627 5.06715C10.3414 4.69888 9.99868 4.43061 9.59068 4.43061C9.18135 4.43061 8.83868 4.69888 8.71734 5.06715C8.57334 4.97488 8.40268 4.91968 8.21868 4.91968C7.70934 4.91968 7.29602 5.33275 7.29602 5.84261C7.29602 6.35261 7.70934 6.76555 8.21868 6.76555V9.05928C7.70934 9.05928 7.29602 9.47288 7.29602 9.98275C7.29602 10.4921 7.70934 10.9057 8.21868 10.9057V13.1989C7.70934 13.1989 7.29602 13.6125 7.29602 14.1218C7.29602 14.6317 7.70934 15.0453 8.21868 15.0453C8.40268 15.0453 8.57334 14.9895 8.71734 14.8973C8.83868 15.2661 9.18135 15.5338 9.59068 15.5338C9.99868 15.5338 10.3414 15.2661 10.4627 14.8973C10.6067 14.9895 10.776 15.0453 10.96 15.0453C11.4707 15.0453 11.884 14.6317 11.884 14.1218C11.884 13.6125 11.4707 13.1989 10.96 13.1989V10.9057C11.4707 10.9057 11.884 10.4921 11.884 9.98275ZM9.27336 5.96968C9.27336 5.79475 9.41468 5.65262 9.59068 5.65262C9.76535 5.65262 9.9067 5.79475 9.9067 5.96968V7.87808C9.9067 8.05301 9.76535 8.19528 9.59068 8.19528C9.41468 8.19528 9.27336 8.05301 9.27336 7.87808V5.96968ZM9.9067 13.9947C9.9067 14.1702 9.76535 14.3125 9.59068 14.3125C9.41468 14.3125 9.27336 14.1702 9.27336 13.9947V12.0863C9.27336 11.9114 9.41468 11.7697 9.59068 11.7697C9.76535 11.7697 9.9067 11.9114 9.9067 12.0863V13.9947ZM10.3 10.2994H8.88004C8.70537 10.2994 8.56269 10.1578 8.56269 9.98275C8.56269 9.80728 8.70537 9.66555 8.88004 9.66555H10.3C10.4747 9.66555 10.6173 9.80728 10.6173 9.98275C10.6173 10.1578 10.4747 10.2994 10.3 10.2994Z" fill="#74BA24"/>
<path d="M23.8814 9.98275C23.8814 9.47288 23.468 9.05928 22.9573 9.05928V6.76555C23.468 6.76555 23.8814 6.35261 23.8814 5.84261C23.8814 5.33275 23.468 4.91968 22.9573 4.91968C22.7733 4.91968 22.604 4.97488 22.46 5.06715C22.3387 4.69888 21.996 4.43061 21.588 4.43061C21.1787 4.43061 20.836 4.69888 20.7147 5.06715C20.5707 4.97488 20.4 4.91968 20.2173 4.91968C19.7067 4.91968 19.2933 5.33275 19.2933 5.84261C19.2933 6.35261 19.7067 6.76555 20.2173 6.76555V9.05928C19.7067 9.05928 19.2933 9.47288 19.2933 9.98275C19.2933 10.4921 19.7067 10.9057 20.2173 10.9057V13.1989C19.7067 13.1989 19.2933 13.6125 19.2933 14.1218C19.2933 14.6317 19.7067 15.0453 20.2173 15.0453C20.4 15.0453 20.5707 14.9895 20.7147 14.8973C20.836 15.2661 21.1787 15.5338 21.588 15.5338C21.996 15.5338 22.3387 15.2661 22.46 14.8973C22.604 14.9895 22.7733 15.0453 22.9573 15.0453C23.468 15.0453 23.8814 14.6317 23.8814 14.1218C23.8814 13.6125 23.468 13.1989 22.9573 13.1989V10.9057C23.468 10.9057 23.8814 10.4921 23.8814 9.98275ZM21.2707 5.96968C21.2707 5.79475 21.412 5.65262 21.588 5.65262C21.7627 5.65262 21.904 5.79475 21.904 5.96968V7.87808C21.904 8.05301 21.7627 8.19528 21.588 8.19528C21.412 8.19528 21.2707 8.05301 21.2707 7.87808V5.96968ZM21.904 13.9947C21.904 14.1702 21.7627 14.3125 21.588 14.3125C21.412 14.3125 21.2707 14.1702 21.2707 13.9947V12.0863C21.2707 11.9114 21.412 11.7697 21.588 11.7697C21.7627 11.7697 21.904 11.9114 21.904 12.0863V13.9947ZM22.2973 10.2994H20.8774C20.7027 10.2994 20.56 10.1578 20.56 9.98275C20.56 9.80728 20.7027 9.66555 20.8774 9.66555H22.2973C22.472 9.66555 22.6147 9.80728 22.6147 9.98275C22.6147 10.1578 22.472 10.2994 22.2973 10.2994Z" fill="#74BA24"/>
<path d="M17.8827 9.98275C17.8827 9.47288 17.4693 9.05928 16.9587 9.05928V6.76555C17.4693 6.76555 17.8827 6.35261 17.8827 5.84261C17.8827 5.33275 17.4693 4.91968 16.9587 4.91968C16.776 4.91968 16.6053 4.97488 16.4613 5.06715C16.34 4.69888 15.9973 4.43061 15.588 4.43061C15.18 4.43061 14.8374 4.69888 14.716 5.06715C14.572 4.97488 14.4013 4.91968 14.2173 4.91968C13.708 4.91968 13.2947 5.33275 13.2947 5.84261C13.2947 6.35261 13.708 6.76555 14.2173 6.76555V9.05928C13.708 9.05928 13.2947 9.47288 13.2947 9.98275C13.2947 10.4921 13.708 10.9057 14.2173 10.9057V13.1989C13.708 13.1989 13.2947 13.6119 13.2947 14.1218C13.2947 14.6317 13.708 15.0453 14.2173 15.0453C14.4013 15.0453 14.572 14.9895 14.716 14.8973C14.8374 15.2661 15.18 15.5338 15.588 15.5338C15.9973 15.5338 16.34 15.2661 16.4613 14.8973C16.6053 14.9895 16.776 15.0453 16.9587 15.0453C17.4693 15.0453 17.8827 14.6317 17.8827 14.1218C17.8827 13.6119 17.4693 13.1989 16.9587 13.1989V10.9057C17.4693 10.9057 17.8827 10.4921 17.8827 9.98275ZM15.272 5.96968C15.272 5.79475 15.4133 5.65262 15.588 5.65262C15.764 5.65262 15.9054 5.79475 15.9054 5.96968V7.87808C15.9054 8.05301 15.764 8.19475 15.588 8.19475C15.4133 8.19475 15.272 8.05301 15.272 7.87808V5.96968ZM15.9054 13.9947C15.9054 14.1702 15.764 14.3119 15.588 14.3119C15.4133 14.3119 15.272 14.1702 15.272 13.9947V12.0863C15.272 11.9114 15.4133 11.7697 15.588 11.7697C15.764 11.7697 15.9054 11.9114 15.9054 12.0863V13.9947ZM16.2987 10.2994H14.8787C14.704 10.2994 14.5613 10.1573 14.5613 9.98275C14.5613 9.80728 14.704 9.66501 14.8787 9.66501H16.2987C16.4733 9.66501 16.616 9.80728 16.616 9.98275C16.616 10.1573 16.4733 10.2994 16.2987 10.2994Z" fill="#ED1C24"/>
<path d="M11.884 32.9937C11.884 32.4839 11.4707 32.0708 10.96 32.0708V29.7771C11.4707 29.7771 11.884 29.3636 11.884 28.8541C11.884 28.3443 11.4707 27.9307 10.96 27.9307C10.776 27.9307 10.6067 27.986 10.4627 28.0787C10.3414 27.7104 9.99868 27.4427 9.59068 27.4427C9.18135 27.4427 8.83868 27.7104 8.71734 28.0787C8.57334 27.986 8.40268 27.9307 8.21868 27.9307C7.70934 27.9307 7.29602 28.3443 7.29602 28.8541C7.29602 29.3636 7.70934 29.7771 8.21868 29.7771V32.0708C7.70934 32.0708 7.29602 32.4839 7.29602 32.9937C7.29602 33.5036 7.70934 33.9167 8.21868 33.9167V36.2104C7.70934 36.2104 7.29602 36.624 7.29602 37.1339C7.29602 37.6432 7.70934 38.0568 8.21868 38.0568C8.40268 38.0568 8.57334 38.0016 8.71734 37.9093C8.83868 38.2771 9.18135 38.5448 9.59068 38.5448C9.99868 38.5448 10.3414 38.2771 10.4627 37.9093C10.6067 38.0016 10.776 38.0568 10.96 38.0568C11.4707 38.0568 11.884 37.6432 11.884 37.1339C11.884 36.624 11.4707 36.2104 10.96 36.2104V33.9167C11.4707 33.9167 11.884 33.5036 11.884 32.9937ZM9.27336 28.9807C9.27336 28.8057 9.41468 28.664 9.59068 28.664C9.76535 28.664 9.9067 28.8057 9.9067 28.9807V30.8896C9.9067 31.0645 9.76535 31.2068 9.59068 31.2068C9.41468 31.2068 9.27336 31.0645 9.27336 30.8896V28.9807ZM9.9067 37.0068C9.9067 37.1817 9.76535 37.324 9.59068 37.324C9.41468 37.324 9.27336 37.1817 9.27336 37.0068V35.0979C9.27336 34.9224 9.41468 34.7807 9.59068 34.7807C9.76535 34.7807 9.9067 34.9224 9.9067 35.0979V37.0068ZM10.3 33.3104H8.88004C8.70537 33.3104 8.56269 33.1688 8.56269 32.9937C8.56269 32.8188 8.70537 32.6765 8.88004 32.6765H10.3C10.4747 32.6765 10.6173 32.8188 10.6173 32.9937C10.6173 33.1688 10.4747 33.3104 10.3 33.3104Z" fill="#74BA24"/>
<path d="M17.8827 32.9937C17.8827 32.4839 17.4693 32.0708 16.9587 32.0708V29.7771C17.4693 29.7771 17.8827 29.364 17.8827 28.8541C17.8827 28.3443 17.4693 27.9312 16.9587 27.9312C16.776 27.9312 16.6053 27.986 16.4613 28.0787C16.34 27.7104 15.9973 27.4427 15.588 27.4427C15.18 27.4427 14.8374 27.7104 14.716 28.0787C14.572 27.986 14.4013 27.9312 14.2173 27.9312C13.708 27.9312 13.2947 28.3443 13.2947 28.8541C13.2947 29.364 13.708 29.7771 14.2173 29.7771V32.0708C13.708 32.0708 13.2947 32.4839 13.2947 32.9937C13.2947 33.5036 13.708 33.9167 14.2173 33.9167V36.2104C13.708 36.2104 13.2947 36.624 13.2947 37.1339C13.2947 37.6432 13.708 38.0568 14.2173 38.0568C14.4013 38.0568 14.572 38.0016 14.716 37.9093C14.8374 38.2771 15.18 38.5448 15.588 38.5448C15.9973 38.5448 16.34 38.2771 16.4613 37.9093C16.6053 38.0016 16.776 38.0568 16.9587 38.0568C17.4693 38.0568 17.8827 37.6432 17.8827 37.1339C17.8827 36.624 17.4693 36.2104 16.9587 36.2104V33.9167C17.4693 33.9167 17.8827 33.5036 17.8827 32.9937ZM15.272 28.9807C15.272 28.8063 15.4133 28.664 15.588 28.664C15.764 28.664 15.9054 28.8063 15.9054 28.9807V30.8896C15.9054 31.0645 15.764 31.2068 15.588 31.2068C15.4133 31.2068 15.272 31.0645 15.272 30.8896V28.9807ZM15.9054 37.0068C15.9054 37.1817 15.764 37.324 15.588 37.324C15.4133 37.324 15.272 37.1817 15.272 37.0068V35.0979C15.272 34.9229 15.4133 34.7812 15.588 34.7812C15.764 34.7812 15.9054 34.9229 15.9054 35.0979V37.0068ZM16.2987 33.3104H14.8787C14.704 33.3104 14.5613 33.1688 14.5613 32.9937C14.5613 32.8188 14.704 32.6765 14.8787 32.6765H16.2987C16.4733 32.6765 16.616 32.8188 16.616 32.9937C16.616 33.1688 16.4733 33.3104 16.2987 33.3104Z" fill="#ED1C24"/>
<path d="M23.8814 32.9937C23.8814 32.4839 23.468 32.0708 22.9573 32.0708V29.7771C23.468 29.7771 23.8814 29.3636 23.8814 28.8541C23.8814 28.3443 23.468 27.9307 22.9573 27.9307C22.7733 27.9307 22.604 27.986 22.46 28.0787C22.3387 27.7104 21.996 27.4427 21.588 27.4427C21.1787 27.4427 20.836 27.7104 20.7147 28.0787C20.5707 27.986 20.4 27.9307 20.2173 27.9307C19.7067 27.9307 19.2933 28.3443 19.2933 28.8541C19.2933 29.3636 19.7067 29.7771 20.2173 29.7771V32.0708C19.7067 32.0708 19.2933 32.4839 19.2933 32.9937C19.2933 33.5036 19.7067 33.9167 20.2173 33.9167V36.2104C19.7067 36.2104 19.2933 36.624 19.2933 37.1339C19.2933 37.6432 19.7067 38.0568 20.2173 38.0568C20.4 38.0568 20.5707 38.0016 20.7147 37.9093C20.836 38.2771 21.1787 38.5448 21.588 38.5448C21.996 38.5448 22.3387 38.2771 22.46 37.9093C22.604 38.0016 22.7733 38.0568 22.9573 38.0568C23.468 38.0568 23.8814 37.6432 23.8814 37.1339C23.8814 36.624 23.468 36.2104 22.9573 36.2104V33.9167C23.468 33.9167 23.8814 33.5036 23.8814 32.9937ZM21.2707 28.9807C21.2707 28.8057 21.412 28.664 21.588 28.664C21.7627 28.664 21.904 28.8057 21.904 28.9807V30.8896C21.904 31.0645 21.7627 31.2068 21.588 31.2068C21.412 31.2068 21.2707 31.0645 21.2707 30.8896V28.9807ZM21.904 37.0068C21.904 37.1817 21.7627 37.324 21.588 37.324C21.412 37.324 21.2707 37.1817 21.2707 37.0068V35.0979C21.2707 34.9224 21.412 34.7807 21.588 34.7807C21.7627 34.7807 21.904 34.9224 21.904 35.0979V37.0068ZM22.2973 33.3104H20.8774C20.7027 33.3104 20.56 33.1688 20.56 32.9937C20.56 32.8188 20.7027 32.6765 20.8774 32.6765H22.2973C22.472 32.6765 22.6147 32.8188 22.6147 32.9937C22.6147 33.1688 22.472 33.3104 22.2973 33.3104Z" fill="#74BA24"/>
</svg>
