<svg width="31" height="43" viewBox="0 0 31 43" fill="none" xmlns="http://www.w3.org/2000/svg">
<rect width="31" height="43" rx="5" fill="white"/>
<path d="M15.8282 11.464C16.0522 11.464 16.2442 11.52 16.4042 11.632C16.5642 11.744 16.6442 11.872 16.6442 12.016C16.6442 12.176 16.7322 12.312 16.9082 12.424C17.0842 12.536 17.2842 12.592 17.5082 12.592H22.6922C22.9162 12.592 23.1082 12.68 23.2682 12.856C23.4282 13.016 23.5082 13.208 23.5082 13.432V14.008C23.5082 14.232 23.4282 14.432 23.2682 14.608C23.1082 14.768 22.9162 14.848 22.6922 14.848H17.5082C17.2842 14.848 17.0842 14.928 16.9082 15.088C16.7322 15.248 16.6442 15.44 16.6442 15.664V15.832C16.6442 16.072 16.7242 16.272 16.8842 16.432C17.0602 16.592 17.2682 16.672 17.5082 16.672H22.6922C22.9162 16.672 23.1082 16.76 23.2682 16.936C23.4282 17.096 23.5082 17.296 23.5082 17.536V30.904C23.5082 31.128 23.4522 31.376 23.3402 31.648C23.2282 31.936 23.0922 32.152 22.9322 32.296L22.3322 32.896C22.1562 33.072 21.9322 33.216 21.6602 33.328C21.3882 33.44 21.1322 33.496 20.8922 33.496H19.3082C19.0842 33.496 18.8922 33.408 18.7322 33.232C18.5722 33.072 18.4922 32.88 18.4922 32.656V32.104C18.4922 31.864 18.5722 31.664 18.7322 31.504C18.8922 31.344 19.0842 31.264 19.3082 31.264H20.4362C20.6762 31.264 20.8762 31.184 21.0362 31.024C21.1962 30.864 21.2762 30.664 21.2762 30.424V19.744C21.2762 19.52 21.1962 19.328 21.0362 19.168C20.8762 18.992 20.6762 18.904 20.4362 18.904H10.5722C10.3322 18.904 10.1322 18.992 9.97222 19.168C9.81222 19.328 9.73222 19.52 9.73222 19.744V32.656C9.73222 32.88 9.65222 33.072 9.49222 33.232C9.33222 33.408 9.13222 33.496 8.89222 33.496H8.31622C8.09222 33.496 7.90022 33.408 7.74022 33.232C7.58022 33.072 7.50022 32.88 7.50022 32.656V17.536C7.50022 17.296 7.58022 17.096 7.74022 16.936C7.90022 16.76 8.09222 16.672 8.31622 16.672H13.5962C13.8202 16.672 14.0122 16.592 14.1722 16.432C14.3322 16.272 14.4122 16.072 14.4122 15.832V15.664C14.4122 15.44 14.3322 15.248 14.1722 15.088C14.0122 14.928 13.8202 14.848 13.5962 14.848H8.31622C8.09222 14.848 7.90022 14.768 7.74022 14.608C7.58022 14.432 7.50022 14.232 7.50022 14.008V13.432C7.50022 13.208 7.58022 13.016 7.74022 12.856C7.90022 12.68 8.09222 12.592 8.31622 12.592H13.5962C13.8202 12.592 14.0122 12.536 14.1722 12.424C14.3322 12.312 14.4122 12.176 14.4122 12.016C14.4122 11.872 14.5002 11.744 14.6762 11.632C14.8522 11.52 15.0522 11.464 15.2762 11.464H15.8282ZM11.9642 20.248C12.2042 20.248 12.3962 20.288 12.5402 20.368C12.7002 20.432 12.7802 20.528 12.7802 20.656C12.7802 20.768 12.8602 20.864 13.0202 20.944C13.1962 21.008 13.3962 21.04 13.6202 21.04H14.2922C14.5322 21.04 14.7322 21.128 14.8922 21.304C15.0522 21.464 15.1322 21.664 15.1322 21.904V22.456C15.1322 22.68 15.0522 22.88 14.8922 23.056C14.7322 23.216 14.5322 23.296 14.2922 23.296H13.1642C12.9242 23.296 12.6682 23.24 12.3962 23.128C12.1242 23.016 11.9002 22.872 11.7242 22.696L11.1482 22.096C10.7802 21.68 10.5962 21.288 10.5962 20.92C10.5962 20.712 10.6602 20.552 10.7882 20.44C10.9162 20.312 11.1162 20.248 11.3882 20.248H11.9642ZM19.3082 22.696C19.1322 22.872 18.9082 23.016 18.6362 23.128C18.3642 23.24 18.1082 23.296 17.8682 23.296H16.7162C16.4922 23.296 16.3002 23.216 16.1402 23.056C15.9802 22.88 15.9002 22.68 15.9002 22.456V21.904C15.9002 21.68 15.9802 21.48 16.1402 21.304C16.3002 21.128 16.4922 21.04 16.7162 21.04H17.4362C17.6762 21.04 17.8762 21.008 18.0362 20.944C18.1962 20.864 18.2762 20.768 18.2762 20.656C18.2762 20.528 18.3482 20.432 18.4922 20.368C18.6522 20.288 18.8522 20.248 19.0922 20.248H19.6442C20.1882 20.248 20.4602 20.464 20.4602 20.896C20.4602 21.072 20.4042 21.272 20.2922 21.496C20.1962 21.704 20.0602 21.904 19.8842 22.096L19.3082 22.696ZM13.5962 28C13.8202 28 14.0122 27.92 14.1722 27.76C14.3322 27.6 14.4122 27.4 14.4122 27.16V27.112C14.4122 26.888 14.3322 26.696 14.1722 26.536C14.0122 26.376 13.8202 26.296 13.5962 26.296H11.1722C10.9482 26.296 10.7482 26.216 10.5722 26.056C10.4122 25.88 10.3322 25.68 10.3322 25.456V24.904C10.3322 24.664 10.4122 24.464 10.5722 24.304C10.7482 24.144 10.9482 24.064 11.1722 24.064H19.8842C20.1242 24.064 20.3242 24.144 20.4842 24.304C20.6442 24.464 20.7242 24.664 20.7242 24.904V25.456C20.7242 25.68 20.6442 25.88 20.4842 26.056C20.3242 26.216 20.1242 26.296 19.8842 26.296H17.5082C17.2842 26.296 17.0842 26.376 16.9082 26.536C16.7322 26.696 16.6442 26.888 16.6442 27.112V27.16C16.6442 27.4 16.7242 27.6 16.8842 27.76C17.0602 27.92 17.2682 28 17.5082 28H19.8842C20.1242 28 20.3242 28.08 20.4842 28.24C20.6442 28.4 20.7242 28.6 20.7242 28.84V29.416C20.7242 29.64 20.6442 29.832 20.4842 29.992C20.3242 30.152 20.1242 30.232 19.8842 30.232H17.5082C17.2842 30.232 17.0842 30.312 16.9082 30.472C16.7322 30.632 16.6442 30.824 16.6442 31.048V32.656C16.6442 32.88 16.5642 33.072 16.4042 33.232C16.2442 33.408 16.0522 33.496 15.8282 33.496H15.2762C15.0522 33.496 14.8522 33.408 14.6762 33.232C14.5002 33.072 14.4122 32.88 14.4122 32.656V31.048C14.4122 30.824 14.3322 30.632 14.1722 30.472C14.0122 30.312 13.8202 30.232 13.5962 30.232H11.1722C10.9482 30.232 10.7482 30.152 10.5722 29.992C10.4122 29.832 10.3322 29.64 10.3322 29.416V28.84C10.3322 28.6 10.4122 28.4 10.5722 28.24C10.7482 28.08 10.9482 28 11.1722 28H13.5962Z" fill="#181818"/>
</svg>
