<svg width="31" height="43" viewBox="0 0 31 43" fill="none" xmlns="http://www.w3.org/2000/svg">
<path fill-rule="evenodd" clip-rule="evenodd" d="M13.7573 27.208L13.852 26.0707C13.8707 25.864 13.9653 25.7867 14.1747 25.8013C14.356 25.8187 14.424 25.8907 14.4427 26.0667C14.4773 26.4027 14.5067 26.74 14.5333 27.0787C14.6507 27.06 14.764 27.0427 14.88 27.0267C15.7333 26.9054 16.576 26.7454 17.444 26.7987C17.884 26.8254 18.3213 26.8707 18.752 26.9654C19.2013 27.0627 19.644 27.2014 20.0427 27.4387C20.2213 27.5454 20.252 27.6627 20.1453 27.848C20.072 27.968 20.016 27.992 19.892 27.992C19.076 28 18.2653 28.064 17.4533 28.1173C16.6347 28.184 15.8133 28.1334 14.9933 28.1774C14.8667 28.184 14.7413 28.1907 14.616 28.1987C14.6493 28.792 14.6667 29.3867 14.664 29.9814C14.6613 30.6654 14.708 31.3307 14.5493 32.0027C14.4707 32.3427 14.376 32.6774 14.2427 32.9974C14.1053 33.3374 13.9333 33.6627 13.6973 33.9493C13.5613 34.1067 13.4453 34.124 13.2853 33.9907C13.1813 33.9107 13.172 33.86 13.172 33.7547C13.1747 33.1067 13.2053 32.4613 13.2453 31.8173C13.276 31.1733 13.436 30.552 13.508 29.9147C13.5693 29.3667 13.6213 28.816 13.668 28.2667C13.2907 28.2973 12.9147 28.3334 12.5373 28.376C11.7173 28.452 10.8987 28.56 10.0827 28.6853C9.88133 28.7133 9.78133 28.6427 9.74799 28.436C9.71999 28.2533 9.77333 28.1614 9.952 28.1094C10.752 27.8534 11.5733 27.6587 12.396 27.472C12.848 27.3774 13.3013 27.2894 13.7573 27.208ZM17.468 19.896C17.4853 19.9014 17.504 19.9067 17.524 19.9147C17.6787 19.976 17.7213 20.048 17.712 20.2094C17.6867 20.6547 17.6173 21.0973 17.5227 21.5347C17.4187 21.9813 17.2707 22.42 17.0733 22.836C16.8947 23.2147 16.7333 23.6 16.4573 23.9107C17.0387 23.804 17.616 23.6934 18.2013 23.6134C18.412 23.5814 18.5133 23.656 18.54 23.868C18.56 23.9987 18.5333 24.0454 18.4493 24.1267C17.8867 24.6534 17.1947 24.996 16.472 25.2427C15.7613 25.492 15.0267 25.5187 14.2853 25.5734C13.5693 25.6267 12.8493 25.6347 12.1307 25.6107C11.424 25.58 10.7187 25.5307 10.0147 25.4627C9.80533 25.444 9.72799 25.3494 9.74666 25.144C9.75999 24.9534 9.83866 24.8867 10.016 24.872C10.7093 24.8107 11.408 24.776 12.1027 24.6974C12.784 24.628 13.4667 24.5414 14.1413 24.424C14.3427 24.3894 14.5427 24.344 14.74 24.296C14.8053 24.1134 14.8853 23.9413 14.9773 23.7693C15.0773 23.576 15.188 23.3934 15.3053 23.2134C15.524 22.856 15.8387 22.5987 16.0693 22.2627C16.2933 21.9347 16.4907 21.588 16.664 21.2294C16.8493 20.8627 16.9933 20.472 17.1387 20.0867C17.168 20.008 17.2053 19.952 17.2507 19.9187C16.1427 20.04 15.0427 20.2307 13.9507 20.4493C12.6147 20.712 11.2893 21.024 9.96666 21.348C8.756 21.64 7.55066 21.9627 6.32799 22.2094C6.45466 22.516 6.54533 22.836 6.61866 23.1614C6.71733 23.592 6.77466 24.0307 6.81866 24.4693C6.90666 25.34 6.79866 26.2 6.74266 27.068C6.68399 27.9173 6.60934 28.7667 6.52267 29.616C6.42267 30.4627 6.32532 31.308 6.19199 32.1493C6.15999 32.3547 6.06 32.428 5.85467 32.396C5.664 32.3667 5.60267 32.2827 5.60267 32.1013C5.60667 31.2573 5.61866 30.412 5.60932 29.5654C5.61332 28.724 5.608 27.8827 5.58533 27.0414C5.56933 26.1974 5.46933 25.3573 5.50133 24.516C5.52133 23.68 5.56933 22.8467 5.60267 22.0147C5.58667 21.8974 5.61199 21.82 5.67866 21.768C5.70799 21.74 5.74666 21.7214 5.79599 21.712C5.80799 21.708 5.82 21.7053 5.83333 21.7027C7.16133 21.3973 8.464 20.9893 9.77334 20.6187C10.7853 20.328 11.8 20.044 12.8213 19.784C13.004 19.0027 13.236 18.236 13.4547 17.464C13.5147 17.248 13.5813 17.0334 13.6507 16.8214C13.2093 16.8214 12.7693 16.7973 12.3307 16.7493C11.5227 16.6507 10.7253 16.472 9.95333 16.2214C9.75067 16.16 9.69734 16.048 9.75734 15.8493C9.81467 15.6707 9.90266 15.6214 10.084 15.644C10.844 15.76 11.6133 15.848 12.384 15.836C12.9293 15.84 13.476 15.8027 14.0173 15.7254C14.1067 15.4547 14.1893 15.1814 14.2613 14.9054C14.488 14.0454 14.6613 13.168 14.7867 12.284C14.9267 11.3947 15.0053 10.4947 15.0693 9.59336C15.0867 9.39336 15.1747 9.30269 15.3867 9.32269C15.5787 9.33602 15.6467 9.41469 15.66 9.59736C15.7253 10.5214 15.7307 11.448 15.6973 12.3734C15.6493 13.304 15.5493 14.2333 15.392 15.152C15.3733 15.2547 15.356 15.356 15.3387 15.4574C15.848 15.3187 16.352 15.1547 16.8693 15.044C17.2533 14.9614 17.6333 14.872 18.0187 14.7987C18.42 14.7174 18.82 14.6454 19.2267 14.6094C19.436 14.5854 19.5307 14.664 19.5533 14.8747C19.568 15.0134 19.536 15.064 19.44 15.14C18.7747 15.652 18.0253 16.02 17.2413 16.3094C16.5467 16.5707 15.8107 16.6667 15.0773 16.74C14.9787 17.1347 14.86 17.5214 14.7 17.8974C14.4653 18.4627 14.1947 19.012 13.8693 19.528C15.184 19.2267 16.5107 18.9707 17.852 18.82C19.2773 18.6693 20.704 18.616 22.116 18.9134C22.8693 19.0774 23.5947 19.3547 24.22 19.8134C24.3853 19.9374 24.5427 20.0694 24.6933 20.224C24.8707 20.4294 24.9653 20.62 25.0693 20.8707C25.2067 21.236 25.288 21.6094 25.3533 21.996C25.5613 23.4094 25.5373 24.8307 25.3907 26.2507C25.232 27.6547 24.9733 29.0493 24.4987 30.3853C24.248 31.076 23.9427 31.748 23.4907 32.3373C23.2387 32.652 22.944 32.936 22.576 33.1134C22.3787 33.208 22.1613 33.2654 21.94 33.2734C21.7253 33.2787 21.512 33.236 21.312 33.1574C21.12 33.0827 21.0653 32.9707 21.144 32.7747C21.2107 32.5987 21.3053 32.5507 21.4867 32.5934C21.736 32.648 21.9973 32.6067 22.212 32.464C22.4453 32.3107 22.6253 32.0733 22.7693 31.8347C23.0973 31.2907 23.3 30.6694 23.4693 30.0614C23.8053 28.7774 23.9827 27.4534 24.076 26.1307C24.1253 25.4667 24.1507 24.8013 24.1533 24.136C24.156 23.484 24.14 22.8267 24.056 22.18C24.0187 21.888 23.9693 21.5827 23.8747 21.3013C23.8533 21.232 23.8053 21.112 23.7693 21.0627C23.68 20.964 23.5787 20.872 23.4733 20.7894C23.0053 20.4187 22.4267 20.1854 21.8533 20.0414C20.588 19.7334 19.2413 19.7507 17.9507 19.852C17.7893 19.8653 17.628 19.88 17.468 19.896ZM11.0227 21.7387C11.1853 21.8254 11.34 21.9294 11.5027 22.0267C11.6547 22.1267 11.8067 22.2334 11.9507 22.344C12.1427 22.4907 12.3267 22.5187 12.428 22.772C12.4827 22.884 12.516 22.9947 12.5307 23.116C12.552 23.2667 12.5453 23.4094 12.5147 23.5587C12.4707 23.7627 12.4213 23.796 12.2267 23.8134C12.0733 23.8267 11.932 23.8147 11.788 23.7747C11.6667 23.7454 11.56 23.6987 11.4627 23.636C11.2173 23.5 11.212 23.312 11.0907 23.1054C10.9987 22.9467 10.9107 22.784 10.828 22.616C10.7547 22.4467 10.6693 22.2814 10.604 22.1094C10.5267 21.9107 10.576 21.7987 10.7747 21.7227C10.888 21.6787 10.9333 21.6907 11.0227 21.7387Z" fill="#231F20"/>
</svg>
