<svg width="31" height="43" viewBox="0 0 31 43" fill="none" xmlns="http://www.w3.org/2000/svg">
<rect width="31" height="43" rx="5" fill="white"/>
<path d="M20.1242 13.672C19.9002 13.672 19.7002 13.76 19.5242 13.936C19.3642 14.096 19.2842 14.288 19.2842 14.512V15.64C19.2842 15.864 19.3642 16.064 19.5242 16.24C19.7002 16.4 19.9002 16.48 20.1242 16.48H22.6922C22.9162 16.48 23.1082 16.568 23.2682 16.744C23.4282 16.904 23.5082 17.096 23.5082 17.32V30.904C23.5082 31.128 23.4522 31.376 23.3402 31.648C23.2282 31.936 23.0922 32.152 22.9322 32.296L22.3322 32.896C22.1562 33.072 21.9322 33.216 21.6602 33.328C21.3882 33.44 21.1322 33.496 20.8922 33.496H8.31622C8.09222 33.496 7.90022 33.464 7.74022 33.4C7.58022 33.336 7.50022 33.256 7.50022 33.16V17.32C7.50022 17.096 7.58022 16.904 7.74022 16.744C7.90022 16.568 8.09222 16.48 8.31622 16.48H10.8842C11.1242 16.48 11.3242 16.4 11.4842 16.24C11.6602 16.064 11.7482 15.864 11.7482 15.64V14.512C11.7482 14.288 11.6602 14.096 11.4842 13.936C11.3242 13.76 11.1242 13.672 10.8842 13.672H8.31622C8.09222 13.672 7.90022 13.592 7.74022 13.432C7.58022 13.272 7.50022 13.072 7.50022 12.832V12.28C7.50022 12.056 7.58022 11.864 7.74022 11.704C7.90022 11.544 8.09222 11.464 8.31622 11.464H22.6922C22.9162 11.464 23.1082 11.544 23.2682 11.704C23.4282 11.864 23.5082 12.056 23.5082 12.28V12.832C23.5082 13.072 23.4282 13.272 23.2682 13.432C23.1082 13.592 22.9162 13.672 22.6922 13.672H20.1242ZM17.0762 14.512C17.0762 14.288 16.9882 14.096 16.8122 13.936C16.6522 13.76 16.4522 13.672 16.2122 13.672H14.8202C14.5962 13.672 14.4042 13.76 14.2442 13.936C14.0842 14.096 14.0042 14.288 14.0042 14.512V15.64C14.0042 15.864 14.0842 16.064 14.2442 16.24C14.4042 16.4 14.5962 16.48 14.8202 16.48H16.2122C16.4522 16.48 16.6522 16.4 16.8122 16.24C16.9882 16.064 17.0762 15.864 17.0762 15.64V14.512ZM20.4362 31.264C20.6762 31.264 20.8762 31.184 21.0362 31.024C21.1962 30.864 21.2762 30.664 21.2762 30.424V30.112C21.2762 29.888 21.1962 29.696 21.0362 29.536C20.8762 29.376 20.6762 29.296 20.4362 29.296H19.6922C19.4682 29.296 19.2122 29.24 18.9242 29.128C18.6522 29 18.4202 28.856 18.2282 28.696L17.6762 28.096C17.5002 27.92 17.3562 27.696 17.2442 27.424C17.1322 27.152 17.0762 26.896 17.0762 26.656V19.528C17.0762 19.304 16.9882 19.112 16.8122 18.952C16.6522 18.776 16.4522 18.688 16.2122 18.688H14.8202C14.5962 18.688 14.4042 18.776 14.2442 18.952C14.0842 19.112 14.0042 19.304 14.0042 19.528V26.656C14.0042 26.88 13.9402 27.136 13.8122 27.424C13.7002 27.696 13.5562 27.92 13.3802 28.096L12.7802 28.696C12.5882 28.856 12.3562 29 12.0842 29.128C11.8122 29.24 11.5642 29.296 11.3402 29.296H10.5722C10.3322 29.296 10.1322 29.376 9.97222 29.536C9.81222 29.696 9.73222 29.888 9.73222 30.112V30.424C9.73222 30.664 9.81222 30.864 9.97222 31.024C10.1322 31.184 10.3322 31.264 10.5722 31.264H20.4362ZM10.5722 18.688C10.3322 18.688 10.1322 18.776 9.97222 18.952C9.81222 19.112 9.73222 19.304 9.73222 19.528V26.224C9.73222 26.448 9.81222 26.64 9.97222 26.8C10.1322 26.96 10.3322 27.04 10.5722 27.04H10.8842C11.1242 27.04 11.3242 26.96 11.4842 26.8C11.6602 26.64 11.7482 26.448 11.7482 26.224V19.528C11.7482 19.304 11.6602 19.112 11.4842 18.952C11.3242 18.776 11.1242 18.688 10.8842 18.688H10.5722ZM20.1242 18.688C19.9002 18.688 19.7002 18.776 19.5242 18.952C19.3642 19.112 19.2842 19.304 19.2842 19.528V26.224C19.2842 26.448 19.3642 26.64 19.5242 26.8C19.7002 26.96 19.9002 27.04 20.1242 27.04H20.4362C20.6762 27.04 20.8762 26.96 21.0362 26.8C21.1962 26.64 21.2762 26.448 21.2762 26.224V19.528C21.2762 19.304 21.1962 19.112 21.0362 18.952C20.8762 18.776 20.6762 18.688 20.4362 18.688H20.1242Z" fill="#181818"/>
</svg>
