<svg width="31" height="43" viewBox="0 0 31 43" fill="none" xmlns="http://www.w3.org/2000/svg">
<path fill-rule="evenodd" clip-rule="evenodd" d="M17.6294 13.684C17.6254 14.1987 17.5707 14.7093 17.5294 15.2227C17.4787 15.8133 17.4294 16.4053 17.3987 16.9973C17.3614 17.596 17.3387 18.204 17.3561 18.8093C18.8587 18.6187 20.3667 18.464 21.8814 18.3813C22.5801 18.348 23.2801 18.3293 23.9801 18.372C24.3614 18.3987 24.732 18.4373 25.104 18.5347C25.212 18.564 25.3174 18.5987 25.4201 18.64C25.4801 18.664 25.54 18.6933 25.6027 18.7267C25.6467 18.752 25.6827 18.7747 25.728 18.8067C25.7774 18.8453 25.82 18.888 25.8694 18.9387C26.0774 19.188 26.1374 19.3907 26.2161 19.7013C26.2894 20.0853 26.3014 20.464 26.2987 20.8547C26.292 21.2107 26.2707 21.568 26.2334 21.9227C26.1614 22.6147 26.0467 23.3 25.9107 23.984C25.6307 25.3307 25.2774 26.664 24.8307 27.9667C24.608 28.6213 24.3587 29.2667 24.076 29.9C23.9294 30.216 23.776 30.5307 23.6054 30.836C23.4294 31.152 23.2374 31.46 22.996 31.7333C22.8614 31.8867 22.7347 31.9 22.576 31.7573C22.4414 31.6373 22.4281 31.54 22.5187 31.388C22.8467 30.8253 23.0614 30.2027 23.2561 29.584C23.3001 29.444 23.3427 29.3053 23.3854 29.164C22.7681 29.0453 22.1361 29.092 21.5147 29.1333C20.8561 29.1893 20.2014 29.2627 19.5481 29.3493C18.2161 29.5307 16.8747 29.612 15.5387 29.7627C14.192 29.9093 12.8467 30.0627 11.4934 30.1627C10.8107 30.2053 10.1254 30.236 9.44005 30.2293C8.98138 30.2213 8.52271 30.2027 8.07071 30.14C8.13871 30.488 8.22405 30.8333 8.33871 31.1733C8.40805 31.3653 8.36273 31.4813 8.16007 31.552C8.01207 31.6067 7.94806 31.5733 7.85072 31.4853C7.45606 31.0893 7.17871 30.588 6.97071 30.076C6.76671 29.584 6.62939 29.0693 6.51606 28.5507C6.29339 27.5413 6.30273 26.524 6.22139 25.5013C6.14939 24.524 6.06671 23.54 5.87338 22.576C5.69605 21.6587 5.41604 20.724 4.79604 20.0053C4.65737 19.8467 4.67073 19.7213 4.8254 19.5853C4.97473 19.4547 5.08539 19.4693 5.21739 19.5893C5.54806 19.884 5.82272 20.24 6.04539 20.624C8.02938 20.2747 10.0134 19.9213 12.0014 19.5947C12.0294 18.652 11.9614 17.708 12.0054 16.7667C12.028 16.236 12.0481 15.7067 12.0921 15.1773C12.1227 14.8 12.1587 14.424 12.2174 14.0507C12.0547 14.052 11.8934 14.052 11.732 14.052C11.108 14.044 10.4854 14.0187 9.86537 13.968C9.23871 13.9173 8.61204 13.8373 7.99871 13.6947C7.79604 13.648 7.72938 13.5427 7.77738 13.34C7.82005 13.1493 7.91071 13.092 8.10004 13.1107C9.29604 13.2533 10.5054 13.22 11.7054 13.1373C12.9147 13.0613 14.1187 12.924 15.3174 12.7453C16.5214 12.5707 17.7054 12.284 18.9067 12.112L22.5254 11.5507C22.7307 11.5173 22.832 11.588 22.864 11.7947C22.892 11.956 22.8521 12.0253 22.7201 12.1C22.1667 12.424 21.5747 12.6693 20.972 12.8813C20.3787 13.0907 19.772 13.2573 19.1614 13.4053C18.6547 13.5293 18.144 13.616 17.6294 13.684ZM16.9974 13.756C16.4827 13.8093 15.9667 13.8493 15.4494 13.8947C14.6321 13.9627 13.8107 14.012 12.9894 14.036C13.1614 14.9333 13.2694 15.84 13.3241 16.752C13.3827 17.636 13.3121 18.5187 13.2121 19.3973C13.3961 19.368 13.5814 19.34 13.7667 19.3107C14.6134 19.1853 15.4614 19.0613 16.3094 18.9453C16.332 18.2667 16.3987 17.5867 16.4867 16.908C16.5707 16.312 16.672 15.7187 16.7747 15.1267C16.8494 14.6707 16.9414 14.216 16.9974 13.756ZM17.4227 19.8293C17.4454 20.036 17.4734 20.2413 17.508 20.4453C17.6787 21.4387 18.1107 22.4747 18.9067 23.128C19.292 23.452 19.7734 23.652 20.2547 23.78C20.8041 23.9227 21.38 23.9787 21.9427 24.02C22.156 24.0347 22.2281 24.132 22.2187 24.3387C22.2054 24.4933 22.1587 24.5533 22.0134 24.6C21.3921 24.7973 20.7361 24.8867 20.0867 24.844C19.3854 24.8027 18.6947 24.5827 18.1147 24.184C17.5254 23.7787 17.0747 23.176 16.808 22.516C16.564 21.9027 16.4307 21.2613 16.3627 20.6067C16.3387 20.3853 16.3227 20.164 16.3134 19.9427C15.5041 20.0293 14.6961 20.1227 13.8881 20.2187C13.6254 20.248 13.3614 20.28 13.0987 20.3107C12.9574 21.2933 12.7494 22.268 12.3894 23.1973C12.1774 23.72 11.9134 24.2253 11.5747 24.676C11.2294 25.136 10.7881 25.536 10.2774 25.8053C10.0947 25.9013 9.97605 25.868 9.87471 25.6787C9.79205 25.5133 9.81204 25.4053 9.97071 25.3C10.7854 24.7373 11.2547 23.8267 11.5254 22.8947C11.7654 22.1027 11.8867 21.2773 11.9521 20.4507C10.0787 20.6853 8.20671 20.9413 6.33471 21.1947C6.50537 21.572 6.6427 21.9627 6.7627 22.36C7.04537 23.3453 7.21338 24.3587 7.37205 25.372C7.52005 26.36 7.71872 27.344 7.81739 28.3373C7.86272 28.7187 7.9054 29.1 7.95873 29.4773C8.4454 29.516 8.93606 29.496 9.42006 29.4693C10.0827 29.424 10.7427 29.344 11.4014 29.2507C12.732 29.0733 14.0547 28.8413 15.3787 28.616C16.7267 28.3933 18.0614 28.1 19.4294 28.036C20.1267 28.0027 20.8254 27.992 21.5227 28.0547C22.2241 28.124 22.9334 28.2333 23.5534 28.58C23.6374 28.2747 23.7174 27.968 23.7947 27.66C24.116 26.3653 24.3961 25.06 24.6134 23.7427C24.7227 23.092 24.8187 22.4387 24.8881 21.7827C24.9214 21.4627 24.9534 21.1413 24.964 20.82C24.9747 20.536 24.9774 20.2267 24.9267 19.9427C24.9214 19.9027 24.916 19.852 24.9027 19.8093C24.8547 19.788 24.8014 19.7693 24.7521 19.7547C24.4721 19.668 24.1694 19.6253 23.8801 19.5973C23.2294 19.5333 22.5734 19.5293 21.9214 19.5387C20.4187 19.576 18.9187 19.6853 17.4227 19.8293Z" fill="#231F20"/>
</svg>
